<?xml version="1.0" encoding="UTF-8" standalone="no"?><svg xmlns="http://www.w3.org/2000/svg" xmlns:xlink="http://www.w3.org/1999/xlink" contentStyleType="text/css" height="510px" preserveAspectRatio="none" style="width:736px;height:510px;background:#FFFFFF;" version="1.1" viewBox="0 0 736 510" width="736px" zoomAndPan="magnify"><defs/><g><g id="elem_EB"><ellipse cx="402.5624" cy="349.0473" fill="#F1F1F1" rx="39.0624" ry="26.0473" style="stroke:#181818;stroke-width:0.5;"/><text fill="#000000" font-family="sans-serif" font-size="14" lengthAdjust="spacing" textLength="39" x="383.0624" y="343.7455">Event</text><text fill="#000000" font-family="sans-serif" font-size="14" lengthAdjust="spacing" textLength="27" x="389.0624" y="360.0424">Bus</text></g><g id="elem_SPRING"><ellipse cx="566.3991" cy="349.1113" fill="#F1F1F1" rx="42.8991" ry="14.6113" style="stroke:#181818;stroke-width:0.5;"/><text fill="#000000" font-family="sans-serif" font-size="14" lengthAdjust="spacing" textLength="44" x="541.3991" y="352.8588">Spring</text></g><g id="elem_EL"><ellipse cx="395.3762" cy="173.0473" fill="#F1F1F1" rx="50.3762" ry="26.0473" style="stroke:#181818;stroke-width:0.5;"/><text fill="#000000" font-family="sans-serif" font-size="14" lengthAdjust="spacing" textLength="39" x="375.8762" y="167.7455">Event</text><text fill="#000000" font-family="sans-serif" font-size="14" lengthAdjust="spacing" textLength="55" x="367.8762" y="184.0424">Listener</text></g><g id="elem_UIE"><ellipse cx="233.5624" cy="349.0473" fill="#F1F1F1" rx="39.0624" ry="26.0473" style="stroke:#181818;stroke-width:0.5;"/><text fill="#000000" font-family="sans-serif" font-size="14" lengthAdjust="spacing" textLength="13" x="227.0624" y="343.7455">UI</text><text fill="#000000" font-family="sans-serif" font-size="14" lengthAdjust="spacing" textLength="39" x="214.0624" y="360.0424">Event</text></g><g id="elem_TUIE"><ellipse cx="54.2548" cy="478.0473" fill="#F1F1F1" rx="48.2548" ry="26.0473" style="stroke:#181818;stroke-width:0.5;"/><text fill="#000000" font-family="sans-serif" font-size="14" lengthAdjust="spacing" textLength="29" x="39.7548" y="472.7455">Title</text><text fill="#000000" font-family="sans-serif" font-size="14" lengthAdjust="spacing" textLength="52" x="28.2548" y="489.0424">UIEvent</text></g><g id="elem_IUIE"><ellipse cx="171.2548" cy="478.0473" fill="#F1F1F1" rx="48.2548" ry="26.0473" style="stroke:#181818;stroke-width:0.5;"/><text fill="#000000" font-family="sans-serif" font-size="14" lengthAdjust="spacing" textLength="29" x="156.7548" y="472.7455">Icon</text><text fill="#000000" font-family="sans-serif" font-size="14" lengthAdjust="spacing" textLength="52" x="145.2548" y="489.0424">UIEvent</text></g><g id="elem_CCUIE"><ellipse cx="296.533" cy="478.0473" fill="#F1F1F1" rx="56.033" ry="26.0473" style="stroke:#181818;stroke-width:0.5;"/><text fill="#000000" font-family="sans-serif" font-size="14" lengthAdjust="spacing" textLength="63" x="265.033" y="472.7455">CssClass</text><text fill="#000000" font-family="sans-serif" font-size="14" lengthAdjust="spacing" textLength="52" x="270.533" y="489.0424">UIEvent</text></g><g id="elem_LUIE"><ellipse cx="421.2548" cy="478.0473" fill="#F1F1F1" rx="48.2548" ry="26.0473" style="stroke:#181818;stroke-width:0.5;"/><text fill="#000000" font-family="sans-serif" font-size="14" lengthAdjust="spacing" textLength="45" x="398.7548" y="472.7455">Layout</text><text fill="#000000" font-family="sans-serif" font-size="14" lengthAdjust="spacing" textLength="52" x="395.2548" y="489.0424">UIEvent</text></g><g id="elem_DO"><ellipse cx="269.4619" cy="173.0473" fill="#F1F1F1" rx="48.9619" ry="26.0473" style="stroke:#181818;stroke-width:0.5;"/><text fill="#000000" font-family="sans-serif" font-size="14" lengthAdjust="spacing" textLength="53" x="242.9619" y="167.7455">Domain</text><text fill="#000000" font-family="sans-serif" font-size="14" lengthAdjust="spacing" textLength="45" x="246.9619" y="184.0424">Object</text></g><g id="elem_PST"><ellipse cx="329.74" cy="22.048" fill="#F1F1F1" rx="68.24" ry="16.048" style="stroke:#181818;stroke-width:0.5;"/><text fill="#000000" font-family="sans-serif" font-size="14" lengthAdjust="spacing" textLength="88" x="282.74" y="25.7956">Presentation</text></g><g id="elem_GMN29"><path d="M466,115 L466,169 L446.39,173 L466,177 L466,230.9297 A0,0 0 0 0 466,230.9297 L729,230.9297 A0,0 0 0 0 729,230.9297 L729,125 L719,115 L466,115 A0,0 0 0 0 466,115 " fill="#FEFFDD" style="stroke:#181818;stroke-width:0.5;"/><path d="M719,115 L719,125 L729,125 L719,115 " fill="#FEFFDD" style="stroke:#181818;stroke-width:0.5;"/><text fill="#000000" font-family="sans-serif" font-size="13" lengthAdjust="spacing" textLength="210" x="472" y="132.0669">When DomainObject implements</text><text fill="#000000" font-family="sans-serif" font-size="13" lengthAdjust="spacing" textLength="242" x="472" y="147.1997">respective supporting methods itself (</text><ellipse cx="477.5" cy="157.8984" fill="#000000" rx="2.5" ry="2.5" style="stroke:#000000;stroke-width:0.0;"/><text fill="#000000" font-family="sans-serif" font-size="13" lengthAdjust="spacing" textLength="38" x="484" y="162.3325">title(),</text><ellipse cx="477.5" cy="173.0313" fill="#000000" rx="2.5" ry="2.5" style="stroke:#000000;stroke-width:0.0;"/><text fill="#000000" font-family="sans-serif" font-size="13" lengthAdjust="spacing" textLength="79" x="484" y="177.4653">iconName(),</text><ellipse cx="477.5" cy="188.1641" fill="#000000" rx="2.5" ry="2.5" style="stroke:#000000;stroke-width:0.0;"/><text fill="#000000" font-family="sans-serif" font-size="13" lengthAdjust="spacing" textLength="69" x="484" y="192.5981">cssClass(),</text><ellipse cx="477.5" cy="203.2969" fill="#000000" rx="2.5" ry="2.5" style="stroke:#000000;stroke-width:0.0;"/><text fill="#000000" font-family="sans-serif" font-size="13" lengthAdjust="spacing" textLength="58" x="484" y="207.731">layout()),</text><text fill="#000000" font-family="sans-serif" font-size="13" lengthAdjust="spacing" textLength="177" x="472" y="222.8638">modification is not possible.</text></g><!--reverse link EB to SPRING--><g id="link_EB_SPRING"><path d="M448.26,349 C471.71,349 500.12,349 523.22,349 " fill="none" id="EB-backto-SPRING" style="stroke:#181818;stroke-width:1.0;stroke-dasharray:7.0,7.0;"/><polygon fill="#181818" points="443.3,349,452.3,353,448.3,349,452.3,345,443.3,349" style="stroke:#181818;stroke-width:1.0;"/><text fill="#000000" font-family="sans-serif" font-size="13" lengthAdjust="spacing" textLength="58" x="453.5" y="327.0669">provides/</text><text fill="#000000" font-family="sans-serif" font-size="13" lengthAdjust="spacing" textLength="60" x="452.5" y="342.1997">manages</text></g><!--link EL to EB--><g id="link_EL_EB"><path d="M396.52,199.3 C397.76,230.23 399.87,282.59 401.22,316.21 " fill="none" id="EL-to-EB" style="stroke:#181818;stroke-width:1.0;"/><polygon fill="#181818" points="401.42,321.16,405.0571,312.0073,401.2202,316.164,397.0635,312.3271,401.42,321.16" style="stroke:#181818;stroke-width:1.0;"/><text fill="#000000" font-family="sans-serif" font-size="13" lengthAdjust="spacing" textLength="58" x="427.5" y="274.0669">listens to</text><text fill="#000000" font-family="sans-serif" font-size="13" lengthAdjust="spacing" textLength="110" x="405.5" y="289.1997">(is subscribed to)</text></g><!--link UIE to EB--><g id="link_UIE_EB"><path d="M272.7,349 C297.88,349 330.69,349 357.02,349 " fill="none" id="UIE-to-EB" style="stroke:#181818;stroke-width:1.0;"/><polygon fill="#181818" points="361.71,349,352.71,345,356.71,349,352.71,353,361.71,349" style="stroke:#181818;stroke-width:1.0;"/><text fill="#000000" font-family="sans-serif" font-size="13" lengthAdjust="spacing" textLength="10" x="311" y="312.0669">is</text><text fill="#000000" font-family="sans-serif" font-size="13" lengthAdjust="spacing" textLength="61" x="287.5" y="327.1997">published</text><text fill="#000000" font-family="sans-serif" font-size="13" lengthAdjust="spacing" textLength="13" x="313.5" y="342.3325">to</text></g><!--reverse link UIE to TUIE--><g id="link_UIE_TUIE"><path d="M202.26,372.17 C168.69,395.98 115.79,433.52 83.23,456.62 " fill="none" id="UIE-backto-TUIE" style="stroke:#181818;stroke-width:1.0;"/><polygon fill="#181818" points="206.24,369.34,196.5843,371.2809,202.1607,372.2313,201.2103,377.8077,206.24,369.34" style="stroke:#181818;stroke-width:1.0;"/><text fill="#000000" font-family="sans-serif" font-size="13" lengthAdjust="spacing" textLength="22" x="156.5" y="418.0669">is a</text></g><!--reverse link UIE to IUIE--><g id="link_UIE_IUIE"><path d="M218.89,379.92 C208.1,402.03 193.59,431.76 183.47,452.47 " fill="none" id="UIE-backto-IUIE" style="stroke:#181818;stroke-width:1.0;"/><polygon fill="#181818" points="221.03,375.55,213.4836,381.8786,218.8339,380.0419,220.6706,385.3923,221.03,375.55" style="stroke:#181818;stroke-width:1.0;"/><text fill="#000000" font-family="sans-serif" font-size="13" lengthAdjust="spacing" textLength="22" x="207.5" y="418.0669">is a</text></g><!--reverse link UIE to CCUIE--><g id="link_UIE_CCUIE"><path d="M248.34,379.92 C259.31,402.03 274.06,431.76 284.33,452.47 " fill="none" id="UIE-backto-CCUIE" style="stroke:#181818;stroke-width:1.0;"/><polygon fill="#181818" points="246.17,375.54,246.6046,385.3793,248.4003,380.015,253.7646,381.8107,246.17,375.54" style="stroke:#181818;stroke-width:1.0;"/><text fill="#000000" font-family="sans-serif" font-size="13" lengthAdjust="spacing" textLength="22" x="270.5" y="418.0669">is a</text></g><!--reverse link UIE to LUIE--><g id="link_UIE_LUIE"><path d="M265.5,371.61 C300.87,395.51 357.4,433.7 391.82,456.95 " fill="none" id="UIE-backto-LUIE" style="stroke:#181818;stroke-width:1.0;"/><polygon fill="#181818" points="261.69,369.04,266.9068,377.3937,265.8326,371.8398,271.3865,370.7656,261.69,369.04" style="stroke:#181818;stroke-width:1.0;"/><text fill="#000000" font-family="sans-serif" font-size="13" lengthAdjust="spacing" textLength="22" x="340.5" y="418.0669">is a</text></g><!--link DO to UIE--><g id="link_DO_UIE"><path d="M264.27,199.3 C257.82,230.45 246.88,283.33 239.93,316.91 " fill="none" id="DO-to-UIE" style="stroke:#181818;stroke-width:1.0;"/><polygon fill="#181818" points="238.99,321.47,244.7313,313.4676,240.0035,316.5738,236.8973,311.846,238.99,321.47" style="stroke:#181818;stroke-width:1.0;"/><text fill="#000000" font-family="sans-serif" font-size="13" lengthAdjust="spacing" textLength="33" x="205.8716" y="219.1772">when</text><text fill="#000000" font-family="sans-serif" font-size="13" lengthAdjust="spacing" textLength="62" x="193.3716" y="234.31">rendered,</text><text fill="#000000" font-family="sans-serif" font-size="13" lengthAdjust="spacing" textLength="51" x="198.8716" y="249.4429">leads to</text><text fill="#000000" font-family="sans-serif" font-size="13" lengthAdjust="spacing" textLength="57" x="195.8716" y="264.5757">emission</text><text fill="#000000" font-family="sans-serif" font-size="13" lengthAdjust="spacing" textLength="12" x="218.3716" y="279.7085">of</text></g><!--reverse link PST to DO--><g id="link_PST_DO"><path d="M320.97,44.18 C310.04,71.32 291.14,118.27 279.53,147.08 " fill="none" id="PST-backto-DO" style="stroke:#181818;stroke-width:1.0;"/><polygon fill="#181818" points="322.74,39.79,315.6654,46.642,320.8708,44.4274,323.0853,49.6328,322.74,39.79" style="stroke:#181818;stroke-width:1.0;"/><text fill="#000000" font-family="sans-serif" font-size="13" lengthAdjust="spacing" textLength="23" x="311.5" y="81.0669">has</text></g><!--reverse link PST to EL--><g id="link_PST_EL"><path d="M338.89,44.2 C350.95,71.42 371.83,118.56 384.58,147.35 " fill="none" id="PST-backto-EL" style="stroke:#181818;stroke-width:1.0;"/><polygon fill="#181818" points="336.93,39.77,336.9243,49.6189,338.958,44.3402,344.2367,46.374,336.93,39.77" style="stroke:#181818;stroke-width:1.0;"/><text fill="#000000" font-family="sans-serif" font-size="13" lengthAdjust="spacing" textLength="70" x="358.5" y="81.0669">can modify</text></g><!--SRC=[RL9DRzim3BthLn0zAKMJ3Zlkq4EJO31WDC6Ie1TVP9k9jUeBefmX_twKdBO8seDjadhlyOaqlMaNL5GMdE-HCC3F7qB8zHbTQjppI3DG1Ejd8NSXQdSgwMxxfthvBQOFBCpYYH7m2qBqPyqgZuspogaJqeTIhIcXmpZ9rM9Tmtn-fPboHf0yD0wa9g2nfIxg5dikpjZFeMfSKIhyGxKM_C0ylaimXwbXR5bhO1OdoJDlhvF1nZ7uWxpFx7sXZqpFGU4h8QlEkrjmbS7LTs0XbqHBeuXk6SjbffJtrmQrklWntHBgZA-_RI7aobkbsTEc_OlTX5zjn6e3T_y6TFcQ4LsF4Vk7d1XK_ViSqMeYxJF87-_c_QJDcjl8UtP99JuiYjlTFakMzXnp-q5HsT1dfLCEhE_ryIASJmXHduO4_fXt-PgjJ4uddw1jC6Yv2Gbk5hYapyXR3S77n7yHM4o3Pwiw4PeZI74FAQzApXuurBo75sMlMNUTyvIPCa8vuwJuqLsvI9uO6uFW-TAjmONWkUGA_WS0]--></g></svg>