<?xml version="1.0" encoding="UTF-8" standalone="no"?><svg xmlns="http://www.w3.org/2000/svg" xmlns:xlink="http://www.w3.org/1999/xlink" contentStyleType="text/css" height="369px" preserveAspectRatio="none" style="width:854px;height:369px;background:#FFFFFF;" version="1.1" viewBox="0 0 854 369" width="854px" zoomAndPan="magnify"><defs/><g><g id="elem_DO"><ellipse cx="613.9619" cy="118.0473" fill="#F1F1F1" rx="48.9619" ry="26.0473" style="stroke:#181818;stroke-width:0.5;"/><text fill="#000000" font-family="sans-serif" font-size="14" lengthAdjust="spacing" textLength="53" x="587.4619" y="112.7455">Domain</text><text fill="#000000" font-family="sans-serif" font-size="14" lengthAdjust="spacing" textLength="45" x="591.4619" y="129.0424">Object</text></g><g id="elem_E"><ellipse cx="705.9534" cy="228.0556" fill="#F1F1F1" rx="38.4534" ry="14.5556" style="stroke:#181818;stroke-width:0.5;"/><text fill="#000000" font-family="sans-serif" font-size="14" lengthAdjust="spacing" textLength="38" x="685.0903" y="231.5095">Entity</text></g><g id="elem_VM"><ellipse cx="606.1838" cy="228.0473" fill="#F1F1F1" rx="41.1838" ry="26.0473" style="stroke:#181818;stroke-width:0.5;"/><text fill="#000000" font-family="sans-serif" font-size="14" lengthAdjust="spacing" textLength="32" x="590.1838" y="222.7455">View</text><text fill="#000000" font-family="sans-serif" font-size="14" lengthAdjust="spacing" textLength="42" x="585.1838" y="239.0424">Model</text></g><g id="elem_M"><ellipse cx="373.0514" cy="118.0323" fill="#F1F1F1" rx="35.5514" ry="14.5323" style="stroke:#181818;stroke-width:0.5;"/><text fill="#000000" font-family="sans-serif" font-size="14" lengthAdjust="spacing" textLength="34" x="355.1581" y="121.1955">Mixin</text></g><g id="elem_ME"><ellipse cx="468.9237" cy="118.0719" fill="#F1F1F1" rx="39.9237" ry="14.5719" style="stroke:#181818;stroke-width:0.5;"/><text fill="#000000" font-family="sans-serif" font-size="14" lengthAdjust="spacing" textLength="40" x="446.5405" y="121.6655">Mixee</text></g><g id="elem_MB"><ellipse cx="373.1007" cy="228.215" fill="#F1F1F1" rx="52.6007" ry="14.715" style="stroke:#181818;stroke-width:0.5;"/><text fill="#000000" font-family="sans-serif" font-size="14" lengthAdjust="spacing" textLength="57" x="341.6007" y="231.9626">Member</text></g><g id="elem_P"><ellipse cx="293.8472" cy="337.2215" fill="#F1F1F1" rx="53.3472" ry="14.7215" style="stroke:#181818;stroke-width:0.5;"/><text fill="#000000" font-family="sans-serif" font-size="14" lengthAdjust="spacing" textLength="58" x="261.8472" y="340.969">Property</text></g><g id="elem_C"><ellipse cx="428.813" cy="336.7771" fill="#F1F1F1" rx="60.813" ry="14.7771" style="stroke:#181818;stroke-width:0.5;"/><text fill="#000000" font-family="sans-serif" font-size="14" lengthAdjust="spacing" textLength="68" x="391.813" y="340.5247">Collection</text></g><g id="elem_A"><ellipse cx="178.1531" cy="337.1013" fill="#F1F1F1" rx="42.1531" ry="14.6013" style="stroke:#181818;stroke-width:0.5;"/><text fill="#000000" font-family="sans-serif" font-size="14" lengthAdjust="spacing" textLength="43" x="153.6531" y="340.8489">Action</text></g><g id="elem_FW"><ellipse cx="606.0656" cy="337.1131" fill="#F1F1F1" rx="83.5656" ry="19.1131" style="stroke:#181818;stroke-width:0.5;"/><text fill="#000000" font-family="sans-serif" font-size="14" font-style="italic" lengthAdjust="spacing" textLength="127" x="542.1623" y="340.0974">Apache Causeway</text></g><g id="elem_PL"><ellipse cx="778.968" cy="337.0473" fill="#F1F1F1" rx="69.468" ry="26.0473" style="stroke:#181818;stroke-width:0.5;"/><text fill="#000000" font-family="sans-serif" font-size="14" lengthAdjust="spacing" textLength="82" x="737.968" y="331.7455">Persistence</text><text fill="#000000" font-family="sans-serif" font-size="14" lengthAdjust="spacing" textLength="36" x="760.968" y="348.0424">Layer</text></g><g id="elem_S"><ellipse cx="54.8761" cy="118.1644" fill="#F1F1F1" rx="47.3761" ry="14.6644" style="stroke:#181818;stroke-width:0.5;"/><text fill="#000000" font-family="sans-serif" font-size="14" lengthAdjust="spacing" textLength="50" x="26.8761" y="121.9119">Service</text></g><g id="elem_DS"><ellipse cx="54.9619" cy="228.0473" fill="#F1F1F1" rx="48.9619" ry="26.0473" style="stroke:#181818;stroke-width:0.5;"/><text fill="#000000" font-family="sans-serif" font-size="14" lengthAdjust="spacing" textLength="53" x="28.4619" y="222.7455">Domain</text><text fill="#000000" font-family="sans-serif" font-size="14" lengthAdjust="spacing" textLength="50" x="29.9619" y="239.0424">Service</text></g><g id="elem_SPRING"><ellipse cx="54.8991" cy="20.6113" fill="#F1F1F1" rx="42.8991" ry="14.6113" style="stroke:#181818;stroke-width:0.5;"/><text fill="#000000" font-family="sans-serif" font-size="14" font-style="italic" lengthAdjust="spacing" textLength="44" x="29.8991" y="24.3588">Spring</text></g><!--reverse link DO to VM--><g id="link_DO_VM"><path d="M611.66,150.63 C610.45,166.94 609,186.57 607.86,201.84 " fill="none" id="DO-backto-VM" style="stroke:#181818;stroke-width:1.0;"/><polygon fill="#181818" points="612.01,145.83,607.3524,154.508,611.6385,150.8162,615.3303,155.1023,612.01,145.83" style="stroke:#181818;stroke-width:1.0;"/><text fill="#000000" font-family="sans-serif" font-size="13" lengthAdjust="spacing" textLength="22" x="583.7039" y="191.1274">is a</text></g><!--reverse link DO to E--><g id="link_DO_E"><path d="M637.78,146.91 C656.08,168.4 680.57,197.15 694.68,213.72 " fill="none" id="DO-backto-E" style="stroke:#181818;stroke-width:1.0;"/><polygon fill="#181818" points="634.72,143.32,637.5196,152.7626,637.9657,147.1233,643.6049,147.5694,634.72,143.32" style="stroke:#181818;stroke-width:1.0;"/><text fill="#000000" font-family="sans-serif" font-size="13" lengthAdjust="spacing" textLength="22" x="664.1883" y="202.4874">is a</text></g><!--reverse link VM to FW--><g id="link_VM_FW"><path d="M606,260.47 C606,279.02 606,301.84 606,317.52 " fill="none" id="VM-backto-FW" style="stroke:#181818;stroke-width:1.0;stroke-dasharray:7.0,7.0;"/><polygon fill="#181818" points="606,255.87,602,264.87,606,260.87,610,264.87,606,255.87" style="stroke:#181818;stroke-width:1.0;"/><text fill="#000000" font-family="sans-serif" font-size="13" lengthAdjust="spacing" textLength="60" x="607" y="299.0669">manages</text></g><!--reverse link E to PL--><g id="link_E_PL"><path d="M718.79,247.75 C730.88,265.47 749.1,292.18 762.33,311.57 " fill="none" id="E-backto-PL" style="stroke:#181818;stroke-width:1.0;stroke-dasharray:7.0,7.0;"/><polygon fill="#181818" points="716.1,243.8,717.8641,253.4896,718.9162,247.9314,724.4744,248.9836,716.1,243.8" style="stroke:#181818;stroke-width:1.0;"/><text fill="#000000" font-family="sans-serif" font-size="13" lengthAdjust="spacing" textLength="60" x="756" y="299.0669">manages</text></g><!--reverse link MB to P--><g id="link_MB_P"><path d="M359.2,247.69 C343.39,269.1 317.89,303.64 303.92,322.56 " fill="none" id="MB-backto-P" style="stroke:#181818;stroke-width:1.0;"/><polygon fill="#181818" points="362.1,243.77,353.5304,248.624,359.1252,247.7888,359.9605,253.3837,362.1,243.77" style="stroke:#181818;stroke-width:1.0;"/><text fill="#000000" font-family="sans-serif" font-size="13" lengthAdjust="spacing" textLength="22" x="281.5781" y="311.4793">is a</text></g><!--reverse link MB to C--><g id="link_MB_C"><path d="M383.04,248.17 C394.12,269.36 411.71,302.97 421.61,321.88 " fill="none" id="MB-backto-C" style="stroke:#181818;stroke-width:1.0;"/><polygon fill="#181818" points="380.79,243.89,381.4133,253.7191,383.1058,248.3214,388.5035,250.0139,380.79,243.89" style="stroke:#181818;stroke-width:1.0;"/><text fill="#000000" font-family="sans-serif" font-size="13" lengthAdjust="spacing" textLength="22" x="393.1252" y="310.9916">is a</text></g><!--reverse link MB to A--><g id="link_MB_A"><path d="M344.67,244.55 C305.25,266.17 234.75,304.86 199.42,324.25 " fill="none" id="MB-backto-A" style="stroke:#181818;stroke-width:1.0;"/><polygon fill="#181818" points="348.92,242.21,339.1046,243.0215,344.5338,244.6103,342.9451,250.0394,348.92,242.21" style="stroke:#181818;stroke-width:1.0;"/><text fill="#000000" font-family="sans-serif" font-size="13" lengthAdjust="spacing" textLength="22" x="215.1501" y="311.428">is a</text></g><!--link DO to MB--><g id="link_DO_MB"><path d="M577.13,135.52 C530.19,156.56 449.83,192.57 405.22,212.56 " fill="none" id="DO-to-MB" style="stroke:#181818;stroke-width:1.0;"/><polygon fill="#181818" points="400.82,214.53,410.6688,214.4985,405.3825,212.4847,407.3964,207.1985,400.82,214.53" style="stroke:#181818;stroke-width:1.0;"/><text fill="#000000" font-family="sans-serif" font-size="13" lengthAdjust="spacing" textLength="50" x="508" y="177.5669">has 1..*</text></g><!--link M to MB--><g id="link_M_MB"><path d="M373,132.68 C373,151.4 373,185.15 373,206.79 " fill="none" id="M-to-MB" style="stroke:#181818;stroke-width:1.0;stroke-dasharray:7.0,7.0;"/><polygon fill="#181818" points="373,211.58,377,202.58,373,206.58,369,202.58,373,211.58" style="stroke:#181818;stroke-width:1.0;"/><text fill="#000000" font-family="sans-serif" font-size="13" lengthAdjust="spacing" textLength="72" x="291.3112" y="152.7504">contributes</text><text fill="#000000" font-family="sans-serif" font-size="13" lengthAdjust="spacing" textLength="8" x="325.3112" y="167.8832">a</text></g><!--link M to ME--><g id="link_M_ME"><path d="M408.62,118 C413.27,118 417.92,118 422.57,118 " fill="none" id="M-to-ME" style="stroke:#181818;stroke-width:1.0;"/><polygon fill="#181818" points="427.39,118,418.39,114,422.39,118,418.39,122,427.39,118" style="stroke:#181818;stroke-width:1.0;"/><text fill="#000000" font-family="sans-serif" font-size="13" lengthAdjust="spacing" textLength="72" x="395.4411" y="77.3121">contributes</text><text fill="#000000" font-family="sans-serif" font-size="13" lengthAdjust="spacing" textLength="13" x="426.9411" y="92.4449">to</text></g><!--link DO to ME--><g id="link_DO_ME"><path d="M564.54,118 C548.67,118 531.16,118 515.52,118 " fill="none" id="DO-to-ME" style="stroke:#181818;stroke-width:1.0;"/><polygon fill="#181818" points="510.9,118,519.9,122,515.9,118,519.9,114,510.9,118" style="stroke:#181818;stroke-width:1.0;"/><text fill="#000000" font-family="sans-serif" font-size="13" lengthAdjust="spacing" textLength="23" x="523.5" y="81.0669">can</text><text fill="#000000" font-family="sans-serif" font-size="13" lengthAdjust="spacing" textLength="20" x="527" y="96.1997">act</text><text fill="#000000" font-family="sans-serif" font-size="13" lengthAdjust="spacing" textLength="15" x="531.5" y="111.3325">as</text></g><!--link SPRING to S--><g id="link_SPRING_S"><path d="M55,35.18 C55,51.26 55,78.09 55,96.62 " fill="none" id="SPRING-to-S" style="stroke:#181818;stroke-width:1.0;stroke-dasharray:7.0,7.0;"/><polygon fill="#181818" points="55,101.52,59,92.52,55,96.52,51,92.52,55,101.52" style="stroke:#181818;stroke-width:1.0;"/><text fill="#000000" font-family="sans-serif" font-size="13" lengthAdjust="spacing" textLength="60" x="56" y="56.0669">manages</text></g><!--reverse link S to DS--><g id="link_S_DS"><path d="M55,138.81 C55,156.57 55,182.7 55,201.92 " fill="none" id="S-backto-DS" style="stroke:#181818;stroke-width:1.0;"/><polygon fill="#181818" points="55,134.19,51,143.19,55,139.19,59,143.19,55,134.19" style="stroke:#181818;stroke-width:1.0;"/><text fill="#000000" font-family="sans-serif" font-size="13" lengthAdjust="spacing" textLength="22" x="30.328" y="190.8064">is a</text></g><!--link DS to A--><g id="link_DS_A"><path d="M79.89,250.65 C103.03,270.78 137.03,300.36 158.32,318.88 " fill="none" id="DS-to-A" style="stroke:#181818;stroke-width:1.0;"/><polygon fill="#181818" points="162.04,322.12,157.8816,313.1921,158.27,318.8356,152.6265,319.224,162.04,322.12" style="stroke:#181818;stroke-width:1.0;"/><text fill="#000000" font-family="sans-serif" font-size="13" lengthAdjust="spacing" textLength="50" x="139" y="299.0669">has 1..*</text></g><!--SRC=[PP1HJy8m4CUVxQUux0bDDiL7GvRCRHWJ9ejDu6KlPLoWmjgbxKHY_Ews7S61J-l_TxkxNwjtNBHCiGQ4NAF65XuVY3v3nSJEmJ4XHcxGR571DxaPPR9XN5HYllh0sjm2qv3DBS-5uUReSsxZWkEX4eMTlFTiKP0VCfhmE6bPlKL8MQVnm8wJUnxx7wPBCYfHQQuDYXehCMD7LBvKpYuL2lx5XQyKVKBiK-vsK5IVlEu99MVV8SweLw6juc9pDg3b- -lRozKgR5OdY-BPvbB95jNfdgK5gTplxJjmsGkb5YL_CR5299l395o70TV00lSGbo0dqoL4NHJR4Zn1mmJRe2Rbh8VvW94I-gQm2sCdb5xbv2gxLQ4_sYbRApIEeZj22WXgAOpYgywWheJjY2BVyAzYPE3wSp_97UoWcWbmJRNn7-lLFnsu8NJWcz6X3tNPsIG3cLy0]--></g></svg>