<?xml version="1.0" encoding="UTF-8" standalone="no"?><svg xmlns="http://www.w3.org/2000/svg" xmlns:xlink="http://www.w3.org/1999/xlink" contentStyleType="text/css" height="706px" preserveAspectRatio="none" style="width:833px;height:706px;background:#FFFFFF;" version="1.1" viewBox="0 0 833 706" width="833px" zoomAndPan="magnify"><defs/><g><!--cluster metamodel--><g id="cluster_metamodel"><path d="M8.5,6 L96.5,6 A3.75,3.75 0 0 1 99,8.5 L106,28.2969 L621.5,28.2969 A2.5,2.5 0 0 1 624,30.7969 L624,696.5 A2.5,2.5 0 0 1 621.5,699 L8.5,699 A2.5,2.5 0 0 1 6,696.5 L6,8.5 A2.5,2.5 0 0 1 8.5,6 " fill="none" style="stroke:#000000;stroke-width:1.5;"/><line style="stroke:#000000;stroke-width:1.5;" x1="6" x2="106" y1="28.2969" y2="28.2969"/><text fill="#000000" font-family="sans-serif" font-size="14" font-weight="bold" lengthAdjust="spacing" textLength="87" x="10" y="20.9951">metamodel</text></g><!--cluster runtime--><g id="cluster_runtime"><path d="M650.5,18.5 L712.5,18.5 A3.75,3.75 0 0 1 715,21 L722,40.7969 L823.5,40.7969 A2.5,2.5 0 0 1 826,43.2969 L826,272.5 A2.5,2.5 0 0 1 823.5,275 L650.5,275 A2.5,2.5 0 0 1 648,272.5 L648,21 A2.5,2.5 0 0 1 650.5,18.5 " fill="none" style="stroke:#000000;stroke-width:1.5;"/><line style="stroke:#000000;stroke-width:1.5;" x1="648" x2="722" y1="40.7969" y2="40.7969"/><text fill="#000000" font-family="sans-serif" font-size="14" font-weight="bold" lengthAdjust="spacing" textLength="61" x="652" y="33.4951">runtime</text></g><!--class LogicalType--><g id="elem_LogicalType"><rect codeLine="21" fill="#FFFFFF" height="64.5625" id="LogicalType" rx="2.5" ry="2.5" style="stroke:#181818;stroke-width:0.5;" width="113" x="316.5" y="41"/><ellipse cx="331.5" cy="61.1328" fill="#ADD1B2" rx="11" ry="11" style="stroke:#181818;stroke-width:1.0;"/><path d="M334.4688,66.7734 Q333.8906,67.0703 333.25,67.2109 Q332.6094,67.3672 331.9063,67.3672 Q329.4063,67.3672 328.0781,65.7266 Q326.7656,64.0703 326.7656,60.9453 Q326.7656,57.8203 328.0781,56.1641 Q329.4063,54.5078 331.9063,54.5078 Q332.6094,54.5078 333.25,54.6641 Q333.9063,54.8203 334.4688,55.1172 L334.4688,57.8359 Q333.8438,57.2578 333.25,56.9922 Q332.6563,56.7109 332.0313,56.7109 Q330.6875,56.7109 330,57.7891 Q329.3125,58.8516 329.3125,60.9453 Q329.3125,63.0391 330,64.1172 Q330.6875,65.1797 332.0313,65.1797 Q332.6563,65.1797 333.25,64.9141 Q333.8438,64.6328 334.4688,64.0547 L334.4688,66.7734 Z " fill="#000000"/><text fill="#000000" font-family="sans-serif" font-size="12" font-style="italic" lengthAdjust="spacing" textLength="47" x="362.5" y="57.1387">«value»</text><text fill="#000000" font-family="sans-serif" font-size="14" lengthAdjust="spacing" textLength="81" x="345.5" y="72.9639">LogicalType</text><line style="stroke:#181818;stroke-width:0.5;" x1="317.5" x2="428.5" y1="81.2656" y2="81.2656"/><ellipse cx="327.5" cy="94.9141" fill="none" rx="3" ry="3" style="stroke:#038048;stroke-width:1.0;"/><text fill="#000000" font-family="sans-serif" font-size="14" lengthAdjust="spacing" textLength="30" x="336.5" y="98.2607">type</text></g><!--class Object\nSpecification--><g id="elem_Object\nSpecification"><rect codeLine="25" fill="#00FFFF" height="105.1563" id="Object\nSpecification" rx="2.5" ry="2.5" style="stroke:#181818;stroke-width:0.5;" width="188" x="101" y="166"/><ellipse cx="147.25" cy="194.2813" fill="#ADD1B2" rx="11" ry="11" style="stroke:#181818;stroke-width:1.0;"/><path d="M150.2188,199.9219 Q149.6406,200.2188 149,200.3594 Q148.3594,200.5156 147.6563,200.5156 Q145.1563,200.5156 143.8281,198.875 Q142.5156,197.2188 142.5156,194.0938 Q142.5156,190.9688 143.8281,189.3125 Q145.1563,187.6563 147.6563,187.6563 Q148.3594,187.6563 149,187.8125 Q149.6563,187.9688 150.2188,188.2656 L150.2188,190.9844 Q149.5938,190.4063 149,190.1406 Q148.4063,189.8594 147.7813,189.8594 Q146.4375,189.8594 145.75,190.9375 Q145.0625,192 145.0625,194.0938 Q145.0625,196.1875 145.75,197.2656 Q146.4375,198.3281 147.7813,198.3281 Q148.4063,198.3281 149,198.0625 Q149.5938,197.7813 150.2188,197.2031 L150.2188,199.9219 Z " fill="#000000"/><text fill="#000000" font-family="sans-serif" font-size="12" font-style="italic" lengthAdjust="spacing" textLength="43" x="189.75" y="182.1387">«desc»</text><text fill="#000000" font-family="sans-serif" font-size="14" lengthAdjust="spacing" textLength="45" x="188.75" y="197.9639">Object</text><text fill="#000000" font-family="sans-serif" font-size="14" lengthAdjust="spacing" textLength="87" x="167.75" y="214.2607">Specification</text><line style="stroke:#181818;stroke-width:0.5;" x1="102" x2="288" y1="222.5625" y2="222.5625"/><ellipse cx="112" cy="236.2109" fill="none" rx="3" ry="3" style="stroke:#038048;stroke-width:1.0;"/><text fill="#000000" font-family="sans-serif" font-size="14" lengthAdjust="spacing" textLength="90" x="121" y="239.5576">objectSpecId</text><line style="stroke:#181818;stroke-width:1.0;stroke-dasharray:1.0,2.0;" x1="102" x2="288" y1="246.8594" y2="246.8594"/><rect fill="none" height="6" style="stroke:#C82930;stroke-width:1.0;" width="6" x="109" y="257.5078"/><text fill="#000000" font-family="sans-serif" font-size="14" lengthAdjust="spacing" textLength="162" x="121" y="263.8545">fullyQualifiedClassName</text></g><!--class Object\nMember--><g id="elem_Object\nMember"><rect codeLine="31" fill="#00FFFF" height="56.5625" id="Object\nMember" rx="2.5" ry="2.5" style="stroke:#181818;stroke-width:0.5;" width="89" x="155.5" y="392"/><ellipse cx="170.5" cy="420.2813" fill="#ADD1B2" rx="11" ry="11" style="stroke:#181818;stroke-width:1.0;"/><path d="M173.4688,425.9219 Q172.8906,426.2188 172.25,426.3594 Q171.6094,426.5156 170.9063,426.5156 Q168.4063,426.5156 167.0781,424.875 Q165.7656,423.2188 165.7656,420.0938 Q165.7656,416.9688 167.0781,415.3125 Q168.4063,413.6563 170.9063,413.6563 Q171.6094,413.6563 172.25,413.8125 Q172.9063,413.9688 173.4688,414.2656 L173.4688,416.9844 Q172.8438,416.4063 172.25,416.1406 Q171.6563,415.8594 171.0313,415.8594 Q169.6875,415.8594 169,416.9375 Q168.3125,418 168.3125,420.0938 Q168.3125,422.1875 169,423.2656 Q169.6875,424.3281 171.0313,424.3281 Q171.6563,424.3281 172.25,424.0625 Q172.8438,423.7813 173.4688,423.2031 L173.4688,425.9219 Z " fill="#000000"/><text fill="#000000" font-family="sans-serif" font-size="12" font-style="italic" lengthAdjust="spacing" textLength="43" x="191.5" y="408.1387">«desc»</text><text fill="#000000" font-family="sans-serif" font-size="14" lengthAdjust="spacing" textLength="45" x="190.5" y="423.9639">Object</text><text fill="#000000" font-family="sans-serif" font-size="14" lengthAdjust="spacing" textLength="57" x="184.5" y="440.2607">Member</text></g><!--class Object\nAction--><g id="elem_Object\nAction"><rect codeLine="35" fill="#00FFFF" height="56.5625" id="Object\nAction" rx="2.5" ry="2.5" style="stroke:#181818;stroke-width:0.5;" width="77" x="168.5" y="509"/><ellipse cx="183.5" cy="537.2813" fill="#ADD1B2" rx="11" ry="11" style="stroke:#181818;stroke-width:1.0;"/><path d="M186.4688,542.9219 Q185.8906,543.2188 185.25,543.3594 Q184.6094,543.5156 183.9063,543.5156 Q181.4063,543.5156 180.0781,541.875 Q178.7656,540.2188 178.7656,537.0938 Q178.7656,533.9688 180.0781,532.3125 Q181.4063,530.6563 183.9063,530.6563 Q184.6094,530.6563 185.25,530.8125 Q185.9063,530.9688 186.4688,531.2656 L186.4688,533.9844 Q185.8438,533.4063 185.25,533.1406 Q184.6563,532.8594 184.0313,532.8594 Q182.6875,532.8594 182,533.9375 Q181.3125,535 181.3125,537.0938 Q181.3125,539.1875 182,540.2656 Q182.6875,541.3281 184.0313,541.3281 Q184.6563,541.3281 185.25,541.0625 Q185.8438,540.7813 186.4688,540.2031 L186.4688,542.9219 Z " fill="#000000"/><text fill="#000000" font-family="sans-serif" font-size="12" font-style="italic" lengthAdjust="spacing" textLength="43" x="198.5" y="525.1387">«desc»</text><text fill="#000000" font-family="sans-serif" font-size="14" lengthAdjust="spacing" textLength="45" x="197.5" y="540.9639">Object</text><text fill="#000000" font-family="sans-serif" font-size="14" lengthAdjust="spacing" textLength="43" x="198.5" y="557.2607">Action</text></g><!--class Object\nAssociation--><g id="elem_Object\nAssociation"><rect codeLine="39" fill="#00FFFF" height="56.5625" id="Object\nAssociation" rx="2.5" ry="2.5" style="stroke:#181818;stroke-width:0.5;" width="111" x="22.5" y="509"/><ellipse cx="37.5" cy="537.2813" fill="#ADD1B2" rx="11" ry="11" style="stroke:#181818;stroke-width:1.0;"/><path d="M40.4688,542.9219 Q39.8906,543.2188 39.25,543.3594 Q38.6094,543.5156 37.9063,543.5156 Q35.4063,543.5156 34.0781,541.875 Q32.7656,540.2188 32.7656,537.0938 Q32.7656,533.9688 34.0781,532.3125 Q35.4063,530.6563 37.9063,530.6563 Q38.6094,530.6563 39.25,530.8125 Q39.9063,530.9688 40.4688,531.2656 L40.4688,533.9844 Q39.8438,533.4063 39.25,533.1406 Q38.6563,532.8594 38.0313,532.8594 Q36.6875,532.8594 36,533.9375 Q35.3125,535 35.3125,537.0938 Q35.3125,539.1875 36,540.2656 Q36.6875,541.3281 38.0313,541.3281 Q38.6563,541.3281 39.25,541.0625 Q39.8438,540.7813 40.4688,540.2031 L40.4688,542.9219 Z " fill="#000000"/><text fill="#000000" font-family="sans-serif" font-size="12" font-style="italic" lengthAdjust="spacing" textLength="43" x="69.5" y="525.1387">«desc»</text><text fill="#000000" font-family="sans-serif" font-size="14" lengthAdjust="spacing" textLength="45" x="68.5" y="540.9639">Object</text><text fill="#000000" font-family="sans-serif" font-size="14" lengthAdjust="spacing" textLength="79" x="51.5" y="557.2607">Association</text></g><!--class OneToOne\nAssociation--><g id="elem_OneToOne\nAssociation"><rect codeLine="43" fill="#00FFFF" height="56.5625" id="OneToOne\nAssociation" rx="2.5" ry="2.5" style="stroke:#181818;stroke-width:0.5;" width="111" x="22.5" y="626"/><ellipse cx="37.5" cy="654.2813" fill="#ADD1B2" rx="11" ry="11" style="stroke:#181818;stroke-width:1.0;"/><path d="M40.4688,659.9219 Q39.8906,660.2188 39.25,660.3594 Q38.6094,660.5156 37.9063,660.5156 Q35.4063,660.5156 34.0781,658.875 Q32.7656,657.2188 32.7656,654.0938 Q32.7656,650.9688 34.0781,649.3125 Q35.4063,647.6563 37.9063,647.6563 Q38.6094,647.6563 39.25,647.8125 Q39.9063,647.9688 40.4688,648.2656 L40.4688,650.9844 Q39.8438,650.4063 39.25,650.1406 Q38.6563,649.8594 38.0313,649.8594 Q36.6875,649.8594 36,650.9375 Q35.3125,652 35.3125,654.0938 Q35.3125,656.1875 36,657.2656 Q36.6875,658.3281 38.0313,658.3281 Q38.6563,658.3281 39.25,658.0625 Q39.8438,657.7813 40.4688,657.2031 L40.4688,659.9219 Z " fill="#000000"/><text fill="#000000" font-family="sans-serif" font-size="12" font-style="italic" lengthAdjust="spacing" textLength="43" x="69.5" y="642.1387">«desc»</text><text fill="#000000" font-family="sans-serif" font-size="14" lengthAdjust="spacing" textLength="76" x="53" y="657.9639">OneToOne</text><text fill="#000000" font-family="sans-serif" font-size="14" lengthAdjust="spacing" textLength="79" x="51.5" y="674.2607">Association</text></g><!--class OneToMany\nAssociation--><g id="elem_OneToMany\nAssociation"><rect codeLine="47" fill="#00FFFF" height="56.5625" id="OneToMany\nAssociation" rx="2.5" ry="2.5" style="stroke:#181818;stroke-width:0.5;" width="115" x="168.5" y="626"/><ellipse cx="183.5" cy="654.2813" fill="#ADD1B2" rx="11" ry="11" style="stroke:#181818;stroke-width:1.0;"/><path d="M186.4688,659.9219 Q185.8906,660.2188 185.25,660.3594 Q184.6094,660.5156 183.9063,660.5156 Q181.4063,660.5156 180.0781,658.875 Q178.7656,657.2188 178.7656,654.0938 Q178.7656,650.9688 180.0781,649.3125 Q181.4063,647.6563 183.9063,647.6563 Q184.6094,647.6563 185.25,647.8125 Q185.9063,647.9688 186.4688,648.2656 L186.4688,650.9844 Q185.8438,650.4063 185.25,650.1406 Q184.6563,649.8594 184.0313,649.8594 Q182.6875,649.8594 182,650.9375 Q181.3125,652 181.3125,654.0938 Q181.3125,656.1875 182,657.2656 Q182.6875,658.3281 184.0313,658.3281 Q184.6563,658.3281 185.25,658.0625 Q185.8438,657.7813 186.4688,657.2031 L186.4688,659.9219 Z " fill="#000000"/><text fill="#000000" font-family="sans-serif" font-size="12" font-style="italic" lengthAdjust="spacing" textLength="43" x="217.5" y="642.1387">«desc»</text><text fill="#000000" font-family="sans-serif" font-size="14" lengthAdjust="spacing" textLength="83" x="197.5" y="657.9639">OneToMany</text><text fill="#000000" font-family="sans-serif" font-size="14" lengthAdjust="spacing" textLength="79" x="199.5" y="674.2607">Association</text></g><!--class FacetHolder--><g id="elem_FacetHolder"><rect codeLine="51" fill="#00FFFF" height="40.2656" id="FacetHolder" rx="2.5" ry="2.5" style="stroke:#181818;stroke-width:0.5;" width="116" x="324" y="198.5"/><ellipse cx="339" cy="218.6328" fill="#B4A7E5" rx="11" ry="11" style="stroke:#181818;stroke-width:1.0;"/><path d="M334.9219,214.3984 L334.9219,212.2422 L342.3125,212.2422 L342.3125,214.3984 L339.8438,214.3984 L339.8438,222.4766 L342.3125,222.4766 L342.3125,224.6328 L334.9219,224.6328 L334.9219,222.4766 L337.3906,222.4766 L337.3906,214.3984 L334.9219,214.3984 Z " fill="#000000"/><text fill="#000000" font-family="sans-serif" font-size="12" font-style="italic" lengthAdjust="spacing" textLength="43" x="373.5" y="214.6387">«desc»</text><text fill="#000000" font-family="sans-serif" font-size="14" font-style="italic" lengthAdjust="spacing" textLength="84" x="353" y="230.4639">FacetHolder</text></g><!--class Object\nActionParameter--><g id="elem_Object\nActionParameter"><rect codeLine="54" fill="#00FFFF" height="56.5625" id="Object\nActionParameter" rx="2.5" ry="2.5" style="stroke:#181818;stroke-width:0.5;" width="146" x="288" y="392"/><ellipse cx="303" cy="420.2813" fill="#ADD1B2" rx="11" ry="11" style="stroke:#181818;stroke-width:1.0;"/><path d="M305.9688,425.9219 Q305.3906,426.2188 304.75,426.3594 Q304.1094,426.5156 303.4063,426.5156 Q300.9063,426.5156 299.5781,424.875 Q298.2656,423.2188 298.2656,420.0938 Q298.2656,416.9688 299.5781,415.3125 Q300.9063,413.6563 303.4063,413.6563 Q304.1094,413.6563 304.75,413.8125 Q305.4063,413.9688 305.9688,414.2656 L305.9688,416.9844 Q305.3438,416.4063 304.75,416.1406 Q304.1563,415.8594 303.5313,415.8594 Q302.1875,415.8594 301.5,416.9375 Q300.8125,418 300.8125,420.0938 Q300.8125,422.1875 301.5,423.2656 Q302.1875,424.3281 303.5313,424.3281 Q304.1563,424.3281 304.75,424.0625 Q305.3438,423.7813 305.9688,423.2031 L305.9688,425.9219 Z " fill="#000000"/><text fill="#000000" font-family="sans-serif" font-size="12" font-style="italic" lengthAdjust="spacing" textLength="43" x="352.5" y="408.1387">«desc»</text><text fill="#000000" font-family="sans-serif" font-size="14" lengthAdjust="spacing" textLength="45" x="351.5" y="423.9639">Object</text><text fill="#000000" font-family="sans-serif" font-size="14" lengthAdjust="spacing" textLength="114" x="317" y="440.2607">ActionParameter</text></g><!--class OneToOne\nActionParameter--><g id="elem_OneToOne\nActionParameter"><rect codeLine="57" fill="#00FFFF" height="56.5625" id="OneToOne\nActionParameter" rx="2.5" ry="2.5" style="stroke:#181818;stroke-width:0.5;" width="146" x="281" y="509"/><ellipse cx="296" cy="537.2813" fill="#ADD1B2" rx="11" ry="11" style="stroke:#181818;stroke-width:1.0;"/><path d="M298.9688,542.9219 Q298.3906,543.2188 297.75,543.3594 Q297.1094,543.5156 296.4063,543.5156 Q293.9063,543.5156 292.5781,541.875 Q291.2656,540.2188 291.2656,537.0938 Q291.2656,533.9688 292.5781,532.3125 Q293.9063,530.6563 296.4063,530.6563 Q297.1094,530.6563 297.75,530.8125 Q298.4063,530.9688 298.9688,531.2656 L298.9688,533.9844 Q298.3438,533.4063 297.75,533.1406 Q297.1563,532.8594 296.5313,532.8594 Q295.1875,532.8594 294.5,533.9375 Q293.8125,535 293.8125,537.0938 Q293.8125,539.1875 294.5,540.2656 Q295.1875,541.3281 296.5313,541.3281 Q297.1563,541.3281 297.75,541.0625 Q298.3438,540.7813 298.9688,540.2031 L298.9688,542.9219 Z " fill="#000000"/><text fill="#000000" font-family="sans-serif" font-size="12" font-style="italic" lengthAdjust="spacing" textLength="43" x="345.5" y="525.1387">«desc»</text><text fill="#000000" font-family="sans-serif" font-size="14" lengthAdjust="spacing" textLength="76" x="329" y="540.9639">OneToOne</text><text fill="#000000" font-family="sans-serif" font-size="14" lengthAdjust="spacing" textLength="114" x="310" y="557.2607">ActionParameter</text></g><!--class Facet--><g id="elem_Facet"><rect codeLine="60" fill="#00FFFF" height="40.2656" id="Facet" rx="2.5" ry="2.5" style="stroke:#181818;stroke-width:0.5;" width="71" x="475.5" y="198.5"/><ellipse cx="490.5" cy="218.6328" fill="#B4A7E5" rx="11" ry="11" style="stroke:#181818;stroke-width:1.0;"/><path d="M486.4219,214.3984 L486.4219,212.2422 L493.8125,212.2422 L493.8125,214.3984 L491.3438,214.3984 L491.3438,222.4766 L493.8125,222.4766 L493.8125,224.6328 L486.4219,224.6328 L486.4219,222.4766 L488.8906,222.4766 L488.8906,214.3984 L486.4219,214.3984 Z " fill="#000000"/><text fill="#000000" font-family="sans-serif" font-size="12" font-style="italic" lengthAdjust="spacing" textLength="43" x="502.5" y="214.6387">«desc»</text><text fill="#000000" font-family="sans-serif" font-size="14" font-style="italic" lengthAdjust="spacing" textLength="38" x="505" y="230.4639">Facet</text></g><!--class OneToMany\nActionParameter--><g id="elem_OneToMany\nActionParameter"><rect codeLine="63" fill="#00FFFF" height="56.5625" id="OneToMany\nActionParameter" rx="2.5" ry="2.5" style="stroke:#181818;stroke-width:0.5;" width="146" x="462" y="509"/><ellipse cx="477" cy="537.2813" fill="#ADD1B2" rx="11" ry="11" style="stroke:#181818;stroke-width:1.0;"/><path d="M479.9688,542.9219 Q479.3906,543.2188 478.75,543.3594 Q478.1094,543.5156 477.4063,543.5156 Q474.9063,543.5156 473.5781,541.875 Q472.2656,540.2188 472.2656,537.0938 Q472.2656,533.9688 473.5781,532.3125 Q474.9063,530.6563 477.4063,530.6563 Q478.1094,530.6563 478.75,530.8125 Q479.4063,530.9688 479.9688,531.2656 L479.9688,533.9844 Q479.3438,533.4063 478.75,533.1406 Q478.1563,532.8594 477.5313,532.8594 Q476.1875,532.8594 475.5,533.9375 Q474.8125,535 474.8125,537.0938 Q474.8125,539.1875 475.5,540.2656 Q476.1875,541.3281 477.5313,541.3281 Q478.1563,541.3281 478.75,541.0625 Q479.3438,540.7813 479.9688,540.2031 L479.9688,542.9219 Z " fill="#000000"/><text fill="#000000" font-family="sans-serif" font-size="12" font-style="italic" lengthAdjust="spacing" textLength="43" x="526.5" y="525.1387">«desc»</text><text fill="#000000" font-family="sans-serif" font-size="14" lengthAdjust="spacing" textLength="83" x="506.5" y="540.9639">OneToMany</text><text fill="#000000" font-family="sans-serif" font-size="14" lengthAdjust="spacing" textLength="114" x="491" y="557.2607">ActionParameter</text></g><!--class ManagedObject--><g id="elem_ManagedObject"><rect codeLine="68" fill="#90EE90" height="80.8594" id="ManagedObject" rx="2.5" ry="2.5" style="stroke:#181818;stroke-width:0.5;" width="146" x="664" y="178"/><ellipse cx="681.25" cy="198.1328" fill="#ADD1B2" rx="11" ry="11" style="stroke:#181818;stroke-width:1.0;"/><path d="M684.2188,203.7734 Q683.6406,204.0703 683,204.2109 Q682.3594,204.3672 681.6563,204.3672 Q679.1563,204.3672 677.8281,202.7266 Q676.5156,201.0703 676.5156,197.9453 Q676.5156,194.8203 677.8281,193.1641 Q679.1563,191.5078 681.6563,191.5078 Q682.3594,191.5078 683,191.6641 Q683.6563,191.8203 684.2188,192.1172 L684.2188,194.8359 Q683.5938,194.2578 683,193.9922 Q682.4063,193.7109 681.7813,193.7109 Q680.4375,193.7109 679.75,194.7891 Q679.0625,195.8516 679.0625,197.9453 Q679.0625,200.0391 679.75,201.1172 Q680.4375,202.1797 681.7813,202.1797 Q682.4063,202.1797 683,201.9141 Q683.5938,201.6328 684.2188,201.0547 L684.2188,203.7734 Z " fill="#000000"/><text fill="#000000" font-family="sans-serif" font-size="12" font-style="italic" lengthAdjust="spacing" textLength="35" x="732.75" y="194.1387">«ppt»</text><text fill="#000000" font-family="sans-serif" font-size="14" lengthAdjust="spacing" textLength="109" x="695.75" y="209.9639">ManagedObject</text><line style="stroke:#181818;stroke-width:0.5;" x1="665" x2="809" y1="218.2656" y2="218.2656"/><ellipse cx="675" cy="231.9141" fill="#84BE84" rx="3" ry="3" style="stroke:#038048;stroke-width:1.0;"/><text fill="#000000" font-family="sans-serif" font-size="14" lengthAdjust="spacing" textLength="120" x="684" y="235.2607">getSpecification()</text><ellipse cx="675" cy="248.2109" fill="#84BE84" rx="3" ry="3" style="stroke:#038048;stroke-width:1.0;"/><text fill="#000000" font-family="sans-serif" font-size="14" lengthAdjust="spacing" textLength="63" x="684" y="251.5576">getPojo()</text></g><!--class Bookmark--><g id="elem_Bookmark"><rect codeLine="72" fill="#FFFFFF" height="40.2656" id="Bookmark" rx="2.5" ry="2.5" style="stroke:#181818;stroke-width:0.5;" width="102" x="675" y="53.5"/><ellipse cx="690" cy="73.6328" fill="#ADD1B2" rx="11" ry="11" style="stroke:#181818;stroke-width:1.0;"/><path d="M692.9688,79.2734 Q692.3906,79.5703 691.75,79.7109 Q691.1094,79.8672 690.4063,79.8672 Q687.9063,79.8672 686.5781,78.2266 Q685.2656,76.5703 685.2656,73.4453 Q685.2656,70.3203 686.5781,68.6641 Q687.9063,67.0078 690.4063,67.0078 Q691.1094,67.0078 691.75,67.1641 Q692.4063,67.3203 692.9688,67.6172 L692.9688,70.3359 Q692.3438,69.7578 691.75,69.4922 Q691.1563,69.2109 690.5313,69.2109 Q689.1875,69.2109 688.5,70.2891 Q687.8125,71.3516 687.8125,73.4453 Q687.8125,75.5391 688.5,76.6172 Q689.1875,77.6797 690.5313,77.6797 Q691.1563,77.6797 691.75,77.4141 Q692.3438,77.1328 692.9688,76.5547 L692.9688,79.2734 Z " fill="#000000"/><text fill="#000000" font-family="sans-serif" font-size="12" font-style="italic" lengthAdjust="spacing" textLength="47" x="715.5" y="69.6387">«value»</text><text fill="#000000" font-family="sans-serif" font-size="14" lengthAdjust="spacing" textLength="70" x="704" y="85.4639">Bookmark</text></g><!--reverse link LogicalType to Object\nSpecification--><g id="link_LogicalType_Object\nSpecification"><path codeLine="79" d="M328.57,110.19 C307.72,126.94 282.47,147.23 259.56,165.63 " fill="none" id="LogicalType-backto-Object\nSpecification" style="stroke:#181818;stroke-width:1.0;"/><polygon fill="#181818" points="332.32,107.18,322.7968,109.6915,328.4198,110.3087,327.8027,115.9318,332.32,107.18" style="stroke:#181818;stroke-width:1.0;"/></g><!--link Object\nSpecification to Object\nMember--><g id="link_Object\nSpecification_Object\nMember"><path codeLine="80" d="M196.29,271.27 C197.19,307.14 198.36,353.9 199.14,385.23 " fill="none" id="Object\nSpecification-to-Object\nMember" style="stroke:#181818;stroke-width:1.0;"/><polygon fill="#181818" points="199.27,390.15,203.0373,381.0502,199.1415,385.1517,195.04,381.2558,199.27,390.15" style="stroke:#181818;stroke-width:1.0;"/><text fill="#000000" font-family="sans-serif" font-size="13" lengthAdjust="spacing" textLength="7" x="191.3813" y="380.8521">*</text></g><!--reverse link Object\nMember to Object\nAssociation--><g id="link_Object\nMember_Object\nAssociation"><path codeLine="81" d="M155.31,463.63 C139.44,478.58 121.99,495.04 107.68,508.52 " fill="none" id="Object\nMember-backto-Object\nAssociation" style="stroke:#181818;stroke-width:1.0;"/><polygon fill="none" points="150.01,459,169.37,450.38,159.61,469.19,150.01,459" style="stroke:#181818;stroke-width:1.0;"/></g><!--reverse link Object\nMember to Object\nAction--><g id="link_Object\nMember_Object\nAction"><path codeLine="82" d="M203,470.73 C203.78,483.65 204.6,497.14 205.3,508.52 " fill="none" id="Object\nMember-backto-Object\nAction" style="stroke:#181818;stroke-width:1.0;"/><polygon fill="none" points="196.01,471.24,201.79,450.85,209.99,470.39,196.01,471.24" style="stroke:#181818;stroke-width:1.0;"/></g><!--reverse link Object\nAssociation to OneToOne\nAssociation--><g id="link_Object\nAssociation_OneToOne\nAssociation"><path codeLine="83" d="M78,587.73 C78,600.65 78,614.14 78,625.52 " fill="none" id="Object\nAssociation-backto-OneToOne\nAssociation" style="stroke:#181818;stroke-width:1.0;"/><polygon fill="none" points="71,587.85,78,567.85,85,587.85,71,587.85" style="stroke:#181818;stroke-width:1.0;"/></g><!--reverse link Object\nAssociation to OneToMany\nAssociation--><g id="link_Object\nAssociation_OneToMany\nAssociation"><path codeLine="84" d="M130.72,579.46 C150.36,594.73 172.19,611.69 189.99,625.52 " fill="none" id="Object\nAssociation-backto-OneToMany\nAssociation" style="stroke:#181818;stroke-width:1.0;"/><polygon fill="none" points="126.52,585.07,115.02,567.27,135.11,574.01,126.52,585.07" style="stroke:#181818;stroke-width:1.0;"/></g><!--reverse link Object\nActionParameter to OneToOne\nActionParameter--><g id="link_Object\nActionParameter_OneToOne\nActionParameter"><path codeLine="85" d="M358,470.73 C357.22,483.65 356.4,497.14 355.7,508.52 " fill="none" id="Object\nActionParameter-backto-OneToOne\nActionParameter" style="stroke:#181818;stroke-width:1.0;"/><polygon fill="none" points="351.01,470.39,359.21,450.85,364.99,471.24,351.01,470.39" style="stroke:#181818;stroke-width:1.0;"/></g><!--reverse link Object\nActionParameter to OneToMany\nActionParameter--><g id="link_Object\nActionParameter_OneToMany\nActionParameter"><path codeLine="86" d="M420.88,461.07 C444.5,476.69 471.1,494.27 492.66,508.52 " fill="none" id="Object\nActionParameter-backto-OneToMany\nActionParameter" style="stroke:#181818;stroke-width:1.0;"/><polygon fill="none" points="417.21,467.04,404.38,450.17,424.93,455.36,417.21,467.04" style="stroke:#181818;stroke-width:1.0;"/></g><!--reverse link Object\nActionParameter to Object\nAction--><g id="link_Object\nActionParameter_Object\nAction"><path codeLine="87" d="M318.55,453.2 C295.34,470.53 266.85,491.81 244.47,508.52 " fill="none" id="Object\nActionParameter-backto-Object\nAction" style="stroke:#181818;stroke-width:1.0;"/><polygon fill="#181818" points="322.51,450.24,312.9063,452.4236,318.5049,453.2332,317.6953,458.8318,322.51,450.24" style="stroke:#181818;stroke-width:1.0;"/><text fill="#000000" font-family="sans-serif" font-size="13" lengthAdjust="spacing" textLength="7" x="308.6914" y="468.6175">*</text></g><!--link Object\nSpecification to FacetHolder--><g id="link_Object\nSpecification_FacetHolder"><path codeLine="89" d="M289.23,218.5 C293.62,218.5 298.02,218.5 302.41,218.5 " fill="none" id="Object\nSpecification-to-FacetHolder" style="stroke:#181818;stroke-width:1.0;stroke-dasharray:7.0,7.0;"/><polygon fill="none" points="302.14,211.5,322.14,218.5,302.14,225.5,302.14,211.5" style="stroke:#181818;stroke-width:1.0;"/></g><!--reverse link FacetHolder to Object\nMember--><g id="link_FacetHolder_Object\nMember"><path codeLine="90" d="M350.08,254.57 C314.52,293.65 257.75,356.03 225.18,391.83 " fill="none" id="FacetHolder-backto-Object\nMember" style="stroke:#181818;stroke-width:1.0;stroke-dasharray:7.0,7.0;"/><polygon fill="none" points="344.89,249.88,363.53,239.8,355.25,259.3,344.89,249.88" style="stroke:#181818;stroke-width:1.0;"/></g><!--reverse link FacetHolder to Object\nActionParameter--><g id="link_FacetHolder_Object\nActionParameter"><path codeLine="91" d="M377.75,259.98 C373.63,299.21 367.49,357.64 363.91,391.83 " fill="none" id="FacetHolder-backto-Object\nActionParameter" style="stroke:#181818;stroke-width:1.0;stroke-dasharray:7.0,7.0;"/><polygon fill="none" points="370.78,259.34,379.83,240.18,384.7,260.8,370.78,259.34" style="stroke:#181818;stroke-width:1.0;"/></g><!--link FacetHolder to Facet--><g id="link_FacetHolder_Facet"><path codeLine="92" d="M440.45,218.5 C449.86,218.5 459.26,218.5 468.66,218.5 " fill="none" id="FacetHolder-to-Facet" style="stroke:#181818;stroke-width:1.0;"/><polygon fill="#181818" points="473.66,218.5,464.66,214.5,468.66,218.5,464.66,222.5,473.66,218.5" style="stroke:#181818;stroke-width:1.0;"/><text fill="#000000" font-family="sans-serif" font-size="13" lengthAdjust="spacing" textLength="7" x="460.4389" y="214.0773">*</text></g><!--reverse link Bookmark to ManagedObject--><g id="link_Bookmark_ManagedObject"><path codeLine="95" d="M727.97,100.16 C729.63,121.73 732.03,152.95 733.94,177.76 " fill="none" id="Bookmark-backto-ManagedObject" style="stroke:#181818;stroke-width:1.0;"/><polygon fill="#181818" points="727.6,95.29,724.2797,104.5623,727.9715,100.2762,732.2576,103.968,727.6,95.29" style="stroke:#181818;stroke-width:1.0;"/></g><!--link Bookmark to LogicalType--><g id="link_Bookmark_LogicalType"><path codeLine="97" d="M674.53,73.5 C595.05,73.5 515.57,73.5 436.09,73.5 " fill="none" id="Bookmark-to-LogicalType" style="stroke:#181818;stroke-width:1.0;"/><polygon fill="#181818" points="431.39,73.5,440.39,77.5,436.39,73.5,440.39,69.5,431.39,73.5" style="stroke:#181818;stroke-width:1.0;"/></g><!--SRC=[bPHTRziW58Rl-HMeLzqcznTKaTP8sogrMwPLcYPDaoYSEDHy2UDcrfJ_FlmLOqP2neLbECzxuC0BEyu0WpIknHBaCzWQeRhYoX1B9AQ2r3N-Wx1lTuHMfTMDOcijjBszPL3JrGglMwBIW37EnnzukNCVBS09Il89sd1LfHch1KpK3n12xzDSxInnKBQU_RxZ3j8KCVmyKES0hXnOHKHGNficNubeu9WipO1otBKNRDKhXxtK34H-noJ_pLMqPGU4ZET82Vwi7Uap-SFj4mmd_Q1BJebuQWtCIn-Elslld0_qlKEe-lBy0jJzLDyCKBxr2HpNwkYFGAvxiCFksN7qnhTZfzWsGhHV6o9y8c3hBlzd8izC-jYxDfZjDFgUHWixWzQrffpaUGLFsd_-K_58L7k9fFVPbb307_p7VTA2BMhDbBhfBZ6uZ6GkuH9HjAHivh7KJEh0chRnrq7261eo-IG-n8RgfeSbC5O9Rc6-wpUBs4Q_w77e46IzqxgIn5QXrUVr89JqDIuQKwp2ctAAOtglF7drzYeoArfsyQy1JPalYz855IXdD6NHlE8VYw8JtafDj2GkKoQD4abn8M3heasD9IYuAtwAcrwIVgHYTBcvuscTPUB9GxYmtUCxhhOFU5Cjh8n7DqrEH6ZwcyM1q_u2]--></g></svg>