<?xml version="1.0" encoding="UTF-8" standalone="no"?><svg xmlns="http://www.w3.org/2000/svg" xmlns:xlink="http://www.w3.org/1999/xlink" contentStyleType="text/css" height="688px" preserveAspectRatio="none" style="width:852px;height:688px;background:#FFFFFF;" version="1.1" viewBox="0 0 852 688" width="852px" zoomAndPan="magnify"><defs/><g><g id="elem_DS"><ellipse cx="79.3319" cy="71.5473" fill="#F1F1F1" rx="48.9619" ry="26.0473" style="stroke:#181818;stroke-width:0.5;"/><text fill="#000000" font-family="sans-serif" font-size="14" lengthAdjust="spacing" textLength="53" x="52.8319" y="66.2455">Domain</text><text fill="#000000" font-family="sans-serif" font-size="14" lengthAdjust="spacing" textLength="50" x="54.3319" y="82.5424">Service</text></g><g id="elem_DO"><ellipse cx="197.3319" cy="71.5473" fill="#F1F1F1" rx="48.9619" ry="26.0473" style="stroke:#181818;stroke-width:0.5;"/><text fill="#000000" font-family="sans-serif" font-size="14" lengthAdjust="spacing" textLength="53" x="170.8319" y="66.2455">Domain</text><text fill="#000000" font-family="sans-serif" font-size="14" lengthAdjust="spacing" textLength="45" x="174.8319" y="82.5424">Object</text></g><g id="elem_DE"><ellipse cx="315.3319" cy="71.5473" fill="#F1F1F1" rx="48.9619" ry="26.0473" style="stroke:#181818;stroke-width:0.5;"/><text fill="#000000" font-family="sans-serif" font-size="14" font-style="italic" lengthAdjust="spacing" textLength="53" x="288.8319" y="66.2455">Domain</text><text fill="#000000" font-family="sans-serif" font-size="14" font-style="italic" lengthAdjust="spacing" textLength="40" x="295.3319" y="82.5424">Event</text></g><g id="elem_P"><ellipse cx="337.2171" cy="487.7215" fill="#F1F1F1" rx="53.3472" ry="14.7215" style="stroke:#181818;stroke-width:0.5;"/><text fill="#000000" font-family="sans-serif" font-size="14" lengthAdjust="spacing" textLength="58" x="305.2171" y="491.469">Property</text></g><g id="elem_A"><ellipse cx="79.523" cy="487.6013" fill="#F1F1F1" rx="42.1531" ry="14.6013" style="stroke:#181818;stroke-width:0.5;"/><text fill="#000000" font-family="sans-serif" font-size="14" lengthAdjust="spacing" textLength="43" x="55.023" y="491.3489">Action</text></g><g id="elem_C"><ellipse cx="202.1829" cy="487.2771" fill="#F1F1F1" rx="60.813" ry="14.7771" style="stroke:#181818;stroke-width:0.5;"/><text fill="#000000" font-family="sans-serif" font-size="14" lengthAdjust="spacing" textLength="68" x="165.1829" y="491.0247">Collection</text></g><g id="elem_MB"><ellipse cx="290.4707" cy="279.715" fill="#F1F1F1" rx="52.6007" ry="14.715" style="stroke:#181818;stroke-width:0.5;"/><text fill="#000000" font-family="sans-serif" font-size="14" font-style="italic" lengthAdjust="spacing" textLength="57" x="258.9707" y="283.4626">Member</text></g><g id="elem_EX"><ellipse cx="122.1829" cy="655.7771" fill="#F1F1F1" rx="60.813" ry="14.7771" style="stroke:#181818;stroke-width:0.5;"/><text fill="#000000" font-family="sans-serif" font-size="14" lengthAdjust="spacing" textLength="68" x="85.1829" y="659.5247">Execution</text></g><g id="elem_EB"><ellipse cx="474.4324" cy="656.0473" fill="#F1F1F1" rx="39.0624" ry="26.0473" style="stroke:#181818;stroke-width:0.5;"/><text fill="#000000" font-family="sans-serif" font-size="14" lengthAdjust="spacing" textLength="39" x="454.9324" y="650.7455">Event</text><text fill="#000000" font-family="sans-serif" font-size="14" lengthAdjust="spacing" textLength="27" x="460.9324" y="667.0424">Bus</text></g><g id="elem_SPRING"><ellipse cx="638.269" cy="656.1113" fill="#F1F1F1" rx="42.8991" ry="14.6113" style="stroke:#181818;stroke-width:0.5;"/><text fill="#000000" font-family="sans-serif" font-size="14" lengthAdjust="spacing" textLength="44" x="613.269" y="659.8588">Spring</text></g><g id="elem_EL"><ellipse cx="474.2461" cy="487.5473" fill="#F1F1F1" rx="50.3762" ry="26.0473" style="stroke:#181818;stroke-width:0.5;"/><text fill="#000000" font-family="sans-serif" font-size="14" lengthAdjust="spacing" textLength="39" x="454.7461" y="482.2455">Event</text><text fill="#000000" font-family="sans-serif" font-size="14" lengthAdjust="spacing" textLength="55" x="446.7461" y="498.5424">Listener</text></g><g id="elem_GMN34"><path d="M396.3699,6 L396.3699,67.5 L364.5899,71.5 L396.3699,75.5 L396.3699,137.0625 A0,0 0 0 0 396.3699,137.0625 L684.3699,137.0625 A0,0 0 0 0 684.3699,137.0625 L684.3699,16 L674.3699,6 L396.3699,6 A0,0 0 0 0 396.3699,6 " fill="#FEFFDD" style="stroke:#181818;stroke-width:0.5;"/><path d="M674.3699,6 L674.3699,16 L684.3699,16 L674.3699,6 " fill="#FEFFDD" style="stroke:#181818;stroke-width:0.5;"/><text fill="#000000" font-family="sans-serif" font-size="13" lengthAdjust="spacing" textLength="75" x="402.3699" y="23.0669">Phases are:</text><ellipse cx="407.8699" cy="33.7656" fill="#000000" rx="2.5" ry="2.5" style="stroke:#000000;stroke-width:0.0;"/><text fill="#000000" font-family="sans-serif" font-size="13" lengthAdjust="spacing" textLength="46" x="414.3699" y="38.1997">HIDING</text><ellipse cx="407.8699" cy="48.8984" fill="#000000" rx="2.5" ry="2.5" style="stroke:#000000;stroke-width:0.0;"/><text fill="#000000" font-family="sans-serif" font-size="13" lengthAdjust="spacing" textLength="70" x="414.3699" y="53.3325">DISABLING</text><ellipse cx="407.8699" cy="64.0313" fill="#000000" rx="2.5" ry="2.5" style="stroke:#000000;stroke-width:0.0;"/><text fill="#000000" font-family="sans-serif" font-size="13" lengthAdjust="spacing" textLength="77" x="414.3699" y="68.4653">VALIDATING</text><ellipse cx="407.8699" cy="79.1641" fill="#000000" rx="2.5" ry="2.5" style="stroke:#000000;stroke-width:0.0;"/><text fill="#000000" font-family="sans-serif" font-size="13" lengthAdjust="spacing" textLength="73" x="414.3699" y="83.5981">EXECUTING</text><ellipse cx="407.8699" cy="94.2969" fill="#000000" rx="2.5" ry="2.5" style="stroke:#000000;stroke-width:0.0;"/><text fill="#000000" font-family="sans-serif" font-size="13" lengthAdjust="spacing" textLength="68" x="414.3699" y="98.731">EXECUTED</text><text fill="#000000" font-family="sans-serif" font-size="13" lengthAdjust="spacing" textLength="251" x="402.3699" y="113.8638">The framework automatically sends out</text><text fill="#000000" font-family="sans-serif" font-size="13" lengthAdjust="spacing" textLength="267" x="402.3699" y="128.9966">events with the phases in the order listed.</text></g><g id="elem_GMN37"><path d="M363.3699,244 L363.3699,275.5 L343.2299,279.5 L363.3699,283.5 L363.3699,314.5313 A0,0 0 0 0 363.3699,314.5313 L775.3699,314.5313 A0,0 0 0 0 775.3699,314.5313 L775.3699,254 L765.3699,244 L363.3699,244 A0,0 0 0 0 363.3699,244 " fill="#FEFFDD" style="stroke:#181818;stroke-width:0.5;"/><path d="M765.3699,244 L765.3699,254 L775.3699,254 L765.3699,244 " fill="#FEFFDD" style="stroke:#181818;stroke-width:0.5;"/><text fill="#000000" font-family="sans-serif" font-size="13" font-style="italic" lengthAdjust="spacing" textLength="87" x="369.3699" y="261.0669">DomainEvent</text><text fill="#000000" font-family="sans-serif" font-size="13" lengthAdjust="spacing" textLength="108" x="460.3699" y="261.0669">is declared as an</text><text fill="#000000" font-family="sans-serif" font-size="13" lengthAdjust="spacing" textLength="349" x="369.3699" y="276.1997">annotation type element in a member annotation, e.g.</text><text fill="#000000" font-family="sans-serif" font-size="13" font-weight="bold" lengthAdjust="spacing" textLength="65" x="369.3699" y="291.3325">@Action(</text><text fill="#000000" font-family="sans-serif" font-size="13" lengthAdjust="spacing" textLength="32" x="369.3699" y="306.4653">        </text><text fill="#000000" font-family="sans-serif" font-size="13" font-weight="bold" lengthAdjust="spacing" textLength="107" x="401.3699" y="306.4653">domainEvent=</text><text fill="#000000" font-family="sans-serif" font-size="13" font-style="italic" font-weight="bold" lengthAdjust="spacing" textLength="56" x="508.3699" y="306.4653">Custom</text><text fill="#000000" font-family="sans-serif" font-size="13" font-weight="bold" lengthAdjust="spacing" textLength="196" x="564.3699" y="306.4653">ActionDomainEvent.class).</text></g><g id="elem_GMN40"><path d="M544.8699,437 L544.8699,483.5 L525.2999,487.5 L544.8699,491.5 L544.8699,537.7969 A0,0 0 0 0 544.8699,537.7969 L845.8699,537.7969 A0,0 0 0 0 845.8699,537.7969 L845.8699,447 L835.8699,437 L544.8699,437 A0,0 0 0 0 544.8699,437 " fill="#FEFFDD" style="stroke:#181818;stroke-width:0.5;"/><path d="M835.8699,437 L835.8699,447 L845.8699,447 L835.8699,437 " fill="#FEFFDD" style="stroke:#181818;stroke-width:0.5;"/><text fill="#000000" font-family="sans-serif" font-size="13" lengthAdjust="spacing" textLength="220" x="550.8699" y="454.0669">EventListeners can be declared on</text><text fill="#000000" font-family="sans-serif" font-size="13" lengthAdjust="spacing" textLength="231" x="550.8699" y="469.1997">any public Spring bean method, e.g.</text><text fill="#000000" font-family="sans-serif" font-size="13" font-weight="bold" lengthAdjust="spacing" textLength="119" x="550.8699" y="484.3325">@EventListener(</text><text fill="#000000" font-family="sans-serif" font-size="13" lengthAdjust="spacing" textLength="28" x="550.8699" y="499.4653">       </text><text fill="#000000" font-family="sans-serif" font-size="13" font-style="italic" font-weight="bold" lengthAdjust="spacing" textLength="56" x="578.8699" y="499.4653">Custom</text><text fill="#000000" font-family="sans-serif" font-size="13" font-weight="bold" lengthAdjust="spacing" textLength="196" x="634.8699" y="499.4653">ActionDomainEvent.class).</text><text fill="#000000" font-family="sans-serif" font-size="13" lengthAdjust="spacing" textLength="20" x="550.8699" y="514.5981">Via</text><text fill="#000000" font-family="sans-serif" font-size="13" font-style="italic" lengthAdjust="spacing" textLength="87" x="574.8699" y="514.5981">DomainEvent</text><text fill="#000000" font-family="sans-serif" font-size="13" lengthAdjust="spacing" textLength="114" x="661.8699" y="514.5981">.getEventPhase(),</text><text fill="#000000" font-family="sans-serif" font-size="13" lengthAdjust="spacing" textLength="195" x="550.8699" y="529.731">further filtering can be applied.</text></g><!--reverse link MB to P--><g id="link_MB_P"><path d="M294.9399,300.55 C304.4499,342.2 326.1099,437.17 334.2299,472.72 " fill="none" id="MB-backto-P" style="stroke:#181818;stroke-width:1.0;"/><polygon fill="#181818" points="293.8599,295.81,291.9674,305.4753,294.9748,300.6841,299.766,303.6915,293.8599,295.81" style="stroke:#181818;stroke-width:1.0;"/><text fill="#000000" font-family="sans-serif" font-size="13" lengthAdjust="spacing" textLength="22" x="318.3699" y="380.5669">is a</text></g><!--reverse link MB to A--><g id="link_MB_A"><path d="M267.3799,297.29 C250.7199,309.81 227.9599,327.67 209.3699,345 C162.0199,389.12 111.7799,447.63 90.2199,473.38 " fill="none" id="MB-backto-A" style="stroke:#181818;stroke-width:1.0;"/><polygon fill="#181818" points="271.1299,294.49,261.5262,296.6736,267.1248,297.4832,266.3152,303.0818,271.1299,294.49" style="stroke:#181818;stroke-width:1.0;"/><text fill="#000000" font-family="sans-serif" font-size="13" lengthAdjust="spacing" textLength="22" x="210.3699" y="380.5669">is a</text></g><!--reverse link MB to C--><g id="link_MB_C"><path d="M281.9299,300.26 C264.2899,341.55 223.8899,436.13 208.4899,472.18 " fill="none" id="MB-backto-C" style="stroke:#181818;stroke-width:1.0;"/><polygon fill="#181818" points="283.8599,295.73,276.6557,302.4456,281.9024,300.3309,284.0171,305.5776,283.8599,295.73" style="stroke:#181818;stroke-width:1.0;"/><text fill="#000000" font-family="sans-serif" font-size="13" lengthAdjust="spacing" textLength="22" x="262.3699" y="380.5669">is a</text></g><!--link DO to MB--><g id="link_DO_MB"><path d="M208.3999,96.94 C227.1299,138.42 264.7499,221.74 281.7199,259.33 " fill="none" id="DO-to-MB" style="stroke:#181818;stroke-width:1.0;"/><polygon fill="#181818" points="283.6299,263.58,283.5728,253.7313,281.5727,259.0228,276.2813,257.0228,283.6299,263.58" style="stroke:#181818;stroke-width:1.0;"/><text fill="#000000" font-family="sans-serif" font-size="13" lengthAdjust="spacing" textLength="23" x="260.3699" y="195.0669">has</text></g><!--link DS to A--><g id="link_DS_A"><path d="M79.3699,97.77 C79.3699,173.63 79.3699,398.28 79.3699,466.58 " fill="none" id="DS-to-A" style="stroke:#181818;stroke-width:1.0;"/><polygon fill="#181818" points="79.3699,471.18,83.3699,462.18,79.3699,466.18,75.3699,462.18,79.3699,471.18" style="stroke:#181818;stroke-width:1.0;"/><text fill="#000000" font-family="sans-serif" font-size="13" lengthAdjust="spacing" textLength="23" x="80.3699" y="284.0669">has</text></g><!--link DE to MB--><g id="link_DE_MB"><path d="M312.2999,97.76 C307.2799,139.2 297.3799,220.77 292.7999,258.49 " fill="none" id="DE-to-MB" style="stroke:#181818;stroke-width:1.0;"/><polygon fill="#181818" points="292.2399,263.08,297.2924,254.6259,292.8407,258.1162,289.3503,253.6646,292.2399,263.08" style="stroke:#181818;stroke-width:1.0;"/><text fill="#000000" font-family="sans-serif" font-size="13" lengthAdjust="spacing" textLength="43" x="312.3699" y="180.0669">can be</text><text fill="#000000" font-family="sans-serif" font-size="13" lengthAdjust="spacing" textLength="55" x="308.3699" y="195.1997">declared</text><text fill="#000000" font-family="sans-serif" font-size="13" lengthAdjust="spacing" textLength="17" x="329.3699" y="210.3325">for</text></g><!--link P to EX--><g id="link_P_EX"><path d="M320.4999,501.56 C282.1599,531.25 188.4699,603.81 145.0899,637.4 " fill="none" id="P-to-EX" style="stroke:#181818;stroke-width:1.0;"/><polygon fill="#181818" points="141.2599,640.37,150.8234,638.0164,145.2113,637.3062,145.9214,631.6941,141.2599,640.37" style="stroke:#181818;stroke-width:1.0;"/><text fill="#000000" font-family="sans-serif" font-size="13" lengthAdjust="spacing" textLength="24" x="279.174" y="522.4994">edit</text><text fill="#000000" font-family="sans-serif" font-size="13" lengthAdjust="spacing" textLength="30" x="280.174" y="537.6322">is an</text></g><!--link A to EX--><g id="link_A_EX"><path d="M82.9599,502.41 C90.5599,531.84 108.2999,600.52 117.1499,634.79 " fill="none" id="A-to-EX" style="stroke:#181818;stroke-width:1.0;"/><polygon fill="#181818" points="118.3199,639.31,119.9303,629.5937,117.0636,634.4704,112.1869,631.6038,118.3199,639.31" style="stroke:#181818;stroke-width:1.0;"/><text fill="#000000" font-family="sans-serif" font-size="13" lengthAdjust="spacing" textLength="65" x="6" y="522.1494">invocation</text><text fill="#000000" font-family="sans-serif" font-size="13" lengthAdjust="spacing" textLength="30" x="27.5" y="537.2822">is an</text></g><!--reverse link EB to SPRING--><g id="link_EB_SPRING"><path d="M520.1299,656 C543.5799,656 571.9899,656 595.0899,656 " fill="none" id="EB-backto-SPRING" style="stroke:#181818;stroke-width:1.0;stroke-dasharray:7.0,7.0;"/><polygon fill="#181818" points="515.1699,656,524.1699,660,520.1699,656,524.1699,652,515.1699,656" style="stroke:#181818;stroke-width:1.0;"/><text fill="#000000" font-family="sans-serif" font-size="13" lengthAdjust="spacing" textLength="58" x="525.3699" y="634.0669">provides/</text><text fill="#000000" font-family="sans-serif" font-size="13" lengthAdjust="spacing" textLength="60" x="524.3699" y="649.1997">manages</text></g><!--link EX to EB--><g id="link_EX_EB"><path d="M183.6799,656 C253.5699,656 366.1999,656 428.7599,656 " fill="none" id="EX-to-EB" style="stroke:#181818;stroke-width:1.0;"/><polygon fill="#181818" points="433.5099,656,424.5099,652,428.5099,656,424.5099,660,433.5099,656" style="stroke:#181818;stroke-width:1.0;"/><text fill="#000000" font-family="sans-serif" font-size="13" lengthAdjust="spacing" textLength="98" x="258.3699" y="619.0669">is published as:</text><text fill="#000000" font-family="sans-serif" font-size="13" lengthAdjust="spacing" textLength="226" x="198.3699" y="634.1997">* before event (phase: EXECUTING)</text><text fill="#000000" font-family="sans-serif" font-size="13" lengthAdjust="spacing" textLength="210" x="206.3699" y="649.3325">* after event (phase: EXECUTED)</text></g><!--link EL to EB--><g id="link_EL_EB"><path d="M474.3699,513.79 C474.3699,543.21 474.3699,591.81 474.3699,623.62 " fill="none" id="EL-to-EB" style="stroke:#181818;stroke-width:1.0;"/><polygon fill="#181818" points="474.3699,628.23,478.3699,619.23,474.3699,623.23,470.3699,619.23,474.3699,628.23" style="stroke:#181818;stroke-width:1.0;"/><text fill="#000000" font-family="sans-serif" font-size="13" lengthAdjust="spacing" textLength="41" x="475.3699" y="581.0669">listens</text><text fill="#000000" font-family="sans-serif" font-size="13" lengthAdjust="spacing" textLength="16" x="491.8699" y="596.1997">on</text></g><!--reverse link MB to EL--><g id="link_MB_EL"><path d="M306.6999,298.78 C340.2699,336.37 417.0099,422.28 453.8699,463.54 " fill="none" id="MB-backto-EL" style="stroke:#181818;stroke-width:1.0;"/><polygon fill="#181818" points="303.4499,295.15,306.4596,304.5277,306.7797,298.8799,312.4275,299.2001,303.4499,295.15" style="stroke:#181818;stroke-width:1.0;"/><text fill="#000000" font-family="sans-serif" font-size="13" lengthAdjust="spacing" textLength="115" x="399.3699" y="358.0669">can check/modify:</text><text fill="#000000" font-family="sans-serif" font-size="13" lengthAdjust="spacing" textLength="94" x="409.8699" y="373.1997">visibility (hide),</text><text fill="#000000" font-family="sans-serif" font-size="13" lengthAdjust="spacing" textLength="115" x="399.3699" y="388.3325">usability (disable),</text><text fill="#000000" font-family="sans-serif" font-size="13" lengthAdjust="spacing" textLength="108" x="404.8699" y="403.4653">validity (validate)</text></g><!--SRC=[ZLJVRzem47xtNt7g4rGbdVQ8EhH0eWs9hcXqLHzuCSc5U7Nio7ReqBJ_lMSR0cqtQNc9_Ntdky_tm_P9g9ORte3I9LfiuUC7nfpUeglHm6y6z0qotN2Xrcg5PYSA70AtaArUStURdrYuIDr5waPCZYmjynsg0v-pFyopjzXiqDnSYqd0RwVl8Y-DRj6uVU2N4KiB9xGAI1gHcPOIJ-YCt2zXr8qcv1B682nmbhu5Pcy1bjt1g3n2DRSiMtc0aFG0i2m_CocuWWt2Ma69XUG6Ix-kj65iaF_2ekiLvOyaw09BuRo5ZwOkl5zFf70Xr4uNt5k_feabJpvlQpNjR7GrPODLQuJQXkrg-Nt-xGkBFqXaGgUyjjRedQ2ANgzLmnNVecNv8umEB8LekuqKjYRDt8vzs4kw2sb7G1yG1YrT6CUa8P_zk2Vdms33AqVL-Pj9dWrFQXV2EbHeekG5onSmEWQNWRC-fbQ1wSupMjHOF5qtkXJLtWlR2IisGWgtXq5DLnfU4TXPViHAGMiPuHsNeWneM767f4bfXs34jdQWAzzyIo-Racnmp2xXwppp6Ro4RBvAfukuVaWNyoozZvi-1VqwpzXzZL3HuE2pDa_0EqUTxaJ1fTo3HLLQq9rZ8L4MdeMhWVeQsXXQgB3JfgHaXdoK2QD3uBM-LKnZqKzIIAyV65_2lkkuxnZ65PsBNUJsBTLHOkFBHC4uD67Ku6Hp1PXi4tQpcNoE0pK8i-G_mifJj4yKVDPPkf-F6stFn2IamThXl-Nxwdl3OqlOuzpqyhNNleyTMK1iRZ8WguOU0rsUINtbgLTCp7-AV10StYSpeKSdR49d38PNhEfCU8Og8QdVlPw3QDwsKfnNwmK0]--></g></svg>