<?xml version="1.0" encoding="UTF-8" standalone="no"?><svg xmlns="http://www.w3.org/2000/svg" xmlns:xlink="http://www.w3.org/1999/xlink" contentStyleType="text/css" height="485px" preserveAspectRatio="none" style="width:1020px;height:485px;background:#FFFFFF;" version="1.1" viewBox="0 0 1020 485" width="1020px" zoomAndPan="magnify"><defs/><g><g id="elem_EB"><ellipse cx="765.0624" cy="178.0473" fill="#F1F1F1" rx="39.0624" ry="26.0473" style="stroke:#181818;stroke-width:0.5;"/><text fill="#000000" font-family="sans-serif" font-size="14" lengthAdjust="spacing" textLength="39" x="745.5624" y="172.7455">Event</text><text fill="#000000" font-family="sans-serif" font-size="14" lengthAdjust="spacing" textLength="27" x="751.5624" y="189.0424">Bus</text></g><g id="elem_SPRING"><ellipse cx="943.8991" cy="178.1113" fill="#F1F1F1" rx="42.8991" ry="14.6113" style="stroke:#181818;stroke-width:0.5;"/><text fill="#000000" font-family="sans-serif" font-size="14" lengthAdjust="spacing" textLength="44" x="918.8991" y="181.8588">Spring</text></g><g id="elem_EL"><ellipse cx="764.8762" cy="32.0473" fill="#F1F1F1" rx="50.3762" ry="26.0473" style="stroke:#181818;stroke-width:0.5;"/><text fill="#000000" font-family="sans-serif" font-size="14" lengthAdjust="spacing" textLength="39" x="745.3762" y="26.7455">Event</text><text fill="#000000" font-family="sans-serif" font-size="14" lengthAdjust="spacing" textLength="55" x="737.3762" y="43.0424">Listener</text></g><g id="elem_LCE"><ellipse cx="536.9178" cy="178.0473" fill="#F1F1F1" rx="74.4178" ry="26.0473" style="stroke:#181818;stroke-width:0.5;"/><text fill="#000000" font-family="sans-serif" font-size="14" font-style="italic" lengthAdjust="spacing" textLength="45" x="514.4178" y="172.7455">Object</text><text fill="#000000" font-family="sans-serif" font-size="14" lengthAdjust="spacing" textLength="89" x="492.4178" y="189.0424">LifecyleEvent</text></g><g id="elem_C"><ellipse cx="963.8762" cy="324.0473" fill="#F1F1F1" rx="50.3762" ry="26.0473" style="stroke:#181818;stroke-width:0.5;"/><text fill="#000000" font-family="sans-serif" font-size="14" lengthAdjust="spacing" textLength="55" x="936.3762" y="318.7455">Created</text><text fill="#000000" font-family="sans-serif" font-size="14" lengthAdjust="spacing" textLength="39" x="944.3762" y="335.0424">Event</text></g><g id="elem_L"><ellipse cx="831.0477" cy="324.0473" fill="#F1F1F1" rx="47.5477" ry="26.0473" style="stroke:#181818;stroke-width:0.5;"/><text fill="#000000" font-family="sans-serif" font-size="14" lengthAdjust="spacing" textLength="51" x="805.5477" y="318.7455">Loaded</text><text fill="#000000" font-family="sans-serif" font-size="14" lengthAdjust="spacing" textLength="39" x="811.5477" y="335.0424">Event</text></g><g id="elem_PNG"><ellipse cx="689.0685" cy="324.0473" fill="#F1F1F1" rx="59.5685" ry="26.0473" style="stroke:#181818;stroke-width:0.5;"/><text fill="#000000" font-family="sans-serif" font-size="14" lengthAdjust="spacing" textLength="68" x="655.0685" y="318.7455">Persisting</text><text fill="#000000" font-family="sans-serif" font-size="14" lengthAdjust="spacing" textLength="39" x="669.5685" y="335.0424">Event</text></g><g id="elem_PED"><ellipse cx="536.9472" cy="324.0473" fill="#F1F1F1" rx="57.4472" ry="26.0473" style="stroke:#181818;stroke-width:0.5;"/><text fill="#000000" font-family="sans-serif" font-size="14" lengthAdjust="spacing" textLength="65" x="504.4472" y="318.7455">Persisted</text><text fill="#000000" font-family="sans-serif" font-size="14" lengthAdjust="spacing" textLength="39" x="517.4472" y="335.0424">Event</text></g><g id="elem_UNG"><ellipse cx="388.8259" cy="324.0473" fill="#F1F1F1" rx="55.3259" ry="26.0473" style="stroke:#181818;stroke-width:0.5;"/><text fill="#000000" font-family="sans-serif" font-size="14" lengthAdjust="spacing" textLength="62" x="357.8259" y="318.7455">Updating</text><text fill="#000000" font-family="sans-serif" font-size="14" lengthAdjust="spacing" textLength="39" x="369.3259" y="335.0424">Event</text></g><g id="elem_UED"><ellipse cx="245.2046" cy="324.0473" fill="#F1F1F1" rx="53.2046" ry="26.0473" style="stroke:#181818;stroke-width:0.5;"/><text fill="#000000" font-family="sans-serif" font-size="14" lengthAdjust="spacing" textLength="59" x="215.7046" y="318.7455">Updated</text><text fill="#000000" font-family="sans-serif" font-size="14" lengthAdjust="spacing" textLength="39" x="225.7046" y="335.0424">Event</text></g><g id="elem_RNG"><ellipse cx="95.7756" cy="324.0473" fill="#F1F1F1" rx="60.2756" ry="26.0473" style="stroke:#181818;stroke-width:0.5;"/><text fill="#000000" font-family="sans-serif" font-size="14" lengthAdjust="spacing" textLength="69" x="61.2756" y="318.7455">Removing</text><text fill="#000000" font-family="sans-serif" font-size="14" lengthAdjust="spacing" textLength="39" x="76.2756" y="335.0424">Event</text></g><g id="elem_FS"><ellipse cx="963.8406" cy="453.0473" fill="#F1F1F1" rx="46.8406" ry="26.0473" style="stroke:#181818;stroke-width:0.5;"/><text fill="#000000" font-family="sans-serif" font-size="14" lengthAdjust="spacing" textLength="50" x="938.8406" y="447.7455">Factory</text><text fill="#000000" font-family="sans-serif" font-size="14" lengthAdjust="spacing" textLength="50" x="938.8406" y="464.0424">Service</text></g><g id="elem_RS"><ellipse cx="427.8112" cy="453.0473" fill="#F1F1F1" rx="63.8112" ry="26.0473" style="stroke:#181818;stroke-width:0.5;"/><text fill="#000000" font-family="sans-serif" font-size="14" lengthAdjust="spacing" textLength="74" x="390.8112" y="447.7455">Repository</text><text fill="#000000" font-family="sans-serif" font-size="14" lengthAdjust="spacing" textLength="50" x="402.8112" y="464.0424">Service</text></g><g id="elem_GMN47"><path d="M6,135 L6,220.6641 A0,0 0 0 0 6,220.6641 L92,220.6641 L96,297.56 L100,220.6641 L186,220.6641 A0,0 0 0 0 186,220.6641 L186,145 L176,135 L6,135 A0,0 0 0 0 6,135 " fill="#FEFFDD" style="stroke:#181818;stroke-width:0.5;"/><path d="M176,135 L176,145 L186,145 L176,135 " fill="#FEFFDD" style="stroke:#181818;stroke-width:0.5;"/><text fill="#000000" font-family="sans-serif" font-size="13" lengthAdjust="spacing" textLength="107" x="12" y="152.0669">JDO/Datanucleus</text><text fill="#000000" font-family="sans-serif" font-size="13" lengthAdjust="spacing" textLength="109" x="12" y="167.1997">does not support</text><text fill="#000000" font-family="sans-serif" font-size="13" lengthAdjust="spacing" textLength="105" x="12" y="182.3325">something like a</text><text fill="#000000" font-family="sans-serif" font-size="13" lengthAdjust="spacing" textLength="114" x="12" y="197.4653">"Removed Event".</text><text fill="#000000" font-family="sans-serif" font-size="13" lengthAdjust="spacing" textLength="159" x="12" y="212.5981">Hence not implemented.</text></g><!--reverse link EB to SPRING--><g id="link_EB_SPRING"><path d="M810.79,178 C838.46,178 873.53,178 900.73,178 " fill="none" id="EB-backto-SPRING" style="stroke:#181818;stroke-width:1.0;stroke-dasharray:7.0,7.0;"/><polygon fill="#181818" points="805.8,178,814.8,182,810.8,178,814.8,174,805.8,178" style="stroke:#181818;stroke-width:1.0;"/><text fill="#000000" font-family="sans-serif" font-size="13" lengthAdjust="spacing" textLength="58" x="823.5" y="156.0669">provides/</text><text fill="#000000" font-family="sans-serif" font-size="13" lengthAdjust="spacing" textLength="60" x="822.5" y="171.1997">manages</text></g><!--link EL to EB--><g id="link_EL_EB"><path d="M765,58.41 C765,82.68 765,119.32 765,145.44 " fill="none" id="EL-to-EB" style="stroke:#181818;stroke-width:1.0;"/><polygon fill="#181818" points="765,150.33,769,141.33,765,145.33,761,141.33,765,150.33" style="stroke:#181818;stroke-width:1.0;"/><text fill="#000000" font-family="sans-serif" font-size="13" lengthAdjust="spacing" textLength="41" x="766" y="101.0669">listens</text></g><!--link LCE to EB--><g id="link_LCE_EB"><path d="M611.97,178 C647.35,178 688.44,178 719.13,178 " fill="none" id="LCE-to-EB" style="stroke:#181818;stroke-width:1.0;"/><polygon fill="#181818" points="724,178,715,174,719,178,715,182,724,178" style="stroke:#181818;stroke-width:1.0;"/><text fill="#000000" font-family="sans-serif" font-size="13" lengthAdjust="spacing" textLength="78" x="629.75" y="171.0669">published to</text></g><!--reverse link LCE to C--><g id="link_LCE_C"><path d="M596.91,198.21 C668.35,221.26 791.25,261.39 896,298 C905.02,301.15 914.68,304.64 923.81,307.98 " fill="none" id="LCE-backto-C" style="stroke:#181818;stroke-width:1.0;"/><polygon fill="#181818" points="592.45,196.77,599.777,203.3514,597.2061,198.3125,602.245,195.7417,592.45,196.77" style="stroke:#181818;stroke-width:1.0;"/><text fill="#000000" font-family="sans-serif" font-size="13" lengthAdjust="spacing" textLength="22" x="808" y="264.0669">is a</text></g><!--reverse link LCE to L--><g id="link_LCE_L"><path d="M585.05,202.54 C644.43,231.62 744,280.39 796.38,306.04 " fill="none" id="LCE-backto-L" style="stroke:#181818;stroke-width:1.0;"/><polygon fill="#181818" points="580.8,200.45,587.1191,208.0044,585.2892,202.6517,590.6418,200.8217,580.8,200.45" style="stroke:#181818;stroke-width:1.0;"/><text fill="#000000" font-family="sans-serif" font-size="13" lengthAdjust="spacing" textLength="22" x="711" y="264.0669">is a</text></g><!--reverse link LCE to PNG--><g id="link_LCE_PNG"><path d="M566.57,207.02 C595.24,234.18 638.2,274.88 664.87,300.14 " fill="none" id="LCE-backto-PNG" style="stroke:#181818;stroke-width:1.0;"/><polygon fill="#181818" points="563.2,203.82,566.9756,212.9164,566.8271,207.2615,572.482,207.113,563.2,203.82" style="stroke:#181818;stroke-width:1.0;"/><text fill="#000000" font-family="sans-serif" font-size="13" lengthAdjust="spacing" textLength="22" x="627" y="264.0669">is a</text></g><!--reverse link LCE to PED--><g id="link_LCE_PED"><path d="M537,210.83 C537,237.03 537,273.66 537,297.84 " fill="none" id="LCE-backto-PED" style="stroke:#181818;stroke-width:1.0;"/><polygon fill="#181818" points="537,205.93,533,214.93,537,210.93,541,214.93,537,205.93" style="stroke:#181818;stroke-width:1.0;"/><text fill="#000000" font-family="sans-serif" font-size="13" lengthAdjust="spacing" textLength="22" x="538" y="264.0669">is a</text></g><!--reverse link LCE to UNG--><g id="link_LCE_UNG"><path d="M508.2,207.02 C480.29,234.18 438.46,274.88 412.5,300.14 " fill="none" id="LCE-backto-UNG" style="stroke:#181818;stroke-width:1.0;"/><polygon fill="#181818" points="511.48,203.83,502.2385,207.2352,507.8948,207.3152,507.8148,212.9715,511.48,203.83" style="stroke:#181818;stroke-width:1.0;"/><text fill="#000000" font-family="sans-serif" font-size="13" lengthAdjust="spacing" textLength="22" x="464" y="264.0669">is a</text></g><!--reverse link LCE to UED--><g id="link_LCE_UED"><path d="M489.35,202.5 C431.22,231.17 334.2,279.01 281.6,304.95 " fill="none" id="LCE-backto-UED" style="stroke:#181818;stroke-width:1.0;"/><polygon fill="#181818" points="493.5,200.45,483.6582,200.8217,489.0108,202.6517,487.1809,208.0044,493.5,200.45" style="stroke:#181818;stroke-width:1.0;"/><text fill="#000000" font-family="sans-serif" font-size="13" lengthAdjust="spacing" textLength="22" x="392" y="264.0669">is a</text></g><!--reverse link LCE to RNG--><g id="link_LCE_RNG"><path d="M477.39,198.47 C388.88,227.36 224.5,281.04 143.55,307.47 " fill="none" id="LCE-backto-RNG" style="stroke:#181818;stroke-width:1.0;"/><polygon fill="#181818" points="481.93,196.98,472.1322,195.9782,477.1781,198.5354,474.6209,203.5813,481.93,196.98" style="stroke:#181818;stroke-width:1.0;"/><text fill="#000000" font-family="sans-serif" font-size="13" lengthAdjust="spacing" textLength="22" x="318" y="264.0669">is a</text></g><!--reverse link C to FS--><g id="link_C_FS"><path d="M964,356.87 C964,378.45 964,406.59 964,426.65 " fill="none" id="C-backto-FS" style="stroke:#181818;stroke-width:1.0;"/><polygon fill="#181818" points="964,351.91,960,360.91,964,356.91,968,360.91,964,351.91" style="stroke:#181818;stroke-width:1.0;"/><text fill="#000000" font-family="sans-serif" font-size="13" lengthAdjust="spacing" textLength="36" x="965" y="393.0669">emits</text></g><!--reverse link L to RS--><g id="link_L_RS"><path d="M787.12,342.26 C780.08,344.92 772.86,347.58 766,350 C666.3,385.19 547.49,419.27 480.6,437.76 " fill="none" id="L-backto-RS" style="stroke:#181818;stroke-width:1.0;"/><polygon fill="#181818" points="791.57,340.57,781.7365,340.021,786.8948,342.3428,784.573,347.5012,791.57,340.57" style="stroke:#181818;stroke-width:1.0;"/><text fill="#000000" font-family="sans-serif" font-size="13" lengthAdjust="spacing" textLength="36" x="675" y="393.0669">emits</text></g><!--reverse link PNG to RS--><g id="link_PNG_RS"><path d="M644.34,346.73 C594.87,370.8 515.81,409.27 468.2,432.44 " fill="none" id="PNG-backto-RS" style="stroke:#181818;stroke-width:1.0;"/><polygon fill="#181818" points="648.56,344.68,638.7168,345.0141,644.0625,346.8645,642.212,352.2102,648.56,344.68" style="stroke:#181818;stroke-width:1.0;"/><text fill="#000000" font-family="sans-serif" font-size="13" lengthAdjust="spacing" textLength="36" x="575" y="393.0669">emits</text></g><!--reverse link PED to RS--><g id="link_PED_RS"><path d="M512.75,353.25 C493.46,375.73 466.75,406.85 448.51,428.11 " fill="none" id="PED-backto-RS" style="stroke:#181818;stroke-width:1.0;"/><polygon fill="#181818" points="515.77,349.74,506.8759,353.9701,512.516,353.5363,512.9499,359.1765,515.77,349.74" style="stroke:#181818;stroke-width:1.0;"/><text fill="#000000" font-family="sans-serif" font-size="13" lengthAdjust="spacing" textLength="36" x="491" y="393.0669">emits</text></g><!--reverse link UNG to RS--><g id="link_UNG_RS"><path d="M398.53,356.04 C405.23,377.84 414.07,406.62 420.31,426.96 " fill="none" id="UNG-backto-RS" style="stroke:#181818;stroke-width:1.0;"/><polygon fill="#181818" points="397.15,351.54,395.9716,361.3181,398.6194,356.3192,403.6183,358.967,397.15,351.54" style="stroke:#181818;stroke-width:1.0;"/><text fill="#000000" font-family="sans-serif" font-size="13" lengthAdjust="spacing" textLength="36" x="412" y="393.0669">emits</text></g><!--reverse link UED to RS--><g id="link_UED_RS"><path d="M280.05,349.33 C313.66,372.65 363.94,407.55 396.36,430.04 " fill="none" id="UED-backto-RS" style="stroke:#181818;stroke-width:1.0;"/><polygon fill="#181818" points="276.05,346.55,281.1607,354.969,280.1568,349.402,285.7239,348.3981,276.05,346.55" style="stroke:#181818;stroke-width:1.0;"/><text fill="#000000" font-family="sans-serif" font-size="13" lengthAdjust="spacing" textLength="36" x="349" y="393.0669">emits</text></g><!--reverse link RNG to RS--><g id="link_RNG_RS"><path d="M145.59,344.67 C182.57,359.28 234.37,379.59 280,397 C313.81,409.9 352.1,424.11 381.26,434.86 " fill="none" id="RNG-backto-RS" style="stroke:#181818;stroke-width:1.0;"/><polygon fill="#181818" points="141.19,342.93,148.0868,349.9609,145.8392,344.7697,151.0304,342.5221,141.19,342.93" style="stroke:#181818;stroke-width:1.0;"/><text fill="#000000" font-family="sans-serif" font-size="13" lengthAdjust="spacing" textLength="36" x="281" y="393.0669">emits</text></g><!--SRC=[RP9DZu8m48RlyoiQJ-n1l1lZGSJz25a9X1kNIaVjBhGDBIR- -nqgnaKyD8JfypxfJ1l45rIkL9lElZ5kMRo183UjL2V_cwVPv_Sxt3uihCCr4Mp9JAilKg1TbAhXYf_GGZ2O4caTAcnlkWJYXCtdGwpsUnOWMCdr_l23bLijvBeF7R6wrkWTFfb4CT1YzwZf3fG-es1EGn2ro1sAKZq24KHitX7UfvPCMiOXI3GNOoo1P891a69hwMpKzdysfTPfJRK3FZQdyHPelR0NHl1dTq7kufNRmsDpGURYfJd3XYvYRCx8dBqmGx3ZbTFjjLGvjXTPeSTtEUpo6non9JRIsTvhj9LJECiX6-3a3jyB_QIUItJefr8nfOefbJqeKDeXNRfX-kXx-zhk5rlkkEgg6ZiBGgDb137R6QDR1rOtwCuq5NfllqYTp_oOwEdu8Sr2-41LeS_8njJOK1L52AX4NyG_]--></g></svg>