<?xml version="1.0" encoding="UTF-8" standalone="no"?><svg xmlns="http://www.w3.org/2000/svg" xmlns:xlink="http://www.w3.org/1999/xlink" contentStyleType="text/css" height="722px" preserveAspectRatio="none" style="width:833px;height:722px;background:#FFFFFF;" version="1.1" viewBox="0 0 833 722" width="833px" zoomAndPan="magnify"><defs/><g><!--cluster metamodel--><g id="cluster_metamodel"><path d="M8.5,6 L96.5,6 A3.75,3.75 0 0 1 99,8.5 L106,28.2969 L621.5,28.2969 A2.5,2.5 0 0 1 624,30.7969 L624,712.5 A2.5,2.5 0 0 1 621.5,715 L8.5,715 A2.5,2.5 0 0 1 6,712.5 L6,8.5 A2.5,2.5 0 0 1 8.5,6 " fill="none" style="stroke:#000000;stroke-width:1.5;"/><line style="stroke:#000000;stroke-width:1.5;" x1="6" x2="106" y1="28.2969" y2="28.2969"/><text fill="#000000" font-family="sans-serif" font-size="14" font-weight="bold" lengthAdjust="spacing" textLength="87" x="10" y="20.9951">metamodel</text></g><!--cluster runtime--><g id="cluster_runtime"><path d="M650.5,26.5 L712.5,26.5 A3.75,3.75 0 0 1 715,29 L722,48.7969 L823.5,48.7969 A2.5,2.5 0 0 1 826,51.2969 L826,288.5 A2.5,2.5 0 0 1 823.5,291 L650.5,291 A2.5,2.5 0 0 1 648,288.5 L648,29 A2.5,2.5 0 0 1 650.5,26.5 " fill="none" style="stroke:#000000;stroke-width:1.5;"/><line style="stroke:#000000;stroke-width:1.5;" x1="648" x2="722" y1="48.7969" y2="48.7969"/><text fill="#000000" font-family="sans-serif" font-size="14" font-weight="bold" lengthAdjust="spacing" textLength="61" x="652" y="41.4951">runtime</text></g><!--class Object\nSpecId--><g id="elem_Object\nSpecId"><rect codeLine="21" fill="#FFFFFF" height="80.8594" id="Object\nSpecId" rx="2.5" ry="2.5" style="stroke:#181818;stroke-width:0.5;" width="79" x="341.5" y="41"/><ellipse cx="356.5" cy="69.2813" fill="#ADD1B2" rx="11" ry="11" style="stroke:#181818;stroke-width:1.0;"/><path d="M359.4688,74.9219 Q358.8906,75.2188 358.25,75.3594 Q357.6094,75.5156 356.9063,75.5156 Q354.4063,75.5156 353.0781,73.875 Q351.7656,72.2188 351.7656,69.0938 Q351.7656,65.9688 353.0781,64.3125 Q354.4063,62.6563 356.9063,62.6563 Q357.6094,62.6563 358.25,62.8125 Q358.9063,62.9688 359.4688,63.2656 L359.4688,65.9844 Q358.8438,65.4063 358.25,65.1406 Q357.6563,64.8594 357.0313,64.8594 Q355.6875,64.8594 355,65.9375 Q354.3125,67 354.3125,69.0938 Q354.3125,71.1875 355,72.2656 Q355.6875,73.3281 357.0313,73.3281 Q357.6563,73.3281 358.25,73.0625 Q358.8438,72.7813 359.4688,72.2031 L359.4688,74.9219 Z " fill="#000000"/><text fill="#000000" font-family="sans-serif" font-size="12" font-style="italic" lengthAdjust="spacing" textLength="47" x="370.5" y="57.1387">«value»</text><text fill="#000000" font-family="sans-serif" font-size="14" lengthAdjust="spacing" textLength="45" x="371.5" y="72.9639">Object</text><text fill="#000000" font-family="sans-serif" font-size="14" lengthAdjust="spacing" textLength="47" x="370.5" y="89.2607">SpecId</text><line style="stroke:#181818;stroke-width:0.5;" x1="342.5" x2="419.5" y1="97.5625" y2="97.5625"/><ellipse cx="352.5" cy="111.2109" fill="none" rx="3" ry="3" style="stroke:#038048;stroke-width:1.0;"/><text fill="#000000" font-family="sans-serif" font-size="14" lengthAdjust="spacing" textLength="30" x="361.5" y="114.5576">type</text></g><!--class Object\nSpecification--><g id="elem_Object\nSpecification"><rect codeLine="25" fill="#00FFFF" height="105.1563" id="Object\nSpecification" rx="2.5" ry="2.5" style="stroke:#181818;stroke-width:0.5;" width="188" x="101" y="182"/><ellipse cx="147.25" cy="210.2813" fill="#ADD1B2" rx="11" ry="11" style="stroke:#181818;stroke-width:1.0;"/><path d="M150.2188,215.9219 Q149.6406,216.2188 149,216.3594 Q148.3594,216.5156 147.6563,216.5156 Q145.1563,216.5156 143.8281,214.875 Q142.5156,213.2188 142.5156,210.0938 Q142.5156,206.9688 143.8281,205.3125 Q145.1563,203.6563 147.6563,203.6563 Q148.3594,203.6563 149,203.8125 Q149.6563,203.9688 150.2188,204.2656 L150.2188,206.9844 Q149.5938,206.4063 149,206.1406 Q148.4063,205.8594 147.7813,205.8594 Q146.4375,205.8594 145.75,206.9375 Q145.0625,208 145.0625,210.0938 Q145.0625,212.1875 145.75,213.2656 Q146.4375,214.3281 147.7813,214.3281 Q148.4063,214.3281 149,214.0625 Q149.5938,213.7813 150.2188,213.2031 L150.2188,215.9219 Z " fill="#000000"/><text fill="#000000" font-family="sans-serif" font-size="12" font-style="italic" lengthAdjust="spacing" textLength="43" x="189.75" y="198.1387">«desc»</text><text fill="#000000" font-family="sans-serif" font-size="14" lengthAdjust="spacing" textLength="45" x="188.75" y="213.9639">Object</text><text fill="#000000" font-family="sans-serif" font-size="14" lengthAdjust="spacing" textLength="87" x="167.75" y="230.2607">Specification</text><line style="stroke:#181818;stroke-width:0.5;" x1="102" x2="288" y1="238.5625" y2="238.5625"/><ellipse cx="112" cy="252.2109" fill="none" rx="3" ry="3" style="stroke:#038048;stroke-width:1.0;"/><text fill="#000000" font-family="sans-serif" font-size="14" lengthAdjust="spacing" textLength="90" x="121" y="255.5576">objectSpecId</text><line style="stroke:#181818;stroke-width:1.0;stroke-dasharray:1.0,2.0;" x1="102" x2="288" y1="262.8594" y2="262.8594"/><rect fill="none" height="6" style="stroke:#C82930;stroke-width:1.0;" width="6" x="109" y="273.5078"/><text fill="#000000" font-family="sans-serif" font-size="14" lengthAdjust="spacing" textLength="162" x="121" y="279.8545">fullyQualifiedClassName</text></g><!--class Object\nMember--><g id="elem_Object\nMember"><rect codeLine="31" fill="#00FFFF" height="56.5625" id="Object\nMember" rx="2.5" ry="2.5" style="stroke:#181818;stroke-width:0.5;" width="89" x="155.5" y="408"/><ellipse cx="170.5" cy="436.2813" fill="#ADD1B2" rx="11" ry="11" style="stroke:#181818;stroke-width:1.0;"/><path d="M173.4688,441.9219 Q172.8906,442.2188 172.25,442.3594 Q171.6094,442.5156 170.9063,442.5156 Q168.4063,442.5156 167.0781,440.875 Q165.7656,439.2188 165.7656,436.0938 Q165.7656,432.9688 167.0781,431.3125 Q168.4063,429.6563 170.9063,429.6563 Q171.6094,429.6563 172.25,429.8125 Q172.9063,429.9688 173.4688,430.2656 L173.4688,432.9844 Q172.8438,432.4063 172.25,432.1406 Q171.6563,431.8594 171.0313,431.8594 Q169.6875,431.8594 169,432.9375 Q168.3125,434 168.3125,436.0938 Q168.3125,438.1875 169,439.2656 Q169.6875,440.3281 171.0313,440.3281 Q171.6563,440.3281 172.25,440.0625 Q172.8438,439.7813 173.4688,439.2031 L173.4688,441.9219 Z " fill="#000000"/><text fill="#000000" font-family="sans-serif" font-size="12" font-style="italic" lengthAdjust="spacing" textLength="43" x="191.5" y="424.1387">«desc»</text><text fill="#000000" font-family="sans-serif" font-size="14" lengthAdjust="spacing" textLength="45" x="190.5" y="439.9639">Object</text><text fill="#000000" font-family="sans-serif" font-size="14" lengthAdjust="spacing" textLength="57" x="184.5" y="456.2607">Member</text></g><!--class Object\nAction--><g id="elem_Object\nAction"><rect codeLine="35" fill="#00FFFF" height="56.5625" id="Object\nAction" rx="2.5" ry="2.5" style="stroke:#181818;stroke-width:0.5;" width="77" x="168.5" y="525"/><ellipse cx="183.5" cy="553.2813" fill="#ADD1B2" rx="11" ry="11" style="stroke:#181818;stroke-width:1.0;"/><path d="M186.4688,558.9219 Q185.8906,559.2188 185.25,559.3594 Q184.6094,559.5156 183.9063,559.5156 Q181.4063,559.5156 180.0781,557.875 Q178.7656,556.2188 178.7656,553.0938 Q178.7656,549.9688 180.0781,548.3125 Q181.4063,546.6563 183.9063,546.6563 Q184.6094,546.6563 185.25,546.8125 Q185.9063,546.9688 186.4688,547.2656 L186.4688,549.9844 Q185.8438,549.4063 185.25,549.1406 Q184.6563,548.8594 184.0313,548.8594 Q182.6875,548.8594 182,549.9375 Q181.3125,551 181.3125,553.0938 Q181.3125,555.1875 182,556.2656 Q182.6875,557.3281 184.0313,557.3281 Q184.6563,557.3281 185.25,557.0625 Q185.8438,556.7813 186.4688,556.2031 L186.4688,558.9219 Z " fill="#000000"/><text fill="#000000" font-family="sans-serif" font-size="12" font-style="italic" lengthAdjust="spacing" textLength="43" x="198.5" y="541.1387">«desc»</text><text fill="#000000" font-family="sans-serif" font-size="14" lengthAdjust="spacing" textLength="45" x="197.5" y="556.9639">Object</text><text fill="#000000" font-family="sans-serif" font-size="14" lengthAdjust="spacing" textLength="43" x="198.5" y="573.2607">Action</text></g><!--class Object\nAssociation--><g id="elem_Object\nAssociation"><rect codeLine="39" fill="#00FFFF" height="56.5625" id="Object\nAssociation" rx="2.5" ry="2.5" style="stroke:#181818;stroke-width:0.5;" width="111" x="22.5" y="525"/><ellipse cx="37.5" cy="553.2813" fill="#ADD1B2" rx="11" ry="11" style="stroke:#181818;stroke-width:1.0;"/><path d="M40.4688,558.9219 Q39.8906,559.2188 39.25,559.3594 Q38.6094,559.5156 37.9063,559.5156 Q35.4063,559.5156 34.0781,557.875 Q32.7656,556.2188 32.7656,553.0938 Q32.7656,549.9688 34.0781,548.3125 Q35.4063,546.6563 37.9063,546.6563 Q38.6094,546.6563 39.25,546.8125 Q39.9063,546.9688 40.4688,547.2656 L40.4688,549.9844 Q39.8438,549.4063 39.25,549.1406 Q38.6563,548.8594 38.0313,548.8594 Q36.6875,548.8594 36,549.9375 Q35.3125,551 35.3125,553.0938 Q35.3125,555.1875 36,556.2656 Q36.6875,557.3281 38.0313,557.3281 Q38.6563,557.3281 39.25,557.0625 Q39.8438,556.7813 40.4688,556.2031 L40.4688,558.9219 Z " fill="#000000"/><text fill="#000000" font-family="sans-serif" font-size="12" font-style="italic" lengthAdjust="spacing" textLength="43" x="69.5" y="541.1387">«desc»</text><text fill="#000000" font-family="sans-serif" font-size="14" lengthAdjust="spacing" textLength="45" x="68.5" y="556.9639">Object</text><text fill="#000000" font-family="sans-serif" font-size="14" lengthAdjust="spacing" textLength="79" x="51.5" y="573.2607">Association</text></g><!--class OneToOne\nAssociation--><g id="elem_OneToOne\nAssociation"><rect codeLine="43" fill="#00FFFF" height="56.5625" id="OneToOne\nAssociation" rx="2.5" ry="2.5" style="stroke:#181818;stroke-width:0.5;" width="111" x="22.5" y="642"/><ellipse cx="37.5" cy="670.2813" fill="#ADD1B2" rx="11" ry="11" style="stroke:#181818;stroke-width:1.0;"/><path d="M40.4688,675.9219 Q39.8906,676.2188 39.25,676.3594 Q38.6094,676.5156 37.9063,676.5156 Q35.4063,676.5156 34.0781,674.875 Q32.7656,673.2188 32.7656,670.0938 Q32.7656,666.9688 34.0781,665.3125 Q35.4063,663.6563 37.9063,663.6563 Q38.6094,663.6563 39.25,663.8125 Q39.9063,663.9688 40.4688,664.2656 L40.4688,666.9844 Q39.8438,666.4063 39.25,666.1406 Q38.6563,665.8594 38.0313,665.8594 Q36.6875,665.8594 36,666.9375 Q35.3125,668 35.3125,670.0938 Q35.3125,672.1875 36,673.2656 Q36.6875,674.3281 38.0313,674.3281 Q38.6563,674.3281 39.25,674.0625 Q39.8438,673.7813 40.4688,673.2031 L40.4688,675.9219 Z " fill="#000000"/><text fill="#000000" font-family="sans-serif" font-size="12" font-style="italic" lengthAdjust="spacing" textLength="43" x="69.5" y="658.1387">«desc»</text><text fill="#000000" font-family="sans-serif" font-size="14" lengthAdjust="spacing" textLength="76" x="53" y="673.9639">OneToOne</text><text fill="#000000" font-family="sans-serif" font-size="14" lengthAdjust="spacing" textLength="79" x="51.5" y="690.2607">Association</text></g><!--class OneToMany\nAssociation--><g id="elem_OneToMany\nAssociation"><rect codeLine="47" fill="#00FFFF" height="56.5625" id="OneToMany\nAssociation" rx="2.5" ry="2.5" style="stroke:#181818;stroke-width:0.5;" width="115" x="168.5" y="642"/><ellipse cx="183.5" cy="670.2813" fill="#ADD1B2" rx="11" ry="11" style="stroke:#181818;stroke-width:1.0;"/><path d="M186.4688,675.9219 Q185.8906,676.2188 185.25,676.3594 Q184.6094,676.5156 183.9063,676.5156 Q181.4063,676.5156 180.0781,674.875 Q178.7656,673.2188 178.7656,670.0938 Q178.7656,666.9688 180.0781,665.3125 Q181.4063,663.6563 183.9063,663.6563 Q184.6094,663.6563 185.25,663.8125 Q185.9063,663.9688 186.4688,664.2656 L186.4688,666.9844 Q185.8438,666.4063 185.25,666.1406 Q184.6563,665.8594 184.0313,665.8594 Q182.6875,665.8594 182,666.9375 Q181.3125,668 181.3125,670.0938 Q181.3125,672.1875 182,673.2656 Q182.6875,674.3281 184.0313,674.3281 Q184.6563,674.3281 185.25,674.0625 Q185.8438,673.7813 186.4688,673.2031 L186.4688,675.9219 Z " fill="#000000"/><text fill="#000000" font-family="sans-serif" font-size="12" font-style="italic" lengthAdjust="spacing" textLength="43" x="217.5" y="658.1387">«desc»</text><text fill="#000000" font-family="sans-serif" font-size="14" lengthAdjust="spacing" textLength="83" x="197.5" y="673.9639">OneToMany</text><text fill="#000000" font-family="sans-serif" font-size="14" lengthAdjust="spacing" textLength="79" x="199.5" y="690.2607">Association</text></g><!--class FacetHolder--><g id="elem_FacetHolder"><rect codeLine="51" fill="#00FFFF" height="40.2656" id="FacetHolder" rx="2.5" ry="2.5" style="stroke:#181818;stroke-width:0.5;" width="116" x="324" y="214.5"/><ellipse cx="339" cy="234.6328" fill="#B4A7E5" rx="11" ry="11" style="stroke:#181818;stroke-width:1.0;"/><path d="M334.9219,230.3984 L334.9219,228.2422 L342.3125,228.2422 L342.3125,230.3984 L339.8438,230.3984 L339.8438,238.4766 L342.3125,238.4766 L342.3125,240.6328 L334.9219,240.6328 L334.9219,238.4766 L337.3906,238.4766 L337.3906,230.3984 L334.9219,230.3984 Z " fill="#000000"/><text fill="#000000" font-family="sans-serif" font-size="12" font-style="italic" lengthAdjust="spacing" textLength="43" x="373.5" y="230.6387">«desc»</text><text fill="#000000" font-family="sans-serif" font-size="14" font-style="italic" lengthAdjust="spacing" textLength="84" x="353" y="246.4639">FacetHolder</text></g><!--class Object\nActionParameter--><g id="elem_Object\nActionParameter"><rect codeLine="54" fill="#00FFFF" height="56.5625" id="Object\nActionParameter" rx="2.5" ry="2.5" style="stroke:#181818;stroke-width:0.5;" width="146" x="288" y="408"/><ellipse cx="303" cy="436.2813" fill="#ADD1B2" rx="11" ry="11" style="stroke:#181818;stroke-width:1.0;"/><path d="M305.9688,441.9219 Q305.3906,442.2188 304.75,442.3594 Q304.1094,442.5156 303.4063,442.5156 Q300.9063,442.5156 299.5781,440.875 Q298.2656,439.2188 298.2656,436.0938 Q298.2656,432.9688 299.5781,431.3125 Q300.9063,429.6563 303.4063,429.6563 Q304.1094,429.6563 304.75,429.8125 Q305.4063,429.9688 305.9688,430.2656 L305.9688,432.9844 Q305.3438,432.4063 304.75,432.1406 Q304.1563,431.8594 303.5313,431.8594 Q302.1875,431.8594 301.5,432.9375 Q300.8125,434 300.8125,436.0938 Q300.8125,438.1875 301.5,439.2656 Q302.1875,440.3281 303.5313,440.3281 Q304.1563,440.3281 304.75,440.0625 Q305.3438,439.7813 305.9688,439.2031 L305.9688,441.9219 Z " fill="#000000"/><text fill="#000000" font-family="sans-serif" font-size="12" font-style="italic" lengthAdjust="spacing" textLength="43" x="352.5" y="424.1387">«desc»</text><text fill="#000000" font-family="sans-serif" font-size="14" lengthAdjust="spacing" textLength="45" x="351.5" y="439.9639">Object</text><text fill="#000000" font-family="sans-serif" font-size="14" lengthAdjust="spacing" textLength="114" x="317" y="456.2607">ActionParameter</text></g><!--class OneToOne\nActionParameter--><g id="elem_OneToOne\nActionParameter"><rect codeLine="57" fill="#00FFFF" height="56.5625" id="OneToOne\nActionParameter" rx="2.5" ry="2.5" style="stroke:#181818;stroke-width:0.5;" width="146" x="281" y="525"/><ellipse cx="296" cy="553.2813" fill="#ADD1B2" rx="11" ry="11" style="stroke:#181818;stroke-width:1.0;"/><path d="M298.9688,558.9219 Q298.3906,559.2188 297.75,559.3594 Q297.1094,559.5156 296.4063,559.5156 Q293.9063,559.5156 292.5781,557.875 Q291.2656,556.2188 291.2656,553.0938 Q291.2656,549.9688 292.5781,548.3125 Q293.9063,546.6563 296.4063,546.6563 Q297.1094,546.6563 297.75,546.8125 Q298.4063,546.9688 298.9688,547.2656 L298.9688,549.9844 Q298.3438,549.4063 297.75,549.1406 Q297.1563,548.8594 296.5313,548.8594 Q295.1875,548.8594 294.5,549.9375 Q293.8125,551 293.8125,553.0938 Q293.8125,555.1875 294.5,556.2656 Q295.1875,557.3281 296.5313,557.3281 Q297.1563,557.3281 297.75,557.0625 Q298.3438,556.7813 298.9688,556.2031 L298.9688,558.9219 Z " fill="#000000"/><text fill="#000000" font-family="sans-serif" font-size="12" font-style="italic" lengthAdjust="spacing" textLength="43" x="345.5" y="541.1387">«desc»</text><text fill="#000000" font-family="sans-serif" font-size="14" lengthAdjust="spacing" textLength="76" x="329" y="556.9639">OneToOne</text><text fill="#000000" font-family="sans-serif" font-size="14" lengthAdjust="spacing" textLength="114" x="310" y="573.2607">ActionParameter</text></g><!--class Facet--><g id="elem_Facet"><rect codeLine="60" fill="#00FFFF" height="40.2656" id="Facet" rx="2.5" ry="2.5" style="stroke:#181818;stroke-width:0.5;" width="71" x="475.5" y="214.5"/><ellipse cx="490.5" cy="234.6328" fill="#B4A7E5" rx="11" ry="11" style="stroke:#181818;stroke-width:1.0;"/><path d="M486.4219,230.3984 L486.4219,228.2422 L493.8125,228.2422 L493.8125,230.3984 L491.3438,230.3984 L491.3438,238.4766 L493.8125,238.4766 L493.8125,240.6328 L486.4219,240.6328 L486.4219,238.4766 L488.8906,238.4766 L488.8906,230.3984 L486.4219,230.3984 Z " fill="#000000"/><text fill="#000000" font-family="sans-serif" font-size="12" font-style="italic" lengthAdjust="spacing" textLength="43" x="502.5" y="230.6387">«desc»</text><text fill="#000000" font-family="sans-serif" font-size="14" font-style="italic" lengthAdjust="spacing" textLength="38" x="505" y="246.4639">Facet</text></g><!--class OneToMany\nActionParameter--><g id="elem_OneToMany\nActionParameter"><rect codeLine="63" fill="#00FFFF" height="56.5625" id="OneToMany\nActionParameter" rx="2.5" ry="2.5" style="stroke:#181818;stroke-width:0.5;" width="146" x="462" y="525"/><ellipse cx="477" cy="553.2813" fill="#ADD1B2" rx="11" ry="11" style="stroke:#181818;stroke-width:1.0;"/><path d="M479.9688,558.9219 Q479.3906,559.2188 478.75,559.3594 Q478.1094,559.5156 477.4063,559.5156 Q474.9063,559.5156 473.5781,557.875 Q472.2656,556.2188 472.2656,553.0938 Q472.2656,549.9688 473.5781,548.3125 Q474.9063,546.6563 477.4063,546.6563 Q478.1094,546.6563 478.75,546.8125 Q479.4063,546.9688 479.9688,547.2656 L479.9688,549.9844 Q479.3438,549.4063 478.75,549.1406 Q478.1563,548.8594 477.5313,548.8594 Q476.1875,548.8594 475.5,549.9375 Q474.8125,551 474.8125,553.0938 Q474.8125,555.1875 475.5,556.2656 Q476.1875,557.3281 477.5313,557.3281 Q478.1563,557.3281 478.75,557.0625 Q479.3438,556.7813 479.9688,556.2031 L479.9688,558.9219 Z " fill="#000000"/><text fill="#000000" font-family="sans-serif" font-size="12" font-style="italic" lengthAdjust="spacing" textLength="43" x="526.5" y="541.1387">«desc»</text><text fill="#000000" font-family="sans-serif" font-size="14" lengthAdjust="spacing" textLength="83" x="506.5" y="556.9639">OneToMany</text><text fill="#000000" font-family="sans-serif" font-size="14" lengthAdjust="spacing" textLength="114" x="491" y="573.2607">ActionParameter</text></g><!--class Object\nAdapter--><g id="elem_Object\nAdapter"><rect codeLine="68" fill="#90EE90" height="80.8594" id="Object\nAdapter" rx="2.5" ry="2.5" style="stroke:#181818;stroke-width:0.5;" width="146" x="664" y="194"/><ellipse cx="706" cy="222.2813" fill="#ADD1B2" rx="11" ry="11" style="stroke:#181818;stroke-width:1.0;"/><path d="M708.9688,227.9219 Q708.3906,228.2188 707.75,228.3594 Q707.1094,228.5156 706.4063,228.5156 Q703.9063,228.5156 702.5781,226.875 Q701.2656,225.2188 701.2656,222.0938 Q701.2656,218.9688 702.5781,217.3125 Q703.9063,215.6563 706.4063,215.6563 Q707.1094,215.6563 707.75,215.8125 Q708.4063,215.9688 708.9688,216.2656 L708.9688,218.9844 Q708.3438,218.4063 707.75,218.1406 Q707.1563,217.8594 706.5313,217.8594 Q705.1875,217.8594 704.5,218.9375 Q703.8125,220 703.8125,222.0938 Q703.8125,224.1875 704.5,225.2656 Q705.1875,226.3281 706.5313,226.3281 Q707.1563,226.3281 707.75,226.0625 Q708.3438,225.7813 708.9688,225.2031 L708.9688,227.9219 Z " fill="#000000"/><text fill="#000000" font-family="sans-serif" font-size="12" font-style="italic" lengthAdjust="spacing" textLength="35" x="735.5" y="210.1387">«ppt»</text><text fill="#000000" font-family="sans-serif" font-size="14" lengthAdjust="spacing" textLength="45" x="730.5" y="225.9639">Object</text><text fill="#000000" font-family="sans-serif" font-size="14" lengthAdjust="spacing" textLength="54" x="726" y="242.2607">Adapter</text><line style="stroke:#181818;stroke-width:0.5;" x1="665" x2="809" y1="250.5625" y2="250.5625"/><ellipse cx="675" cy="264.2109" fill="#84BE84" rx="3" ry="3" style="stroke:#038048;stroke-width:1.0;"/><text fill="#000000" font-family="sans-serif" font-size="14" lengthAdjust="spacing" textLength="120" x="684" y="267.5576">getSpecification()</text></g><!--class Oid--><g id="elem_Oid"><rect codeLine="71" fill="#FFFFFF" height="40.2656" id="Oid" rx="2.5" ry="2.5" style="stroke:#181818;stroke-width:0.5;" width="75" x="681.5" y="61.5"/><ellipse cx="696.5" cy="81.6328" fill="#ADD1B2" rx="11" ry="11" style="stroke:#181818;stroke-width:1.0;"/><path d="M699.4688,87.2734 Q698.8906,87.5703 698.25,87.7109 Q697.6094,87.8672 696.9063,87.8672 Q694.4063,87.8672 693.0781,86.2266 Q691.7656,84.5703 691.7656,81.4453 Q691.7656,78.3203 693.0781,76.6641 Q694.4063,75.0078 696.9063,75.0078 Q697.6094,75.0078 698.25,75.1641 Q698.9063,75.3203 699.4688,75.6172 L699.4688,78.3359 Q698.8438,77.7578 698.25,77.4922 Q697.6563,77.2109 697.0313,77.2109 Q695.6875,77.2109 695,78.2891 Q694.3125,79.3516 694.3125,81.4453 Q694.3125,83.5391 695,84.6172 Q695.6875,85.6797 697.0313,85.6797 Q697.6563,85.6797 698.25,85.4141 Q698.8438,85.1328 699.4688,84.5547 L699.4688,87.2734 Z " fill="#000000"/><text fill="#000000" font-family="sans-serif" font-size="12" font-style="italic" lengthAdjust="spacing" textLength="47" x="708.5" y="77.6387">«value»</text><text fill="#000000" font-family="sans-serif" font-size="14" lengthAdjust="spacing" textLength="23" x="720.5" y="93.4639">Oid</text></g><!--reverse link Object\nSpecId to Object\nSpecification--><g id="link_Object\nSpecId_Object\nSpecification"><path codeLine="78" d="M336.24,118.83 C313.09,137.63 284.42,160.9 258.98,181.56 " fill="none" id="Object\nSpecId-backto-Object\nSpecification" style="stroke:#181818;stroke-width:1.0;"/><polygon fill="#181818" points="339.92,115.85,330.4069,118.3998,336.0324,118.9943,335.4379,124.6199,339.92,115.85" style="stroke:#181818;stroke-width:1.0;"/></g><!--link Object\nSpecification to Object\nMember--><g id="link_Object\nSpecification_Object\nMember"><path codeLine="79" d="M196.29,287.27 C197.19,323.14 198.36,369.9 199.14,401.23 " fill="none" id="Object\nSpecification-to-Object\nMember" style="stroke:#181818;stroke-width:1.0;"/><polygon fill="#181818" points="199.27,406.15,203.0373,397.0502,199.1415,401.1517,195.04,397.2558,199.27,406.15" style="stroke:#181818;stroke-width:1.0;"/><text fill="#000000" font-family="sans-serif" font-size="13" lengthAdjust="spacing" textLength="7" x="191.3813" y="396.8521">*</text></g><!--reverse link Object\nMember to Object\nAssociation--><g id="link_Object\nMember_Object\nAssociation"><path codeLine="80" d="M155.31,479.63 C139.44,494.58 121.99,511.04 107.68,524.52 " fill="none" id="Object\nMember-backto-Object\nAssociation" style="stroke:#181818;stroke-width:1.0;"/><polygon fill="none" points="150.01,475,169.37,466.38,159.61,485.19,150.01,475" style="stroke:#181818;stroke-width:1.0;"/></g><!--reverse link Object\nMember to Object\nAction--><g id="link_Object\nMember_Object\nAction"><path codeLine="81" d="M203,486.73 C203.78,499.65 204.6,513.14 205.3,524.52 " fill="none" id="Object\nMember-backto-Object\nAction" style="stroke:#181818;stroke-width:1.0;"/><polygon fill="none" points="196.01,487.24,201.79,466.85,209.99,486.39,196.01,487.24" style="stroke:#181818;stroke-width:1.0;"/></g><!--reverse link Object\nAssociation to OneToOne\nAssociation--><g id="link_Object\nAssociation_OneToOne\nAssociation"><path codeLine="82" d="M78,603.73 C78,616.65 78,630.14 78,641.52 " fill="none" id="Object\nAssociation-backto-OneToOne\nAssociation" style="stroke:#181818;stroke-width:1.0;"/><polygon fill="none" points="71,603.85,78,583.85,85,603.85,71,603.85" style="stroke:#181818;stroke-width:1.0;"/></g><!--reverse link Object\nAssociation to OneToMany\nAssociation--><g id="link_Object\nAssociation_OneToMany\nAssociation"><path codeLine="83" d="M130.72,595.46 C150.36,610.73 172.19,627.69 189.99,641.52 " fill="none" id="Object\nAssociation-backto-OneToMany\nAssociation" style="stroke:#181818;stroke-width:1.0;"/><polygon fill="none" points="126.52,601.07,115.02,583.27,135.11,590.01,126.52,601.07" style="stroke:#181818;stroke-width:1.0;"/></g><!--reverse link Object\nActionParameter to OneToOne\nActionParameter--><g id="link_Object\nActionParameter_OneToOne\nActionParameter"><path codeLine="84" d="M358,486.73 C357.22,499.65 356.4,513.14 355.7,524.52 " fill="none" id="Object\nActionParameter-backto-OneToOne\nActionParameter" style="stroke:#181818;stroke-width:1.0;"/><polygon fill="none" points="351.01,486.39,359.21,466.85,364.99,487.24,351.01,486.39" style="stroke:#181818;stroke-width:1.0;"/></g><!--reverse link Object\nActionParameter to OneToMany\nActionParameter--><g id="link_Object\nActionParameter_OneToMany\nActionParameter"><path codeLine="85" d="M420.88,477.07 C444.5,492.69 471.1,510.27 492.66,524.52 " fill="none" id="Object\nActionParameter-backto-OneToMany\nActionParameter" style="stroke:#181818;stroke-width:1.0;"/><polygon fill="none" points="417.21,483.04,404.38,466.17,424.93,471.36,417.21,483.04" style="stroke:#181818;stroke-width:1.0;"/></g><!--reverse link Object\nActionParameter to Object\nAction--><g id="link_Object\nActionParameter_Object\nAction"><path codeLine="86" d="M318.55,469.2 C295.34,486.53 266.85,507.81 244.47,524.52 " fill="none" id="Object\nActionParameter-backto-Object\nAction" style="stroke:#181818;stroke-width:1.0;"/><polygon fill="#181818" points="322.51,466.24,312.9063,468.4236,318.5049,469.2332,317.6953,474.8318,322.51,466.24" style="stroke:#181818;stroke-width:1.0;"/><text fill="#000000" font-family="sans-serif" font-size="13" lengthAdjust="spacing" textLength="7" x="308.6914" y="484.6175">*</text></g><!--link Object\nSpecification to FacetHolder--><g id="link_Object\nSpecification_FacetHolder"><path codeLine="88" d="M289.23,234.5 C293.62,234.5 298.02,234.5 302.41,234.5 " fill="none" id="Object\nSpecification-to-FacetHolder" style="stroke:#181818;stroke-width:1.0;stroke-dasharray:7.0,7.0;"/><polygon fill="none" points="302.14,227.5,322.14,234.5,302.14,241.5,302.14,227.5" style="stroke:#181818;stroke-width:1.0;"/></g><!--reverse link FacetHolder to Object\nMember--><g id="link_FacetHolder_Object\nMember"><path codeLine="89" d="M350.08,270.57 C314.52,309.65 257.75,372.03 225.18,407.83 " fill="none" id="FacetHolder-backto-Object\nMember" style="stroke:#181818;stroke-width:1.0;stroke-dasharray:7.0,7.0;"/><polygon fill="none" points="344.89,265.88,363.53,255.8,355.25,275.3,344.89,265.88" style="stroke:#181818;stroke-width:1.0;"/></g><!--reverse link FacetHolder to Object\nActionParameter--><g id="link_FacetHolder_Object\nActionParameter"><path codeLine="90" d="M377.75,275.98 C373.63,315.21 367.49,373.64 363.91,407.83 " fill="none" id="FacetHolder-backto-Object\nActionParameter" style="stroke:#181818;stroke-width:1.0;stroke-dasharray:7.0,7.0;"/><polygon fill="none" points="370.78,275.34,379.83,256.18,384.7,276.8,370.78,275.34" style="stroke:#181818;stroke-width:1.0;"/></g><!--link FacetHolder to Facet--><g id="link_FacetHolder_Facet"><path codeLine="91" d="M440.45,234.5 C449.86,234.5 459.26,234.5 468.66,234.5 " fill="none" id="FacetHolder-to-Facet" style="stroke:#181818;stroke-width:1.0;"/><polygon fill="#181818" points="473.66,234.5,464.66,230.5,468.66,234.5,464.66,238.5,473.66,234.5" style="stroke:#181818;stroke-width:1.0;"/><text fill="#000000" font-family="sans-serif" font-size="13" lengthAdjust="spacing" textLength="7" x="460.4389" y="230.0773">*</text></g><!--reverse link Oid to Object\nAdapter--><g id="link_Oid_Object\nAdapter"><path codeLine="94" d="M722.07,108.23 C724.86,131.69 729.04,166.72 732.26,193.77 " fill="none" id="Oid-backto-Object\nAdapter" style="stroke:#181818;stroke-width:1.0;"/><polygon fill="#181818" points="721.5,103.43,718.6072,112.8444,722.0991,108.394,726.5496,111.8859,721.5,103.43" style="stroke:#181818;stroke-width:1.0;"/></g><!--link Oid to Object\nSpecId--><g id="link_Oid_Object\nSpecId"><path codeLine="96" d="M681.16,81.5 C596.54,81.5 511.92,81.5 427.29,81.5 " fill="none" id="Oid-to-Object\nSpecId" style="stroke:#181818;stroke-width:1.0;"/><polygon fill="#181818" points="422.45,81.5,431.45,85.5,427.45,81.5,431.45,77.5,422.45,81.5" style="stroke:#181818;stroke-width:1.0;"/></g><!--SRC=[bPJRYjim48RlzHHYhth0-mHBe0sqNTXjjxHG2gMWbIRED3eXoPkQikzUnNPYMPNZL1S2Mzy_endzqXO5K50sj5I1UWJd2V4xr9OvfYYNp7lwXz0utZA-gvrfj5WRQTpDZG3FLokwRfak0zQ6k7w7zJQyTm0pbC8Zz81wLsQSaN2aleEKPb_cV70iGDr6zjiM0vGfPl4yu9S0r06SPZ8fhosJJqmsS0fMPa073Eq5hNf2s2iZG2vtJE5lr5dBdWcnaMCrnBCEh8iK3xSBq9_qfyTVmCCF_SK2lnNZxdi77CRhqDg-ASzpGjmWPm6DFbaaaPiExEEV_bx7SVgeDesKxUU6oHW8nFeG_oDJPvBUTyPDiisZRtYsiJEezuOZM-OrV3Ln-a_5FTFj9PBEQXl6WRwBK_XWf9ZKkb3gm-4UGrYGZ2LS8igsj1XvA7KXTE9EryGReM1OoieIp7Ro_dL9h5L3cDZlnSiXSX849wOUCnDIT32j6bkjicinXmgprn6-UdMLEPDCF-dF7YqvRH7b4ofHZcZ9ZykAV_n8PenKIZGbBbCMNP59QILX4xAcvXAIN8oOuhgJb5-a79qsTpYjiqoUF8KhTtXiXzrs2ucl1j_IewLGn3KKesXgihy0]--></g></svg>