<?xml version="1.0" encoding="UTF-8" standalone="no"?><svg xmlns="http://www.w3.org/2000/svg" xmlns:xlink="http://www.w3.org/1999/xlink" contentStyleType="text/css" height="1147px" preserveAspectRatio="none" style="width:912px;height:1147px;background:#FFFFFF;" version="1.1" viewBox="0 0 912 1147" width="912px" zoomAndPan="magnify"><defs/><g><text fill="#000000" font-family="sans-serif" font-size="14" lengthAdjust="spacing" textLength="37" x="469.3333" y="569.667">know</text><text fill="#000000" font-family="sans-serif" font-size="14" lengthAdjust="spacing" textLength="29" x="469.3333" y="585.9639">how</text><text fill="#000000" font-family="sans-serif" font-size="14" lengthAdjust="spacing" textLength="49" x="559.3333" y="203.7373">trouble</text><text fill="#000000" font-family="sans-serif" font-size="14" lengthAdjust="spacing" textLength="61" x="559.3333" y="220.0342">shooting</text><rect fill="#F1F1F1" height="36.2969" rx="12.5" ry="12.5" style="stroke:#181818;stroke-width:1.5;" width="60" x="670.3333" y="132.5938"/><text fill="#000000" font-family="sans-serif" font-size="14" lengthAdjust="spacing" textLength="40" x="680.3333" y="155.5889">CORS</text><path d="M620.3333,207.0391 L630.3333,207.0391 C645.3333,207.0391 645.3333,150.7422 660.3333,150.7422 L670.3333,150.7422 " fill="none" style="stroke:#181818;stroke-width:1.0;"/><rect fill="#F1F1F1" height="36.2969" rx="12.5" ry="12.5" style="stroke:#181818;stroke-width:1.5;" width="117" x="670.3333" y="188.8906"/><text fill="#000000" font-family="sans-serif" font-size="14" lengthAdjust="spacing" textLength="97" x="680.3333" y="211.8857">Proxy settings</text><rect fill="#F1F1F1" height="36.2969" rx="12.5" ry="12.5" style="stroke:#181818;stroke-width:1.5;" width="51" x="837.3333" y="20"/><text fill="#000000" font-family="sans-serif" font-size="14" lengthAdjust="spacing" textLength="31" x="847.3333" y="42.9951">npm</text><path d="M787.3333,207.0391 L797.3333,207.0391 C812.3333,207.0391 812.3333,38.1484 827.3333,38.1484 L837.3333,38.1484 " fill="none" style="stroke:#181818;stroke-width:1.0;"/><rect fill="#F1F1F1" height="36.2969" rx="12.5" ry="12.5" style="stroke:#181818;stroke-width:1.5;" width="37" x="837.3333" y="76.2969"/><text fill="#000000" font-family="sans-serif" font-size="14" lengthAdjust="spacing" textLength="17" x="847.3333" y="99.292">git</text><path d="M787.3333,207.0391 L797.3333,207.0391 C812.3333,207.0391 812.3333,94.4453 827.3333,94.4453 L837.3333,94.4453 " fill="none" style="stroke:#181818;stroke-width:1.0;"/><rect fill="#F1F1F1" height="36.2969" rx="12.5" ry="12.5" style="stroke:#181818;stroke-width:1.5;" width="63" x="837.3333" y="132.5938"/><text fill="#000000" font-family="sans-serif" font-size="14" lengthAdjust="spacing" textLength="43" x="847.3333" y="155.5889">gradle</text><path d="M787.3333,207.0391 L797.3333,207.0391 C812.3333,207.0391 812.3333,150.7422 827.3333,150.7422 L837.3333,150.7422 " fill="none" style="stroke:#181818;stroke-width:1.0;"/><rect fill="#F1F1F1" height="36.2969" rx="12.5" ry="12.5" style="stroke:#181818;stroke-width:1.5;" width="45" x="837.3333" y="188.8906"/><text fill="#000000" font-family="sans-serif" font-size="14" lengthAdjust="spacing" textLength="25" x="847.3333" y="211.8857">ssh</text><path d="M787.3333,207.0391 L797.3333,207.0391 C812.3333,207.0391 812.3333,207.0391 827.3333,207.0391 L837.3333,207.0391 " fill="none" style="stroke:#181818;stroke-width:1.0;"/><rect fill="#F1F1F1" height="36.2969" rx="12.5" ry="12.5" style="stroke:#181818;stroke-width:1.5;" width="45" x="837.3333" y="245.1875"/><text fill="#000000" font-family="sans-serif" font-size="14" lengthAdjust="spacing" textLength="25" x="847.3333" y="268.1826">curl</text><path d="M787.3333,207.0391 L797.3333,207.0391 C812.3333,207.0391 812.3333,263.3359 827.3333,263.3359 L837.3333,263.3359 " fill="none" style="stroke:#181818;stroke-width:1.0;"/><rect fill="#F1F1F1" height="36.2969" rx="12.5" ry="12.5" style="stroke:#181818;stroke-width:1.5;" width="49" x="837.3333" y="301.4844"/><text fill="#000000" font-family="sans-serif" font-size="14" lengthAdjust="spacing" textLength="29" x="847.3333" y="324.4795">yarn</text><path d="M787.3333,207.0391 L797.3333,207.0391 C812.3333,207.0391 812.3333,319.6328 827.3333,319.6328 L837.3333,319.6328 " fill="none" style="stroke:#181818;stroke-width:1.0;"/><rect fill="#F1F1F1" height="36.2969" rx="12.5" ry="12.5" style="stroke:#181818;stroke-width:1.5;" width="49" x="837.3333" y="357.7813"/><text fill="#000000" font-family="sans-serif" font-size="14" lengthAdjust="spacing" textLength="29" x="847.3333" y="380.7764">mvn</text><path d="M787.3333,207.0391 L797.3333,207.0391 C812.3333,207.0391 812.3333,375.9297 827.3333,375.9297 L837.3333,375.9297 " fill="none" style="stroke:#181818;stroke-width:1.0;"/><path d="M620.3333,207.0391 L630.3333,207.0391 C645.3333,207.0391 645.3333,207.0391 660.3333,207.0391 L670.3333,207.0391 " fill="none" style="stroke:#181818;stroke-width:1.0;"/><path d="M506.3333,572.9688 L516.3333,572.9688 C531.3333,572.9688 531.3333,207.0391 546.3333,207.0391 L556.3333,207.0391 " fill="none" style="stroke:#181818;stroke-width:1.0;"/><text fill="#000000" font-family="sans-serif" font-size="14" lengthAdjust="spacing" textLength="33" x="559.3333" y="577.8154">build</text><rect fill="#F1F1F1" height="36.2969" rx="12.5" ry="12.5" style="stroke:#181818;stroke-width:1.5;" width="72" x="642.3333" y="414.0781"/><text fill="#000000" font-family="sans-serif" font-size="14" lengthAdjust="spacing" textLength="52" x="652.3333" y="437.0732">Node.js</text><path d="M592.3333,572.9688 L602.3333,572.9688 C617.3333,572.9688 617.3333,432.2266 632.3333,432.2266 L642.3333,432.2266 " fill="none" style="stroke:#181818;stroke-width:1.0;"/><rect fill="#F1F1F1" height="36.2969" rx="12.5" ry="12.5" style="stroke:#181818;stroke-width:1.5;" width="63" x="642.3333" y="470.375"/><text fill="#000000" font-family="sans-serif" font-size="14" lengthAdjust="spacing" textLength="43" x="652.3333" y="493.3701">gradle</text><path d="M592.3333,572.9688 L602.3333,572.9688 C617.3333,572.9688 617.3333,488.5234 632.3333,488.5234 L642.3333,488.5234 " fill="none" style="stroke:#181818;stroke-width:1.0;"/><rect fill="#F1F1F1" height="36.2969" rx="12.5" ry="12.5" style="stroke:#181818;stroke-width:1.5;" width="51" x="642.3333" y="526.6719"/><text fill="#000000" font-family="sans-serif" font-size="14" lengthAdjust="spacing" textLength="31" x="652.3333" y="549.667">npm</text><path d="M592.3333,572.9688 L602.3333,572.9688 C617.3333,572.9688 617.3333,544.8203 632.3333,544.8203 L642.3333,544.8203 " fill="none" style="stroke:#181818;stroke-width:1.0;"/><rect fill="#F1F1F1" height="36.2969" rx="12.5" ry="12.5" style="stroke:#181818;stroke-width:1.5;" width="51" x="642.3333" y="582.9688"/><text fill="#000000" font-family="sans-serif" font-size="14" lengthAdjust="spacing" textLength="31" x="652.3333" y="605.9639">Yarn</text><path d="M592.3333,572.9688 L602.3333,572.9688 C617.3333,572.9688 617.3333,601.1172 632.3333,601.1172 L642.3333,601.1172 " fill="none" style="stroke:#181818;stroke-width:1.0;"/><rect fill="#F1F1F1" height="36.2969" rx="12.5" ry="12.5" style="stroke:#181818;stroke-width:1.5;" width="82" x="642.3333" y="639.2656"/><text fill="#000000" font-family="sans-serif" font-size="14" lengthAdjust="spacing" textLength="62" x="652.3333" y="662.2607">webpack</text><path d="M592.3333,572.9688 L602.3333,572.9688 C617.3333,572.9688 617.3333,657.4141 632.3333,657.4141 L642.3333,657.4141 " fill="none" style="stroke:#181818;stroke-width:1.0;"/><rect fill="#F1F1F1" height="36.2969" rx="12.5" ry="12.5" style="stroke:#181818;stroke-width:1.5;" width="50" x="642.3333" y="695.5625"/><text fill="#000000" font-family="sans-serif" font-size="14" lengthAdjust="spacing" textLength="30" x="652.3333" y="718.5576">DCE</text><path d="M592.3333,572.9688 L602.3333,572.9688 C617.3333,572.9688 617.3333,713.7109 632.3333,713.7109 L642.3333,713.7109 " fill="none" style="stroke:#181818;stroke-width:1.0;"/><path d="M506.3333,572.9688 L516.3333,572.9688 C531.3333,572.9688 531.3333,572.9688 546.3333,572.9688 L556.3333,572.9688 " fill="none" style="stroke:#181818;stroke-width:1.0;"/><text fill="#000000" font-family="sans-serif" font-size="14" lengthAdjust="spacing" textLength="27" x="559.3333" y="943.7451">test</text><rect fill="#F1F1F1" height="36.2969" rx="12.5" ry="12.5" style="stroke:#181818;stroke-width:1.5;" width="63" x="636.3333" y="751.8594"/><text fill="#000000" font-family="sans-serif" font-size="14" lengthAdjust="spacing" textLength="43" x="646.3333" y="774.8545">Karma</text><path d="M586.3333,938.8984 L596.3333,938.8984 C611.3333,938.8984 611.3333,770.0078 626.3333,770.0078 L636.3333,770.0078 " fill="none" style="stroke:#181818;stroke-width:1.0;"/><rect fill="#F1F1F1" height="36.2969" rx="12.5" ry="12.5" style="stroke:#181818;stroke-width:1.5;" width="66" x="636.3333" y="808.1563"/><text fill="#000000" font-family="sans-serif" font-size="14" lengthAdjust="spacing" text-decoration="wavy underline" textLength="46" x="646.3333" y="831.1514">Mocha</text><path d="M586.3333,938.8984 L596.3333,938.8984 C611.3333,938.8984 611.3333,826.3047 626.3333,826.3047 L636.3333,826.3047 " fill="none" style="stroke:#181818;stroke-width:1.0;"/><rect fill="#F1F1F1" height="36.2969" rx="12.5" ry="12.5" style="stroke:#181818;stroke-width:1.5;" width="139" x="636.3333" y="864.4531"/><text fill="#000000" font-family="sans-serif" font-size="14" lengthAdjust="spacing" textLength="119" x="646.3333" y="887.4482">ChromeHeadless</text><path d="M586.3333,938.8984 L596.3333,938.8984 C611.3333,938.8984 611.3333,882.6016 626.3333,882.6016 L636.3333,882.6016 " fill="none" style="stroke:#181818;stroke-width:1.0;"/><rect fill="#F1F1F1" height="36.2969" rx="12.5" ry="12.5" style="stroke:#181818;stroke-width:1.5;" width="55" x="636.3333" y="920.75"/><text fill="#000000" font-family="sans-serif" font-size="14" lengthAdjust="spacing" textLength="35" x="646.3333" y="943.7451">qunit</text><path d="M586.3333,938.8984 L596.3333,938.8984 C611.3333,938.8984 611.3333,938.8984 626.3333,938.8984 L636.3333,938.8984 " fill="none" style="stroke:#181818;stroke-width:1.0;"/><rect fill="#F1F1F1" height="36.2969" rx="12.5" ry="12.5" style="stroke:#181818;stroke-width:1.5;" width="99" x="636.3333" y="977.0469"/><text fill="#000000" font-family="sans-serif" font-size="14" lengthAdjust="spacing" textLength="79" x="646.3333" y="1000.042">PhtantomJS</text><path d="M586.3333,938.8984 L596.3333,938.8984 C611.3333,938.8984 611.3333,995.1953 626.3333,995.1953 L636.3333,995.1953 " fill="none" style="stroke:#181818;stroke-width:1.0;"/><rect fill="#F1F1F1" height="36.2969" rx="12.5" ry="12.5" style="stroke:#181818;stroke-width:1.5;" width="84" x="636.3333" y="1061.4922"/><text fill="#000000" font-family="sans-serif" font-size="14" lengthAdjust="spacing" textLength="64" x="646.3333" y="1084.4873">coverage</text><rect fill="#F1F1F1" height="36.2969" rx="12.5" ry="12.5" style="stroke:#181818;stroke-width:1.5;" width="74" x="770.3333" y="1033.3438"/><text fill="#000000" font-family="sans-serif" font-size="14" lengthAdjust="spacing" textLength="54" x="780.3333" y="1056.3389">istanbul</text><path d="M720.3333,1079.6406 L730.3333,1079.6406 C745.3333,1079.6406 745.3333,1051.4922 760.3333,1051.4922 L770.3333,1051.4922 " fill="none" style="stroke:#181818;stroke-width:1.0;"/><rect fill="#F1F1F1" height="36.2969" rx="12.5" ry="12.5" style="stroke:#181818;stroke-width:1.5;" width="44" x="770.3333" y="1089.6406"/><text fill="#000000" font-family="sans-serif" font-size="14" lengthAdjust="spacing" textLength="24" x="780.3333" y="1112.6357">nyc</text><path d="M720.3333,1079.6406 L730.3333,1079.6406 C745.3333,1079.6406 745.3333,1107.7891 760.3333,1107.7891 L770.3333,1107.7891 " fill="none" style="stroke:#181818;stroke-width:1.0;"/><path d="M586.3333,938.8984 L596.3333,938.8984 C611.3333,938.8984 611.3333,1079.6406 626.3333,1079.6406 L636.3333,1079.6406 " fill="none" style="stroke:#181818;stroke-width:1.0;"/><path d="M506.3333,572.9688 L516.3333,572.9688 C531.3333,572.9688 531.3333,938.8984 546.3333,938.8984 L556.3333,938.8984 " fill="none" style="stroke:#181818;stroke-width:1.0;"/><text fill="#000000" font-family="sans-serif" font-size="14" lengthAdjust="spacing" textLength="44" x="369.3333" y="240.0342">basics</text><rect fill="#F1F1F1" height="36.2969" rx="12.5" ry="12.5" style="stroke:#181818;stroke-width:1.5;" width="58" x="261.3333" y="160.7422"/><text fill="#000000" font-family="sans-serif" font-size="14" lengthAdjust="spacing" textLength="38" x="271.3333" y="183.7373">HTML</text><path d="M369.3333,235.1875 L359.3333,235.1875 C344.3333,235.1875 344.3333,178.8906 329.3333,178.8906 L319.3333,178.8906 " fill="none" style="stroke:#181818;stroke-width:1.0;"/><rect fill="#F1F1F1" height="36.2969" rx="12.5" ry="12.5" style="stroke:#181818;stroke-width:1.5;" width="48" x="271.3333" y="217.0391"/><text fill="#000000" font-family="sans-serif" font-size="14" lengthAdjust="spacing" textLength="28" x="281.3333" y="240.0342">CSS</text><path d="M369.3333,235.1875 L359.3333,235.1875 C344.3333,235.1875 344.3333,235.1875 329.3333,235.1875 L319.3333,235.1875 " fill="none" style="stroke:#181818;stroke-width:1.0;"/><rect fill="#F1F1F1" height="36.2969" rx="12.5" ry="12.5" style="stroke:#181818;stroke-width:1.5;" width="96.3333" x="223" y="273.3359"/><path d="M237.5,286.7995 C236.8583,286.7995 236.3333,287.3245 236.3333,287.9661 L236.3333,294.3828 C236.3333,294.7095 236.0767,294.9661 235.75,294.9661 C235.4233,294.9661 235.1667,294.7095 235.1667,294.3828 L235.1667,292.6328 L234,292.6328 L234,294.9661 C234,295.6078 234.525,296.1328 235.1667,296.1328 L241,296.1328 C241.6417,296.1328 242.1667,295.6078 242.1667,294.9661 L242.1667,291.4661 L237.5,291.4661 L237.5,288.5495 C237.5,288.2228 237.7567,287.9661 238.0833,287.9661 C238.41,287.9661 238.6667,288.2228 238.6667,288.5495 L238.6667,290.2995 L243.3333,290.2995 L243.3333,287.9661 C243.3333,287.3245 242.8083,286.7995 242.1667,286.7995 L237.5,286.7995 " fill="#000000" style="stroke:;stroke-width:0.0;stroke-dasharray:;"/><text fill="#000000" font-family="sans-serif" font-size="14" lengthAdjust="spacing" textLength="65" x="244.3333" y="296.3311">JavaScript</text><path d="M369.3333,235.1875 L359.3333,235.1875 C344.3333,235.1875 344.3333,291.4844 329.3333,291.4844 L319.3333,291.4844 " fill="none" style="stroke:#181818;stroke-width:1.0;"/><path d="M466.3333,572.9688 L456.3333,572.9688 C441.3333,572.9688 441.3333,235.1875 426.3333,235.1875 L416.3333,235.1875 " fill="none" style="stroke:#181818;stroke-width:1.0;"/><text fill="#000000" font-family="sans-serif" font-size="14" lengthAdjust="spacing" textLength="35" x="378.3333" y="549.667">code</text><rect fill="#F1F1F1" height="36.2969" rx="12.5" ry="12.5" style="stroke:#181818;stroke-width:1.5;" width="69.3333" x="259" y="470.375"/><text fill="#000000" font-family="sans-serif" font-size="14" lengthAdjust="spacing" textLength="38" x="269" y="493.3701">Kotlin</text><path d="M312.6667,483.8385 L311.5,487.3385 L308,487.3385 L310.9167,489.6719 L309.75,493.1719 L312.6667,490.8385 L315.5833,493.1719 L314.4167,489.6719 L317.3333,487.3385 L313.8333,487.3385 L312.6667,483.8385 " fill="#000000" style="stroke:;stroke-width:0.0;stroke-dasharray:;"/><rect fill="#F1F1F1" height="36.2969" rx="12.5" ry="12.5" style="stroke:#181818;stroke-width:1.5;" width="100" x="109" y="329.6328"/><text fill="#000000" font-family="sans-serif" font-size="14" lengthAdjust="spacing" textLength="80" x="119" y="352.6279">constructor</text><path d="M259,488.5234 L249,488.5234 C234,488.5234 234,347.7813 219,347.7813 L209,347.7813 " fill="none" style="stroke:#181818;stroke-width:1.0;"/><rect fill="#F1F1F1" height="36.2969" rx="12.5" ry="12.5" style="stroke:#181818;stroke-width:1.5;" width="199" x="10" y="385.9297"/><text fill="#000000" font-family="sans-serif" font-size="14" lengthAdjust="spacing" textLength="179" x="20" y="408.9248">default/named arguments</text><path d="M259,488.5234 L249,488.5234 C234,488.5234 234,404.0781 219,404.0781 L209,404.0781 " fill="none" style="stroke:#181818;stroke-width:1.0;"/><rect fill="#F1F1F1" height="36.2969" rx="12.5" ry="12.5" style="stroke:#181818;stroke-width:1.5;" width="156" x="53" y="442.2266"/><text fill="#000000" font-family="sans-serif" font-size="14" lengthAdjust="spacing" textLength="136" x="63" y="465.2217">extension functions</text><path d="M259,488.5234 L249,488.5234 C234,488.5234 234,460.375 219,460.375 L209,460.375 " fill="none" style="stroke:#181818;stroke-width:1.0;"/><rect fill="#F1F1F1" height="36.2969" rx="12.5" ry="12.5" style="stroke:#181818;stroke-width:1.5;" width="144" x="65" y="498.5234"/><text fill="#000000" font-family="sans-serif" font-size="14" lengthAdjust="spacing" textLength="124" x="75" y="521.5186">companion object</text><path d="M259,488.5234 L249,488.5234 C234,488.5234 234,516.6719 219,516.6719 L209,516.6719 " fill="none" style="stroke:#181818;stroke-width:1.0;"/><rect fill="#F1F1F1" height="36.2969" rx="12.5" ry="12.5" style="stroke:#181818;stroke-width:1.5;" width="107" x="102" y="554.8203"/><text fill="#000000" font-family="sans-serif" font-size="14" lengthAdjust="spacing" textLength="87" x="112" y="577.8154">mutable lists</text><path d="M259,488.5234 L249,488.5234 C234,488.5234 234,572.9688 219,572.9688 L209,572.9688 " fill="none" style="stroke:#181818;stroke-width:1.0;"/><rect fill="#F1F1F1" height="36.2969" rx="12.5" ry="12.5" style="stroke:#181818;stroke-width:1.5;" width="40" x="169" y="611.1172"/><text fill="#000000" font-family="sans-serif" font-size="14" lengthAdjust="spacing" textLength="20" x="179" y="634.1123">init</text><path d="M259,488.5234 L249,488.5234 C234,488.5234 234,629.2656 219,629.2656 L209,629.2656 " fill="none" style="stroke:#181818;stroke-width:1.0;"/><path d="M378.3333,544.8203 L368.3333,544.8203 C353.3333,544.8203 353.3333,488.5234 338.3333,488.5234 L328.3333,488.5234 " fill="none" style="stroke:#181818;stroke-width:1.0;"/><rect fill="#F1F1F1" height="36.2969" rx="12.5" ry="12.5" style="stroke:#181818;stroke-width:1.5;" width="70" x="258.3333" y="526.6719"/><text fill="#000000" font-family="sans-serif" font-size="14" lengthAdjust="spacing" textLength="50" x="268.3333" y="549.667">KVision</text><path d="M378.3333,544.8203 L368.3333,544.8203 C353.3333,544.8203 353.3333,544.8203 338.3333,544.8203 L328.3333,544.8203 " fill="none" style="stroke:#181818;stroke-width:1.0;"/><rect fill="#F1F1F1" height="36.2969" rx="12.5" ry="12.5" style="stroke:#181818;stroke-width:1.5;" width="85" x="243.3333" y="667.4141"/><text fill="#000000" font-family="sans-serif" font-size="14" lengthAdjust="spacing" textLength="65" x="253.3333" y="690.4092">Tabulator</text><path d="M378.3333,544.8203 L368.3333,544.8203 C353.3333,544.8203 353.3333,685.5625 338.3333,685.5625 L328.3333,685.5625 " fill="none" style="stroke:#181818;stroke-width:1.0;"/><rect fill="#F1F1F1" height="36.2969" rx="12.5" ry="12.5" style="stroke:#181818;stroke-width:1.5;" width="149" x="179.3333" y="723.7109"/><text fill="#000000" font-family="sans-serif" font-size="14" lengthAdjust="spacing" textLength="129" x="189.3333" y="746.7061">kotlinx.serialization</text><path d="M378.3333,544.8203 L368.3333,544.8203 C353.3333,544.8203 353.3333,741.8594 338.3333,741.8594 L328.3333,741.8594 " fill="none" style="stroke:#181818;stroke-width:1.0;"/><path d="M466.3333,572.9688 L456.3333,572.9688 C441.3333,572.9688 441.3333,544.8203 426.3333,544.8203 L416.3333,544.8203 " fill="none" style="stroke:#181818;stroke-width:1.0;"/><text fill="#000000" font-family="sans-serif" font-size="14" lengthAdjust="spacing" textLength="13" x="400.3333" y="831.1514">CI</text><rect fill="#F1F1F1" height="36.2969" rx="12.5" ry="12.5" style="stroke:#181818;stroke-width:1.5;" width="60" x="290.3333" y="780.0078"/><text fill="#000000" font-family="sans-serif" font-size="14" lengthAdjust="spacing" textLength="40" x="300.3333" y="803.0029">Travis</text><path d="M400.3333,826.3047 L390.3333,826.3047 C375.3333,826.3047 375.3333,798.1563 360.3333,798.1563 L350.3333,798.1563 " fill="none" style="stroke:#181818;stroke-width:1.0;"/><rect fill="#F1F1F1" height="36.2969" rx="12.5" ry="12.5" style="stroke:#181818;stroke-width:1.5;" width="82" x="268.3333" y="836.3047"/><text fill="#000000" font-family="sans-serif" font-size="14" lengthAdjust="spacing" textLength="62" x="278.3333" y="859.2998">Coveralls</text><path d="M400.3333,826.3047 L390.3333,826.3047 C375.3333,826.3047 375.3333,854.4531 360.3333,854.4531 L350.3333,854.4531 " fill="none" style="stroke:#181818;stroke-width:1.0;"/><path d="M466.3333,572.9688 L456.3333,572.9688 C441.3333,572.9688 441.3333,826.3047 426.3333,826.3047 L416.3333,826.3047 " fill="none" style="stroke:#181818;stroke-width:1.0;"/><path d="M362.0833,934.2135 C360.695,934.2135 359.7733,936.1852 360.695,937.1302 C360.59,937.2119 360.4617,937.2935 360.3683,937.3869 L358.84,936.6169 A0.5833,0.5833 0 0 0 358.4433,936.5469 A0.5833,0.5833 0 0 0 358.3383,937.6435 L359.6917,938.2969 C359.5867,938.4835 359.47,938.6819 359.4,938.8802 L358.595,938.8802 A0.5833,0.5833 0 0 0 358.49,938.8802 A0.5833,0.5833 0 1 0 358.595,940.0469 L359.1783,940.0469 C359.1783,940.3152 359.2017,940.5719 359.2483,940.8169 L358.3383,941.2952 A0.5833,0.5833 0 1 0 358.8517,942.3219 L359.6217,941.9252 C359.9133,942.4619 360.345,942.9169 360.8233,943.1969 C361.2317,942.9752 361.5117,942.6835 361.5117,942.3569 L361.5117,940.6769 A0.5833,0.5833 0 0 0 361.5117,940.5719 L361.5117,939.6269 A0.5833,0.5833 0 0 0 361.5117,939.3702 C361.57,939.1019 361.815,938.8919 362.095,938.8919 C362.4217,938.8919 362.6783,939.1485 362.6783,939.4752 L362.6783,940.5019 A0.5833,0.5833 0 0 0 362.6783,940.6069 L362.6783,940.6769 A0.5833,0.5833 0 0 0 362.6783,940.7819 L362.6783,942.3452 C362.6783,942.6602 362.9583,942.9635 363.3667,943.1852 C363.845,942.8935 364.2883,942.4502 364.5683,941.9135 L365.3383,942.3102 A0.5833,0.5833 0 1 0 365.8517,941.2835 L364.9417,940.8052 C364.9883,940.5602 365.0117,940.3035 365.0117,940.0352 L365.595,940.0352 A0.5833,0.5833 0 1 0 365.595,938.8685 L364.79,938.8685 C364.72,938.6702 364.6033,938.4719 364.4983,938.2852 L365.8517,937.6319 A0.5833,0.5833 0 0 0 365.49,936.5352 A0.5833,0.5833 0 0 0 365.3383,936.6052 L363.81,937.3752 C363.705,937.2819 363.5883,937.2002 363.4833,937.1185 C364.3933,936.1502 363.4833,934.2019 362.095,934.2019 " fill="#000000" style="stroke:;stroke-width:0.0;stroke-dasharray:;"/><text fill="#000000" font-family="sans-serif" font-size="14" lengthAdjust="spacing" textLength="45" x="368.3333" y="943.7451">debug</text><rect fill="#F1F1F1" height="36.2969" rx="12.5" ry="12.5" style="stroke:#181818;stroke-width:1.5;" width="75" x="232" y="892.6016"/><text fill="#000000" font-family="sans-serif" font-size="14" lengthAdjust="spacing" textLength="55" x="242" y="915.5967">Chrome</text><rect fill="#F1F1F1" height="36.2969" rx="12.5" ry="12.5" style="stroke:#181818;stroke-width:1.5;" width="70" x="112" y="892.6016"/><text fill="#000000" font-family="sans-serif" font-size="14" lengthAdjust="spacing" textLength="50" x="122" y="915.5967">Plugins</text><path d="M232,910.75 L222,910.75 C207,910.75 207,910.75 192,910.75 L182,910.75 " fill="none" style="stroke:#181818;stroke-width:1.0;"/><path d="M357,938.8984 L347,938.8984 C332,938.8984 332,910.75 317,910.75 L307,910.75 " fill="none" style="stroke:#181818;stroke-width:1.0;"/><rect fill="#F1F1F1" height="36.2969" rx="12.5" ry="12.5" style="stroke:#181818;stroke-width:1.5;" width="85" x="222" y="948.8984"/><text fill="#000000" font-family="sans-serif" font-size="14" lengthAdjust="spacing" textLength="65" x="232" y="971.8936">JavaScript</text><path d="M357,938.8984 L347,938.8984 C332,938.8984 332,967.0469 317,967.0469 L307,967.0469 " fill="none" style="stroke:#181818;stroke-width:1.0;"/><path d="M466.3333,572.9688 L456.3333,572.9688 C441.3333,572.9688 441.3333,938.8984 426.3333,938.8984 L416.3333,938.8984 " fill="none" style="stroke:#181818;stroke-width:1.0;"/><!--SRC=[RLF9RXf14BtFLzJ9ieKWXY3BGXQoCZXsCCJ8Wv4YMR9gUif3crv8BomvyEtfwGR5XrpWKSkhLzMFM-lGECbL9N6TjTvWfVJsLItrDckttw14ovaDi0qFy-aaWhmeulVDcMM6hzrmZ1ii8emzJ5SK2nwr4ro5iZ1Ys4JQ8QUiCvuvRLAWedVqmdrHAAa2DBMNf9nDITevKfPh1UzUCHU0FT78DQeceSiFOYv5fNTO2WB1xOc1A-wIbWLlY2AUO-a57YN0AghSTImPZeB_mMPErWgdS4RxmFUgx59hnrKTegsmDksOG1dhXldJS_6VyCpetHuikQRDDWKjK6kPG1qq9M2m4fImjSi4c3SYeJqQbP3S94MbvwAAutw68tS-8lCdcjCC-7LiXIsLQsIhY4VvNPOM8niLm2CQYH4T3bFDbdWun5_vqcX93zJmsZJajrT9DioM3fNJSfmMPtf31klZ6k7qgC9vZollMRH4_YCTtk269pVbiKi86_CtPwMlXnM5pvIDyzCJpeIlUNfu-EIqMmgMFTescucWw6KwWK0Q_TBjz2vxlKwtVpxt12DYS7a5tUj1hp_eVeNxwHoQ_4LsVZ-RWDNUC88gQ3UyzCq3NcJDA7Zsod590tXQangF7ay1k5CRRhHgl9gD5zD_1LVzzZVke20JfC1YcesImKD7-5y4CmpWPVwzVPrDKDK-d6q0fB9S1rwp3xdYBm00]--></g></svg>