<?xml version="1.0" encoding="UTF-8" standalone="no"?><svg xmlns="http://www.w3.org/2000/svg" xmlns:xlink="http://www.w3.org/1999/xlink" contentStyleType="text/css" height="1398px" preserveAspectRatio="none" style="width:1214px;height:1398px;background:#FFFFFF;" version="1.1" viewBox="0 0 1214 1398" width="1214px" zoomAndPan="magnify"><defs/><g><!--MD5=[c429691f2fe3ffc642d3e6ed879a8b4b]
cluster remote--><g id="cluster_remote"><polygon points="910,120,920,110,1197,110,1197,392.5,1187,402.5,910,402.5,910,120" style="stroke:#181818;stroke-width:1.0;fill:none;"/><line style="stroke:#181818;stroke-width:1.0;fill:none;" x1="1187" x2="1197" y1="120" y2="110"/><line style="stroke:#181818;stroke-width:1.0;fill:none;" x1="910" x2="1187" y1="120" y2="120"/><line style="stroke:#181818;stroke-width:1.0;fill:none;" x1="1187" x2="1187" y1="120" y2="402.5"/><text fill="#000000" font-family="sans-serif" font-size="14" font-weight="bold" lengthAdjust="spacing" textLength="48" x="1025.5" y="136.9999">remote</text></g><!--MD5=[ffd769195028dd438823d2edcff41d80]
cluster to--><g id="cluster_to"><path d="M8.5,837.5 L23.5,837.5 A3.75,3.75 0 0 1 26,840 L33,860.2999 L520.5,860.2999 A2.5,2.5 0 0 1 523,862.7999 L523,1389 A2.5,2.5 0 0 1 520.5,1391.5 L8.5,1391.5 A2.5,2.5 0 0 1 6,1389 L6,840 A2.5,2.5 0 0 1 8.5,837.5 " style="stroke:#000000;stroke-width:1.5;fill:none;"/><line style="stroke:#000000;stroke-width:1.5;fill:none;" x1="6" x2="33" y1="860.2999" y2="860.2999"/><text fill="#000000" font-family="sans-serif" font-size="14" font-weight="bold" lengthAdjust="spacing" textLength="14" x="10" y="853.4999">to</text></g><!--MD5=[ccc460d39f96760bc67bdadf7a404591]
cluster to.layout--><g id="cluster_to.layout"><path d="M612.5,1162.5 L673.5,1162.5 A3.75,3.75 0 0 1 676,1165 L683,1185.2999 L713.5,1185.2999 A2.5,2.5 0 0 1 716,1187.7999 L716,1278 A2.5,2.5 0 0 1 713.5,1280.5 L612.5,1280.5 A2.5,2.5 0 0 1 610,1278 L610,1165 A2.5,2.5 0 0 1 612.5,1162.5 " style="stroke:#000000;stroke-width:1.5;fill:none;"/><line style="stroke:#000000;stroke-width:1.5;fill:none;" x1="610" x2="683" y1="1185.2999" y2="1185.2999"/><text fill="#000000" font-family="sans-serif" font-size="14" font-weight="bold" lengthAdjust="spacing" textLength="60" x="614" y="1178.4999">to.layout</text></g><!--MD5=[5f5aa3eac08eb7d12d88ffe0016b5131]
class RestfulObjects--><g id="elem_RestfulObjects"><rect codeLine="41" fill="#F1F1F1" height="48" id="RestfulObjects" rx="2.5" ry="2.5" style="stroke:#181818;stroke-width:0.5;" width="124" x="927" y="174"/><ellipse cx="942" cy="190" fill="#B4A7E5" rx="11" ry="11" style="stroke:#181818;stroke-width:1.0;"/><path d="M944.6719,193.2969 Q945.2188,193.2969 945.5,193.4844 Q945.7813,193.6563 945.7813,194.1563 Q945.7813,195 944.6719,195 L939.5313,195 Q938.4063,195 938.4063,194.1563 Q938.4063,193.6563 938.6875,193.4844 Q938.9844,193.2969 939.5313,193.2969 L941.25,193.2969 L941.25,186.7813 L939.5313,186.7813 Q938.4063,186.7813 938.4063,185.9375 Q938.4063,185.4531 938.6875,185.2813 Q938.9844,185.0938 939.5313,185.0938 L944.6719,185.0938 Q945.2188,185.0938 945.5,185.2813 Q945.7813,185.4531 945.7813,185.9375 Q945.7813,186.7813 944.6719,186.7813 L942.9531,186.7813 L942.9531,193.2969 L944.6719,193.2969 Z " fill="#000000"/><text fill="#000000" font-family="sans-serif" font-size="14" font-style="italic" lengthAdjust="spacing" textLength="92" x="956" y="195.6">RestfulObjects</text><line style="stroke:#181818;stroke-width:0.5;" x1="928" x2="1050" y1="206" y2="206"/><line style="stroke:#181818;stroke-width:0.5;" x1="928" x2="1050" y1="214" y2="214"/></g><!--MD5=[6e6ce35054dfdc08bc5a651d5a81235c]
class ApacheIsis--><g id="elem_ApacheIsis"><rect codeLine="42" fill="#F1F1F1" height="57.2" id="ApacheIsis" rx="2.5" ry="2.5" style="stroke:#181818;stroke-width:0.5;" width="100" x="926" y="329.5"/><ellipse cx="941" cy="350.1" fill="#FF7700" rx="11" ry="11" style="stroke:#A80036;stroke-width:1.0;"/><path d="M941.9531,353.7563 Q941.9531,353.2563 942.2344,353.0844 Q942.5313,352.8969 943.0781,352.8969 L943.4688,352.8969 L943.0781,351.9125 L939.0313,351.9125 L938.6406,352.8969 L939.0313,352.8969 Q940.1406,352.8969 940.1406,353.7563 Q940.1406,354.6 939.0313,354.6 L936.7656,354.6 Q935.6406,354.6 935.6406,353.7563 Q935.6406,353.2406 935.9375,353.0688 Q936.2344,352.8969 936.7813,352.8969 L939.4219,346.3813 L938.3438,346.3813 Q937.2031,346.3813 937.2031,345.5375 Q937.2031,345.0219 937.5,344.8656 Q937.7969,344.6938 938.3438,344.6938 L942.0156,344.6938 L945.4063,352.8969 Q946.5625,352.8969 946.5625,353.7563 Q946.5625,354.6 945.4375,354.6 L943.0781,354.6 Q941.9531,354.6 941.9531,353.7563 Z M942.375,350.2094 L941.0469,346.9438 L939.7031,350.2094 L942.375,350.2094 Z " fill="#000000"/><text fill="#000000" font-family="sans-serif" font-size="12" font-style="italic" lengthAdjust="spacing" textLength="70" x="954" y="346.5001">«Application»</text><text fill="#000000" font-family="sans-serif" font-size="14" lengthAdjust="spacing" textLength="68" x="955" y="362.9">ApacheIsis</text><line style="stroke:#181818;stroke-width:0.5;" x1="927" x2="1025" y1="370.7" y2="370.7"/><line style="stroke:#181818;stroke-width:0.5;" x1="927" x2="1025" y1="378.7" y2="378.7"/></g><!--MD5=[3065a834c1969130b06cda341c336231]
class NakedObjects--><g id="elem_NakedObjects"><rect codeLine="43" fill="#F1F1F1" height="57.2" id="NakedObjects" rx="2.5" ry="2.5" style="stroke:#181818;stroke-width:0.5;" width="119" x="1061.5" y="329.5"/><ellipse cx="1076.5" cy="350.1" fill="#FF7700" rx="11" ry="11" style="stroke:#A80036;stroke-width:1.0;"/><path d="M1077.4531,353.7563 Q1077.4531,353.2563 1077.7344,353.0844 Q1078.0313,352.8969 1078.5781,352.8969 L1078.9688,352.8969 L1078.5781,351.9125 L1074.5313,351.9125 L1074.1406,352.8969 L1074.5313,352.8969 Q1075.6406,352.8969 1075.6406,353.7563 Q1075.6406,354.6 1074.5313,354.6 L1072.2656,354.6 Q1071.1406,354.6 1071.1406,353.7563 Q1071.1406,353.2406 1071.4375,353.0688 Q1071.7344,352.8969 1072.2813,352.8969 L1074.9219,346.3813 L1073.8438,346.3813 Q1072.7031,346.3813 1072.7031,345.5375 Q1072.7031,345.0219 1073,344.8656 Q1073.2969,344.6938 1073.8438,344.6938 L1077.5156,344.6938 L1080.9063,352.8969 Q1082.0625,352.8969 1082.0625,353.7563 Q1082.0625,354.6 1080.9375,354.6 L1078.5781,354.6 Q1077.4531,354.6 1077.4531,353.7563 Z M1077.875,350.2094 L1076.5469,346.9438 L1075.2031,350.2094 L1077.875,350.2094 Z " fill="#000000"/><text fill="#000000" font-family="sans-serif" font-size="12" font-style="italic" lengthAdjust="spacing" textLength="70" x="1099" y="346.5001">«Application»</text><text fill="#000000" font-family="sans-serif" font-size="14" lengthAdjust="spacing" textLength="87" x="1090.5" y="362.9">NakedObjects</text><line style="stroke:#181818;stroke-width:0.5;" x1="1062.5" x2="1179.5" y1="370.7" y2="370.7"/><line style="stroke:#181818;stroke-width:0.5;" x1="1062.5" x2="1179.5" y1="378.7" y2="378.7"/></g><!--MD5=[48b56ac2df9be209c01ca851021fb6e4]
class to.Link--><g id="elem_to.Link"><rect fill="#F1F1F1" height="48" id="to.Link" rx="2.5" ry="2.5" style="stroke:#181818;stroke-width:0.5;" width="58" x="440" y="1042.5"/><ellipse cx="455" cy="1058.5" fill="#ADD1B2" rx="11" ry="11" style="stroke:#181818;stroke-width:1.0;"/><path d="M454.3594,1062.2813 Q455.1563,1062.2813 455.7188,1062.0938 Q456.2969,1061.8906 456.5313,1061.6719 Q456.7813,1061.4375 457.0156,1061.25 Q457.2656,1061.0469 457.4844,1061.0469 Q457.8281,1061.0469 458.0781,1061.3125 Q458.3438,1061.5625 458.3438,1061.8906 Q458.3438,1062.625 457.1719,1063.3125 Q456.0156,1063.9844 454.3125,1063.9844 Q452.1563,1063.9844 450.7344,1062.7188 Q449.3125,1061.4531 449.3125,1059.5156 L449.3125,1058.3906 Q449.3125,1056.3594 450.6406,1054.9844 Q451.9688,1053.5938 453.9375,1053.5938 Q455.125,1053.5938 456.3438,1054.1719 L456.5156,1054.25 Q456.8125,1053.8438 457.2344,1053.8438 Q457.7188,1053.8438 457.8906,1054.1406 Q458.0781,1054.4219 458.0781,1054.9688 L458.0781,1056.3906 Q458.0781,1057.5156 457.2344,1057.5156 Q456.9219,1057.5156 456.7188,1057.3438 Q456.5313,1057.1719 456.4844,1057.0313 Q456.4531,1056.875 456.4063,1056.6094 Q456.2969,1056.0938 455.7813,1055.7813 Q455.2656,1055.4688 454.8125,1055.3906 Q454.375,1055.2969 454,1055.2969 Q452.7188,1055.2969 451.8594,1056.1719 Q451.0156,1057.0469 451.0156,1058.3906 L451.0156,1059.4844 Q451.0156,1060.7656 451.9219,1061.5313 Q452.8281,1062.2813 454.3594,1062.2813 Z " fill="#000000"/><text fill="#000000" font-family="sans-serif" font-size="14" lengthAdjust="spacing" textLength="26" x="469" y="1064.1">Link</text><line style="stroke:#181818;stroke-width:0.5;" x1="441" x2="497" y1="1074.5" y2="1074.5"/><line style="stroke:#181818;stroke-width:0.5;" x1="441" x2="497" y1="1082.5" y2="1082.5"/></g><!--MD5=[88fc8b85a12edaa5dd811294722453b2]
class to.Extensions--><g id="elem_to.Extensions"><rect fill="#F1F1F1" height="48" id="to.Extensions" rx="2.5" ry="2.5" style="stroke:#181818;stroke-width:0.5;" width="99" x="407.5" y="1216.5"/><ellipse cx="422.5" cy="1232.5" fill="#ADD1B2" rx="11" ry="11" style="stroke:#181818;stroke-width:1.0;"/><path d="M421.8594,1236.2813 Q422.6563,1236.2813 423.2188,1236.0938 Q423.7969,1235.8906 424.0313,1235.6719 Q424.2813,1235.4375 424.5156,1235.25 Q424.7656,1235.0469 424.9844,1235.0469 Q425.3281,1235.0469 425.5781,1235.3125 Q425.8438,1235.5625 425.8438,1235.8906 Q425.8438,1236.625 424.6719,1237.3125 Q423.5156,1237.9844 421.8125,1237.9844 Q419.6563,1237.9844 418.2344,1236.7188 Q416.8125,1235.4531 416.8125,1233.5156 L416.8125,1232.3906 Q416.8125,1230.3594 418.1406,1228.9844 Q419.4688,1227.5938 421.4375,1227.5938 Q422.625,1227.5938 423.8438,1228.1719 L424.0156,1228.25 Q424.3125,1227.8438 424.7344,1227.8438 Q425.2188,1227.8438 425.3906,1228.1406 Q425.5781,1228.4219 425.5781,1228.9688 L425.5781,1230.3906 Q425.5781,1231.5156 424.7344,1231.5156 Q424.4219,1231.5156 424.2188,1231.3438 Q424.0313,1231.1719 423.9844,1231.0313 Q423.9531,1230.875 423.9063,1230.6094 Q423.7969,1230.0938 423.2813,1229.7813 Q422.7656,1229.4688 422.3125,1229.3906 Q421.875,1229.2969 421.5,1229.2969 Q420.2188,1229.2969 419.3594,1230.1719 Q418.5156,1231.0469 418.5156,1232.3906 L418.5156,1233.4844 Q418.5156,1234.7656 419.4219,1235.5313 Q420.3281,1236.2813 421.8594,1236.2813 Z " fill="#000000"/><text fill="#000000" font-family="sans-serif" font-size="14" lengthAdjust="spacing" textLength="67" x="436.5" y="1238.1">Extensions</text><line style="stroke:#181818;stroke-width:0.5;" x1="408.5" x2="505.5" y1="1248.5" y2="1248.5"/><line style="stroke:#181818;stroke-width:0.5;" x1="408.5" x2="505.5" y1="1256.5" y2="1256.5"/></g><!--MD5=[d2875fcdac0f9e41334b834345d959ac]
class to.Linked--><g id="elem_to.Linked"><rect codeLine="55" fill="#F1F1F1" height="64.7999" id="to.Linked" rx="2.5" ry="2.5" style="stroke:#181818;stroke-width:0.5;" width="78" x="292" y="891.5"/><ellipse cx="308.8" cy="907.5" fill="#B4A7E5" rx="11" ry="11" style="stroke:#181818;stroke-width:1.0;"/><path d="M311.4719,910.7969 Q312.0188,910.7969 312.3,910.9844 Q312.5813,911.1563 312.5813,911.6563 Q312.5813,912.5 311.4719,912.5 L306.3313,912.5 Q305.2063,912.5 305.2063,911.6563 Q305.2063,911.1563 305.4875,910.9844 Q305.7844,910.7969 306.3313,910.7969 L308.05,910.7969 L308.05,904.2813 L306.3313,904.2813 Q305.2063,904.2813 305.2063,903.4375 Q305.2063,902.9531 305.4875,902.7813 Q305.7844,902.5938 306.3313,902.5938 L311.4719,902.5938 Q312.0188,902.5938 312.3,902.7813 Q312.5813,902.9531 312.5813,903.4375 Q312.5813,904.2813 311.4719,904.2813 L309.7531,904.2813 L309.7531,910.7969 L311.4719,910.7969 Z " fill="#000000"/><text fill="#000000" font-family="sans-serif" font-size="14" font-style="italic" lengthAdjust="spacing" textLength="42" x="323.2" y="913.1">Linked</text><line style="stroke:#181818;stroke-width:0.5;" x1="293" x2="369" y1="923.5" y2="923.5"/><text fill="#000000" font-family="sans-serif" font-size="14" lengthAdjust="spacing" textLength="66" x="298" y="941.4999">links:Link[]</text><line style="stroke:#181818;stroke-width:0.5;" x1="293" x2="369" y1="948.2999" y2="948.2999"/></g><!--MD5=[1858d48b4b7ae0517ff3774fd6a6bbfd]
class to.Result--><g id="elem_to.Result"><rect fill="#F1F1F1" height="48" id="to.Result" rx="2.5" ry="2.5" style="stroke:#181818;stroke-width:0.5;" width="71" x="22.5" y="1042.5"/><ellipse cx="37.5" cy="1058.5" fill="#ADD1B2" rx="11" ry="11" style="stroke:#181818;stroke-width:1.0;"/><path d="M36.8594,1062.2813 Q37.6563,1062.2813 38.2188,1062.0938 Q38.7969,1061.8906 39.0313,1061.6719 Q39.2813,1061.4375 39.5156,1061.25 Q39.7656,1061.0469 39.9844,1061.0469 Q40.3281,1061.0469 40.5781,1061.3125 Q40.8438,1061.5625 40.8438,1061.8906 Q40.8438,1062.625 39.6719,1063.3125 Q38.5156,1063.9844 36.8125,1063.9844 Q34.6563,1063.9844 33.2344,1062.7188 Q31.8125,1061.4531 31.8125,1059.5156 L31.8125,1058.3906 Q31.8125,1056.3594 33.1406,1054.9844 Q34.4688,1053.5938 36.4375,1053.5938 Q37.625,1053.5938 38.8438,1054.1719 L39.0156,1054.25 Q39.3125,1053.8438 39.7344,1053.8438 Q40.2188,1053.8438 40.3906,1054.1406 Q40.5781,1054.4219 40.5781,1054.9688 L40.5781,1056.3906 Q40.5781,1057.5156 39.7344,1057.5156 Q39.4219,1057.5156 39.2188,1057.3438 Q39.0313,1057.1719 38.9844,1057.0313 Q38.9531,1056.875 38.9063,1056.6094 Q38.7969,1056.0938 38.2813,1055.7813 Q37.7656,1055.4688 37.3125,1055.3906 Q36.875,1055.2969 36.5,1055.2969 Q35.2188,1055.2969 34.3594,1056.1719 Q33.5156,1057.0469 33.5156,1058.3906 L33.5156,1059.4844 Q33.5156,1060.7656 34.4219,1061.5313 Q35.3281,1062.2813 36.8594,1062.2813 Z " fill="#000000"/><text fill="#000000" font-family="sans-serif" font-size="14" lengthAdjust="spacing" textLength="39" x="51.5" y="1064.1">Result</text><line style="stroke:#181818;stroke-width:0.5;" x1="23.5" x2="92.5" y1="1074.5" y2="1074.5"/><line style="stroke:#181818;stroke-width:0.5;" x1="23.5" x2="92.5" y1="1082.5" y2="1082.5"/></g><!--MD5=[75083d369f37e55eadef4305dfe0c535]
class to.ResultList--><g id="elem_to.ResultList"><rect fill="#F1F1F1" height="48" id="to.ResultList" rx="2.5" ry="2.5" style="stroke:#181818;stroke-width:0.5;" width="93" x="128.5" y="1042.5"/><ellipse cx="143.5" cy="1058.5" fill="#ADD1B2" rx="11" ry="11" style="stroke:#181818;stroke-width:1.0;"/><path d="M142.8594,1062.2813 Q143.6563,1062.2813 144.2188,1062.0938 Q144.7969,1061.8906 145.0313,1061.6719 Q145.2813,1061.4375 145.5156,1061.25 Q145.7656,1061.0469 145.9844,1061.0469 Q146.3281,1061.0469 146.5781,1061.3125 Q146.8438,1061.5625 146.8438,1061.8906 Q146.8438,1062.625 145.6719,1063.3125 Q144.5156,1063.9844 142.8125,1063.9844 Q140.6563,1063.9844 139.2344,1062.7188 Q137.8125,1061.4531 137.8125,1059.5156 L137.8125,1058.3906 Q137.8125,1056.3594 139.1406,1054.9844 Q140.4688,1053.5938 142.4375,1053.5938 Q143.625,1053.5938 144.8438,1054.1719 L145.0156,1054.25 Q145.3125,1053.8438 145.7344,1053.8438 Q146.2188,1053.8438 146.3906,1054.1406 Q146.5781,1054.4219 146.5781,1054.9688 L146.5781,1056.3906 Q146.5781,1057.5156 145.7344,1057.5156 Q145.4219,1057.5156 145.2188,1057.3438 Q145.0313,1057.1719 144.9844,1057.0313 Q144.9531,1056.875 144.9063,1056.6094 Q144.7969,1056.0938 144.2813,1055.7813 Q143.7656,1055.4688 143.3125,1055.3906 Q142.875,1055.2969 142.5,1055.2969 Q141.2188,1055.2969 140.3594,1056.1719 Q139.5156,1057.0469 139.5156,1058.3906 L139.5156,1059.4844 Q139.5156,1060.7656 140.4219,1061.5313 Q141.3281,1062.2813 142.8594,1062.2813 Z " fill="#000000"/><text fill="#000000" font-family="sans-serif" font-size="14" lengthAdjust="spacing" textLength="61" x="157.5" y="1064.1">ResultList</text><line style="stroke:#181818;stroke-width:0.5;" x1="129.5" x2="220.5" y1="1074.5" y2="1074.5"/><line style="stroke:#181818;stroke-width:0.5;" x1="129.5" x2="220.5" y1="1082.5" y2="1082.5"/></g><!--MD5=[802b8ec96140f74d491c11f54def2bb4]
class to.Extended--><g id="elem_to.Extended"><rect codeLine="63" fill="#F1F1F1" height="64.7999" id="to.Extended" rx="2.5" ry="2.5" style="stroke:#181818;stroke-width:0.5;" width="148" x="257" y="1034"/><ellipse cx="297.2" cy="1050" fill="#B4A7E5" rx="11" ry="11" style="stroke:#181818;stroke-width:1.0;"/><path d="M299.8719,1053.2969 Q300.4188,1053.2969 300.7,1053.4844 Q300.9813,1053.6563 300.9813,1054.1563 Q300.9813,1055 299.8719,1055 L294.7313,1055 Q293.6063,1055 293.6063,1054.1563 Q293.6063,1053.6563 293.8875,1053.4844 Q294.1844,1053.2969 294.7313,1053.2969 L296.45,1053.2969 L296.45,1046.7813 L294.7313,1046.7813 Q293.6063,1046.7813 293.6063,1045.9375 Q293.6063,1045.4531 293.8875,1045.2813 Q294.1844,1045.0938 294.7313,1045.0938 L299.8719,1045.0938 Q300.4188,1045.0938 300.7,1045.2813 Q300.9813,1045.4531 300.9813,1045.9375 Q300.9813,1046.7813 299.8719,1046.7813 L298.1531,1046.7813 L298.1531,1053.2969 L299.8719,1053.2969 Z " fill="#000000"/><text fill="#000000" font-family="sans-serif" font-size="14" font-style="italic" lengthAdjust="spacing" textLength="60" x="316.8" y="1055.6">Extended</text><line style="stroke:#181818;stroke-width:0.5;" x1="258" x2="404" y1="1066" y2="1066"/><text fill="#000000" font-family="sans-serif" font-size="14" lengthAdjust="spacing" textLength="136" x="263" y="1083.9999">extensions:Extensions</text><line style="stroke:#181818;stroke-width:0.5;" x1="258" x2="404" y1="1090.7999" y2="1090.7999"/></g><!--MD5=[4b3b64e2f661de805ecbdda138a2b7b5]
class to.Property--><g id="elem_to.Property"><rect fill="#F1F1F1" height="48" id="to.Property" rx="2.5" ry="2.5" style="stroke:#181818;stroke-width:0.5;" width="84" x="22" y="1216.5"/><ellipse cx="37" cy="1232.5" fill="#ADD1B2" rx="11" ry="11" style="stroke:#181818;stroke-width:1.0;"/><path d="M36.3594,1236.2813 Q37.1563,1236.2813 37.7188,1236.0938 Q38.2969,1235.8906 38.5313,1235.6719 Q38.7813,1235.4375 39.0156,1235.25 Q39.2656,1235.0469 39.4844,1235.0469 Q39.8281,1235.0469 40.0781,1235.3125 Q40.3438,1235.5625 40.3438,1235.8906 Q40.3438,1236.625 39.1719,1237.3125 Q38.0156,1237.9844 36.3125,1237.9844 Q34.1563,1237.9844 32.7344,1236.7188 Q31.3125,1235.4531 31.3125,1233.5156 L31.3125,1232.3906 Q31.3125,1230.3594 32.6406,1228.9844 Q33.9688,1227.5938 35.9375,1227.5938 Q37.125,1227.5938 38.3438,1228.1719 L38.5156,1228.25 Q38.8125,1227.8438 39.2344,1227.8438 Q39.7188,1227.8438 39.8906,1228.1406 Q40.0781,1228.4219 40.0781,1228.9688 L40.0781,1230.3906 Q40.0781,1231.5156 39.2344,1231.5156 Q38.9219,1231.5156 38.7188,1231.3438 Q38.5313,1231.1719 38.4844,1231.0313 Q38.4531,1230.875 38.4063,1230.6094 Q38.2969,1230.0938 37.7813,1229.7813 Q37.2656,1229.4688 36.8125,1229.3906 Q36.375,1229.2969 36,1229.2969 Q34.7188,1229.2969 33.8594,1230.1719 Q33.0156,1231.0469 33.0156,1232.3906 L33.0156,1233.4844 Q33.0156,1234.7656 33.9219,1235.5313 Q34.8281,1236.2813 36.3594,1236.2813 Z " fill="#000000"/><text fill="#000000" font-family="sans-serif" font-size="14" lengthAdjust="spacing" textLength="52" x="51" y="1238.1">Property</text><line style="stroke:#181818;stroke-width:0.5;" x1="23" x2="105" y1="1248.5" y2="1248.5"/><line style="stroke:#181818;stroke-width:0.5;" x1="23" x2="105" y1="1256.5" y2="1256.5"/></g><!--MD5=[8c3e8a00713e40d480934de680816730]
class to.TObject--><g id="elem_to.TObject"><rect fill="#F1F1F1" height="48" id="to.TObject" rx="2.5" ry="2.5" style="stroke:#181818;stroke-width:0.5;" width="81" x="141.5" y="1216.5"/><ellipse cx="156.5" cy="1232.5" fill="#ADD1B2" rx="11" ry="11" style="stroke:#181818;stroke-width:1.0;"/><path d="M155.8594,1236.2813 Q156.6563,1236.2813 157.2188,1236.0938 Q157.7969,1235.8906 158.0313,1235.6719 Q158.2813,1235.4375 158.5156,1235.25 Q158.7656,1235.0469 158.9844,1235.0469 Q159.3281,1235.0469 159.5781,1235.3125 Q159.8438,1235.5625 159.8438,1235.8906 Q159.8438,1236.625 158.6719,1237.3125 Q157.5156,1237.9844 155.8125,1237.9844 Q153.6563,1237.9844 152.2344,1236.7188 Q150.8125,1235.4531 150.8125,1233.5156 L150.8125,1232.3906 Q150.8125,1230.3594 152.1406,1228.9844 Q153.4688,1227.5938 155.4375,1227.5938 Q156.625,1227.5938 157.8438,1228.1719 L158.0156,1228.25 Q158.3125,1227.8438 158.7344,1227.8438 Q159.2188,1227.8438 159.3906,1228.1406 Q159.5781,1228.4219 159.5781,1228.9688 L159.5781,1230.3906 Q159.5781,1231.5156 158.7344,1231.5156 Q158.4219,1231.5156 158.2188,1231.3438 Q158.0313,1231.1719 157.9844,1231.0313 Q157.9531,1230.875 157.9063,1230.6094 Q157.7969,1230.0938 157.2813,1229.7813 Q156.7656,1229.4688 156.3125,1229.3906 Q155.875,1229.2969 155.5,1229.2969 Q154.2188,1229.2969 153.3594,1230.1719 Q152.5156,1231.0469 152.5156,1232.3906 L152.5156,1233.4844 Q152.5156,1234.7656 153.4219,1235.5313 Q154.3281,1236.2813 155.8594,1236.2813 Z " fill="#000000"/><text fill="#000000" font-family="sans-serif" font-size="14" lengthAdjust="spacing" textLength="49" x="170.5" y="1238.1">TObject</text><line style="stroke:#181818;stroke-width:0.5;" x1="142.5" x2="221.5" y1="1248.5" y2="1248.5"/><line style="stroke:#181818;stroke-width:0.5;" x1="142.5" x2="221.5" y1="1256.5" y2="1256.5"/></g><!--MD5=[ecede42f2e3c94d38b6272a55fc9c623]
class to.Service--><g id="elem_to.Service"><rect fill="#F1F1F1" height="48" id="to.Service" rx="2.5" ry="2.5" style="stroke:#181818;stroke-width:0.5;" width="77" x="257.5" y="1216.5"/><ellipse cx="272.5" cy="1232.5" fill="#ADD1B2" rx="11" ry="11" style="stroke:#181818;stroke-width:1.0;"/><path d="M271.8594,1236.2813 Q272.6563,1236.2813 273.2188,1236.0938 Q273.7969,1235.8906 274.0313,1235.6719 Q274.2813,1235.4375 274.5156,1235.25 Q274.7656,1235.0469 274.9844,1235.0469 Q275.3281,1235.0469 275.5781,1235.3125 Q275.8438,1235.5625 275.8438,1235.8906 Q275.8438,1236.625 274.6719,1237.3125 Q273.5156,1237.9844 271.8125,1237.9844 Q269.6563,1237.9844 268.2344,1236.7188 Q266.8125,1235.4531 266.8125,1233.5156 L266.8125,1232.3906 Q266.8125,1230.3594 268.1406,1228.9844 Q269.4688,1227.5938 271.4375,1227.5938 Q272.625,1227.5938 273.8438,1228.1719 L274.0156,1228.25 Q274.3125,1227.8438 274.7344,1227.8438 Q275.2188,1227.8438 275.3906,1228.1406 Q275.5781,1228.4219 275.5781,1228.9688 L275.5781,1230.3906 Q275.5781,1231.5156 274.7344,1231.5156 Q274.4219,1231.5156 274.2188,1231.3438 Q274.0313,1231.1719 273.9844,1231.0313 Q273.9531,1230.875 273.9063,1230.6094 Q273.7969,1230.0938 273.2813,1229.7813 Q272.7656,1229.4688 272.3125,1229.3906 Q271.875,1229.2969 271.5,1229.2969 Q270.2188,1229.2969 269.3594,1230.1719 Q268.5156,1231.0469 268.5156,1232.3906 L268.5156,1233.4844 Q268.5156,1234.7656 269.4219,1235.5313 Q270.3281,1236.2813 271.8594,1236.2813 Z " fill="#000000"/><text fill="#000000" font-family="sans-serif" font-size="14" lengthAdjust="spacing" textLength="45" x="286.5" y="1238.1">Service</text><line style="stroke:#181818;stroke-width:0.5;" x1="258.5" x2="333.5" y1="1248.5" y2="1248.5"/><line style="stroke:#181818;stroke-width:0.5;" x1="258.5" x2="333.5" y1="1256.5" y2="1256.5"/></g><!--MD5=[2360f29975458341e81be0af6e595b66]
class to.Member--><g id="elem_to.Member"><rect fill="#F1F1F1" height="48" id="to.Member" rx="2.5" ry="2.5" style="stroke:#181818;stroke-width:0.5;" width="82" x="293" y="1327.5"/><ellipse cx="308" cy="1343.5" fill="#ADD1B2" rx="11" ry="11" style="stroke:#181818;stroke-width:1.0;"/><path d="M307.3594,1347.2813 Q308.1563,1347.2813 308.7188,1347.0938 Q309.2969,1346.8906 309.5313,1346.6719 Q309.7813,1346.4375 310.0156,1346.25 Q310.2656,1346.0469 310.4844,1346.0469 Q310.8281,1346.0469 311.0781,1346.3125 Q311.3438,1346.5625 311.3438,1346.8906 Q311.3438,1347.625 310.1719,1348.3125 Q309.0156,1348.9844 307.3125,1348.9844 Q305.1563,1348.9844 303.7344,1347.7188 Q302.3125,1346.4531 302.3125,1344.5156 L302.3125,1343.3906 Q302.3125,1341.3594 303.6406,1339.9844 Q304.9688,1338.5938 306.9375,1338.5938 Q308.125,1338.5938 309.3438,1339.1719 L309.5156,1339.25 Q309.8125,1338.8438 310.2344,1338.8438 Q310.7188,1338.8438 310.8906,1339.1406 Q311.0781,1339.4219 311.0781,1339.9688 L311.0781,1341.3906 Q311.0781,1342.5156 310.2344,1342.5156 Q309.9219,1342.5156 309.7188,1342.3438 Q309.5313,1342.1719 309.4844,1342.0313 Q309.4531,1341.875 309.4063,1341.6094 Q309.2969,1341.0938 308.7813,1340.7813 Q308.2656,1340.4688 307.8125,1340.3906 Q307.375,1340.2969 307,1340.2969 Q305.7188,1340.2969 304.8594,1341.1719 Q304.0156,1342.0469 304.0156,1343.3906 L304.0156,1344.4844 Q304.0156,1345.7656 304.9219,1346.5313 Q305.8281,1347.2813 307.3594,1347.2813 Z " fill="#000000"/><text fill="#000000" font-family="sans-serif" font-size="14" lengthAdjust="spacing" textLength="50" x="322" y="1349.1">Member</text><line style="stroke:#181818;stroke-width:0.5;" x1="294" x2="374" y1="1359.5" y2="1359.5"/><line style="stroke:#181818;stroke-width:0.5;" x1="294" x2="374" y1="1367.5" y2="1367.5"/></g><!--MD5=[43ef6731b7cbc091f6f1344f4cedfefa]
class to.layout.Layout--><g id="elem_to.layout.Layout"><rect fill="#F1F1F1" height="48" id="to.layout.Layout" rx="2.5" ry="2.5" style="stroke:#181818;stroke-width:0.5;" width="74" x="626" y="1216.5"/><ellipse cx="641" cy="1232.5" fill="#ADD1B2" rx="11" ry="11" style="stroke:#181818;stroke-width:1.0;"/><path d="M640.3594,1236.2813 Q641.1563,1236.2813 641.7188,1236.0938 Q642.2969,1235.8906 642.5313,1235.6719 Q642.7813,1235.4375 643.0156,1235.25 Q643.2656,1235.0469 643.4844,1235.0469 Q643.8281,1235.0469 644.0781,1235.3125 Q644.3438,1235.5625 644.3438,1235.8906 Q644.3438,1236.625 643.1719,1237.3125 Q642.0156,1237.9844 640.3125,1237.9844 Q638.1563,1237.9844 636.7344,1236.7188 Q635.3125,1235.4531 635.3125,1233.5156 L635.3125,1232.3906 Q635.3125,1230.3594 636.6406,1228.9844 Q637.9688,1227.5938 639.9375,1227.5938 Q641.125,1227.5938 642.3438,1228.1719 L642.5156,1228.25 Q642.8125,1227.8438 643.2344,1227.8438 Q643.7188,1227.8438 643.8906,1228.1406 Q644.0781,1228.4219 644.0781,1228.9688 L644.0781,1230.3906 Q644.0781,1231.5156 643.2344,1231.5156 Q642.9219,1231.5156 642.7188,1231.3438 Q642.5313,1231.1719 642.4844,1231.0313 Q642.4531,1230.875 642.4063,1230.6094 Q642.2969,1230.0938 641.7813,1229.7813 Q641.2656,1229.4688 640.8125,1229.3906 Q640.375,1229.2969 640,1229.2969 Q638.7188,1229.2969 637.8594,1230.1719 Q637.0156,1231.0469 637.0156,1232.3906 L637.0156,1233.4844 Q637.0156,1234.7656 637.9219,1235.5313 Q638.8281,1236.2813 640.3594,1236.2813 Z " fill="#000000"/><text fill="#000000" font-family="sans-serif" font-size="14" lengthAdjust="spacing" textLength="42" x="655" y="1238.1">Layout</text><line style="stroke:#181818;stroke-width:0.5;" x1="627" x2="699" y1="1248.5" y2="1248.5"/><line style="stroke:#181818;stroke-width:0.5;" x1="627" x2="699" y1="1256.5" y2="1256.5"/></g><!--MD5=[3b2d7f27bec20edac89f8d9c90732cb8]
class XHR--><g id="elem_XHR"><rect codeLine="1" fill="#F1F1F1" height="64.7999" id="XHR" rx="2.5" ry="2.5" style="stroke:#181818;stroke-width:0.5;" width="61" x="585.5" y="165.5"/><ellipse cx="600.5" cy="181.5" fill="#ADD1B2" rx="11" ry="11" style="stroke:#181818;stroke-width:1.0;"/><path d="M599.8594,185.2813 Q600.6563,185.2813 601.2188,185.0938 Q601.7969,184.8906 602.0313,184.6719 Q602.2813,184.4375 602.5156,184.25 Q602.7656,184.0469 602.9844,184.0469 Q603.3281,184.0469 603.5781,184.3125 Q603.8438,184.5625 603.8438,184.8906 Q603.8438,185.625 602.6719,186.3125 Q601.5156,186.9844 599.8125,186.9844 Q597.6563,186.9844 596.2344,185.7188 Q594.8125,184.4531 594.8125,182.5156 L594.8125,181.3906 Q594.8125,179.3594 596.1406,177.9844 Q597.4688,176.5938 599.4375,176.5938 Q600.625,176.5938 601.8438,177.1719 L602.0156,177.25 Q602.3125,176.8438 602.7344,176.8438 Q603.2188,176.8438 603.3906,177.1406 Q603.5781,177.4219 603.5781,177.9688 L603.5781,179.3906 Q603.5781,180.5156 602.7344,180.5156 Q602.4219,180.5156 602.2188,180.3438 Q602.0313,180.1719 601.9844,180.0313 Q601.9531,179.875 601.9063,179.6094 Q601.7969,179.0938 601.2813,178.7813 Q600.7656,178.4688 600.3125,178.3906 Q599.875,178.2969 599.5,178.2969 Q598.2188,178.2969 597.3594,179.1719 Q596.5156,180.0469 596.5156,181.3906 L596.5156,182.4844 Q596.5156,183.7656 597.4219,184.5313 Q598.3281,185.2813 599.8594,185.2813 Z " fill="#000000"/><text fill="#000000" font-family="sans-serif" font-size="14" lengthAdjust="spacing" textLength="29" x="614.5" y="187.1">XHR</text><line style="stroke:#181818;stroke-width:0.5;" x1="586.5" x2="645.5" y1="197.5" y2="197.5"/><line style="stroke:#181818;stroke-width:0.5;" x1="586.5" x2="645.5" y1="205.5" y2="205.5"/><text fill="#000000" font-family="sans-serif" font-size="14" lengthAdjust="spacing" textLength="49" x="591.5" y="223.4999">invoke()</text></g><!--MD5=[36f4d8c507a01d05cb42b0aec07b28f8]
class EventStore--><g id="elem_EventStore"><rect codeLine="5" fill="#F1F1F1" height="141.1997" id="EventStore" rx="2.5" ry="2.5" style="stroke:#181818;stroke-width:0.5;" width="99" x="681.5" y="127.5"/><ellipse cx="696.5" cy="148.1" fill="#FF7700" rx="11" ry="11" style="stroke:#A80036;stroke-width:1.0;"/><path d="M699.4531,142.9438 Q699.9688,142.9438 700.125,143.2406 Q700.2813,143.5219 700.2813,144.0688 L700.2813,145.5688 Q700.2813,146.7094 699.4531,146.7094 Q699.3125,146.7094 699.2031,146.6938 Q699.0938,146.6625 699.0156,146.6156 Q698.9531,146.5688 698.875,146.4906 Q698.8125,146.4125 698.7656,146.3656 Q698.7344,146.3188 698.7031,146.225 Q698.6719,146.1156 698.6563,146.0688 Q698.6563,146.0219 698.625,145.9125 Q698.6094,145.8031 698.6094,145.7875 Q698.4844,145.2875 697.9219,144.975 Q697.375,144.6469 696.5781,144.6469 Q695.7813,144.6469 695.2188,145.0219 Q694.6563,145.3969 694.6563,145.9438 Q694.6563,146.5219 695.2188,146.8344 Q695.7813,147.1469 696.5313,147.2406 Q697.2813,147.3344 698.1875,147.5844 Q699.1094,147.8344 699.6406,148.2563 Q700.6406,149.0531 700.6406,150.3813 Q700.6406,151.7094 699.5625,152.5219 Q698.5,153.3344 696.75,153.3344 Q695.3438,153.3344 694.0938,152.6781 Q693.7656,153.0844 693.4219,153.0844 Q692.5469,153.0844 692.5469,151.9594 L692.5469,150.8344 Q692.5469,150.2719 692.7344,149.9906 Q692.9219,149.7094 693.4063,149.7094 Q693.5625,149.7094 693.6875,149.7563 Q693.8125,149.7875 693.8906,149.8656 Q693.9844,149.9281 694.0313,149.9906 Q694.0938,150.0375 694.1406,150.1469 Q694.1875,150.2406 694.2031,150.3031 Q694.2188,150.35 694.2344,150.4438 Q694.2656,150.5219 694.2656,150.5375 Q694.3906,150.9906 695.0781,151.3188 Q695.7813,151.6313 696.6406,151.6313 Q697.5938,151.6313 698.2344,151.2719 Q698.875,150.8969 698.875,150.35 Q698.875,149.8344 698.375,149.5375 Q697.875,149.225 697.2188,149.1313 Q696.5625,149.0219 695.6875,148.8188 Q694.8125,148.6156 694.2813,148.3188 Q693.6406,147.9438 693.2656,147.3188 Q692.8906,146.6938 692.8906,145.9594 Q692.8906,144.6625 693.9375,143.8031 Q695,142.9438 696.5781,142.9438 Q697.8906,142.9438 698.7969,143.5063 Q698.9219,143.1938 699.0625,143.0688 Q699.2031,142.9438 699.4531,142.9438 Z " fill="#000000"/><text fill="#000000" font-family="sans-serif" font-size="12" font-style="italic" lengthAdjust="spacing" textLength="60" x="714" y="144.5001">«Singleton»</text><text fill="#000000" font-family="sans-serif" font-size="14" lengthAdjust="spacing" textLength="67" x="710.5" y="160.9">EventStore</text><line style="stroke:#181818;stroke-width:0.5;" x1="682.5" x2="779.5" y1="168.7" y2="168.7"/><text fill="#000000" font-family="sans-serif" font-size="14" lengthAdjust="spacing" textLength="86" x="687.5" y="186.7">log:LogEntry[]</text><line style="stroke:#181818;stroke-width:0.5;" x1="682.5" x2="779.5" y1="193.5" y2="193.5"/><text fill="#000000" font-family="sans-serif" font-size="14" lengthAdjust="spacing" textLength="38" x="687.5" y="211.4999">start()</text><text fill="#000000" font-family="sans-serif" font-size="14" lengthAdjust="spacing" textLength="33" x="687.5" y="228.2998">end()</text><text fill="#000000" font-family="sans-serif" font-size="14" lengthAdjust="spacing" textLength="37" x="687.5" y="245.0997">fault()</text><text fill="#000000" font-family="sans-serif" font-size="14" lengthAdjust="spacing" textLength="57" x="687.5" y="261.8997">find(href)</text></g><!--MD5=[cb32f8b1b756f5d42df70837c47813f1]
class LogEntry--><g id="elem_LogEntry"><rect codeLine="13" fill="#F1F1F1" height="199.1993" id="LogEntry" rx="2.5" ry="2.5" style="stroke:#181818;stroke-width:0.5;" width="153" x="637.5" y="465.5"/><ellipse cx="681.75" cy="481.5" fill="#ADD1B2" rx="11" ry="11" style="stroke:#181818;stroke-width:1.0;"/><path d="M681.1094,485.2813 Q681.9063,485.2813 682.4688,485.0938 Q683.0469,484.8906 683.2813,484.6719 Q683.5313,484.4375 683.7656,484.25 Q684.0156,484.0469 684.2344,484.0469 Q684.5781,484.0469 684.8281,484.3125 Q685.0938,484.5625 685.0938,484.8906 Q685.0938,485.625 683.9219,486.3125 Q682.7656,486.9844 681.0625,486.9844 Q678.9063,486.9844 677.4844,485.7188 Q676.0625,484.4531 676.0625,482.5156 L676.0625,481.3906 Q676.0625,479.3594 677.3906,477.9844 Q678.7188,476.5938 680.6875,476.5938 Q681.875,476.5938 683.0938,477.1719 L683.2656,477.25 Q683.5625,476.8438 683.9844,476.8438 Q684.4688,476.8438 684.6406,477.1406 Q684.8281,477.4219 684.8281,477.9688 L684.8281,479.3906 Q684.8281,480.5156 683.9844,480.5156 Q683.6719,480.5156 683.4688,480.3438 Q683.2813,480.1719 683.2344,480.0313 Q683.2031,479.875 683.1563,479.6094 Q683.0469,479.0938 682.5313,478.7813 Q682.0156,478.4688 681.5625,478.3906 Q681.125,478.2969 680.75,478.2969 Q679.4688,478.2969 678.6094,479.1719 Q677.7656,480.0469 677.7656,481.3906 L677.7656,482.4844 Q677.7656,483.7656 678.6719,484.5313 Q679.5781,485.2813 681.1094,485.2813 Z " fill="#000000"/><text fill="#000000" font-family="sans-serif" font-size="14" lengthAdjust="spacing" textLength="56" x="702.25" y="487.1">LogEntry</text><line style="stroke:#181818;stroke-width:0.5;" x1="638.5" x2="789.5" y1="497.5" y2="497.5"/><text fill="#000000" font-family="sans-serif" font-size="14" lengthAdjust="spacing" textLength="46" x="643.5" y="515.4999">url:Href</text><text fill="#000000" font-family="sans-serif" font-size="14" lengthAdjust="spacing" textLength="62" x="643.5" y="532.2999">title:String</text><text fill="#000000" font-family="sans-serif" font-size="14" lengthAdjust="spacing" textLength="89" x="643.5" y="549.0998">startedAt:Date</text><text fill="#000000" font-family="sans-serif" font-size="14" lengthAdjust="spacing" textLength="97" x="643.5" y="565.8997">updatedAt:Date</text><text fill="#000000" font-family="sans-serif" font-size="14" lengthAdjust="spacing" textLength="87" x="643.5" y="582.6996">request:String</text><text fill="#000000" font-family="sans-serif" font-size="14" lengthAdjust="spacing" textLength="97" x="643.5" y="599.4996">response:String</text><text fill="#000000" font-family="sans-serif" font-size="14" lengthAdjust="spacing" textLength="133" x="643.5" y="616.2995">object:TransferObject</text><text fill="#000000" font-family="sans-serif" font-size="14" lengthAdjust="spacing" textLength="141" x="643.5" y="633.0994">aggregator:Aggregator</text><text fill="#000000" font-family="sans-serif" font-size="14" lengthAdjust="spacing" textLength="80" x="643.5" y="649.8994">cacheHits:int</text><line style="stroke:#181818;stroke-width:0.5;" x1="638.5" x2="789.5" y1="656.6993" y2="656.6993"/></g><!--MD5=[1baf32c238e7b10acca77db68c6197d6]
class TransferObject--><g id="elem_TransferObject"><rect codeLine="51" fill="#F1F1F1" height="48" id="TransferObject" rx="2.5" ry="2.5" style="stroke:#181818;stroke-width:0.5;" width="127" x="475.5" y="734"/><ellipse cx="490.5" cy="750" fill="#B4A7E5" rx="11" ry="11" style="stroke:#181818;stroke-width:1.0;"/><path d="M493.1719,753.2969 Q493.7188,753.2969 494,753.4844 Q494.2813,753.6563 494.2813,754.1563 Q494.2813,755 493.1719,755 L488.0313,755 Q486.9063,755 486.9063,754.1563 Q486.9063,753.6563 487.1875,753.4844 Q487.4844,753.2969 488.0313,753.2969 L489.75,753.2969 L489.75,746.7813 L488.0313,746.7813 Q486.9063,746.7813 486.9063,745.9375 Q486.9063,745.4531 487.1875,745.2813 Q487.4844,745.0938 488.0313,745.0938 L493.1719,745.0938 Q493.7188,745.0938 494,745.2813 Q494.2813,745.4531 494.2813,745.9375 Q494.2813,746.7813 493.1719,746.7813 L491.4531,746.7813 L491.4531,753.2969 L493.1719,753.2969 Z " fill="#000000"/><text fill="#000000" font-family="sans-serif" font-size="14" font-style="italic" lengthAdjust="spacing" textLength="95" x="504.5" y="755.6">TransferObject</text><line style="stroke:#181818;stroke-width:0.5;" x1="476.5" x2="601.5" y1="766" y2="766"/><line style="stroke:#181818;stroke-width:0.5;" x1="476.5" x2="601.5" y1="774" y2="774"/></g><!--MD5=[c5240e5c49866b6831018b14556465c0]
class Aggregator--><g id="elem_Aggregator"><rect codeLine="74" fill="#F1F1F1" height="64.7999" id="Aggregator" rx="2.5" ry="2.5" style="stroke:#181818;stroke-width:0.5;" width="116" x="796" y="725.5"/><ellipse cx="816.85" cy="741.5" fill="#B4A7E5" rx="11" ry="11" style="stroke:#181818;stroke-width:1.0;"/><path d="M819.5219,744.7969 Q820.0688,744.7969 820.35,744.9844 Q820.6313,745.1563 820.6313,745.6563 Q820.6313,746.5 819.5219,746.5 L814.3813,746.5 Q813.2563,746.5 813.2563,745.6563 Q813.2563,745.1563 813.5375,744.9844 Q813.8344,744.7969 814.3813,744.7969 L816.1,744.7969 L816.1,738.2813 L814.3813,738.2813 Q813.2563,738.2813 813.2563,737.4375 Q813.2563,736.9531 813.5375,736.7813 Q813.8344,736.5938 814.3813,736.5938 L819.5219,736.5938 Q820.0688,736.5938 820.35,736.7813 Q820.6313,736.9531 820.6313,737.4375 Q820.6313,738.2813 819.5219,738.2813 L817.8031,738.2813 L817.8031,744.7969 L819.5219,744.7969 Z " fill="#000000"/><text fill="#000000" font-family="sans-serif" font-size="14" font-style="italic" lengthAdjust="spacing" textLength="71" x="832.15" y="747.1">Aggregator</text><line style="stroke:#181818;stroke-width:0.5;" x1="797" x2="911" y1="757.5" y2="757.5"/><line style="stroke:#181818;stroke-width:0.5;" x1="797" x2="911" y1="765.5" y2="765.5"/><text fill="#000000" font-family="sans-serif" font-size="14" lengthAdjust="spacing" textLength="104" x="802" y="783.4999">update(logEntry)</text></g><!--MD5=[c8ff661d8810405741f708d20018b1ce]
class ResponseHandler--><g id="elem_ResponseHandler"><rect codeLine="28" fill="#F1F1F1" height="124.3997" id="ResponseHandler" rx="2.5" ry="2.5" style="stroke:#181818;stroke-width:0.5;" width="201" x="311.5" y="136"/><ellipse cx="326.5" cy="156.6" fill="#ADD1B2" rx="11" ry="11" style="stroke:#181818;stroke-width:1.0;"/><path d="M325.8594,160.3813 Q326.6563,160.3813 327.2188,160.1938 Q327.7969,159.9906 328.0313,159.7719 Q328.2813,159.5375 328.5156,159.35 Q328.7656,159.1469 328.9844,159.1469 Q329.3281,159.1469 329.5781,159.4125 Q329.8438,159.6625 329.8438,159.9906 Q329.8438,160.725 328.6719,161.4125 Q327.5156,162.0844 325.8125,162.0844 Q323.6563,162.0844 322.2344,160.8188 Q320.8125,159.5531 320.8125,157.6156 L320.8125,156.4906 Q320.8125,154.4594 322.1406,153.0844 Q323.4688,151.6938 325.4375,151.6938 Q326.625,151.6938 327.8438,152.2719 L328.0156,152.35 Q328.3125,151.9438 328.7344,151.9438 Q329.2188,151.9438 329.3906,152.2406 Q329.5781,152.5219 329.5781,153.0688 L329.5781,154.4906 Q329.5781,155.6156 328.7344,155.6156 Q328.4219,155.6156 328.2188,155.4438 Q328.0313,155.2719 327.9844,155.1313 Q327.9531,154.975 327.9063,154.7094 Q327.7969,154.1938 327.2813,153.8813 Q326.7656,153.5688 326.3125,153.4906 Q325.875,153.3969 325.5,153.3969 Q324.2188,153.3969 323.3594,154.2719 Q322.5156,155.1469 322.5156,156.4906 L322.5156,157.5844 Q322.5156,158.8656 323.4219,159.6313 Q324.3281,160.3813 325.8594,160.3813 Z " fill="#000000"/><text fill="#000000" font-family="sans-serif" font-size="12" font-style="italic" lengthAdjust="spacing" textLength="173" x="338.5" y="153.0001">«Facade,ChainOfResponsibility»</text><text fill="#000000" font-family="sans-serif" font-size="14" lengthAdjust="spacing" textLength="110" x="370" y="169.4">ResponseHandler</text><line style="stroke:#181818;stroke-width:0.5;" x1="312.5" x2="511.5" y1="177.2" y2="177.2"/><line style="stroke:#181818;stroke-width:0.5;" x1="312.5" x2="511.5" y1="185.2" y2="185.2"/><text fill="#000000" font-family="sans-serif" font-size="14" lengthAdjust="spacing" textLength="108" x="317.5" y="203.2">handle(LogEntry)</text><text fill="#000000" font-family="sans-serif" font-size="14" lengthAdjust="spacing" textLength="102" x="317.5" y="219.9999">canHandle(json)</text><text fill="#000000" font-family="sans-serif" font-size="14" lengthAdjust="spacing" textLength="69" x="317.5" y="236.7998">doHandle()</text><text fill="#000000" font-family="sans-serif" font-size="14" lengthAdjust="spacing" textLength="70" x="317.5" y="253.5997">parse(json)</text></g><!--MD5=[af90564d048856be940d57fa75893e78]
class ListAggregator--><g id="elem_ListAggregator"><rect codeLine="77" fill="#F1F1F1" height="64.7999" id="ListAggregator" rx="2.5" ry="2.5" style="stroke:#181818;stroke-width:0.5;" width="123" x="681.5" y="891.5"/><ellipse cx="696.5" cy="907.5" fill="#ADD1B2" rx="11" ry="11" style="stroke:#181818;stroke-width:1.0;"/><path d="M695.8594,911.2813 Q696.6563,911.2813 697.2188,911.0938 Q697.7969,910.8906 698.0313,910.6719 Q698.2813,910.4375 698.5156,910.25 Q698.7656,910.0469 698.9844,910.0469 Q699.3281,910.0469 699.5781,910.3125 Q699.8438,910.5625 699.8438,910.8906 Q699.8438,911.625 698.6719,912.3125 Q697.5156,912.9844 695.8125,912.9844 Q693.6563,912.9844 692.2344,911.7188 Q690.8125,910.4531 690.8125,908.5156 L690.8125,907.3906 Q690.8125,905.3594 692.1406,903.9844 Q693.4688,902.5938 695.4375,902.5938 Q696.625,902.5938 697.8438,903.1719 L698.0156,903.25 Q698.3125,902.8438 698.7344,902.8438 Q699.2188,902.8438 699.3906,903.1406 Q699.5781,903.4219 699.5781,903.9688 L699.5781,905.3906 Q699.5781,906.5156 698.7344,906.5156 Q698.4219,906.5156 698.2188,906.3438 Q698.0313,906.1719 697.9844,906.0313 Q697.9531,905.875 697.9063,905.6094 Q697.7969,905.0938 697.2813,904.7813 Q696.7656,904.4688 696.3125,904.3906 Q695.875,904.2969 695.5,904.2969 Q694.2188,904.2969 693.3594,905.1719 Q692.5156,906.0469 692.5156,907.3906 L692.5156,908.4844 Q692.5156,909.7656 693.4219,910.5313 Q694.3281,911.2813 695.8594,911.2813 Z " fill="#000000"/><text fill="#000000" font-family="sans-serif" font-size="14" lengthAdjust="spacing" textLength="91" x="710.5" y="913.1">ListAggregator</text><line style="stroke:#181818;stroke-width:0.5;" x1="682.5" x2="803.5" y1="923.5" y2="923.5"/><rect fill="none" height="6" style="stroke:#C82930;stroke-width:1.0;" width="6" x="689.5" y="931.5"/><text fill="#000000" font-family="sans-serif" font-size="14" lengthAdjust="spacing" textLength="83" x="701.5" y="941.4999">list:ObjectList</text><line style="stroke:#181818;stroke-width:0.5;" x1="682.5" x2="803.5" y1="948.2999" y2="948.2999"/></g><!--MD5=[efa4f010a0e7c7395f45ac8dfaa8f5b8]
class ObjectList--><g id="elem_ObjectList"><rect codeLine="86" fill="#F1F1F1" height="98.3998" id="ObjectList" rx="2.5" ry="2.5" style="stroke:#181818;stroke-width:0.5;" width="136" x="675" y="1017.5"/><ellipse cx="708.9" cy="1033.5" fill="#ADD1B2" rx="11" ry="11" style="stroke:#181818;stroke-width:1.0;"/><path d="M708.2594,1037.2813 Q709.0563,1037.2813 709.6188,1037.0938 Q710.1969,1036.8906 710.4313,1036.6719 Q710.6813,1036.4375 710.9156,1036.25 Q711.1656,1036.0469 711.3844,1036.0469 Q711.7281,1036.0469 711.9781,1036.3125 Q712.2438,1036.5625 712.2438,1036.8906 Q712.2438,1037.625 711.0719,1038.3125 Q709.9156,1038.9844 708.2125,1038.9844 Q706.0563,1038.9844 704.6344,1037.7188 Q703.2125,1036.4531 703.2125,1034.5156 L703.2125,1033.3906 Q703.2125,1031.3594 704.5406,1029.9844 Q705.8688,1028.5938 707.8375,1028.5938 Q709.025,1028.5938 710.2438,1029.1719 L710.4156,1029.25 Q710.7125,1028.8438 711.1344,1028.8438 Q711.6188,1028.8438 711.7906,1029.1406 Q711.9781,1029.4219 711.9781,1029.9688 L711.9781,1031.3906 Q711.9781,1032.5156 711.1344,1032.5156 Q710.8219,1032.5156 710.6188,1032.3438 Q710.4313,1032.1719 710.3844,1032.0313 Q710.3531,1031.875 710.3063,1031.6094 Q710.1969,1031.0938 709.6813,1030.7813 Q709.1656,1030.4688 708.7125,1030.3906 Q708.275,1030.2969 707.9,1030.2969 Q706.6188,1030.2969 705.7594,1031.1719 Q704.9156,1032.0469 704.9156,1033.3906 L704.9156,1034.4844 Q704.9156,1035.7656 705.8219,1036.5313 Q706.7281,1037.2813 708.2594,1037.2813 Z " fill="#000000"/><text fill="#000000" font-family="sans-serif" font-size="14" lengthAdjust="spacing" textLength="62" x="727.1" y="1039.1">ObjectList</text><line style="stroke:#181818;stroke-width:0.5;" x1="676" x2="810" y1="1049.5" y2="1049.5"/><text fill="#000000" font-family="sans-serif" font-size="14" lengthAdjust="spacing" textLength="110" x="695" y="1067.4999">list:ObjectAdapter</text><rect fill="none" height="6" style="stroke:#C82930;stroke-width:1.0;" width="6" x="683" y="1074.2999"/><text fill="#000000" font-family="sans-serif" font-size="14" lengthAdjust="spacing" textLength="43" x="695" y="1084.2999">limit:int</text><rect fill="none" height="6" style="stroke:#C82930;stroke-width:1.0;" width="6" x="683" y="1091.0999"/><text fill="#000000" font-family="sans-serif" font-size="14" lengthAdjust="spacing" textLength="83" x="695" y="1101.0998">layout:Layout</text><line style="stroke:#181818;stroke-width:0.5;" x1="676" x2="810" y1="1107.8998" y2="1107.8998"/></g><!--MD5=[3dd54cafc866609b722581d188472fec]
class NavigationAggregator--><g id="elem_NavigationAggregator"><rect codeLine="83" fill="#F1F1F1" height="48" id="NavigationAggregator" rx="2.5" ry="2.5" style="stroke:#181818;stroke-width:0.5;" width="167" x="839.5" y="900"/><ellipse cx="854.5" cy="916" fill="#ADD1B2" rx="11" ry="11" style="stroke:#181818;stroke-width:1.0;"/><path d="M853.8594,919.7813 Q854.6563,919.7813 855.2188,919.5938 Q855.7969,919.3906 856.0313,919.1719 Q856.2813,918.9375 856.5156,918.75 Q856.7656,918.5469 856.9844,918.5469 Q857.3281,918.5469 857.5781,918.8125 Q857.8438,919.0625 857.8438,919.3906 Q857.8438,920.125 856.6719,920.8125 Q855.5156,921.4844 853.8125,921.4844 Q851.6563,921.4844 850.2344,920.2188 Q848.8125,918.9531 848.8125,917.0156 L848.8125,915.8906 Q848.8125,913.8594 850.1406,912.4844 Q851.4688,911.0938 853.4375,911.0938 Q854.625,911.0938 855.8438,911.6719 L856.0156,911.75 Q856.3125,911.3438 856.7344,911.3438 Q857.2188,911.3438 857.3906,911.6406 Q857.5781,911.9219 857.5781,912.4688 L857.5781,913.8906 Q857.5781,915.0156 856.7344,915.0156 Q856.4219,915.0156 856.2188,914.8438 Q856.0313,914.6719 855.9844,914.5313 Q855.9531,914.375 855.9063,914.1094 Q855.7969,913.5938 855.2813,913.2813 Q854.7656,912.9688 854.3125,912.8906 Q853.875,912.7969 853.5,912.7969 Q852.2188,912.7969 851.3594,913.6719 Q850.5156,914.5469 850.5156,915.8906 L850.5156,916.9844 Q850.5156,918.2656 851.4219,919.0313 Q852.3281,919.7813 853.8594,919.7813 Z " fill="#000000"/><text fill="#000000" font-family="sans-serif" font-size="14" lengthAdjust="spacing" textLength="135" x="868.5" y="921.6">NavigationAggregator</text><line style="stroke:#181818;stroke-width:0.5;" x1="840.5" x2="1005.5" y1="932" y2="932"/><line style="stroke:#181818;stroke-width:0.5;" x1="840.5" x2="1005.5" y1="940" y2="940"/></g><g id="elem_PES"><path d="M697,337.5 L697,378.7 L801,378.7 L801,347.5 L791,337.5 L697,337.5 " fill="#FEFFDD" style="stroke:#181818;stroke-width:0.5;"/><path d="M791,337.5 L791,347.5 L801,347.5 L791,337.5 " fill="#FEFFDD" style="stroke:#181818;stroke-width:1.0;"/><text fill="#000000" font-family="sans-serif" font-size="13" lengthAdjust="spacing" textLength="55" x="703" y="355.5">«Pattern»</text><text fill="#000000" font-family="sans-serif" font-size="13" lengthAdjust="spacing" textLength="83" x="703" y="371.1">EventSourcing</text></g><g id="elem_PR"><path d="M816,177.5 L816,218.7 L892,218.7 L892,187.5 L882,177.5 L816,177.5 " fill="#FEFFDD" style="stroke:#181818;stroke-width:0.5;"/><path d="M882,177.5 L882,187.5 L892,187.5 L882,177.5 " fill="#FEFFDD" style="stroke:#181818;stroke-width:1.0;"/><text fill="#000000" font-family="sans-serif" font-size="13" lengthAdjust="spacing" textLength="55" x="822" y="195.5">«Pattern»</text><text fill="#000000" font-family="sans-serif" font-size="13" lengthAdjust="spacing" textLength="36" x="822" y="211.1">Redux</text></g><g id="elem_PRF"><path d="M934.5,6 L934.5,47.2 A0,0 0 0 0 934.5,47.2 L985,47.2 L989,173.84 L993,47.2 L1043.5,47.2 A0,0 0 0 0 1043.5,47.2 L1043.5,16 L1033.5,6 L934.5,6 A0,0 0 0 0 934.5,6 " fill="#FEFFDD" style="stroke:#181818;stroke-width:0.5;"/><path d="M1033.5,6 L1033.5,16 L1043.5,16 L1033.5,6 " fill="#FEFFDD" style="stroke:#181818;stroke-width:0.5;"/><text fill="#000000" font-family="sans-serif" font-size="13" lengthAdjust="spacing" textLength="55" x="940.5" y="24">«Pattern»</text><text fill="#000000" font-family="sans-serif" font-size="13" lengthAdjust="spacing" textLength="88" x="940.5" y="39.6">RemoteFacade</text></g><g id="elem_PTO"><path d="M486,544.5 L486,585.7 A0,0 0 0 0 486,585.7 L535,585.7 L539,733.84 L543,585.7 L592,585.7 A0,0 0 0 0 592,585.7 L592,554.5 L582,544.5 L486,544.5 A0,0 0 0 0 486,544.5 " fill="#FEFFDD" style="stroke:#181818;stroke-width:0.5;"/><path d="M582,544.5 L582,554.5 L592,554.5 L582,544.5 " fill="#FEFFDD" style="stroke:#181818;stroke-width:0.5;"/><text fill="#000000" font-family="sans-serif" font-size="13" lengthAdjust="spacing" textLength="55" x="492" y="562.5">«Pattern»</text><text fill="#000000" font-family="sans-serif" font-size="13" lengthAdjust="spacing" textLength="85" x="492" y="578.1">TransferObject</text></g><g id="elem_PA"><path d="M907,544.5 L907,585.7 A0,0 0 0 0 907,585.7 L935.19,585.7 L869.71,725.41 L943.19,585.7 L991,585.7 A0,0 0 0 0 991,585.7 L991,554.5 L981,544.5 L907,544.5 A0,0 0 0 0 907,544.5 " fill="#FEFFDD" style="stroke:#181818;stroke-width:0.5;"/><path d="M981,544.5 L981,554.5 L991,554.5 L981,544.5 " fill="#FEFFDD" style="stroke:#181818;stroke-width:0.5;"/><text fill="#000000" font-family="sans-serif" font-size="13" lengthAdjust="spacing" textLength="55" x="913" y="562.5">«Pattern»</text><text fill="#000000" font-family="sans-serif" font-size="13" lengthAdjust="spacing" textLength="63" x="913" y="578.1">Aggregator</text></g><!--MD5=[211fb28d7af036b7e2906500ae0df584]
reverse link EventStore to LogEntry--><g id="link_EventStore_LogEntry"><path codeLine="24" d="M693.6,281.12 C687.96,296.88 683.02,313.47 680,329.5 C671.64,373.87 676.7,423.29 685.2,465.28 " fill="none" id="EventStore-backto-LogEntry" style="stroke:#181818;stroke-width:1.0;"/><polygon fill="none" points="698.26,268.7,692.4058,272.9105,694.0407,279.9338,699.895,275.7233,698.26,268.7" style="stroke:#181818;stroke-width:1.0;"/></g><!--MD5=[c66ef044075bfa520abea1b298c82d62]
reverse link LogEntry to TransferObject--><g id="link_LogEntry_TransferObject"><path codeLine="25" d="M628.55,659.26 C603.21,686.92 577.63,714.84 560.34,733.71 " fill="none" id="LogEntry-backto-TransferObject" style="stroke:#181818;stroke-width:1.0;"/><polygon fill="none" points="637.5,649.5,630.4972,651.2205,629.3919,658.3464,636.3947,656.6259,637.5,649.5" style="stroke:#181818;stroke-width:1.0;"/></g><!--MD5=[1323f1ce2513c9cf1e00c7aff6d8ac1a]
reverse link LogEntry to Aggregator--><g id="link_LogEntry_Aggregator"><path codeLine="26" d="M794,675.15 C807.47,693.52 820.44,711.21 830.85,725.42 " fill="none" id="LogEntry-backto-Aggregator" style="stroke:#181818;stroke-width:1.0;"/><polygon fill="none" points="786.26,664.58,786.5809,671.784,793.3541,674.2585,793.0332,667.0546,786.26,664.58" style="stroke:#181818;stroke-width:1.0;"/></g><!--MD5=[c99a35cbbebd0771999276ef9d68dcaa]
link ResponseHandler to XHR--><g id="link_ResponseHandler_XHR"><path codeLine="34" d="M512.51,198 C536.78,198 561.16,198 580.16,198 " fill="none" id="ResponseHandler-to-XHR" style="stroke:#181818;stroke-width:1.0;"/><polygon fill="#181818" points="585.37,198,576.37,194,580.37,198,576.37,202,585.37,198" style="stroke:#181818;stroke-width:1.0;"/><polygon fill="#000000" points="530,186.8,539.0451,189.7389,539.0451,183.8611,530,186.8" style="stroke:#000000;stroke-width:1.0;"/><text fill="#000000" font-family="sans-serif" font-size="13" lengthAdjust="spacing" textLength="23" x="544" y="192">json</text></g><!--MD5=[8026b4f18a77ec0460a752f560bfe8e5]
link ResponseHandler to TransferObject--><g id="link_ResponseHandler_TransferObject"><path codeLine="35" d="M409.57,260.28 C408.09,351.77 413.68,527.91 469,664.5 C478.91,688.97 497.03,712.63 512.34,729.9 " fill="none" id="ResponseHandler-to-TransferObject" style="stroke:#181818;stroke-width:1.0;stroke-dasharray:7.0,7.0;"/><polygon fill="#181818" points="515.77,733.71,512.7225,724.3445,512.4252,729.9935,506.7761,729.6962,515.77,733.71" style="stroke:#181818;stroke-width:1.0;"/><text fill="#000000" font-family="sans-serif" font-size="13" lengthAdjust="spacing" textLength="131" x="417" y="432.5">converts JSON into TO</text></g><!--MD5=[188c581f5f130a291821e1acadd3d25d]
link XHR to EventStore--><g id="link_XHR_EventStore"><path codeLine="37" d="M646.55,198 C656.38,198 666.21,198 676.04,198 " fill="none" id="XHR-to-EventStore" style="stroke:#181818;stroke-width:1.0;"/><polygon fill="#181818" points="681.19,198,672.19,194,676.19,198,672.19,202,681.19,198" style="stroke:#181818;stroke-width:1.0;"/></g><!--MD5=[1b036d3bee70abab8c1eec6380d9d2d0]
reverse link RestfulObjects to ApacheIsis--><g id="link_RestfulObjects_ApacheIsis"><path codeLine="45" d="M985.41,242.62 C983.13,270.34 980.25,305.39 978.28,329.33 " fill="none" id="RestfulObjects-backto-ApacheIsis" style="stroke:#181818;stroke-width:1.0;"/><polygon fill="none" points="978.47,241.67,987.08,222.31,992.42,242.82,978.47,241.67" style="stroke:#181818;stroke-width:1.0;"/></g><!--MD5=[ff455b0d12e54cd289f5a016df291ab1]
reverse link RestfulObjects to NakedObjects--><g id="link_RestfulObjects_NakedObjects"><path codeLine="46" d="M1021.38,237.76 C1045.09,266.14 1076.69,303.96 1097.88,329.33 " fill="none" id="RestfulObjects-backto-NakedObjects" style="stroke:#181818;stroke-width:1.0;"/><polygon fill="none" points="1015.93,242.15,1008.48,222.31,1026.67,233.17,1015.93,242.15" style="stroke:#181818;stroke-width:1.0;"/></g><!--MD5=[1cde971cbfc4340e811b59a359229905]
link XHR to RestfulObjects--><g id="link_XHR_RestfulObjects"><path codeLine="47" d="M623.04,165.29 C629.64,143.31 641.93,115.9 664,102 C723.24,64.69 751.5,99.21 821.5,100 C860.84,100.44 874.61,84.8 910,102 C939.12,116.15 961.24,146.68 974.56,169.53 " fill="none" id="XHR-to-RestfulObjects" style="stroke:#181818;stroke-width:1.0;"/><polygon fill="#181818" points="977.11,173.99,976.1108,164.192,974.6262,169.6505,969.1677,168.166,977.11,173.99" style="stroke:#181818;stroke-width:1.0;"/><text fill="#000000" font-family="sans-serif" font-size="13" lengthAdjust="spacing" textLength="37" x="783.5" y="91">invoke</text></g><!--MD5=[ff6d4b24c1a91bdf451691770f7e5cbd]
reverse link XHR to RestfulObjects--><g id="link_XHR_RestfulObjects"><path codeLine="48" d="M624.6,160.32 C631.52,139.32 643.56,114.87 664,102 C723.24,64.69 751.5,99.21 821.5,100 C860.84,100.44 874.61,84.8 910,102 C941.06,117.1 964.15,150.82 977.11,173.99 " fill="none" id="XHR-backto-RestfulObjects" style="stroke:#181818;stroke-width:1.0;"/><polygon fill="#181818" points="623.04,165.29,629.555,157.9039,624.5395,160.5201,621.9232,155.5047,623.04,165.29" style="stroke:#181818;stroke-width:1.0;"/><text fill="#000000" font-family="sans-serif" font-size="13" lengthAdjust="spacing" textLength="23" x="790.5" y="91">json</text></g><!--MD5=[4620c297ba6f1d781cd0ed1daa775bee]
reverse link TransferObject to to.Link--><g id="link_TransferObject_to.Link"><path codeLine="52" d="M529.2,801.93 C514.19,867.63 486.03,990.91 474.32,1042.2 " fill="none" id="TransferObject-backto-to.Link" style="stroke:#181818;stroke-width:1.0;stroke-dasharray:7.0,7.0;"/><polygon fill="none" points="522.46,799.98,533.74,782.04,536.11,803.09,522.46,799.98" style="stroke:#181818;stroke-width:1.0;"/></g><!--MD5=[b54b6402f2c0aeee3f02bd164175ae12]
reverse link TransferObject to to.Extensions--><g id="link_TransferObject_to.Extensions"><path codeLine="53" d="M541.64,802.38 C544.57,870.41 545.54,1005.73 516,1115.5 C506.03,1152.56 485.26,1192.05 471.22,1216.26 " fill="none" id="TransferObject-backto-to.Extensions" style="stroke:#181818;stroke-width:1.0;stroke-dasharray:7.0,7.0;"/><polygon fill="none" points="534.63,802.36,540.61,782.03,548.61,801.65,534.63,802.36" style="stroke:#181818;stroke-width:1.0;"/></g><!--MD5=[b581451216a7d46b23357fd86de0a340]
reverse link TransferObject to to.layout.Layout--><g id="link_TransferObject_to.layout.Layout"><path codeLine="54" d="M560,800.37 C562.93,807 565.72,813.87 568,820.5 C618.54,967.18 649.67,1152.11 659.56,1216.3 " fill="none" id="TransferObject-backto-to.layout.Layout" style="stroke:#181818;stroke-width:1.0;stroke-dasharray:7.0,7.0;"/><polygon fill="none" points="553.61,803.23,551.39,782.15,566.26,797.24,553.61,803.23" style="stroke:#181818;stroke-width:1.0;"/></g><!--MD5=[0292e4433c127d38dd87063e03d1827b]
reverse link TransferObject to to.Linked--><g id="link_TransferObject_to.Linked"><path codeLine="58" d="M485.36,793.62 C472.88,802.12 459.8,811.4 448,820.5 C418.92,842.93 387.71,870.45 364.85,891.33 " fill="none" id="TransferObject-backto-to.Linked" style="stroke:#181818;stroke-width:1.0;stroke-dasharray:7.0,7.0;"/><polygon fill="none" points="481.88,787.53,502.4,782.23,489.66,799.17,481.88,787.53" style="stroke:#181818;stroke-width:1.0;"/></g><!--MD5=[da56766a10462bcc890735f4ba220c5c]
reverse link to.Linked to to.Result--><g id="link_to.Linked_to.Result"><path codeLine="59" d="M272.64,943.45 C226.71,959.37 162.15,984.93 111,1017.5 C100,1024.5 89.11,1033.83 80.09,1042.41 " fill="none" id="to.Linked-backto-to.Result" style="stroke:#181818;stroke-width:1.0;stroke-dasharray:7.0,7.0;"/><polygon fill="none" points="270.51,936.78,291.7,937.02,274.98,950.05,270.51,936.78" style="stroke:#181818;stroke-width:1.0;"/></g><!--MD5=[609a7d2eede23fcf68d875f7da410297]
reverse link to.Linked to to.ResultList--><g id="link_to.Linked_to.ResultList"><path codeLine="60" d="M280.94,970.08 C254.2,994.17 222.4,1022.81 200.67,1042.38 " fill="none" id="to.Linked-backto-to.ResultList" style="stroke:#181818;stroke-width:1.0;stroke-dasharray:7.0,7.0;"/><polygon fill="none" points="276.44,964.71,295.99,956.53,285.81,975.12,276.44,964.71" style="stroke:#181818;stroke-width:1.0;"/></g><!--MD5=[2344372b37003ed52512b79ad8325196]
reverse link to.Linked to to.Extended--><g id="link_to.Linked_to.Extended"><path codeLine="61" d="M331,976.55 C331,995.65 331,1016.74 331,1033.59 " fill="none" id="to.Linked-backto-to.Extended" style="stroke:#181818;stroke-width:1.0;stroke-dasharray:7.0,7.0;"/><polygon fill="none" points="324,976.53,331,956.53,338,976.53,324,976.53" style="stroke:#181818;stroke-width:1.0;"/></g><!--MD5=[003c6c4f33e5a65c22164ded883e5d46]
reverse link to.Linked to to.Link--><g id="link_to.Linked_to.Link"><path codeLine="66" d="M372.22,966.12 C388.15,982.1 406.49,1000.59 423,1017.5 C430.9,1025.59 439.49,1034.52 447.09,1042.47 " fill="none" id="to.Linked-backto-to.Link" style="stroke:#181818;stroke-width:1.0;"/><polygon fill="none" points="362.65,956.54,364.0587,963.6122,371.1287,965.0319,369.72,957.9597,362.65,956.54" style="stroke:#181818;stroke-width:1.0;"/></g><!--MD5=[3bc29dac53101b63679b8c6ff6e02894]
reverse link to.Extended to to.Extensions--><g id="link_to.Extended_to.Extensions"><path codeLine="67" d="M362.09,1109.94 C386.71,1143.55 420.18,1189.23 440.08,1216.41 " fill="none" id="to.Extended-backto-to.Extensions" style="stroke:#181818;stroke-width:1.0;"/><polygon fill="none" points="354.11,1099.05,354.4245,1106.2542,361.1955,1108.7348,360.881,1101.5306,354.11,1099.05" style="stroke:#181818;stroke-width:1.0;"/></g><!--MD5=[cb8c64333b052217f1b563adf04eefcf]
reverse link to.Extended to to.Property--><g id="link_to.Extended_to.Property"><path codeLine="68" d="M255.58,1108.02 C250.01,1110.65 244.45,1113.17 239,1115.5 C189.37,1136.71 167.24,1122.2 124,1154.5 C102.29,1170.71 85.42,1197.11 75.18,1216.19 " fill="none" id="to.Extended-backto-to.Property" style="stroke:#181818;stroke-width:1.0;stroke-dasharray:7.0,7.0;"/><polygon fill="none" points="252.71,1101.63,273.74,1099.1,258.88,1114.2,252.71,1101.63" style="stroke:#181818;stroke-width:1.0;"/></g><!--MD5=[1a07ac71847d082ca2d8e7391285ac3d]
reverse link to.Extended to to.TObject--><g id="link_to.Extended_to.TObject"><path codeLine="69" d="M279.52,1113.12 C266.09,1125.98 252.02,1140.33 240,1154.5 C223.36,1174.12 207.09,1198.56 196.04,1216.19 " fill="none" id="to.Extended-backto-to.TObject" style="stroke:#181818;stroke-width:1.0;stroke-dasharray:7.0,7.0;"/><polygon fill="none" points="274.88,1107.88,294.28,1099.34,284.44,1118.11,274.88,1107.88" style="stroke:#181818;stroke-width:1.0;"/></g><!--MD5=[09c2f7ddeb4aba1e4193c5b221896601]
reverse link to.Extended to to.Service--><g id="link_to.Extended_to.Service"><path codeLine="70" d="M320.53,1118.96 C313.94,1151.36 305.75,1191.6 300.7,1216.41 " fill="none" id="to.Extended-backto-to.Service" style="stroke:#181818;stroke-width:1.0;stroke-dasharray:7.0,7.0;"/><polygon fill="none" points="313.73,1117.25,324.58,1099.05,327.45,1120.04,313.73,1117.25" style="stroke:#181818;stroke-width:1.0;"/></g><!--MD5=[f58379db15f2c16fbc74c274baa5ffca]
reverse link to.Extended to to.Member--><g id="link_to.Extended_to.Member"><path codeLine="71" d="M345.58,1119.12 C348.25,1130.67 350.62,1142.93 352,1154.5 C359.04,1213.64 360.39,1229.54 352,1288.5 C350.14,1301.59 346.17,1315.79 342.43,1327.29 " fill="none" id="to.Extended-backto-to.Member" style="stroke:#181818;stroke-width:1.0;stroke-dasharray:7.0,7.0;"/><polygon fill="none" points="338.71,1120.5,340.62,1099.4,352.29,1117.08,338.71,1120.5" style="stroke:#181818;stroke-width:1.0;"/></g><!--MD5=[d5af093094f02e9038ff511b3336013b]
reverse link to.Service to to.Member--><g id="link_to.Service_to.Member"><path codeLine="72" d="M308.43,1277.16 C314.19,1293.68 320.87,1312.83 325.95,1327.42 " fill="none" id="to.Service-backto-to.Member" style="stroke:#181818;stroke-width:1.0;"/><polygon fill="none" points="304.06,1264.62,302.262,1271.6033,308.0166,1275.949,309.8146,1268.9656,304.06,1264.62" style="stroke:#181818;stroke-width:1.0;"/></g><!--MD5=[b4780f69cd9b953410ea31178db59d43]
reverse link ListAggregator to ObjectList--><g id="link_ListAggregator_ObjectList"><path codeLine="80" d="M743,969.81 C743,984.93 743,1001.86 743,1017.24 " fill="none" id="ListAggregator-backto-ObjectList" style="stroke:#181818;stroke-width:1.0;"/><polygon fill="#181818" points="743,956.53,739,962.53,743,968.53,747,962.53,743,956.53" style="stroke:#181818;stroke-width:1.0;"/></g><!--MD5=[126f787ca14dc3fd6cd015a28b3d8c4c]
reverse link Aggregator to ListAggregator--><g id="link_Aggregator_ListAggregator"><path codeLine="81" d="M821.21,807.45 C802.83,834.6 780.44,867.68 764.34,891.48 " fill="none" id="Aggregator-backto-ListAggregator" style="stroke:#181818;stroke-width:1.0;stroke-dasharray:7.0,7.0;"/><polygon fill="none" points="815.59,803.26,832.6,790.62,827.18,811.11,815.59,803.26" style="stroke:#181818;stroke-width:1.0;"/></g><!--MD5=[b4aab1c3b82142bf25eafd68b215e7d9]
reverse link Aggregator to NavigationAggregator--><g id="link_Aggregator_NavigationAggregator"><path codeLine="84" d="M875.16,809.29 C887.87,839.51 903.44,876.52 913.3,899.94 " fill="none" id="Aggregator-backto-NavigationAggregator" style="stroke:#181818;stroke-width:1.0;stroke-dasharray:7.0,7.0;"/><polygon fill="none" points="868.61,811.77,867.3,790.62,881.51,806.34,868.61,811.77" style="stroke:#181818;stroke-width:1.0;"/></g><!--MD5=[02363c8b3a49bab427c3799533d1b7f7]
reverse link ObjectList to to.layout.Layout--><g id="link_ObjectList_to.layout.Layout"><path codeLine="91" d="M714.99,1127.73 C700.79,1158.25 684.38,1193.54 673.85,1216.17 " fill="none" id="ObjectList-backto-to.layout.Layout" style="stroke:#181818;stroke-width:1.0;"/><polygon fill="#181818" points="720.5,1115.87,714.3434,1119.6245,715.4412,1126.7516,721.5978,1122.997,720.5,1115.87" style="stroke:#181818;stroke-width:1.0;"/></g><!--MD5=[2683420a5b2a98e1bda227ab530b68b6]
link EventStore to PES--><g id="link_EventStore_PES"><path codeLine="94" d="M738.95,268.76 C741.79,293.73 744.78,319.94 746.75,337.24 " fill="none" id="EventStore-PES" style="stroke:#181818;stroke-width:1.0;stroke-dasharray:7.0,7.0;"/></g><!--MD5=[dc7d639b028d6d86f7d7b80029c66660]
link PES to LogEntry--><g id="link_PES_LogEntry"><path codeLine="95" d="M745.64,378.66 C742.17,399 736.48,432.35 730.87,465.19 " fill="none" id="PES-LogEntry" style="stroke:#181818;stroke-width:1.0;stroke-dasharray:7.0,7.0;"/></g><!--MD5=[9256243b97998dd164b7f3e89ee2f45c]
link PR to PES--><g id="link_PR_PES"><path codeLine="98" d="M840.91,218.69 C820.74,249.05 782.26,306.95 762.09,337.31 " fill="none" id="PR-PES" style="stroke:#181818;stroke-width:1.0;stroke-dasharray:7.0,7.0;"/></g><!--MD5=[28e9bca5f42469f8883209bd5c5a0e39]
link PR to Aggregator--><g id="link_PR_Aggregator"><path codeLine="99" d="M854,218.53 C854,301.19 854,622.65 854,725.3 " fill="none" id="PR-Aggregator" style="stroke:#181818;stroke-width:1.0;stroke-dasharray:7.0,7.0;"/></g><!--MD5=[3d036c641523675bc9b50db600ccd4cf]
@startuml
class XHR {
    invoke()
}

class EventStore<<(S,#FF7700) Singleton>> {
    log:LogEntry[]
    start()
    end()
    fault()
    find(href)
}

class LogEntry {
    url:Href
    title:String
    startedAt:Date
    updatedAt:Date
    request:String
    response:String
    object:TransferObject
    aggregator:Aggregator
    cacheHits:int
}
EventStore o- - LogEntry
LogEntry o- - TransferObject
LogEntry o- - Aggregator

class ResponseHandler<<Facade,ChainOfResponsibility>>{
    handle(LogEntry)
    canHandle(json)
    doHandle()
    parse(json)
}
ResponseHandler -> XHR : json <
ResponseHandler .> TransferObject : converts JSON into TO

XHR -> EventStore


package remote <<Node>> {
interface RestfulObjects
    class ApacheIsis<<(A, #FF7700)Application>>
    class NakedObjects<<(A, #FF7700)Application>>
}
RestfulObjects <|- - ApacheIsis
RestfulObjects <|- - NakedObjects
XHR -> RestfulObjects : invoke
XHR <- RestfulObjects : json


interface TransferObject
TransferObject <|.. to.Link
TransferObject <|.. to.Extensions
TransferObject <|.. to.layout.Layout
interface to.Linked{
    links:Link[]
}
TransferObject <|.. to.Linked
to.Linked <|.. to.Result
to.Linked <|.. to.ResultList
to.Linked <|.. to.Extended

interface to.Extended{
    extensions:Extensions
}
to.Linked o- - to.Link
to.Extended o- - to.Extensions
to.Extended <|.. to.Property
to.Extended <|.. to.TObject
to.Extended <|.. to.Service
to.Extended <|.. to.Member
to.Service o- - to.Member

interface Aggregator {
    update(logEntry)
}
class ListAggregator {
    -list:ObjectList
}
ListAggregator *- - ObjectList
Aggregator <|.. ListAggregator

class NavigationAggregator
Aggregator <|.. NavigationAggregator

class ObjectList {
    list:ObjectAdapter
    -limit:int
    -layout:Layout
}
ObjectList *- - to.layout.Layout

note "<<Pattern>>\nEventSourcing" as PES
EventStore .. PES
PES .. LogEntry

note "<<Pattern>>\nRedux" as PR
PR .. PES
PR .. Aggregator

note "<<Pattern>>\nRemoteFacade" as PRF
PRF .. RestfulObjects

note "<<Pattern>>\nTransferObject" as PTO
PTO .. TransferObject

note "<<Pattern>>\nAggregator" as PA
PA .. Aggregator
@enduml

PlantUML version 1.2022.5(Sat Apr 30 10:55:52 GMT 2022)
(GPL source distribution)
Java Runtime: OpenJDK Runtime Environment
JVM: OpenJDK 64-Bit Server VM
Default Encoding: UTF-8
Language: en
Country: US
--></g></svg>