<?xml version="1.0" encoding="UTF-8" standalone="no"?><svg xmlns="http://www.w3.org/2000/svg" xmlns:xlink="http://www.w3.org/1999/xlink" contentStyleType="text/css" height="46px" preserveAspectRatio="none" style="width:399px;height:46px;background:#FFFFFF;" version="1.1" viewBox="0 0 399 46" width="399px" zoomAndPan="magnify"><defs/><g><!--class Party--><g id="elem_Party"><rect codeLine="3" fill="#F1F1F1" height="32" id="Party" rx="2.5" ry="2.5" style="stroke:#181818;stroke-width:0.5;" width="66" x="7" y="7.6943"/><ellipse cx="22" cy="23.6943" fill="#ADD1B2" rx="11" ry="11" style="stroke:#181818;stroke-width:1.0;"/><path d="M24.9688,29.3349 Q24.3906,29.6318 23.75,29.7724 Q23.1094,29.9286 22.4063,29.9286 Q19.9063,29.9286 18.5781,28.288 Q17.2656,26.6318 17.2656,23.5068 Q17.2656,20.3818 18.5781,18.7255 Q19.9063,17.0693 22.4063,17.0693 Q23.1094,17.0693 23.75,17.2255 Q24.4063,17.3818 24.9688,17.6786 L24.9688,20.3974 Q24.3438,19.8193 23.75,19.5536 Q23.1563,19.2724 22.5313,19.2724 Q21.1875,19.2724 20.5,20.3505 Q19.8125,21.413 19.8125,23.5068 Q19.8125,25.6005 20.5,26.6786 Q21.1875,27.7411 22.5313,27.7411 Q23.1563,27.7411 23.75,27.4755 Q24.3438,27.1943 24.9688,26.6161 L24.9688,29.3349 Z " fill="#000000"/><text fill="#000000" font-family="sans-serif" font-size="14" lengthAdjust="spacing" textLength="34" x="36" y="28.5409">Party</text></g><!--class AgreementRole--><g id="elem_AgreementRole"><rect codeLine="4" fill="#F1F1F1" height="32" id="AgreementRole" rx="2.5" ry="2.5" style="stroke:#181818;stroke-width:0.5;" width="140" x="108" y="7.6943"/><ellipse cx="123" cy="23.6943" fill="#ADD1B2" rx="11" ry="11" style="stroke:#181818;stroke-width:1.0;"/><path d="M125.9688,29.3349 Q125.3906,29.6318 124.75,29.7724 Q124.1094,29.9286 123.4063,29.9286 Q120.9063,29.9286 119.5781,28.288 Q118.2656,26.6318 118.2656,23.5068 Q118.2656,20.3818 119.5781,18.7255 Q120.9063,17.0693 123.4063,17.0693 Q124.1094,17.0693 124.75,17.2255 Q125.4063,17.3818 125.9688,17.6786 L125.9688,20.3974 Q125.3438,19.8193 124.75,19.5536 Q124.1563,19.2724 123.5313,19.2724 Q122.1875,19.2724 121.5,20.3505 Q120.8125,21.413 120.8125,23.5068 Q120.8125,25.6005 121.5,26.6786 Q122.1875,27.7411 123.5313,27.7411 Q124.1563,27.7411 124.75,27.4755 Q125.3438,27.1943 125.9688,26.6161 L125.9688,29.3349 Z " fill="#000000"/><text fill="#000000" font-family="sans-serif" font-size="14" lengthAdjust="spacing" textLength="108" x="137" y="28.5409">AgreementRole</text></g><!--class Agreement--><g id="elem_Agreement"><rect codeLine="5" fill="#F1F1F1" height="32" id="Agreement" rx="2.5" ry="2.5" style="stroke:#181818;stroke-width:0.5;" width="109" x="283.5" y="7.6943"/><ellipse cx="298.5" cy="23.6943" fill="#ADD1B2" rx="11" ry="11" style="stroke:#181818;stroke-width:1.0;"/><path d="M301.4688,29.3349 Q300.8906,29.6318 300.25,29.7724 Q299.6094,29.9286 298.9063,29.9286 Q296.4063,29.9286 295.0781,28.288 Q293.7656,26.6318 293.7656,23.5068 Q293.7656,20.3818 295.0781,18.7255 Q296.4063,17.0693 298.9063,17.0693 Q299.6094,17.0693 300.25,17.2255 Q300.9063,17.3818 301.4688,17.6786 L301.4688,20.3974 Q300.8438,19.8193 300.25,19.5536 Q299.6563,19.2724 299.0313,19.2724 Q297.6875,19.2724 297,20.3505 Q296.3125,21.413 296.3125,23.5068 Q296.3125,25.6005 297,26.6786 Q297.6875,27.7411 299.0313,27.7411 Q299.6563,27.7411 300.25,27.4755 Q300.8438,27.1943 301.4688,26.6161 L301.4688,29.3349 Z " fill="#000000"/><text fill="#000000" font-family="sans-serif" font-size="14" lengthAdjust="spacing" textLength="77" x="312.5" y="28.5409">Agreement</text></g><!--link Party to AgreementRole--><g id="link_Party_AgreementRole"><path codeLine="7" d="M79.86,23.6943 C87.12,23.6943 94.38,23.6943 101.64,23.6943 " fill="none" id="Party-AgreementRole" style="stroke:#181818;stroke-width:1.0;"/><polygon fill="#181818" points="74.94,23.6943,83.94,27.6943,79.94,23.6943,83.94,19.6943,74.94,23.6943" style="stroke:#181818;stroke-width:1.0;"/><polygon fill="#181818" points="106.22,23.6943,97.22,19.6943,101.22,23.6943,97.22,27.6943,106.22,23.6943" style="stroke:#181818;stroke-width:1.0;"/><text fill="#000000" font-family="sans-serif" font-size="13" lengthAdjust="spacing" textLength="19" x="80.8886" y="20.0294">0.*</text></g><!--link AgreementRole to Agreement--><g id="link_AgreementRole_Agreement"><path codeLine="8" d="M254.61,23.6943 C262.09,23.6943 269.58,23.6943 277.06,23.6943 " fill="none" id="AgreementRole-Agreement" style="stroke:#181818;stroke-width:1.0;"/><polygon fill="#181818" points="249.83,23.6943,258.83,27.6943,254.83,23.6943,258.83,19.6943,249.83,23.6943" style="stroke:#181818;stroke-width:1.0;"/><polygon fill="#181818" points="281.83,23.6943,272.83,19.6943,276.83,23.6943,272.83,27.6943,281.83,23.6943" style="stroke:#181818;stroke-width:1.0;"/><text fill="#000000" font-family="sans-serif" font-size="13" lengthAdjust="spacing" textLength="23" x="252.4779" y="19.6328">0..*</text></g><!--SRC=[oyXCILL8pIqegLJ8JSrDIYqgvk9ApaaiBbO8I2mggOIo7TEBKbDpK_DAWl9pKj75kBZ0IXLiT8jqxHIK3FIqbD0qeF10Aa1A8ChXKW00]--></g></svg>