<?xml version="1.0" encoding="us-ascii" standalone="no"?><svg xmlns="http://www.w3.org/2000/svg" xmlns:xlink="http://www.w3.org/1999/xlink" contentStyleType="text/css" height="376px" preserveAspectRatio="none" style="width:666px;height:376px;background:#FFFFFF;" version="1.1" viewBox="0 0 666 376" width="666px" zoomAndPan="magnify"><defs/><g><!--class RepresentationService--><g id="elem_RepresentationService"><rect codeLine="5" fill="#F1F1F1" height="32" id="RepresentationService" rx="2.5" ry="2.5" style="stroke:#181818;stroke-width:0.5;" width="189" x="21" y="337"/><ellipse cx="36" cy="353" fill="#ADD1B2" rx="11" ry="11" style="stroke:#181818;stroke-width:1.0;"/><path d="M38.9688,358.6406 Q38.3906,358.9375 37.75,359.0781 Q37.1094,359.2344 36.4063,359.2344 Q33.9063,359.2344 32.5781,357.5938 Q31.2656,355.9375 31.2656,352.8125 Q31.2656,349.6875 32.5781,348.0313 Q33.9063,346.375 36.4063,346.375 Q37.1094,346.375 37.75,346.5313 Q38.4063,346.6875 38.9688,346.9844 L38.9688,349.7031 Q38.3438,349.125 37.75,348.8594 Q37.1563,348.5781 36.5313,348.5781 Q35.1875,348.5781 34.5,349.6563 Q33.8125,350.7188 33.8125,352.8125 Q33.8125,354.9063 34.5,355.9844 Q35.1875,357.0469 36.5313,357.0469 Q37.1563,357.0469 37.75,356.7813 Q38.3438,356.5 38.9688,355.9219 L38.9688,358.6406 Z " fill="#000000"/><text fill="#000000" font-family="sans-serif" font-size="14" lengthAdjust="spacing" textLength="157" x="50" y="357.8467">RepresentationService</text></g><!--class ContentNegotiationService--><g id="elem_ContentNegotiationService"><rect codeLine="7" fill="#F1F1F1" height="32" id="ContentNegotiationService" rx="2.5" ry="2.5" style="stroke:#181818;stroke-width:0.5;" width="217" x="7" y="224"/><ellipse cx="22" cy="240" fill="#B4A7E5" rx="11" ry="11" style="stroke:#181818;stroke-width:1.0;"/><path d="M17.9219,235.7656 L17.9219,233.6094 L25.3125,233.6094 L25.3125,235.7656 L22.8438,235.7656 L22.8438,243.8438 L25.3125,243.8438 L25.3125,246 L17.9219,246 L17.9219,243.8438 L20.3906,243.8438 L20.3906,235.7656 L17.9219,235.7656 Z " fill="#000000"/><text fill="#000000" font-family="sans-serif" font-size="14" font-style="italic" lengthAdjust="spacing" textLength="185" x="36" y="244.8467">ContentNegotiationService</text></g><!--class ContentNegotiationServiceSimplified--><g id="elem_ContentNegotiationServiceSimplified"><rect codeLine="9" fill="#F1F1F1" height="56.2969" id="ContentNegotiationServiceSimplified" rx="2.5" ry="2.5" style="stroke:#181818;stroke-width:0.5;" width="356" x="294" y="211.85"/><ellipse cx="342.75" cy="227.85" fill="#ADD1B2" rx="11" ry="11" style="stroke:#181818;stroke-width:1.0;"/><path d="M345.7188,233.4906 Q345.1406,233.7875 344.5,233.9281 Q343.8594,234.0844 343.1563,234.0844 Q340.6563,234.0844 339.3281,232.4438 Q338.0156,230.7875 338.0156,227.6625 Q338.0156,224.5375 339.3281,222.8813 Q340.6563,221.225 343.1563,221.225 Q343.8594,221.225 344.5,221.3813 Q345.1563,221.5375 345.7188,221.8344 L345.7188,224.5531 Q345.0938,223.975 344.5,223.7094 Q343.9063,223.4281 343.2813,223.4281 Q341.9375,223.4281 341.25,224.5063 Q340.5625,225.5688 340.5625,227.6625 Q340.5625,229.7563 341.25,230.8344 Q341.9375,231.8969 343.2813,231.8969 Q343.9063,231.8969 344.5,231.6313 Q345.0938,231.35 345.7188,230.7719 L345.7188,233.4906 Z " fill="#000000"/><text fill="#000000" font-family="sans-serif" font-size="14" lengthAdjust="spacing" textLength="250" x="363.25" y="232.6967">ContentNegotiationServiceSimplified</text><line style="stroke:#181818;stroke-width:0.5;" x1="295" x2="649" y1="243.85" y2="243.85"/><text fill="#000000" font-family="sans-serif" font-size="14" lengthAdjust="spacing" textLength="344" x="300" y="260.8451">// application/json;profile="urn:org.apache.isis/v2"</text></g><!--class ContentNegotiationServiceXRoDomainType--><g id="elem_ContentNegotiationServiceXRoDomainType"><rect codeLine="12" fill="#F1F1F1" height="56.2969" id="ContentNegotiationServiceXRoDomainType" rx="2.5" ry="2.5" style="stroke:#181818;stroke-width:0.5;" width="332" x="306" y="120.85"/><ellipse cx="321" cy="136.85" fill="#ADD1B2" rx="11" ry="11" style="stroke:#181818;stroke-width:1.0;"/><path d="M323.9688,142.4906 Q323.3906,142.7875 322.75,142.9281 Q322.1094,143.0844 321.4063,143.0844 Q318.9063,143.0844 317.5781,141.4438 Q316.2656,139.7875 316.2656,136.6625 Q316.2656,133.5375 317.5781,131.8813 Q318.9063,130.225 321.4063,130.225 Q322.1094,130.225 322.75,130.3813 Q323.4063,130.5375 323.9688,130.8344 L323.9688,133.5531 Q323.3438,132.975 322.75,132.7094 Q322.1563,132.4281 321.5313,132.4281 Q320.1875,132.4281 319.5,133.5063 Q318.8125,134.5688 318.8125,136.6625 Q318.8125,138.7563 319.5,139.8344 Q320.1875,140.8969 321.5313,140.8969 Q322.1563,140.8969 322.75,140.6313 Q323.3438,140.35 323.9688,139.7719 L323.9688,142.4906 Z " fill="#000000"/><text fill="#000000" font-family="sans-serif" font-size="14" lengthAdjust="spacing" textLength="300" x="335" y="141.6967">ContentNegotiationServiceXRoDomainType</text><line style="stroke:#181818;stroke-width:0.5;" x1="307" x2="637" y1="152.85" y2="152.85"/><text fill="#000000" font-family="sans-serif" font-size="14" lengthAdjust="spacing" textLength="281" x="312" y="169.8451">// application/xml;x-ro-domain-type="xxx"</text></g><!--class ContentNegotiationServiceForRestfulObjectsV1_0--><g id="elem_ContentNegotiationServiceForRestfulObjectsV1_0"><rect codeLine="15" fill="#F1F1F1" height="56.2969" id="ContentNegotiationServiceForRestfulObjectsV1_0" rx="2.5" ry="2.5" style="stroke:#181818;stroke-width:0.5;" width="374" x="285" y="302.85"/><ellipse cx="300" cy="318.85" fill="#ADD1B2" rx="11" ry="11" style="stroke:#181818;stroke-width:1.0;"/><path d="M302.9688,324.4906 Q302.3906,324.7875 301.75,324.9281 Q301.1094,325.0844 300.4063,325.0844 Q297.9063,325.0844 296.5781,323.4438 Q295.2656,321.7875 295.2656,318.6625 Q295.2656,315.5375 296.5781,313.8813 Q297.9063,312.225 300.4063,312.225 Q301.1094,312.225 301.75,312.3813 Q302.4063,312.5375 302.9688,312.8344 L302.9688,315.5531 Q302.3438,314.975 301.75,314.7094 Q301.1563,314.4281 300.5313,314.4281 Q299.1875,314.4281 298.5,315.5063 Q297.8125,316.5688 297.8125,318.6625 Q297.8125,320.7563 298.5,321.8344 Q299.1875,322.8969 300.5313,322.8969 Q301.1563,322.8969 301.75,322.6313 Q302.3438,322.35 302.9688,321.7719 L302.9688,324.4906 Z " fill="#000000"/><text fill="#000000" font-family="sans-serif" font-size="14" lengthAdjust="spacing" textLength="342" x="314" y="323.6967">ContentNegotiationServiceForRestfulObjectsV1_0</text><line style="stroke:#181818;stroke-width:0.5;" x1="286" x2="658" y1="334.85" y2="334.85"/><text fill="#000000" font-family="sans-serif" font-size="14" lengthAdjust="spacing" textLength="122" x="291" y="351.8451">// application/json</text></g><!--class ContentMappingService--><g id="elem_ContentMappingService"><rect codeLine="18" fill="#F1F1F1" height="32" id="ContentMappingService" rx="2.5" ry="2.5" style="stroke:#181818;stroke-width:0.5;" width="197" x="373.5" y="7"/><ellipse cx="388.5" cy="23" fill="#B4A7E5" rx="11" ry="11" style="stroke:#181818;stroke-width:1.0;"/><path d="M384.4219,18.7656 L384.4219,16.6094 L391.8125,16.6094 L391.8125,18.7656 L389.3438,18.7656 L389.3438,26.8438 L391.8125,26.8438 L391.8125,29 L384.4219,29 L384.4219,26.8438 L386.8906,26.8438 L386.8906,18.7656 L384.4219,18.7656 Z " fill="#000000"/><text fill="#000000" font-family="sans-serif" font-size="14" font-style="italic" lengthAdjust="spacing" textLength="165" x="402.5" y="27.8467">ContentMappingService</text></g><!--reverse link ContentMappingService to ContentNegotiationServiceXRoDomainType--><g id="link_ContentMappingService_ContentNegotiationServiceXRoDomainType"><path codeLine="20" d="M472,45.02 C472,65.96 472,97.54 472,120.41 " fill="none" id="ContentMappingService-backto-ContentNegotiationServiceXRoDomainType" style="stroke:#181818;stroke-width:1.0;"/><polygon fill="#181818" points="472,40.16,468,49.16,472,45.16,476,49.16,472,40.16" style="stroke:#181818;stroke-width:1.0;"/><text fill="#000000" font-family="sans-serif" font-size="13" lengthAdjust="spacing" textLength="80" x="405.5" y="69.4969">delegates to</text><text fill="#000000" font-family="sans-serif" font-size="13" lengthAdjust="spacing" textLength="85" x="403" y="84.6297">(if recognizes</text><text fill="#000000" font-family="sans-serif" font-size="13" lengthAdjust="spacing" textLength="116" x="387.5" y="99.7625">x-ro-domain-type)</text></g><!--reverse link ContentNegotiationService to ContentNegotiationServiceForRestfulObjectsV1_0--><g id="link_ContentNegotiationService_ContentNegotiationServiceForRestfulObjectsV1_0"><path codeLine="21" d="M195.5,262.08 C223.69,269.82 255.72,278.46 285,286 C306.24,291.47 328.88,297.1 350.81,302.46 " fill="none" id="ContentNegotiationService-backto-ContentNegotiationServiceForRestfulObjectsV1_0" style="stroke:#181818;stroke-width:1.0;"/><polygon fill="none" points="193.68,268.56,176.26,256.49,197.4,255.07,193.68,268.56" style="stroke:#181818;stroke-width:1.0;"/></g><!--reverse link ContentNegotiationService to ContentNegotiationServiceXRoDomainType--><g id="link_ContentNegotiationService_ContentNegotiationServiceXRoDomainType"><path codeLine="22" d="M195.5,217.92 C223.69,210.18 255.72,201.54 285,194 C306.24,188.53 328.88,182.9 350.81,177.54 " fill="none" id="ContentNegotiationService-backto-ContentNegotiationServiceXRoDomainType" style="stroke:#181818;stroke-width:1.0;"/><polygon fill="none" points="197.4,224.93,176.26,223.51,193.68,211.44,197.4,224.93" style="stroke:#181818;stroke-width:1.0;"/></g><!--reverse link ContentNegotiationService to ContentNegotiationServiceSimplified--><g id="link_ContentNegotiationService_ContentNegotiationServiceSimplified"><path codeLine="23" d="M245.11,240 C260.93,240 277.31,240 293.7,240 " fill="none" id="ContentNegotiationService-backto-ContentNegotiationServiceSimplified" style="stroke:#181818;stroke-width:1.0;"/><polygon fill="none" points="245.31,247,225.31,240,245.31,233,245.31,247" style="stroke:#181818;stroke-width:1.0;"/></g><!--reverse link ContentNegotiationService to RepresentationService--><g id="link_ContentNegotiationService_RepresentationService"><path codeLine="25" d="M115.5,262.03 C115.5,283.99 115.5,317.17 115.5,336.81 " fill="none" id="ContentNegotiationService-backto-RepresentationService" style="stroke:#181818;stroke-width:1.0;"/><polygon fill="#181818" points="115.5,257.16,111.5,266.16,115.5,262.16,119.5,266.16,115.5,257.16" style="stroke:#181818;stroke-width:1.0;"/><text fill="#000000" font-family="sans-serif" font-size="13" lengthAdjust="spacing" textLength="80" x="49" y="286.0669">delegates to</text><text fill="#000000" font-family="sans-serif" font-size="13" lengthAdjust="spacing" textLength="59" x="59.5" y="301.1997">based on</text><text fill="#000000" font-family="sans-serif" font-size="13" lengthAdjust="spacing" textLength="99" x="39.5" y="316.3325">ACCEPT header</text><text fill="#000000" font-family="sans-serif" font-size="13" lengthAdjust="spacing" textLength="23" x="88.6906" y="276.0863">1..*</text></g><!--SRC=[dP9BJyCm48Jl_XMhN7X8IIZ7eYAX0ZSUQYl4eGAvoIRPugmjswrIKFyxReK4XGPAVRAjqQpcswaeHy3Q-0NKM4_GEg6myE0rM2eh3pbPp3nf5WVkXTX8AsjGnEWN1a5RNsaXCYMTWm4QYmxPovL-Y7PE6SBRKWXYZxQGuTNNuSh-5aljQLCdbXy-hPeXrKPHGPW7DOIJfY1D-ChMgdJgD9yPgmjIs8jcbhlQbeaqCgim8KSkdPz6Vuzv7EXBNKlYqIhYrabDhSwQsEeuNmlZ5OnUr3JD3lRNsWxG-MAcxYRJmDOzT9vFsWC5mn_uReA8kFoAUCSqiOhFMrow4EMei9GUNTZ_c0-fWB1yNJAzeXlpzy17KVjKU8hp-9yCzdRRYBYtosUxXDXUvJMyg9Canz4lHUx29iQ9TA6mciTyqUzVtO-WGfcZVGS0]--></g></svg>