<?xml version="1.0" encoding="UTF-8" standalone="no"?><svg xmlns="http://www.w3.org/2000/svg" xmlns:xlink="http://www.w3.org/1999/xlink" contentStyleType="text/css" height="377px" preserveAspectRatio="none" style="width:668px;height:377px;background:#FFFFFF;" version="1.1" viewBox="0 0 668 377" width="668px" zoomAndPan="magnify"><defs/><g><!--class RepresentationService--><g id="elem_RepresentationService"><rect codeLine="5" fill="#F1F1F1" height="32" id="RepresentationService" rx="2.5" ry="2.5" style="stroke:#181818;stroke-width:0.5;" width="189" x="22" y="338"/><ellipse cx="37" cy="354" fill="#ADD1B2" rx="11" ry="11" style="stroke:#181818;stroke-width:1.0;"/><path d="M39.9688,359.6406 Q39.3906,359.9375 38.75,360.0781 Q38.1094,360.2344 37.4063,360.2344 Q34.9063,360.2344 33.5781,358.5938 Q32.2656,356.9375 32.2656,353.8125 Q32.2656,350.6875 33.5781,349.0313 Q34.9063,347.375 37.4063,347.375 Q38.1094,347.375 38.75,347.5313 Q39.4063,347.6875 39.9688,347.9844 L39.9688,350.7031 Q39.3438,350.125 38.75,349.8594 Q38.1563,349.5781 37.5313,349.5781 Q36.1875,349.5781 35.5,350.6563 Q34.8125,351.7188 34.8125,353.8125 Q34.8125,355.9063 35.5,356.9844 Q36.1875,358.0469 37.5313,358.0469 Q38.1563,358.0469 38.75,357.7813 Q39.3438,357.5 39.9688,356.9219 L39.9688,359.6406 Z " fill="#000000"/><text fill="#000000" font-family="sans-serif" font-size="14" lengthAdjust="spacing" textLength="157" x="51" y="358.8467">RepresentationService</text></g><!--class ContentNegotiationService--><g id="elem_ContentNegotiationService"><rect codeLine="7" fill="#F1F1F1" height="32" id="ContentNegotiationService" rx="2.5" ry="2.5" style="stroke:#181818;stroke-width:0.5;" width="219" x="7" y="224"/><ellipse cx="22" cy="240" fill="#B4A7E5" rx="11" ry="11" style="stroke:#181818;stroke-width:1.0;"/><path d="M17.9219,235.7656 L17.9219,233.6094 L25.3125,233.6094 L25.3125,235.7656 L22.8438,235.7656 L22.8438,243.8438 L25.3125,243.8438 L25.3125,246 L17.9219,246 L17.9219,243.8438 L20.3906,243.8438 L20.3906,235.7656 L17.9219,235.7656 Z " fill="#000000"/><text fill="#000000" font-family="sans-serif" font-size="14" font-style="italic" lengthAdjust="spacing" textLength="187" x="36" y="244.8467">ContentNegotiationService</text></g><!--class ContentNegotiationServiceSimplified--><g id="elem_ContentNegotiationServiceSimplified"><rect codeLine="9" fill="#F1F1F1" height="56.2969" id="ContentNegotiationServiceSimplified" rx="2.5" ry="2.5" style="stroke:#181818;stroke-width:0.5;" width="356" x="296" y="212"/><ellipse cx="344.75" cy="228" fill="#ADD1B2" rx="11" ry="11" style="stroke:#181818;stroke-width:1.0;"/><path d="M347.7188,233.6406 Q347.1406,233.9375 346.5,234.0781 Q345.8594,234.2344 345.1563,234.2344 Q342.6563,234.2344 341.3281,232.5938 Q340.0156,230.9375 340.0156,227.8125 Q340.0156,224.6875 341.3281,223.0313 Q342.6563,221.375 345.1563,221.375 Q345.8594,221.375 346.5,221.5313 Q347.1563,221.6875 347.7188,221.9844 L347.7188,224.7031 Q347.0938,224.125 346.5,223.8594 Q345.9063,223.5781 345.2813,223.5781 Q343.9375,223.5781 343.25,224.6563 Q342.5625,225.7188 342.5625,227.8125 Q342.5625,229.9063 343.25,230.9844 Q343.9375,232.0469 345.2813,232.0469 Q345.9063,232.0469 346.5,231.7813 Q347.0938,231.5 347.7188,230.9219 L347.7188,233.6406 Z " fill="#000000"/><text fill="#000000" font-family="sans-serif" font-size="14" lengthAdjust="spacing" textLength="250" x="365.25" y="232.8467">ContentNegotiationServiceSimplified</text><line style="stroke:#181818;stroke-width:0.5;" x1="297" x2="651" y1="244" y2="244"/><text fill="#000000" font-family="sans-serif" font-size="14" lengthAdjust="spacing" textLength="344" x="302" y="260.9951">// application/json;profile="urn:org.apache.isis/v2"</text></g><!--class ContentNegotiationServiceXRoDomainType--><g id="elem_ContentNegotiationServiceXRoDomainType"><rect codeLine="12" fill="#F1F1F1" height="56.2969" id="ContentNegotiationServiceXRoDomainType" rx="2.5" ry="2.5" style="stroke:#181818;stroke-width:0.5;" width="332" x="308" y="121"/><ellipse cx="323" cy="137" fill="#ADD1B2" rx="11" ry="11" style="stroke:#181818;stroke-width:1.0;"/><path d="M325.9688,142.6406 Q325.3906,142.9375 324.75,143.0781 Q324.1094,143.2344 323.4063,143.2344 Q320.9063,143.2344 319.5781,141.5938 Q318.2656,139.9375 318.2656,136.8125 Q318.2656,133.6875 319.5781,132.0313 Q320.9063,130.375 323.4063,130.375 Q324.1094,130.375 324.75,130.5313 Q325.4063,130.6875 325.9688,130.9844 L325.9688,133.7031 Q325.3438,133.125 324.75,132.8594 Q324.1563,132.5781 323.5313,132.5781 Q322.1875,132.5781 321.5,133.6563 Q320.8125,134.7188 320.8125,136.8125 Q320.8125,138.9063 321.5,139.9844 Q322.1875,141.0469 323.5313,141.0469 Q324.1563,141.0469 324.75,140.7813 Q325.3438,140.5 325.9688,139.9219 L325.9688,142.6406 Z " fill="#000000"/><text fill="#000000" font-family="sans-serif" font-size="14" lengthAdjust="spacing" textLength="300" x="337" y="141.8467">ContentNegotiationServiceXRoDomainType</text><line style="stroke:#181818;stroke-width:0.5;" x1="309" x2="639" y1="153" y2="153"/><text fill="#000000" font-family="sans-serif" font-size="14" lengthAdjust="spacing" textLength="281" x="314" y="169.9951">// application/xml;x-ro-domain-type="xxx"</text></g><!--class ContentNegotiationServiceForRestfulObjectsV1_0--><g id="elem_ContentNegotiationServiceForRestfulObjectsV1_0"><rect codeLine="15" fill="#F1F1F1" height="56.2969" id="ContentNegotiationServiceForRestfulObjectsV1_0" rx="2.5" ry="2.5" style="stroke:#181818;stroke-width:0.5;" width="374" x="287" y="303"/><ellipse cx="302" cy="319" fill="#ADD1B2" rx="11" ry="11" style="stroke:#181818;stroke-width:1.0;"/><path d="M304.9688,324.6406 Q304.3906,324.9375 303.75,325.0781 Q303.1094,325.2344 302.4063,325.2344 Q299.9063,325.2344 298.5781,323.5938 Q297.2656,321.9375 297.2656,318.8125 Q297.2656,315.6875 298.5781,314.0313 Q299.9063,312.375 302.4063,312.375 Q303.1094,312.375 303.75,312.5313 Q304.4063,312.6875 304.9688,312.9844 L304.9688,315.7031 Q304.3438,315.125 303.75,314.8594 Q303.1563,314.5781 302.5313,314.5781 Q301.1875,314.5781 300.5,315.6563 Q299.8125,316.7188 299.8125,318.8125 Q299.8125,320.9063 300.5,321.9844 Q301.1875,323.0469 302.5313,323.0469 Q303.1563,323.0469 303.75,322.7813 Q304.3438,322.5 304.9688,321.9219 L304.9688,324.6406 Z " fill="#000000"/><text fill="#000000" font-family="sans-serif" font-size="14" lengthAdjust="spacing" textLength="342" x="316" y="323.8467">ContentNegotiationServiceForRestfulObjectsV1_0</text><line style="stroke:#181818;stroke-width:0.5;" x1="288" x2="660" y1="335" y2="335"/><text fill="#000000" font-family="sans-serif" font-size="14" lengthAdjust="spacing" textLength="122" x="293" y="351.9951">// application/json</text></g><!--class ContentMappingService--><g id="elem_ContentMappingService"><rect codeLine="18" fill="#F1F1F1" height="32" id="ContentMappingService" rx="2.5" ry="2.5" style="stroke:#181818;stroke-width:0.5;" width="198" x="375" y="7"/><ellipse cx="390" cy="23" fill="#B4A7E5" rx="11" ry="11" style="stroke:#181818;stroke-width:1.0;"/><path d="M385.9219,18.7656 L385.9219,16.6094 L393.3125,16.6094 L393.3125,18.7656 L390.8438,18.7656 L390.8438,26.8438 L393.3125,26.8438 L393.3125,29 L385.9219,29 L385.9219,26.8438 L388.3906,26.8438 L388.3906,18.7656 L385.9219,18.7656 Z " fill="#000000"/><text fill="#000000" font-family="sans-serif" font-size="14" font-style="italic" lengthAdjust="spacing" textLength="166" x="404" y="27.8467">ContentMappingService</text></g><!--reverse link ContentMappingService to ContentNegotiationServiceXRoDomainType--><g id="link_ContentMappingService_ContentNegotiationServiceXRoDomainType"><path codeLine="20" d="M474,45.68 C474,66.71 474,98.07 474,120.72 " fill="none" id="ContentMappingService-backto-ContentNegotiationServiceXRoDomainType" style="stroke:#181818;stroke-width:1.0;"/><polygon fill="#181818" points="474,40.75,470,49.75,474,45.75,478,49.75,474,40.75" style="stroke:#181818;stroke-width:1.0;"/><text fill="#000000" font-family="sans-serif" font-size="13" lengthAdjust="spacing" textLength="80" x="407.5" y="69.5669">delegates to</text><text fill="#000000" font-family="sans-serif" font-size="13" lengthAdjust="spacing" textLength="85" x="405" y="84.6997">(if recognizes</text><text fill="#000000" font-family="sans-serif" font-size="13" lengthAdjust="spacing" textLength="116" x="389.5" y="99.8325">x-ro-domain-type)</text></g><!--reverse link ContentNegotiationService to ContentNegotiationServiceForRestfulObjectsV1_0--><g id="link_ContentNegotiationService_ContentNegotiationServiceForRestfulObjectsV1_0"><path codeLine="21" d="M199.14,261.98 C226.99,269.39 258.33,277.65 287,285 C309.56,290.78 333.68,296.84 356.84,302.6 " fill="none" id="ContentNegotiationService-backto-ContentNegotiationServiceForRestfulObjectsV1_0" style="stroke:#181818;stroke-width:1.0;"/><polygon fill="none" points="197.61,268.81,180.09,256.89,201.22,255.29,197.61,268.81" style="stroke:#181818;stroke-width:1.0;"/></g><!--reverse link ContentNegotiationService to ContentNegotiationServiceXRoDomainType--><g id="link_ContentNegotiationService_ContentNegotiationServiceXRoDomainType"><path codeLine="22" d="M196.97,217.95 C225.34,210.2 257.55,201.56 287,194 C308.4,188.51 331.23,182.83 353.31,177.44 " fill="none" id="ContentNegotiationService-backto-ContentNegotiationServiceXRoDomainType" style="stroke:#181818;stroke-width:1.0;"/><polygon fill="none" points="199.22,224.59,178.08,223.13,195.52,211.09,199.22,224.59" style="stroke:#181818;stroke-width:1.0;"/></g><!--reverse link ContentNegotiationService to ContentNegotiationServiceSimplified--><g id="link_ContentNegotiationService_ContentNegotiationServiceSimplified"><path codeLine="23" d="M247.48,240 C263.17,240 279.39,240 295.61,240 " fill="none" id="ContentNegotiationService-backto-ContentNegotiationServiceSimplified" style="stroke:#181818;stroke-width:1.0;"/><polygon fill="none" points="247.61,247,227.61,240,247.61,233,247.61,247" style="stroke:#181818;stroke-width:1.0;"/></g><!--reverse link ContentNegotiationService to RepresentationService--><g id="link_ContentNegotiationService_RepresentationService"><path codeLine="25" d="M116.5,262.8 C116.5,284.95 116.5,318.03 116.5,337.67 " fill="none" id="ContentNegotiationService-backto-RepresentationService" style="stroke:#181818;stroke-width:1.0;"/><polygon fill="#181818" points="116.5,257.82,112.5,266.82,116.5,262.82,120.5,266.82,116.5,257.82" style="stroke:#181818;stroke-width:1.0;"/><text fill="#000000" font-family="sans-serif" font-size="13" lengthAdjust="spacing" textLength="80" x="50" y="286.5669">delegates to</text><text fill="#000000" font-family="sans-serif" font-size="13" lengthAdjust="spacing" textLength="59" x="60.5" y="301.6997">based on</text><text fill="#000000" font-family="sans-serif" font-size="13" lengthAdjust="spacing" textLength="99" x="40.5" y="316.8325">ACCEPT header</text><text fill="#000000" font-family="sans-serif" font-size="13" lengthAdjust="spacing" textLength="23" x="89.8344" y="275.9743">1..*</text></g><!--SRC=[dP9BJyCm48Jl_XMhN7X8IIZ7eYAX0ZSUQYl4eGAvoIRPugmjswrIKFyxReK4XGPAVRAjqQpcswaeHy3Q-0NKM4_GEg6myE0rM2eh3pbPp3nf5WVkXTX8AsjGnEWN1a5RNsaXCYMTWm4QYmxPovL-Y7PE6SBRKWXYZxQGuTNNuSh-5aljQLCdbXy-hPeXrKPHGPW7DOIJfY1D-ChMgdJgD9yPgmjIs8jcbhlQbeaqCgim8KSkdPz6Vuzv7EXBNKlYqIhYrabDhSwQsEeuNmlZ5OnUr3JD3lRNsWxG-MAcxYRJmDOzT9vFsWC5mn_uReA8kFoAUCSqiOhFMrow4EMei9GUNTZ_c0-fWB1yNJAzeXlpzy17KVjKU8hp-9yCzdRRYBYtosUxXDXUvJMyg9Canz4lHUx29iQ9TA6mciTyqUzVtO-WGfcZVGS0]--></g></svg>