<?xml version="1.0" encoding="UTF-8" standalone="no"?><svg xmlns="http://www.w3.org/2000/svg" xmlns:xlink="http://www.w3.org/1999/xlink" contentStyleType="text/css" height="198px" preserveAspectRatio="none" style="width:408px;height:198px;background:#FFFFFF;" version="1.1" viewBox="0 0 408 198" width="408px" zoomAndPan="magnify"><defs/><g><!--entity webapp-...-tests--><g id="elem_webapp-...-tests"><rect fill="#ADD8E6" height="62.5938" rx="2.5" ry="2.5" style="stroke:#181818;stroke-width:0.5;" width="161" x="203" y="130"/><rect fill="#ADD8E6" height="10" style="stroke:#181818;stroke-width:0.5;" width="15" x="344" y="135"/><rect fill="#ADD8E6" height="2" style="stroke:#181818;stroke-width:0.5;" width="4" x="342" y="137"/><rect fill="#ADD8E6" height="2" style="stroke:#181818;stroke-width:0.5;" width="4" x="342" y="141"/><text fill="#000000" font-family="sans-serif" font-size="14" font-style="italic" lengthAdjust="spacing" textLength="121" x="218" y="162.9951">«maven module»</text><text fill="#000000" font-family="sans-serif" font-size="14" lengthAdjust="spacing" textLength="112" x="222.5" y="179.292">webapp-...-tests</text></g><!--entity webapp-...--><g id="elem_webapp-..."><rect fill="#F1F1F1" height="62.5938" rx="2.5" ry="2.5" style="stroke:#181818;stroke-width:0.5;" width="161" x="7" y="130"/><rect fill="#F1F1F1" height="10" style="stroke:#181818;stroke-width:0.5;" width="15" x="148" y="135"/><rect fill="#F1F1F1" height="2" style="stroke:#181818;stroke-width:0.5;" width="4" x="146" y="137"/><rect fill="#F1F1F1" height="2" style="stroke:#181818;stroke-width:0.5;" width="4" x="146" y="141"/><text fill="#000000" font-family="sans-serif" font-size="14" font-style="italic" lengthAdjust="spacing" textLength="121" x="22" y="162.9951">«maven module»</text><text fill="#000000" font-family="sans-serif" font-size="14" lengthAdjust="spacing" textLength="72" x="46.5" y="179.292">webapp-...</text></g><!--entity module-...-simple-tests--><g id="elem_module-...-simple-tests"><rect fill="#ADD8E6" height="62.5938" rx="2.5" ry="2.5" style="stroke:#181818;stroke-width:0.5;" width="199" x="203" y="7"/><rect fill="#ADD8E6" height="10" style="stroke:#181818;stroke-width:0.5;" width="15" x="382" y="12"/><rect fill="#ADD8E6" height="2" style="stroke:#181818;stroke-width:0.5;" width="4" x="380" y="14"/><rect fill="#ADD8E6" height="2" style="stroke:#181818;stroke-width:0.5;" width="4" x="380" y="18"/><text fill="#000000" font-family="sans-serif" font-size="14" font-style="italic" lengthAdjust="spacing" textLength="121" x="237" y="39.9951">«maven module»</text><text fill="#000000" font-family="sans-serif" font-size="14" lengthAdjust="spacing" textLength="159" x="218" y="56.292">module-...-simple-tests</text></g><!--entity module-...-simple--><g id="elem_module-...-simple"><rect fill="#F1F1F1" height="62.5938" rx="2.5" ry="2.5" style="stroke:#181818;stroke-width:0.5;" width="161" x="7" y="7"/><rect fill="#F1F1F1" height="10" style="stroke:#181818;stroke-width:0.5;" width="15" x="148" y="12"/><rect fill="#F1F1F1" height="2" style="stroke:#181818;stroke-width:0.5;" width="4" x="146" y="14"/><rect fill="#F1F1F1" height="2" style="stroke:#181818;stroke-width:0.5;" width="4" x="146" y="18"/><text fill="#000000" font-family="sans-serif" font-size="14" font-style="italic" lengthAdjust="spacing" textLength="121" x="22" y="39.9951">«maven module»</text><text fill="#000000" font-family="sans-serif" font-size="14" lengthAdjust="spacing" textLength="119" x="23" y="56.292">module-...-simple</text></g><!--reverse link webapp-... to webapp-...-tests--><g id="link_webapp-..._webapp-...-tests"><path d="M174.77,161.5 C184.16,161.5 193.54,161.5 202.93,161.5 " fill="none" id="webapp-...-backto-webapp-...-tests" style="stroke:#181818;stroke-width:1.0;stroke-dasharray:7.0,7.0;"/><polygon fill="#181818" points="169.79,161.5,178.79,165.5,174.79,161.5,178.79,157.5,169.79,161.5" style="stroke:#181818;stroke-width:1.0;"/></g><!--reverse link module-...-simple to module-...-simple-tests--><g id="link_module-...-simple_module-...-simple-tests"><path d="M174.57,38.5 C183.88,38.5 193.19,38.5 202.51,38.5 " fill="none" id="module-...-simple-backto-module-...-simple-tests" style="stroke:#181818;stroke-width:1.0;stroke-dasharray:7.0,7.0;"/><polygon fill="#181818" points="169.64,38.5,178.64,42.5,174.64,38.5,178.64,34.5,169.64,38.5" style="stroke:#181818;stroke-width:1.0;"/></g><!--reverse link module-...-simple to webapp-...--><g id="link_module-...-simple_webapp-..."><path d="M87.5,76.48 C87.5,93.52 87.5,113.51 87.5,129.71 " fill="none" id="module-...-simple-backto-webapp-..." style="stroke:#181818;stroke-width:1.0;stroke-dasharray:7.0,7.0;"/><polygon fill="#181818" points="87.5,71.86,83.5,80.86,87.5,76.86,91.5,80.86,87.5,71.86" style="stroke:#181818;stroke-width:1.0;"/></g><!--SRC=[YovFJKeiAD3LqzFJBKajBYcELR2noKqiIyrJoCrFASr9jRDJKFR9JCyeSSefJUMAHYZ7LCWL3M613IlEp2q0Cg5cuZSKGniM3Lp8TiECrSlHjLD0TXCU9q3KObg5wYUzKkog0000]--></g></svg>