<?xml version="1.0" encoding="UTF-8" standalone="no"?><svg xmlns="http://www.w3.org/2000/svg" xmlns:xlink="http://www.w3.org/1999/xlink" contentStyleType="text/css" height="377px" preserveAspectRatio="none" style="width:696px;height:377px;background:#FFFFFF;" version="1.1" viewBox="0 0 696 377" width="696px" zoomAndPan="magnify"><defs/><g><!--class RepresentationService--><g id="elem_RepresentationService"><rect codeLine="5" fill="#F1F1F1" height="32" id="RepresentationService" rx="2.5" ry="2.5" style="stroke:#181818;stroke-width:0.5;" width="189" x="22" y="338"/><ellipse cx="37" cy="354" fill="#ADD1B2" rx="11" ry="11" style="stroke:#181818;stroke-width:1.0;"/><path d="M39.9688,359.6406 Q39.3906,359.9375 38.75,360.0781 Q38.1094,360.2344 37.4063,360.2344 Q34.9063,360.2344 33.5781,358.5938 Q32.2656,356.9375 32.2656,353.8125 Q32.2656,350.6875 33.5781,349.0313 Q34.9063,347.375 37.4063,347.375 Q38.1094,347.375 38.75,347.5313 Q39.4063,347.6875 39.9688,347.9844 L39.9688,350.7031 Q39.3438,350.125 38.75,349.8594 Q38.1563,349.5781 37.5313,349.5781 Q36.1875,349.5781 35.5,350.6563 Q34.8125,351.7188 34.8125,353.8125 Q34.8125,355.9063 35.5,356.9844 Q36.1875,358.0469 37.5313,358.0469 Q38.1563,358.0469 38.75,357.7813 Q39.3438,357.5 39.9688,356.9219 L39.9688,359.6406 Z " fill="#000000"/><text fill="#000000" font-family="sans-serif" font-size="14" lengthAdjust="spacing" textLength="157" x="51" y="358.8467">RepresentationService</text></g><!--class ContentNegotiationService--><g id="elem_ContentNegotiationService"><rect codeLine="7" fill="#F1F1F1" height="32" id="ContentNegotiationService" rx="2.5" ry="2.5" style="stroke:#181818;stroke-width:0.5;" width="219" x="7" y="224"/><ellipse cx="22" cy="240" fill="#B4A7E5" rx="11" ry="11" style="stroke:#181818;stroke-width:1.0;"/><path d="M17.9219,235.7656 L17.9219,233.6094 L25.3125,233.6094 L25.3125,235.7656 L22.8438,235.7656 L22.8438,243.8438 L25.3125,243.8438 L25.3125,246 L17.9219,246 L17.9219,243.8438 L20.3906,243.8438 L20.3906,235.7656 L17.9219,235.7656 Z " fill="#000000"/><text fill="#000000" font-family="sans-serif" font-size="14" font-style="italic" lengthAdjust="spacing" textLength="187" x="36" y="244.8467">ContentNegotiationService</text></g><!--class ContentNegotiationServiceSimplified--><g id="elem_ContentNegotiationServiceSimplified"><rect codeLine="9" fill="#F1F1F1" height="56.2969" id="ContentNegotiationServiceSimplified" rx="2.5" ry="2.5" style="stroke:#181818;stroke-width:0.5;" width="402" x="287" y="212"/><ellipse cx="358.75" cy="228" fill="#ADD1B2" rx="11" ry="11" style="stroke:#181818;stroke-width:1.0;"/><path d="M361.7188,233.6406 Q361.1406,233.9375 360.5,234.0781 Q359.8594,234.2344 359.1563,234.2344 Q356.6563,234.2344 355.3281,232.5938 Q354.0156,230.9375 354.0156,227.8125 Q354.0156,224.6875 355.3281,223.0313 Q356.6563,221.375 359.1563,221.375 Q359.8594,221.375 360.5,221.5313 Q361.1563,221.6875 361.7188,221.9844 L361.7188,224.7031 Q361.0938,224.125 360.5,223.8594 Q359.9063,223.5781 359.2813,223.5781 Q357.9375,223.5781 357.25,224.6563 Q356.5625,225.7188 356.5625,227.8125 Q356.5625,229.9063 357.25,230.9844 Q357.9375,232.0469 359.2813,232.0469 Q359.9063,232.0469 360.5,231.7813 Q361.0938,231.5 361.7188,230.9219 L361.7188,233.6406 Z " fill="#000000"/><text fill="#000000" font-family="sans-serif" font-size="14" lengthAdjust="spacing" textLength="250" x="379.25" y="232.8467">ContentNegotiationServiceSimplified</text><line style="stroke:#181818;stroke-width:0.5;" x1="288" x2="688" y1="244" y2="244"/><text fill="#000000" font-family="sans-serif" font-size="14" lengthAdjust="spacing" textLength="390" x="293" y="260.9951">// application/json;profile="urn:org.apache.causeway/v2"</text></g><!--class ContentNegotiationServiceXRoDomainType--><g id="elem_ContentNegotiationServiceXRoDomainType"><rect codeLine="12" fill="#F1F1F1" height="56.2969" id="ContentNegotiationServiceXRoDomainType" rx="2.5" ry="2.5" style="stroke:#181818;stroke-width:0.5;" width="332" x="322" y="121"/><ellipse cx="337" cy="137" fill="#ADD1B2" rx="11" ry="11" style="stroke:#181818;stroke-width:1.0;"/><path d="M339.9688,142.6406 Q339.3906,142.9375 338.75,143.0781 Q338.1094,143.2344 337.4063,143.2344 Q334.9063,143.2344 333.5781,141.5938 Q332.2656,139.9375 332.2656,136.8125 Q332.2656,133.6875 333.5781,132.0313 Q334.9063,130.375 337.4063,130.375 Q338.1094,130.375 338.75,130.5313 Q339.4063,130.6875 339.9688,130.9844 L339.9688,133.7031 Q339.3438,133.125 338.75,132.8594 Q338.1563,132.5781 337.5313,132.5781 Q336.1875,132.5781 335.5,133.6563 Q334.8125,134.7188 334.8125,136.8125 Q334.8125,138.9063 335.5,139.9844 Q336.1875,141.0469 337.5313,141.0469 Q338.1563,141.0469 338.75,140.7813 Q339.3438,140.5 339.9688,139.9219 L339.9688,142.6406 Z " fill="#000000"/><text fill="#000000" font-family="sans-serif" font-size="14" lengthAdjust="spacing" textLength="300" x="351" y="141.8467">ContentNegotiationServiceXRoDomainType</text><line style="stroke:#181818;stroke-width:0.5;" x1="323" x2="653" y1="153" y2="153"/><text fill="#000000" font-family="sans-serif" font-size="14" lengthAdjust="spacing" textLength="281" x="328" y="169.9951">// application/xml;x-ro-domain-type="xxx"</text></g><!--class ContentNegotiationServiceForRestfulObjectsV1_0--><g id="elem_ContentNegotiationServiceForRestfulObjectsV1_0"><rect codeLine="15" fill="#F1F1F1" height="56.2969" id="ContentNegotiationServiceForRestfulObjectsV1_0" rx="2.5" ry="2.5" style="stroke:#181818;stroke-width:0.5;" width="374" x="301" y="303"/><ellipse cx="316" cy="319" fill="#ADD1B2" rx="11" ry="11" style="stroke:#181818;stroke-width:1.0;"/><path d="M318.9688,324.6406 Q318.3906,324.9375 317.75,325.0781 Q317.1094,325.2344 316.4063,325.2344 Q313.9063,325.2344 312.5781,323.5938 Q311.2656,321.9375 311.2656,318.8125 Q311.2656,315.6875 312.5781,314.0313 Q313.9063,312.375 316.4063,312.375 Q317.1094,312.375 317.75,312.5313 Q318.4063,312.6875 318.9688,312.9844 L318.9688,315.7031 Q318.3438,315.125 317.75,314.8594 Q317.1563,314.5781 316.5313,314.5781 Q315.1875,314.5781 314.5,315.6563 Q313.8125,316.7188 313.8125,318.8125 Q313.8125,320.9063 314.5,321.9844 Q315.1875,323.0469 316.5313,323.0469 Q317.1563,323.0469 317.75,322.7813 Q318.3438,322.5 318.9688,321.9219 L318.9688,324.6406 Z " fill="#000000"/><text fill="#000000" font-family="sans-serif" font-size="14" lengthAdjust="spacing" textLength="342" x="330" y="323.8467">ContentNegotiationServiceForRestfulObjectsV1_0</text><line style="stroke:#181818;stroke-width:0.5;" x1="302" x2="674" y1="335" y2="335"/><text fill="#000000" font-family="sans-serif" font-size="14" lengthAdjust="spacing" textLength="122" x="307" y="351.9951">// application/json</text></g><!--class ContentMappingService--><g id="elem_ContentMappingService"><rect codeLine="18" fill="#F1F1F1" height="32" id="ContentMappingService" rx="2.5" ry="2.5" style="stroke:#181818;stroke-width:0.5;" width="198" x="389" y="7"/><ellipse cx="404" cy="23" fill="#B4A7E5" rx="11" ry="11" style="stroke:#181818;stroke-width:1.0;"/><path d="M399.9219,18.7656 L399.9219,16.6094 L407.3125,16.6094 L407.3125,18.7656 L404.8438,18.7656 L404.8438,26.8438 L407.3125,26.8438 L407.3125,29 L399.9219,29 L399.9219,26.8438 L402.3906,26.8438 L402.3906,18.7656 L399.9219,18.7656 Z " fill="#000000"/><text fill="#000000" font-family="sans-serif" font-size="14" font-style="italic" lengthAdjust="spacing" textLength="166" x="418" y="27.8467">ContentMappingService</text></g><!--reverse link ContentMappingService to ContentNegotiationServiceXRoDomainType--><g id="link_ContentMappingService_ContentNegotiationServiceXRoDomainType"><path codeLine="20" d="M488,45.68 C488,66.71 488,98.07 488,120.72 " fill="none" id="ContentMappingService-backto-ContentNegotiationServiceXRoDomainType" style="stroke:#181818;stroke-width:1.0;"/><polygon fill="#181818" points="488,40.75,484,49.75,488,45.75,492,49.75,488,40.75" style="stroke:#181818;stroke-width:1.0;"/><text fill="#000000" font-family="sans-serif" font-size="13" lengthAdjust="spacing" textLength="80" x="421.5" y="69.5669">delegates to</text><text fill="#000000" font-family="sans-serif" font-size="13" lengthAdjust="spacing" textLength="85" x="419" y="84.6997">(if recognizes</text><text fill="#000000" font-family="sans-serif" font-size="13" lengthAdjust="spacing" textLength="116" x="403.5" y="99.8325">x-ro-domain-type)</text></g><!--reverse link ContentNegotiationService to ContentNegotiationServiceForRestfulObjectsV1_0--><g id="link_ContentNegotiationService_ContentNegotiationServiceForRestfulObjectsV1_0"><path codeLine="21" d="M198.05,261.97 C226.14,269.48 257.92,277.8 287,285 C310.69,290.87 336.02,296.89 360.42,302.56 " fill="none" id="ContentNegotiationService-backto-ContentNegotiationServiceForRestfulObjectsV1_0" style="stroke:#181818;stroke-width:1.0;"/><polygon fill="none" points="196.34,268.76,178.85,256.81,199.98,255.24,196.34,268.76" style="stroke:#181818;stroke-width:1.0;"/></g><!--reverse link ContentNegotiationService to ContentNegotiationServiceXRoDomainType--><g id="link_ContentNegotiationService_ContentNegotiationServiceXRoDomainType"><path codeLine="22" d="M196.22,217.87 C224.75,210.05 257.26,201.38 287,194 C309.45,188.43 333.4,182.79 356.63,177.47 " fill="none" id="ContentNegotiationService-backto-ContentNegotiationServiceXRoDomainType" style="stroke:#181818;stroke-width:1.0;"/><polygon fill="none" points="198.38,224.53,177.24,223.11,194.65,211.04,198.38,224.53" style="stroke:#181818;stroke-width:1.0;"/></g><!--reverse link ContentNegotiationService to ContentNegotiationServiceSimplified--><g id="link_ContentNegotiationService_ContentNegotiationServiceSimplified"><path codeLine="23" d="M247.48,240 C260.27,240 273.45,240 286.74,240 " fill="none" id="ContentNegotiationService-backto-ContentNegotiationServiceSimplified" style="stroke:#181818;stroke-width:1.0;"/><polygon fill="none" points="247.88,247,227.88,240,247.88,233,247.88,247" style="stroke:#181818;stroke-width:1.0;"/></g><!--reverse link ContentNegotiationService to RepresentationService--><g id="link_ContentNegotiationService_RepresentationService"><path codeLine="25" d="M116.5,262.8 C116.5,284.95 116.5,318.03 116.5,337.67 " fill="none" id="ContentNegotiationService-backto-RepresentationService" style="stroke:#181818;stroke-width:1.0;"/><polygon fill="#181818" points="116.5,257.82,112.5,266.82,116.5,262.82,120.5,266.82,116.5,257.82" style="stroke:#181818;stroke-width:1.0;"/><text fill="#000000" font-family="sans-serif" font-size="13" lengthAdjust="spacing" textLength="80" x="50" y="286.5669">delegates to</text><text fill="#000000" font-family="sans-serif" font-size="13" lengthAdjust="spacing" textLength="59" x="60.5" y="301.6997">based on</text><text fill="#000000" font-family="sans-serif" font-size="13" lengthAdjust="spacing" textLength="99" x="40.5" y="316.8325">ACCEPT header</text><text fill="#000000" font-family="sans-serif" font-size="13" lengthAdjust="spacing" textLength="23" x="89.8344" y="275.9743">1..*</text></g><!--SRC=[dP9BJm8n58Nt_HKti_6Hp8ouX61YK7S-0iIu89eoSsVcOkUsQGiE6lwxXPWe2efqrJOdv-HyEHNb25WRFuSQwp5Q9nGM7hm6IsNb8IUBcIVDui0z4njfPGsA6FtS86ZhAor4fgHpq4TZqI5xkTGFqCueGtXR247iqHOol7ewNDdVOAazhUl4uiDdgsP0jL5K4EP13U6aAKWJlhALAfqupHrZTK4Akz7KSblRCf56PXKccPmwV97pT7OQ_HtrqDSNkfR4msNDZMbDhJfDR7MShuJn4aWtQffc1_ihRVleV35Lj-D9uElkMqydsqi5mny8huE8kFoAUSSsiOhFjhYq8SfHOIazkh214HzI0M40kcHwHJVYxuMFeksfy1ZdyJyPxEssLd5lby-52R5vpYjuKIj9ZgDVnjo6TOnZwS9eDO_ulDUxl1j2XJ97-mu0]--></g></svg>