<?xml version="1.0" encoding="UTF-8" standalone="no"?><svg xmlns="http://www.w3.org/2000/svg" xmlns:xlink="http://www.w3.org/1999/xlink" contentStyleType="text/css" height="1456px" preserveAspectRatio="none" style="width:468px;height:1456px;background:#FFFFFF;" version="1.1" viewBox="0 0 468 1456" width="468px" zoomAndPan="magnify"><defs/><g><rect height="26.7999" style="stroke:#00000000;stroke-width:1.0;fill:none;" width="130" x="162" y="5"/><text fill="#000000" font-family="sans-serif" font-size="14" font-weight="bold" lengthAdjust="spacing" textLength="120" x="167" y="23.9999">Core - Containers</text><!--MD5=[09d29cf3bf6e8569eef9a69bc18e58ae]
cluster Core\n[Software System]--><g id="cluster_Core\n[Software System]"><path d="M8.5,43.7999 L136.5,43.7999 A3.75,3.75 0 0 1 139,46.2999 L146,83.3998 L458.5,83.3998 A2.5,2.5 0 0 1 461,85.8998 L461,1421.2999 A2.5,2.5 0 0 1 458.5,1423.7999 L8.5,1423.7999 A2.5,2.5 0 0 1 6,1421.2999 L6,46.2999 A2.5,2.5 0 0 1 8.5,43.7999 " style="stroke:#000000;stroke-width:1.5;fill:none;"/><line style="stroke:#000000;stroke-width:1.5;fill:none;" x1="6" x2="146" y1="83.3998" y2="83.3998"/><text fill="#000000" font-family="sans-serif" font-size="14" font-weight="bold" lengthAdjust="spacing" textLength="32" x="57.5" y="59.7999">Core</text><text fill="#000000" font-family="sans-serif" font-size="14" font-weight="bold" lengthAdjust="spacing" textLength="127" x="10" y="76.5998">[Software System]</text></g><!--MD5=[b289b39ced8dc6d267141842d8cb9775]
entity 14--><g id="elem_14"><rect fill="#438DD5" height="70.4001" rx="2.5" ry="2.5" style="stroke:#2E6295;stroke-width:0.5;" width="159" x="261.5" y="1337.7999"/><text fill="#FFFFFE" font-family="sans-serif" font-size="16" font-weight="bold" lengthAdjust="spacing" textLength="135" x="271.5" y="1363.8">Apache Isis - JDK</text><text fill="#FFFFFE" font-family="sans-serif" font-size="16" font-weight="bold" lengthAdjust="spacing" textLength="105" x="288.5" y="1383">Supplemental</text><text fill="#FFFFFE" font-family="sans-serif" font-size="10" lengthAdjust="spacing" textLength="120" x="281" y="1396.2">[Container: packaging: pom]</text></g><!--MD5=[5721696d2af8d327c8f4e7ea88061d17]
entity 3--><g id="elem_3"><rect fill="#438DD5" height="51.2" rx="2.5" ry="2.5" style="stroke:#2E6295;stroke-width:0.5;" width="206" x="238" y="1251.2999"/><text fill="#FFFFFE" font-family="sans-serif" font-size="16" font-weight="bold" lengthAdjust="spacing" textLength="186" x="248" y="1277.3">Apache Isis Api - AppLib</text><text fill="#FFFFFE" font-family="sans-serif" font-size="10" lengthAdjust="spacing" textLength="111" x="285.5" y="1290.5">[Container: packaging: jar]</text></g><!--MD5=[50c48f50f23c4505b4e1bf8eb0388b7a]
entity 15--><g id="elem_15"><rect fill="#438DD5" height="70.4001" rx="2.5" ry="2.5" style="stroke:#2E6295;stroke-width:0.5;" width="151" x="265.5" y="1145.7999"/><text fill="#FFFFFE" font-family="sans-serif" font-size="16" font-weight="bold" lengthAdjust="spacing" textLength="127" x="275.5" y="1171.8">Apache Isis Api -</text><text fill="#FFFFFE" font-family="sans-serif" font-size="16" font-weight="bold" lengthAdjust="spacing" textLength="71" x="305.5" y="1191">Schemas</text><text fill="#FFFFFE" font-family="sans-serif" font-size="10" lengthAdjust="spacing" textLength="111" x="285.5" y="1204.2">[Container: packaging: jar]</text></g><!--MD5=[773709cb2207c097691e7e7d3d2cc787]
entity 2--><g id="elem_2"><rect fill="#438DD5" height="51.2" rx="2.5" ry="2.5" style="stroke:#2E6295;stroke-width:0.5;" width="150" x="22" y="735.2999"/><text fill="#FFFFFE" font-family="sans-serif" font-size="16" font-weight="bold" lengthAdjust="spacing" textLength="130" x="32" y="761.3">Apache Isis Core</text><text fill="#FFFFFE" font-family="sans-serif" font-size="10" lengthAdjust="spacing" textLength="120" x="37" y="774.5">[Container: packaging: pom]</text></g><!--MD5=[ca8cb0432c9090f8973c99138b4c3ca0]
entity 4--><g id="elem_4"><rect fill="#438DD5" height="70.4001" rx="2.5" ry="2.5" style="stroke:#2E6295;stroke-width:0.5;" width="208" x="237" y="1040.7999"/><text fill="#FFFFFE" font-family="sans-serif" font-size="16" font-weight="bold" lengthAdjust="spacing" textLength="184" x="247" y="1066.8">Apache Isis Core - Code</text><text fill="#FFFFFE" font-family="sans-serif" font-size="16" font-weight="bold" lengthAdjust="spacing" textLength="129" x="276.5" y="1086">Gen (ByteBuddy)</text><text fill="#FFFFFE" font-family="sans-serif" font-size="10" lengthAdjust="spacing" textLength="111" x="285.5" y="1099.2">[Container: packaging: jar]</text></g><!--MD5=[fad6a9c1e4f80769a7fea8e2093188d9]
entity 5--><g id="elem_5"><rect fill="#438DD5" height="70.4001" rx="2.5" ry="2.5" style="stroke:#2E6295;stroke-width:0.5;" width="163" x="259.5" y="935.7999"/><text fill="#FFFFFE" font-family="sans-serif" font-size="16" font-weight="bold" lengthAdjust="spacing" textLength="139" x="269.5" y="961.8">Apache Isis Core -</text><text fill="#FFFFFE" font-family="sans-serif" font-size="16" font-weight="bold" lengthAdjust="spacing" textLength="105" x="288.5" y="981">Configuration</text><text fill="#FFFFFE" font-family="sans-serif" font-size="10" lengthAdjust="spacing" textLength="111" x="285.5" y="994.2">[Container: packaging: jar]</text></g><!--MD5=[a92bd7649e35c8a5fd4b3e9f57d24e4a]
entity 6--><g id="elem_6"><rect fill="#438DD5" height="70.4001" rx="2.5" ry="2.5" style="stroke:#2E6295;stroke-width:0.5;" width="163" x="259.5" y="830.7999"/><text fill="#FFFFFE" font-family="sans-serif" font-size="16" font-weight="bold" lengthAdjust="spacing" textLength="139" x="269.5" y="856.8">Apache Isis Core -</text><text fill="#FFFFFE" font-family="sans-serif" font-size="16" font-weight="bold" lengthAdjust="spacing" textLength="82" x="300" y="876">Interaction</text><text fill="#FFFFFE" font-family="sans-serif" font-size="10" lengthAdjust="spacing" textLength="111" x="285.5" y="889.2">[Container: packaging: jar]</text></g><!--MD5=[cbb381f34bde73e199f6c8e56df9562c]
entity 7--><g id="elem_7"><rect fill="#438DD5" height="70.4001" rx="2.5" ry="2.5" style="stroke:#2E6295;stroke-width:0.5;" width="181" x="250.5" y="725.7999"/><text fill="#FFFFFE" font-family="sans-serif" font-size="16" font-weight="bold" lengthAdjust="spacing" textLength="139" x="269.5" y="751.8">Apache Isis Core -</text><text fill="#FFFFFE" font-family="sans-serif" font-size="16" font-weight="bold" lengthAdjust="spacing" textLength="161" x="260.5" y="771">Internal Test Support</text><text fill="#FFFFFE" font-family="sans-serif" font-size="10" lengthAdjust="spacing" textLength="111" x="285.5" y="784.2">[Container: packaging: jar]</text></g><!--MD5=[df1cfc51a8f3e60039521c9170723b8d]
entity 8--><g id="elem_8"><rect fill="#438DD5" height="70.4001" rx="2.5" ry="2.5" style="stroke:#2E6295;stroke-width:0.5;" width="163" x="259.5" y="620.7999"/><text fill="#FFFFFE" font-family="sans-serif" font-size="16" font-weight="bold" lengthAdjust="spacing" textLength="139" x="269.5" y="646.8">Apache Isis Core -</text><text fill="#FFFFFE" font-family="sans-serif" font-size="16" font-weight="bold" lengthAdjust="spacing" textLength="84" x="299" y="666">MetaModel</text><text fill="#FFFFFE" font-family="sans-serif" font-size="10" lengthAdjust="spacing" textLength="111" x="285.5" y="679.2">[Container: packaging: jar]</text></g><!--MD5=[d25218acdea247ba6571a34297258ee9]
entity 9--><g id="elem_9"><rect fill="#438DD5" height="70.4001" rx="2.5" ry="2.5" style="stroke:#2E6295;stroke-width:0.5;" width="163" x="259.5" y="515.7999"/><text fill="#FFFFFE" font-family="sans-serif" font-size="16" font-weight="bold" lengthAdjust="spacing" textLength="139" x="269.5" y="541.8">Apache Isis Core -</text><text fill="#FFFFFE" font-family="sans-serif" font-size="16" font-weight="bold" lengthAdjust="spacing" textLength="64" x="309" y="561">Runtime</text><text fill="#FFFFFE" font-family="sans-serif" font-size="10" lengthAdjust="spacing" textLength="111" x="285.5" y="574.2">[Container: packaging: jar]</text></g><!--MD5=[832467b18690d1dd1b9afbdc6cb3d7bf]
entity 10--><g id="elem_10"><rect fill="#438DD5" height="70.4001" rx="2.5" ry="2.5" style="stroke:#2E6295;stroke-width:0.5;" width="163" x="259.5" y="410.7999"/><text fill="#FFFFFE" font-family="sans-serif" font-size="16" font-weight="bold" lengthAdjust="spacing" textLength="139" x="269.5" y="436.8">Apache Isis Core -</text><text fill="#FFFFFE" font-family="sans-serif" font-size="16" font-weight="bold" lengthAdjust="spacing" textLength="134" x="274" y="456">Runtime Services</text><text fill="#FFFFFE" font-family="sans-serif" font-size="10" lengthAdjust="spacing" textLength="111" x="285.5" y="469.2">[Container: packaging: jar]</text></g><!--MD5=[e25884bd7fe840786d881277a14c5a0e]
entity 11--><g id="elem_11"><rect fill="#438DD5" height="70.4001" rx="2.5" ry="2.5" style="stroke:#2E6295;stroke-width:0.5;" width="163" x="259.5" y="305.7999"/><text fill="#FFFFFE" font-family="sans-serif" font-size="16" font-weight="bold" lengthAdjust="spacing" textLength="139" x="269.5" y="331.8">Apache Isis Core -</text><text fill="#FFFFFE" font-family="sans-serif" font-size="16" font-weight="bold" lengthAdjust="spacing" textLength="63" x="309.5" y="351">Security</text><text fill="#FFFFFE" font-family="sans-serif" font-size="10" lengthAdjust="spacing" textLength="111" x="285.5" y="364.2">[Container: packaging: jar]</text></g><!--MD5=[2e47fe9ff0124b653d7be087bd1c1ac2]
entity 12--><g id="elem_12"><rect fill="#438DD5" height="70.4001" rx="2.5" ry="2.5" style="stroke:#2E6295;stroke-width:0.5;" width="163" x="259.5" y="200.7999"/><text fill="#FFFFFE" font-family="sans-serif" font-size="16" font-weight="bold" lengthAdjust="spacing" textLength="139" x="269.5" y="226.8">Apache Isis Core -</text><text fill="#FFFFFE" font-family="sans-serif" font-size="16" font-weight="bold" lengthAdjust="spacing" textLength="91" x="295.5" y="246">Transaction</text><text fill="#FFFFFE" font-family="sans-serif" font-size="10" lengthAdjust="spacing" textLength="111" x="285.5" y="259.2">[Container: packaging: jar]</text></g><!--MD5=[2cd44814ab46f5e6a99045c6c67d7a1c]
entity 13--><g id="elem_13"><rect fill="#438DD5" height="70.4001" rx="2.5" ry="2.5" style="stroke:#2E6295;stroke-width:0.5;" width="163" x="259.5" y="95.7999"/><text fill="#FFFFFE" font-family="sans-serif" font-size="16" font-weight="bold" lengthAdjust="spacing" textLength="139" x="269.5" y="121.8">Apache Isis Core -</text><text fill="#FFFFFE" font-family="sans-serif" font-size="16" font-weight="bold" lengthAdjust="spacing" textLength="65" x="308.5" y="141">WebApp</text><text fill="#FFFFFE" font-family="sans-serif" font-size="10" lengthAdjust="spacing" textLength="111" x="285.5" y="154.2">[Container: packaging: jar]</text></g><!--MD5=[3c15ce39e8e568d8007db2b3de990d68]
link 2 to 14--><g id="link_2_14"><path d="M101.33,786.5599 C114.51,885.0199 165.8,1236.2699 237,1319.7999 C242.83,1326.6399 249.77,1332.7099 257.25,1338.0699 " fill="none" id="2-to-14" style="stroke:#707070;stroke-width:1.0;stroke-dasharray:7.0,7.0;"/><polygon fill="#707070" points="261.46,1340.9799,256.3295,1332.5729,257.3465,1338.1376,251.7818,1339.1545,261.46,1340.9799" style="stroke:#707070;stroke-width:1.0;"/><text fill="#000000" font-family="sans-serif" font-size="10" lengthAdjust="spacing" textLength="3" x="203" y="1257.7999"> </text></g><!--MD5=[eeb69082328d10abd3b14fdeede0d8a3]
link 2 to 3--><g id="link_2_3"><path d="M98.26,786.3899 C100.39,863.6899 116.96,1097.7799 237,1232.7999 C242.35,1238.8199 248.66,1244.0399 255.49,1248.5699 " fill="none" id="2-to-3" style="stroke:#707070;stroke-width:1.0;stroke-dasharray:7.0,7.0;"/><polygon fill="#707070" points="259.8,1251.2899,254.3276,1243.1013,255.5729,1248.6194,250.0548,1249.8647,259.8,1251.2899" style="stroke:#707070;stroke-width:1.0;"/><text fill="#000000" font-family="sans-serif" font-size="10" lengthAdjust="spacing" textLength="3" x="203" y="1189.7999"> </text></g><!--MD5=[62213bd213e9eab9cca34893f70ee040]
link 2 to 15--><g id="link_2_15"><path d="M101.35,786.7599 C110.97,851.7899 144.21,1023.8599 237,1127.7999 C243.91,1135.5399 252.21,1142.2999 261.06,1148.1799 " fill="none" id="2-to-15" style="stroke:#707070;stroke-width:1.0;stroke-dasharray:7.0,7.0;"/><polygon fill="#707070" points="265.45,1150.9999,260.0424,1142.7684,261.2441,1148.2961,255.7164,1149.4978,265.45,1150.9999" style="stroke:#707070;stroke-width:1.0;"/><text fill="#000000" font-family="sans-serif" font-size="10" lengthAdjust="spacing" textLength="3" x="203" y="1084.7999"> </text></g><!--MD5=[d209f2622dd5d3103b9c9b4670e2d6db]
link 2 to 4--><g id="link_2_4"><path d="M105.75,786.3199 C122.3,837.1599 165.56,952.2499 237,1022.7999 C242.57,1028.2999 248.83,1033.3499 255.43,1037.9699 " fill="none" id="2-to-4" style="stroke:#707070;stroke-width:1.0;stroke-dasharray:7.0,7.0;"/><polygon fill="#707070" points="259.59,1040.7799,254.3732,1032.4262,255.4474,1037.9801,249.8935,1039.0543,259.59,1040.7799" style="stroke:#707070;stroke-width:1.0;"/><text fill="#000000" font-family="sans-serif" font-size="10" lengthAdjust="spacing" textLength="3" x="203" y="984.7999"> </text></g><!--MD5=[4e74f4bf4b09d37138dfb3a42c5ccc13]
link 2 to 5--><g id="link_2_5"><path d="M116.04,786.5499 C140.48,820.0299 186.84,878.8199 237,917.7999 C243.97,923.2099 251.57,928.3299 259.39,933.0899 " fill="none" id="2-to-5" style="stroke:#707070;stroke-width:1.0;stroke-dasharray:7.0,7.0;"/><polygon fill="#707070" points="263.75,935.6999,258.0905,927.6395,259.4625,933.1274,253.9746,934.4994,263.75,935.6999" style="stroke:#707070;stroke-width:1.0;"/><text fill="#000000" font-family="sans-serif" font-size="10" lengthAdjust="spacing" textLength="3" x="203" y="885.7999"> </text></g><!--MD5=[8d5e64f07a3a026530162c78b23a3473]
link 2 to 6--><g id="link_2_6"><path d="M156.89,786.3499 C186.23,799.0799 222.25,814.7099 254.56,828.7299 " fill="none" id="2-to-6" style="stroke:#707070;stroke-width:1.0;stroke-dasharray:7.0,7.0;"/><polygon fill="#707070" points="259.29,830.7799,252.6205,823.533,254.7017,828.7931,249.4416,830.8743,259.29,830.7799" style="stroke:#707070;stroke-width:1.0;"/><text fill="#000000" font-family="sans-serif" font-size="10" lengthAdjust="spacing" textLength="3" x="203" y="805.7999"> </text></g><!--MD5=[f03a35d0a29bcf5b4caf40b6b6655269]
link 2 to 7--><g id="link_2_7"><path d="M172.25,760.7999 C195.21,760.7999 220.82,760.7999 244.99,760.7999 " fill="none" id="2-to-7" style="stroke:#707070;stroke-width:1.0;stroke-dasharray:7.0,7.0;"/><polygon fill="#707070" points="250.12,760.7999,241.12,756.7999,245.12,760.7999,241.12,764.7999,250.12,760.7999" style="stroke:#707070;stroke-width:1.0;"/><text fill="#000000" font-family="sans-serif" font-size="10" lengthAdjust="spacing" textLength="3" x="203" y="758.7999"> </text></g><!--MD5=[0ad92ee86b71fc92e123e5500ea78341]
link 2 to 8--><g id="link_2_8"><path d="M156.89,735.2499 C186.23,722.5199 222.25,706.8899 254.56,692.8699 " fill="none" id="2-to-8" style="stroke:#707070;stroke-width:1.0;stroke-dasharray:7.0,7.0;"/><polygon fill="#707070" points="259.29,690.8199,249.4416,690.7256,254.7017,692.8068,252.6205,698.0669,259.29,690.8199" style="stroke:#707070;stroke-width:1.0;"/><text fill="#000000" font-family="sans-serif" font-size="10" lengthAdjust="spacing" textLength="3" x="203" y="712.7999"> </text></g><!--MD5=[676073e7019c75b59fc2b05612aba49c]
link 2 to 9--><g id="link_2_9"><path d="M115.75,735.1099 C140.04,701.3899 186.43,641.9199 237,602.7999 C243.49,597.7799 250.55,593.0299 257.82,588.5999 " fill="none" id="2-to-9" style="stroke:#707070;stroke-width:1.0;stroke-dasharray:7.0,7.0;"/><polygon fill="#707070" points="262.37,585.8799,252.5946,587.0804,258.0825,588.4524,256.7105,593.9404,262.37,585.8799" style="stroke:#707070;stroke-width:1.0;"/><text fill="#000000" font-family="sans-serif" font-size="10" lengthAdjust="spacing" textLength="3" x="203" y="627.7999"> </text></g><!--MD5=[ecc6855e18f9a45a4c7eaf523375ba95]
link 2 to 10--><g id="link_2_10"><path d="M105.67,735.1299 C122.1,684.0099 165.13,568.3399 237,497.7999 C242.4,492.4999 248.45,487.6299 254.84,483.1799 " fill="none" id="2-to-10" style="stroke:#707070;stroke-width:1.0;stroke-dasharray:7.0,7.0;"/><polygon fill="#707070" points="259.32,480.1699,249.6235,481.8955,255.1774,482.9697,254.1032,488.5237,259.32,480.1699" style="stroke:#707070;stroke-width:1.0;"/><text fill="#000000" font-family="sans-serif" font-size="10" lengthAdjust="spacing" textLength="3" x="203" y="532.7999"> </text></g><!--MD5=[350ab8b289b532334afad443a8f96638]
link 2 to 11--><g id="link_2_11"><path d="M101.21,735.1999 C110.57,670.2699 143.41,496.9199 237,392.7999 C242.38,386.8199 248.6,381.4299 255.28,376.5999 " fill="none" id="2-to-11" style="stroke:#707070;stroke-width:1.0;stroke-dasharray:7.0,7.0;"/><polygon fill="#707070" points="259.49,373.6699,249.8191,375.5338,255.3878,376.5286,254.393,382.0973,259.49,373.6699" style="stroke:#707070;stroke-width:1.0;"/><text fill="#000000" font-family="sans-serif" font-size="10" lengthAdjust="spacing" textLength="3" x="203" y="432.7999"> </text></g><!--MD5=[f7b23945b808440529d54eae70ccd1cc]
link 2 to 12--><g id="link_2_12"><path d="M98.65,735.2299 C101.89,658.4599 121.27,426.7199 237,287.7999 C242.26,281.4899 248.47,275.8699 255.2,270.8799 " fill="none" id="2-to-12" style="stroke:#707070;stroke-width:1.0;stroke-dasharray:7.0,7.0;"/><polygon fill="#707070" points="259.45,267.8499,249.7988,269.8133,255.3775,270.7507,254.4401,276.3294,259.45,267.8499" style="stroke:#707070;stroke-width:1.0;"/><text fill="#000000" font-family="sans-serif" font-size="10" lengthAdjust="spacing" textLength="3" x="203" y="328.7999"> </text></g><!--MD5=[78aff816aa8a90b4ab29aa1634b5681f]
link 2 to 13--><g id="link_2_13"><path d="M101.16,735.2799 C114,635.1999 165,270.7399 237,182.7999 C242.2,176.4499 248.38,170.7899 255.09,165.7799 " fill="none" id="2-to-13" style="stroke:#707070;stroke-width:1.0;stroke-dasharray:7.0,7.0;"/><polygon fill="#707070" points="259.33,162.7399,249.6834,164.7257,255.2642,165.6502,254.3398,171.231,259.33,162.7399" style="stroke:#707070;stroke-width:1.0;"/><text fill="#000000" font-family="sans-serif" font-size="10" lengthAdjust="spacing" textLength="3" x="203" y="243.7999"> </text></g><rect height="16.7999" style="stroke:#00000000;stroke-width:1.0;fill:none;" width="164" x="145" y="1430.7999"/><text fill="#000000" font-family="sans-serif" font-size="14" lengthAdjust="spacing" textLength="164" x="145" y="1444.7999">Artifact Hierarchy (Maven)</text><!--MD5=[28e560c696f468f66b75e3dbd5e558fe]
@startuml
title Core - Containers
caption Artifact Hierarchy (Maven)

skinparam {
  shadowing false
  arrowFontSize 10
  defaultTextAlignment center
  wrapWidth 200
  maxMessageSize 100
}
hide stereotype
left to right direction
skinparam rectangle<<11>> {
  BackgroundColor #438dd5
  FontColor #fffffe
  BorderColor #2E6295
}
skinparam rectangle<<12>> {
  BackgroundColor #438dd5
  FontColor #fffffe
  BorderColor #2E6295
}
skinparam rectangle<<13>> {
  BackgroundColor #438dd5
  FontColor #fffffe
  BorderColor #2E6295
}
skinparam rectangle<<14>> {
  BackgroundColor #438dd5
  FontColor #fffffe
  BorderColor #2E6295
}
skinparam rectangle<<15>> {
  BackgroundColor #438dd5
  FontColor #fffffe
  BorderColor #2E6295
}
skinparam rectangle<<2>> {
  BackgroundColor #438dd5
  FontColor #fffffe
  BorderColor #2E6295
}
skinparam rectangle<<3>> {
  BackgroundColor #438dd5
  FontColor #fffffe
  BorderColor #2E6295
}
skinparam rectangle<<4>> {
  BackgroundColor #438dd5
  FontColor #fffffe
  BorderColor #2E6295
}
skinparam rectangle<<5>> {
  BackgroundColor #438dd5
  FontColor #fffffe
  BorderColor #2E6295
}
skinparam rectangle<<6>> {
  BackgroundColor #438dd5
  FontColor #fffffe
  BorderColor #2E6295
}
skinparam rectangle<<7>> {
  BackgroundColor #438dd5
  FontColor #fffffe
  BorderColor #2E6295
}
skinparam rectangle<<8>> {
  BackgroundColor #438dd5
  FontColor #fffffe
  BorderColor #2E6295
}
skinparam rectangle<<9>> {
  BackgroundColor #438dd5
  FontColor #fffffe
  BorderColor #2E6295
}
skinparam rectangle<<10>> {
  BackgroundColor #438dd5
  FontColor #fffffe
  BorderColor #2E6295
}
package "Core\n[Software System]" {
  rectangle "==Apache Isis - JDK Supplemental\n<size:10>[Container: packaging: pom]</size>" <<14>> as 14
  rectangle "==Apache Isis Api - AppLib\n<size:10>[Container: packaging: jar]</size>" <<3>> as 3
  rectangle "==Apache Isis Api - Schemas\n<size:10>[Container: packaging: jar]</size>" <<15>> as 15
  rectangle "==Apache Isis Core\n<size:10>[Container: packaging: pom]</size>" <<2>> as 2
  rectangle "==Apache Isis Core - Code Gen (ByteBuddy)\n<size:10>[Container: packaging: jar]</size>" <<4>> as 4
  rectangle "==Apache Isis Core - Configuration\n<size:10>[Container: packaging: jar]</size>" <<5>> as 5
  rectangle "==Apache Isis Core - Interaction\n<size:10>[Container: packaging: jar]</size>" <<6>> as 6
  rectangle "==Apache Isis Core - Internal Test Support\n<size:10>[Container: packaging: jar]</size>" <<7>> as 7
  rectangle "==Apache Isis Core - MetaModel\n<size:10>[Container: packaging: jar]</size>" <<8>> as 8
  rectangle "==Apache Isis Core - Runtime\n<size:10>[Container: packaging: jar]</size>" <<9>> as 9
  rectangle "==Apache Isis Core - Runtime Services\n<size:10>[Container: packaging: jar]</size>" <<10>> as 10
  rectangle "==Apache Isis Core - Security\n<size:10>[Container: packaging: jar]</size>" <<11>> as 11
  rectangle "==Apache Isis Core - Transaction\n<size:10>[Container: packaging: jar]</size>" <<12>> as 12
  rectangle "==Apache Isis Core - WebApp\n<size:10>[Container: packaging: jar]</size>" <<13>> as 13
}
2 .[#707070].> 14 : ""
2 .[#707070].> 3 : ""
2 .[#707070].> 15 : ""
2 .[#707070].> 4 : ""
2 .[#707070].> 5 : ""
2 .[#707070].> 6 : ""
2 .[#707070].> 7 : ""
2 .[#707070].> 8 : ""
2 .[#707070].> 9 : ""
2 .[#707070].> 10 : ""
2 .[#707070].> 11 : ""
2 .[#707070].> 12 : ""
2 .[#707070].> 13 : ""
@enduml

PlantUML version 1.2022.5(Sat Apr 30 10:55:52 GMT 2022)
(GPL source distribution)
Java Runtime: OpenJDK Runtime Environment
JVM: OpenJDK 64-Bit Server VM
Default Encoding: UTF-8
Language: en
Country: US
--></g></svg>