<?xml version="1.0" encoding="UTF-8" standalone="no"?><svg xmlns="http://www.w3.org/2000/svg" xmlns:xlink="http://www.w3.org/1999/xlink" contentStyleType="text/css" height="369px" preserveAspectRatio="none" style="width:816px;height:369px;background:#FFFFFF;" version="1.1" viewBox="0 0 816 369" width="816px" zoomAndPan="magnify"><defs/><g><g id="elem_DO"><ellipse cx="594.9619" cy="118.0473" fill="#F1F1F1" rx="48.9619" ry="26.0473" style="stroke:#181818;stroke-width:0.5;"/><text fill="#000000" font-family="sans-serif" font-size="14" lengthAdjust="spacing" textLength="53" x="568.4619" y="112.7455">Domain</text><text fill="#000000" font-family="sans-serif" font-size="14" lengthAdjust="spacing" textLength="45" x="572.4619" y="129.0424">Object</text></g><g id="elem_E"><ellipse cx="686.9534" cy="228.0556" fill="#F1F1F1" rx="38.4534" ry="14.5556" style="stroke:#181818;stroke-width:0.5;"/><text fill="#000000" font-family="sans-serif" font-size="14" lengthAdjust="spacing" textLength="38" x="666.0903" y="231.5095">Entity</text></g><g id="elem_VM"><ellipse cx="587.1838" cy="228.0473" fill="#F1F1F1" rx="41.1838" ry="26.0473" style="stroke:#181818;stroke-width:0.5;"/><text fill="#000000" font-family="sans-serif" font-size="14" lengthAdjust="spacing" textLength="32" x="571.1838" y="222.7455">View</text><text fill="#000000" font-family="sans-serif" font-size="14" lengthAdjust="spacing" textLength="42" x="566.1838" y="239.0424">Model</text></g><g id="elem_M"><ellipse cx="354.0514" cy="118.0323" fill="#F1F1F1" rx="35.5514" ry="14.5323" style="stroke:#181818;stroke-width:0.5;"/><text fill="#000000" font-family="sans-serif" font-size="14" lengthAdjust="spacing" textLength="34" x="336.1581" y="121.1955">Mixin</text></g><g id="elem_ME"><ellipse cx="449.9237" cy="118.0719" fill="#F1F1F1" rx="39.9237" ry="14.5719" style="stroke:#181818;stroke-width:0.5;"/><text fill="#000000" font-family="sans-serif" font-size="14" lengthAdjust="spacing" textLength="40" x="427.5405" y="121.6655">Mixee</text></g><g id="elem_MB"><ellipse cx="354.1007" cy="228.215" fill="#F1F1F1" rx="52.6007" ry="14.715" style="stroke:#181818;stroke-width:0.5;"/><text fill="#000000" font-family="sans-serif" font-size="14" lengthAdjust="spacing" textLength="57" x="322.6007" y="231.9626">Member</text></g><g id="elem_P"><ellipse cx="293.8472" cy="337.2215" fill="#F1F1F1" rx="53.3472" ry="14.7215" style="stroke:#181818;stroke-width:0.5;"/><text fill="#000000" font-family="sans-serif" font-size="14" lengthAdjust="spacing" textLength="58" x="261.8472" y="340.969">Property</text></g><g id="elem_C"><ellipse cx="428.813" cy="336.7771" fill="#F1F1F1" rx="60.813" ry="14.7771" style="stroke:#181818;stroke-width:0.5;"/><text fill="#000000" font-family="sans-serif" font-size="14" lengthAdjust="spacing" textLength="68" x="391.813" y="340.5247">Collection</text></g><g id="elem_A"><ellipse cx="178.1531" cy="337.1013" fill="#F1F1F1" rx="42.1531" ry="14.6013" style="stroke:#181818;stroke-width:0.5;"/><text fill="#000000" font-family="sans-serif" font-size="14" lengthAdjust="spacing" textLength="43" x="153.6531" y="340.8489">Action</text></g><g id="elem_FW"><ellipse cx="587.2353" cy="336.8471" fill="#F1F1F1" rx="64.7353" ry="15.3471" style="stroke:#181818;stroke-width:0.5;"/><text fill="#000000" font-family="sans-serif" font-size="14" font-style="italic" lengthAdjust="spacing" textLength="78" x="545.2353" y="340.5946">Apache Isis</text></g><g id="elem_PL"><ellipse cx="740.968" cy="337.0473" fill="#F1F1F1" rx="69.468" ry="26.0473" style="stroke:#181818;stroke-width:0.5;"/><text fill="#000000" font-family="sans-serif" font-size="14" lengthAdjust="spacing" textLength="82" x="699.968" y="331.7455">Persistence</text><text fill="#000000" font-family="sans-serif" font-size="14" lengthAdjust="spacing" textLength="36" x="722.968" y="348.0424">Layer</text></g><g id="elem_S"><ellipse cx="54.8761" cy="118.1644" fill="#F1F1F1" rx="47.3761" ry="14.6644" style="stroke:#181818;stroke-width:0.5;"/><text fill="#000000" font-family="sans-serif" font-size="14" lengthAdjust="spacing" textLength="50" x="26.8761" y="121.9119">Service</text></g><g id="elem_DS"><ellipse cx="54.9619" cy="228.0473" fill="#F1F1F1" rx="48.9619" ry="26.0473" style="stroke:#181818;stroke-width:0.5;"/><text fill="#000000" font-family="sans-serif" font-size="14" lengthAdjust="spacing" textLength="53" x="28.4619" y="222.7455">Domain</text><text fill="#000000" font-family="sans-serif" font-size="14" lengthAdjust="spacing" textLength="50" x="29.9619" y="239.0424">Service</text></g><g id="elem_SPRING"><ellipse cx="54.8991" cy="20.6113" fill="#F1F1F1" rx="42.8991" ry="14.6113" style="stroke:#181818;stroke-width:0.5;"/><text fill="#000000" font-family="sans-serif" font-size="14" font-style="italic" lengthAdjust="spacing" textLength="44" x="29.8991" y="24.3588">Spring</text></g><!--reverse link DO to VM--><g id="link_DO_VM"><path d="M592.66,150.63 C591.45,166.94 590,186.57 588.86,201.84 " fill="none" id="DO-backto-VM" style="stroke:#181818;stroke-width:1.0;"/><polygon fill="#181818" points="593.01,145.83,588.3524,154.508,592.6385,150.8162,596.3303,155.1023,593.01,145.83" style="stroke:#181818;stroke-width:1.0;"/><text fill="#000000" font-family="sans-serif" font-size="13" lengthAdjust="spacing" textLength="22" x="564.7039" y="191.1274">is a</text></g><!--reverse link DO to E--><g id="link_DO_E"><path d="M618.78,146.91 C637.08,168.4 661.57,197.15 675.68,213.72 " fill="none" id="DO-backto-E" style="stroke:#181818;stroke-width:1.0;"/><polygon fill="#181818" points="615.72,143.32,618.5196,152.7626,618.9657,147.1233,624.6049,147.5694,615.72,143.32" style="stroke:#181818;stroke-width:1.0;"/><text fill="#000000" font-family="sans-serif" font-size="13" lengthAdjust="spacing" textLength="22" x="645.1883" y="202.4874">is a</text></g><!--reverse link VM to FW--><g id="link_VM_FW"><path d="M587,260.65 C587,280.61 587,305.48 587,321.05 " fill="none" id="VM-backto-FW" style="stroke:#181818;stroke-width:1.0;stroke-dasharray:7.0,7.0;"/><polygon fill="#181818" points="587,255.87,583,264.87,587,260.87,591,264.87,587,255.87" style="stroke:#181818;stroke-width:1.0;"/><text fill="#000000" font-family="sans-serif" font-size="13" lengthAdjust="spacing" textLength="60" x="588" y="299.0669">manages</text></g><!--reverse link E to PL--><g id="link_E_PL"><path d="M696.67,248.17 C705.56,265.77 718.77,291.95 728.46,311.15 " fill="none" id="E-backto-PL" style="stroke:#181818;stroke-width:1.0;stroke-dasharray:7.0,7.0;"/><polygon fill="#181818" points="694.52,243.9,695.0049,253.7369,696.7732,248.3635,702.1465,250.1319,694.52,243.9" style="stroke:#181818;stroke-width:1.0;"/><text fill="#000000" font-family="sans-serif" font-size="13" lengthAdjust="spacing" textLength="60" x="724" y="299.0669">manages</text></g><!--reverse link MB to P--><g id="link_MB_P"><path d="M343.23,248.21 C331.28,269.52 312.29,303.39 301.73,322.22 " fill="none" id="MB-backto-P" style="stroke:#181818;stroke-width:1.0;"/><polygon fill="#181818" points="345.66,243.87,337.7696,249.7642,343.2148,248.2313,344.7477,253.6765,345.66,243.87" style="stroke:#181818;stroke-width:1.0;"/><text fill="#000000" font-family="sans-serif" font-size="13" lengthAdjust="spacing" textLength="22" x="278.6195" y="311.2944">is a</text></g><!--reverse link MB to C--><g id="link_MB_C"><path d="M367.06,247.63 C381.89,268.78 405.74,302.81 419.1,321.88 " fill="none" id="MB-backto-C" style="stroke:#181818;stroke-width:1.0;"/><polygon fill="#181818" points="364.37,243.79,366.2565,253.4565,367.2383,247.8855,372.8093,248.8673,364.37,243.79" style="stroke:#181818;stroke-width:1.0;"/><text fill="#000000" font-family="sans-serif" font-size="13" lengthAdjust="spacing" textLength="22" x="389.721" y="310.9916">is a</text></g><!--reverse link MB to A--><g id="link_MB_A"><path d="M327.67,245.01 C292.22,266.56 229.93,304.43 198.04,323.82 " fill="none" id="MB-backto-A" style="stroke:#181818;stroke-width:1.0;"/><polygon fill="#181818" points="331.83,242.48,322.0624,243.7427,327.559,245.0797,326.222,250.5763,331.83,242.48" style="stroke:#181818;stroke-width:1.0;"/><text fill="#000000" font-family="sans-serif" font-size="13" lengthAdjust="spacing" textLength="22" x="180.1502" y="311.3062">is a</text></g><!--link DO to MB--><g id="link_DO_MB"><path d="M558.13,135.52 C511.19,156.56 430.83,192.57 386.22,212.56 " fill="none" id="DO-to-MB" style="stroke:#181818;stroke-width:1.0;"/><polygon fill="#181818" points="381.82,214.53,391.6688,214.4985,386.3825,212.4847,388.3964,207.1985,381.82,214.53" style="stroke:#181818;stroke-width:1.0;"/><text fill="#000000" font-family="sans-serif" font-size="13" lengthAdjust="spacing" textLength="50" x="489" y="177.5669">has 1..*</text></g><!--link M to MB--><g id="link_M_MB"><path d="M354,132.68 C354,151.4 354,185.15 354,206.79 " fill="none" id="M-to-MB" style="stroke:#181818;stroke-width:1.0;stroke-dasharray:7.0,7.0;"/><polygon fill="#181818" points="354,211.58,358,202.58,354,206.58,350,202.58,354,211.58" style="stroke:#181818;stroke-width:1.0;"/><text fill="#000000" font-family="sans-serif" font-size="13" lengthAdjust="spacing" textLength="72" x="272.3112" y="152.7504">contributes</text><text fill="#000000" font-family="sans-serif" font-size="13" lengthAdjust="spacing" textLength="8" x="306.3112" y="167.8832">a</text></g><!--link M to ME--><g id="link_M_ME"><path d="M389.62,118 C394.27,118 398.92,118 403.57,118 " fill="none" id="M-to-ME" style="stroke:#181818;stroke-width:1.0;"/><polygon fill="#181818" points="408.39,118,399.39,114,403.39,118,399.39,122,408.39,118" style="stroke:#181818;stroke-width:1.0;"/><text fill="#000000" font-family="sans-serif" font-size="13" lengthAdjust="spacing" textLength="72" x="376.4411" y="77.3121">contributes</text><text fill="#000000" font-family="sans-serif" font-size="13" lengthAdjust="spacing" textLength="13" x="407.9411" y="92.4449">to</text></g><!--link DO to ME--><g id="link_DO_ME"><path d="M545.54,118 C529.67,118 512.16,118 496.52,118 " fill="none" id="DO-to-ME" style="stroke:#181818;stroke-width:1.0;"/><polygon fill="#181818" points="491.9,118,500.9,122,496.9,118,500.9,114,491.9,118" style="stroke:#181818;stroke-width:1.0;"/><text fill="#000000" font-family="sans-serif" font-size="13" lengthAdjust="spacing" textLength="23" x="504.5" y="81.0669">can</text><text fill="#000000" font-family="sans-serif" font-size="13" lengthAdjust="spacing" textLength="20" x="508" y="96.1997">act</text><text fill="#000000" font-family="sans-serif" font-size="13" lengthAdjust="spacing" textLength="15" x="512.5" y="111.3325">as</text></g><!--link SPRING to S--><g id="link_SPRING_S"><path d="M55,35.18 C55,51.26 55,78.09 55,96.62 " fill="none" id="SPRING-to-S" style="stroke:#181818;stroke-width:1.0;stroke-dasharray:7.0,7.0;"/><polygon fill="#181818" points="55,101.52,59,92.52,55,96.52,51,92.52,55,101.52" style="stroke:#181818;stroke-width:1.0;"/><text fill="#000000" font-family="sans-serif" font-size="13" lengthAdjust="spacing" textLength="60" x="56" y="56.0669">manages</text></g><!--reverse link S to DS--><g id="link_S_DS"><path d="M55,138.81 C55,156.57 55,182.7 55,201.92 " fill="none" id="S-backto-DS" style="stroke:#181818;stroke-width:1.0;"/><polygon fill="#181818" points="55,134.19,51,143.19,55,139.19,59,143.19,55,134.19" style="stroke:#181818;stroke-width:1.0;"/><text fill="#000000" font-family="sans-serif" font-size="13" lengthAdjust="spacing" textLength="22" x="30.328" y="190.8064">is a</text></g><!--link DS to A--><g id="link_DS_A"><path d="M79.89,250.65 C103.03,270.78 137.03,300.36 158.32,318.88 " fill="none" id="DS-to-A" style="stroke:#181818;stroke-width:1.0;"/><polygon fill="#181818" points="162.04,322.12,157.8816,313.1921,158.27,318.8356,152.6265,319.224,162.04,322.12" style="stroke:#181818;stroke-width:1.0;"/><text fill="#000000" font-family="sans-serif" font-size="13" lengthAdjust="spacing" textLength="50" x="139" y="299.0669">has 1..*</text></g><!--SRC=[PP1HJy8m4CUVxQUux0bDDiL7GvPCDWm9ayOcyBANCYvGOUtI5fKOlxjjHt3Wq_h_NUxkjpCx8LkkUGDIhT5W2uyFn9oXvdBduP0GgpPejwZXczmCSjLm8IivNxrZRM-16yZdZXVI2diCkN1n8V2pagMRl0ziKP8VCXY9D6jvlKMO6c56zo8DnScI32XgXopA6YivuqVKeKHdb-jByILag9HTGknIuUSpr1-YxWWZPzS-pbdGOAqMSdCsOFHj-lfojGgRrScYV7QPQjMYFlqZTM2izdjt0w4weR53sL_Cd139vp2Art4a3F387-4I56IoXEIGfAu4Jz1moJTe29rriEWnGg5hYWznweN6LpcxodvL79vkojO93PFaZf0Iebf9gyNgOD5KqdKaIMZuLx4gylr5cEGVRb3D9VYcseQFy-fE1tu8w_dchE_3VFOsMK_c5m00]--></g></svg>