<?xml version="1.0" encoding="us-ascii" standalone="no"?><svg xmlns="http://www.w3.org/2000/svg" xmlns:xlink="http://www.w3.org/1999/xlink" contentStyleType="text/css" height="720px" preserveAspectRatio="none" style="width:832px;height:720px;background:#FFFFFF;" version="1.1" viewBox="0 0 832 720" width="832px" zoomAndPan="magnify"><defs/><g><!--cluster metamodel--><g id="cluster_metamodel"><path d="M8.5,6 L96.5,6 A3.75,3.75 0 0 1 99,8.5 L106,28.2969 L620.5,28.2969 A2.5,2.5 0 0 1 623,30.7969 L623,711.2 A2.5,2.5 0 0 1 620.5,713.7 L8.5,713.7 A2.5,2.5 0 0 1 6,711.2 L6,8.5 A2.5,2.5 0 0 1 8.5,6 " fill="none" style="stroke:#000000;stroke-width:1.5;"/><line style="stroke:#000000;stroke-width:1.5;" x1="6" x2="106" y1="28.2969" y2="28.2969"/><text fill="#000000" font-family="sans-serif" font-size="14" font-weight="bold" lengthAdjust="spacing" textLength="87" x="10" y="20.9951">metamodel</text></g><!--cluster runtime--><g id="cluster_runtime"><path d="M649.5,26.29 L711.5,26.29 A3.75,3.75 0 0 1 714,28.79 L721,48.5869 L822.5,48.5869 A2.5,2.5 0 0 1 825,51.0869 L825,288.36 A2.5,2.5 0 0 1 822.5,290.86 L649.5,290.86 A2.5,2.5 0 0 1 647,288.36 L647,28.79 A2.5,2.5 0 0 1 649.5,26.29 " fill="none" style="stroke:#000000;stroke-width:1.5;"/><line style="stroke:#000000;stroke-width:1.5;" x1="647" x2="721" y1="48.5869" y2="48.5869"/><text fill="#000000" font-family="sans-serif" font-size="14" font-weight="bold" lengthAdjust="spacing" textLength="61" x="651" y="41.2851">runtime</text></g><!--class Object\nSpecId--><g id="elem_Object\nSpecId"><rect codeLine="21" fill="#FFFFFF" height="80.8594" id="Object\nSpecId" rx="2.5" ry="2.5" style="stroke:#181818;stroke-width:0.5;" width="79" x="341.5" y="41"/><ellipse cx="356.5" cy="69.2813" fill="#ADD1B2" rx="11" ry="11" style="stroke:#181818;stroke-width:1.0;"/><path d="M359.4688,74.9219 Q358.8906,75.2188 358.25,75.3594 Q357.6094,75.5156 356.9063,75.5156 Q354.4063,75.5156 353.0781,73.875 Q351.7656,72.2188 351.7656,69.0938 Q351.7656,65.9688 353.0781,64.3125 Q354.4063,62.6563 356.9063,62.6563 Q357.6094,62.6563 358.25,62.8125 Q358.9063,62.9688 359.4688,63.2656 L359.4688,65.9844 Q358.8438,65.4063 358.25,65.1406 Q357.6563,64.8594 357.0313,64.8594 Q355.6875,64.8594 355,65.9375 Q354.3125,67 354.3125,69.0938 Q354.3125,71.1875 355,72.2656 Q355.6875,73.3281 357.0313,73.3281 Q357.6563,73.3281 358.25,73.0625 Q358.8438,72.7813 359.4688,72.2031 L359.4688,74.9219 Z " fill="#000000"/><text fill="#000000" font-family="sans-serif" font-size="12" font-style="italic" lengthAdjust="spacing" textLength="47" x="370.5" y="57.1387">&#171;value&#187;</text><text fill="#000000" font-family="sans-serif" font-size="14" lengthAdjust="spacing" textLength="45" x="371.5" y="72.9639">Object</text><text fill="#000000" font-family="sans-serif" font-size="14" lengthAdjust="spacing" textLength="47" x="370.5" y="89.2607">SpecId</text><line style="stroke:#181818;stroke-width:0.5;" x1="342.5" x2="419.5" y1="97.5625" y2="97.5625"/><ellipse cx="352.5" cy="111.2109" fill="none" rx="3" ry="3" style="stroke:#038048;stroke-width:1.0;"/><text fill="#000000" font-family="sans-serif" font-size="14" lengthAdjust="spacing" textLength="30" x="361.5" y="114.5576">type</text></g><!--class Object\nSpecification--><g id="elem_Object\nSpecification"><rect codeLine="25" fill="#00FFFF" height="105.1563" id="Object\nSpecification" rx="2.5" ry="2.5" style="stroke:#181818;stroke-width:0.5;" width="188" x="100" y="181.86"/><ellipse cx="146.25" cy="210.1413" fill="#ADD1B2" rx="11" ry="11" style="stroke:#181818;stroke-width:1.0;"/><path d="M149.2188,215.7819 Q148.6406,216.0788 148,216.2194 Q147.3594,216.3756 146.6563,216.3756 Q144.1563,216.3756 142.8281,214.735 Q141.5156,213.0788 141.5156,209.9538 Q141.5156,206.8288 142.8281,205.1725 Q144.1563,203.5163 146.6563,203.5163 Q147.3594,203.5163 148,203.6725 Q148.6563,203.8288 149.2188,204.1256 L149.2188,206.8444 Q148.5938,206.2663 148,206.0006 Q147.4063,205.7194 146.7813,205.7194 Q145.4375,205.7194 144.75,206.7975 Q144.0625,207.86 144.0625,209.9538 Q144.0625,212.0475 144.75,213.1256 Q145.4375,214.1881 146.7813,214.1881 Q147.4063,214.1881 148,213.9225 Q148.5938,213.6413 149.2188,213.0631 L149.2188,215.7819 Z " fill="#000000"/><text fill="#000000" font-family="sans-serif" font-size="12" font-style="italic" lengthAdjust="spacing" textLength="44" x="188.25" y="197.9987">&#171;desc&#187;</text><text fill="#000000" font-family="sans-serif" font-size="14" lengthAdjust="spacing" textLength="45" x="187.75" y="213.8239">Object</text><text fill="#000000" font-family="sans-serif" font-size="14" lengthAdjust="spacing" textLength="87" x="166.75" y="230.1207">Specification</text><line style="stroke:#181818;stroke-width:0.5;" x1="101" x2="287" y1="238.4225" y2="238.4225"/><ellipse cx="111" cy="252.0709" fill="none" rx="3" ry="3" style="stroke:#038048;stroke-width:1.0;"/><text fill="#000000" font-family="sans-serif" font-size="14" lengthAdjust="spacing" textLength="90" x="120" y="255.4176">objectSpecId</text><line style="stroke:#181818;stroke-width:1.0;stroke-dasharray:1.0,2.0;" x1="101" x2="287" y1="262.7194" y2="262.7194"/><rect fill="none" height="6" style="stroke:#C82930;stroke-width:1.0;" width="6" x="108" y="273.3678"/><text fill="#000000" font-family="sans-serif" font-size="14" lengthAdjust="spacing" textLength="162" x="120" y="279.7145">fullyQualifiedClassName</text></g><!--class Object\nMember--><g id="elem_Object\nMember"><rect codeLine="31" fill="#00FFFF" height="56.5625" id="Object\nMember" rx="2.5" ry="2.5" style="stroke:#181818;stroke-width:0.5;" width="89" x="154.5" y="408.01"/><ellipse cx="169.5" cy="436.2913" fill="#ADD1B2" rx="11" ry="11" style="stroke:#181818;stroke-width:1.0;"/><path d="M172.4688,441.9319 Q171.8906,442.2288 171.25,442.3694 Q170.6094,442.5256 169.9063,442.5256 Q167.4063,442.5256 166.0781,440.885 Q164.7656,439.2288 164.7656,436.1038 Q164.7656,432.9788 166.0781,431.3225 Q167.4063,429.6663 169.9063,429.6663 Q170.6094,429.6663 171.25,429.8225 Q171.9063,429.9788 172.4688,430.2756 L172.4688,432.9944 Q171.8438,432.4163 171.25,432.1506 Q170.6563,431.8694 170.0313,431.8694 Q168.6875,431.8694 168,432.9475 Q167.3125,434.01 167.3125,436.1038 Q167.3125,438.1975 168,439.2756 Q168.6875,440.3381 170.0313,440.3381 Q170.6563,440.3381 171.25,440.0725 Q171.8438,439.7913 172.4688,439.2131 L172.4688,441.9319 Z " fill="#000000"/><text fill="#000000" font-family="sans-serif" font-size="12" font-style="italic" lengthAdjust="spacing" textLength="44" x="190" y="424.1487">&#171;desc&#187;</text><text fill="#000000" font-family="sans-serif" font-size="14" lengthAdjust="spacing" textLength="45" x="189.5" y="439.9739">Object</text><text fill="#000000" font-family="sans-serif" font-size="14" lengthAdjust="spacing" textLength="57" x="183.5" y="456.2707">Member</text></g><!--class Object\nAction--><g id="elem_Object\nAction"><rect codeLine="35" fill="#00FFFF" height="56.5625" id="Object\nAction" rx="2.5" ry="2.5" style="stroke:#181818;stroke-width:0.5;" width="77" x="168.5" y="524.58"/><ellipse cx="183.5" cy="552.8613" fill="#ADD1B2" rx="11" ry="11" style="stroke:#181818;stroke-width:1.0;"/><path d="M186.4688,558.5019 Q185.8906,558.7988 185.25,558.9394 Q184.6094,559.0956 183.9063,559.0956 Q181.4063,559.0956 180.0781,557.455 Q178.7656,555.7988 178.7656,552.6738 Q178.7656,549.5488 180.0781,547.8925 Q181.4063,546.2363 183.9063,546.2363 Q184.6094,546.2363 185.25,546.3925 Q185.9063,546.5488 186.4688,546.8456 L186.4688,549.5644 Q185.8438,548.9863 185.25,548.7206 Q184.6563,548.4394 184.0313,548.4394 Q182.6875,548.4394 182,549.5175 Q181.3125,550.58 181.3125,552.6738 Q181.3125,554.7675 182,555.8456 Q182.6875,556.9081 184.0313,556.9081 Q184.6563,556.9081 185.25,556.6425 Q185.8438,556.3613 186.4688,555.7831 L186.4688,558.5019 Z " fill="#000000"/><text fill="#000000" font-family="sans-serif" font-size="12" font-style="italic" lengthAdjust="spacing" textLength="44" x="198" y="540.7187">&#171;desc&#187;</text><text fill="#000000" font-family="sans-serif" font-size="14" lengthAdjust="spacing" textLength="45" x="197.5" y="556.5439">Object</text><text fill="#000000" font-family="sans-serif" font-size="14" lengthAdjust="spacing" textLength="43" x="198.5" y="572.8407">Action</text></g><!--class Object\nAssociation--><g id="elem_Object\nAssociation"><rect codeLine="39" fill="#00FFFF" height="56.5625" id="Object\nAssociation" rx="2.5" ry="2.5" style="stroke:#181818;stroke-width:0.5;" width="111" x="22.5" y="524.58"/><ellipse cx="37.5" cy="552.8613" fill="#ADD1B2" rx="11" ry="11" style="stroke:#181818;stroke-width:1.0;"/><path d="M40.4688,558.5019 Q39.8906,558.7988 39.25,558.9394 Q38.6094,559.0956 37.9063,559.0956 Q35.4063,559.0956 34.0781,557.455 Q32.7656,555.7988 32.7656,552.6738 Q32.7656,549.5488 34.0781,547.8925 Q35.4063,546.2363 37.9063,546.2363 Q38.6094,546.2363 39.25,546.3925 Q39.9063,546.5488 40.4688,546.8456 L40.4688,549.5644 Q39.8438,548.9863 39.25,548.7206 Q38.6563,548.4394 38.0313,548.4394 Q36.6875,548.4394 36,549.5175 Q35.3125,550.58 35.3125,552.6738 Q35.3125,554.7675 36,555.8456 Q36.6875,556.9081 38.0313,556.9081 Q38.6563,556.9081 39.25,556.6425 Q39.8438,556.3613 40.4688,555.7831 L40.4688,558.5019 Z " fill="#000000"/><text fill="#000000" font-family="sans-serif" font-size="12" font-style="italic" lengthAdjust="spacing" textLength="44" x="69" y="540.7187">&#171;desc&#187;</text><text fill="#000000" font-family="sans-serif" font-size="14" lengthAdjust="spacing" textLength="45" x="68.5" y="556.5439">Object</text><text fill="#000000" font-family="sans-serif" font-size="14" lengthAdjust="spacing" textLength="79" x="51.5" y="572.8407">Association</text></g><!--class OneToOne\nAssociation--><g id="elem_OneToOne\nAssociation"><rect codeLine="43" fill="#00FFFF" height="56.5625" id="OneToOne\nAssociation" rx="2.5" ry="2.5" style="stroke:#181818;stroke-width:0.5;" width="111" x="22.5" y="641.14"/><ellipse cx="37.5" cy="669.4213" fill="#ADD1B2" rx="11" ry="11" style="stroke:#181818;stroke-width:1.0;"/><path d="M40.4688,675.0619 Q39.8906,675.3588 39.25,675.4994 Q38.6094,675.6556 37.9063,675.6556 Q35.4063,675.6556 34.0781,674.015 Q32.7656,672.3588 32.7656,669.2338 Q32.7656,666.1088 34.0781,664.4525 Q35.4063,662.7963 37.9063,662.7963 Q38.6094,662.7963 39.25,662.9525 Q39.9063,663.1088 40.4688,663.4056 L40.4688,666.1244 Q39.8438,665.5463 39.25,665.2806 Q38.6563,664.9994 38.0313,664.9994 Q36.6875,664.9994 36,666.0775 Q35.3125,667.14 35.3125,669.2338 Q35.3125,671.3275 36,672.4056 Q36.6875,673.4681 38.0313,673.4681 Q38.6563,673.4681 39.25,673.2025 Q39.8438,672.9213 40.4688,672.3431 L40.4688,675.0619 Z " fill="#000000"/><text fill="#000000" font-family="sans-serif" font-size="12" font-style="italic" lengthAdjust="spacing" textLength="44" x="69" y="657.2787">&#171;desc&#187;</text><text fill="#000000" font-family="sans-serif" font-size="14" lengthAdjust="spacing" textLength="76" x="53" y="673.1039">OneToOne</text><text fill="#000000" font-family="sans-serif" font-size="14" lengthAdjust="spacing" textLength="79" x="51.5" y="689.4007">Association</text></g><!--class OneToMany\nAssociation--><g id="elem_OneToMany\nAssociation"><rect codeLine="47" fill="#00FFFF" height="56.5625" id="OneToMany\nAssociation" rx="2.5" ry="2.5" style="stroke:#181818;stroke-width:0.5;" width="115" x="168.5" y="641.14"/><ellipse cx="183.5" cy="669.4213" fill="#ADD1B2" rx="11" ry="11" style="stroke:#181818;stroke-width:1.0;"/><path d="M186.4688,675.0619 Q185.8906,675.3588 185.25,675.4994 Q184.6094,675.6556 183.9063,675.6556 Q181.4063,675.6556 180.0781,674.015 Q178.7656,672.3588 178.7656,669.2338 Q178.7656,666.1088 180.0781,664.4525 Q181.4063,662.7963 183.9063,662.7963 Q184.6094,662.7963 185.25,662.9525 Q185.9063,663.1088 186.4688,663.4056 L186.4688,666.1244 Q185.8438,665.5463 185.25,665.2806 Q184.6563,664.9994 184.0313,664.9994 Q182.6875,664.9994 182,666.0775 Q181.3125,667.14 181.3125,669.2338 Q181.3125,671.3275 182,672.4056 Q182.6875,673.4681 184.0313,673.4681 Q184.6563,673.4681 185.25,673.2025 Q185.8438,672.9213 186.4688,672.3431 L186.4688,675.0619 Z " fill="#000000"/><text fill="#000000" font-family="sans-serif" font-size="12" font-style="italic" lengthAdjust="spacing" textLength="44" x="217" y="657.2787">&#171;desc&#187;</text><text fill="#000000" font-family="sans-serif" font-size="14" lengthAdjust="spacing" textLength="83" x="197.5" y="673.1039">OneToMany</text><text fill="#000000" font-family="sans-serif" font-size="14" lengthAdjust="spacing" textLength="79" x="199.5" y="689.4007">Association</text></g><!--class FacetHolder--><g id="elem_FacetHolder"><rect codeLine="51" fill="#00FFFF" height="40.2656" id="FacetHolder" rx="2.5" ry="2.5" style="stroke:#181818;stroke-width:0.5;" width="115" x="322.5" y="214.3"/><ellipse cx="337.5" cy="234.4328" fill="#B4A7E5" rx="11" ry="11" style="stroke:#181818;stroke-width:1.0;"/><path d="M333.4219,230.1984 L333.4219,228.0422 L340.8125,228.0422 L340.8125,230.1984 L338.3438,230.1984 L338.3438,238.2766 L340.8125,238.2766 L340.8125,240.4328 L333.4219,240.4328 L333.4219,238.2766 L335.8906,238.2766 L335.8906,230.1984 L333.4219,230.1984 Z " fill="#000000"/><text fill="#000000" font-family="sans-serif" font-size="12" font-style="italic" lengthAdjust="spacing" textLength="44" x="371" y="230.4387">&#171;desc&#187;</text><text fill="#000000" font-family="sans-serif" font-size="14" font-style="italic" lengthAdjust="spacing" textLength="83" x="351.5" y="246.2639">FacetHolder</text></g><!--class Object\nActionParameter--><g id="elem_Object\nActionParameter"><rect codeLine="54" fill="#00FFFF" height="56.5625" id="Object\nActionParameter" rx="2.5" ry="2.5" style="stroke:#181818;stroke-width:0.5;" width="146" x="287" y="408.01"/><ellipse cx="302" cy="436.2913" fill="#ADD1B2" rx="11" ry="11" style="stroke:#181818;stroke-width:1.0;"/><path d="M304.9688,441.9319 Q304.3906,442.2288 303.75,442.3694 Q303.1094,442.5256 302.4063,442.5256 Q299.9063,442.5256 298.5781,440.885 Q297.2656,439.2288 297.2656,436.1038 Q297.2656,432.9788 298.5781,431.3225 Q299.9063,429.6663 302.4063,429.6663 Q303.1094,429.6663 303.75,429.8225 Q304.4063,429.9788 304.9688,430.2756 L304.9688,432.9944 Q304.3438,432.4163 303.75,432.1506 Q303.1563,431.8694 302.5313,431.8694 Q301.1875,431.8694 300.5,432.9475 Q299.8125,434.01 299.8125,436.1038 Q299.8125,438.1975 300.5,439.2756 Q301.1875,440.3381 302.5313,440.3381 Q303.1563,440.3381 303.75,440.0725 Q304.3438,439.7913 304.9688,439.2131 L304.9688,441.9319 Z " fill="#000000"/><text fill="#000000" font-family="sans-serif" font-size="12" font-style="italic" lengthAdjust="spacing" textLength="44" x="351" y="424.1487">&#171;desc&#187;</text><text fill="#000000" font-family="sans-serif" font-size="14" lengthAdjust="spacing" textLength="45" x="350.5" y="439.9739">Object</text><text fill="#000000" font-family="sans-serif" font-size="14" lengthAdjust="spacing" textLength="114" x="316" y="456.2707">ActionParameter</text></g><!--class OneToOne\nActionParameter--><g id="elem_OneToOne\nActionParameter"><rect codeLine="57" fill="#00FFFF" height="56.5625" id="OneToOne\nActionParameter" rx="2.5" ry="2.5" style="stroke:#181818;stroke-width:0.5;" width="146" x="280" y="524.58"/><ellipse cx="295" cy="552.8613" fill="#ADD1B2" rx="11" ry="11" style="stroke:#181818;stroke-width:1.0;"/><path d="M297.9688,558.5019 Q297.3906,558.7988 296.75,558.9394 Q296.1094,559.0956 295.4063,559.0956 Q292.9063,559.0956 291.5781,557.455 Q290.2656,555.7988 290.2656,552.6738 Q290.2656,549.5488 291.5781,547.8925 Q292.9063,546.2363 295.4063,546.2363 Q296.1094,546.2363 296.75,546.3925 Q297.4063,546.5488 297.9688,546.8456 L297.9688,549.5644 Q297.3438,548.9863 296.75,548.7206 Q296.1563,548.4394 295.5313,548.4394 Q294.1875,548.4394 293.5,549.5175 Q292.8125,550.58 292.8125,552.6738 Q292.8125,554.7675 293.5,555.8456 Q294.1875,556.9081 295.5313,556.9081 Q296.1563,556.9081 296.75,556.6425 Q297.3438,556.3613 297.9688,555.7831 L297.9688,558.5019 Z " fill="#000000"/><text fill="#000000" font-family="sans-serif" font-size="12" font-style="italic" lengthAdjust="spacing" textLength="44" x="344" y="540.7187">&#171;desc&#187;</text><text fill="#000000" font-family="sans-serif" font-size="14" lengthAdjust="spacing" textLength="76" x="328" y="556.5439">OneToOne</text><text fill="#000000" font-family="sans-serif" font-size="14" lengthAdjust="spacing" textLength="114" x="309" y="572.8407">ActionParameter</text></g><!--class Facet--><g id="elem_Facet"><rect codeLine="60" fill="#00FFFF" height="40.2656" id="Facet" rx="2.5" ry="2.5" style="stroke:#181818;stroke-width:0.5;" width="72" x="472" y="214.3"/><ellipse cx="487" cy="234.4328" fill="#B4A7E5" rx="11" ry="11" style="stroke:#181818;stroke-width:1.0;"/><path d="M482.9219,230.1984 L482.9219,228.0422 L490.3125,228.0422 L490.3125,230.1984 L487.8438,230.1984 L487.8438,238.2766 L490.3125,238.2766 L490.3125,240.4328 L482.9219,240.4328 L482.9219,238.2766 L485.3906,238.2766 L485.3906,230.1984 L482.9219,230.1984 Z " fill="#000000"/><text fill="#000000" font-family="sans-serif" font-size="12" font-style="italic" lengthAdjust="spacing" textLength="44" x="499" y="230.4387">&#171;desc&#187;</text><text fill="#000000" font-family="sans-serif" font-size="14" font-style="italic" lengthAdjust="spacing" textLength="38" x="502" y="246.2639">Facet</text></g><!--class OneToMany\nActionParameter--><g id="elem_OneToMany\nActionParameter"><rect codeLine="63" fill="#00FFFF" height="56.5625" id="OneToMany\nActionParameter" rx="2.5" ry="2.5" style="stroke:#181818;stroke-width:0.5;" width="146" x="461" y="524.58"/><ellipse cx="476" cy="552.8613" fill="#ADD1B2" rx="11" ry="11" style="stroke:#181818;stroke-width:1.0;"/><path d="M478.9688,558.5019 Q478.3906,558.7988 477.75,558.9394 Q477.1094,559.0956 476.4063,559.0956 Q473.9063,559.0956 472.5781,557.455 Q471.2656,555.7988 471.2656,552.6738 Q471.2656,549.5488 472.5781,547.8925 Q473.9063,546.2363 476.4063,546.2363 Q477.1094,546.2363 477.75,546.3925 Q478.4063,546.5488 478.9688,546.8456 L478.9688,549.5644 Q478.3438,548.9863 477.75,548.7206 Q477.1563,548.4394 476.5313,548.4394 Q475.1875,548.4394 474.5,549.5175 Q473.8125,550.58 473.8125,552.6738 Q473.8125,554.7675 474.5,555.8456 Q475.1875,556.9081 476.5313,556.9081 Q477.1563,556.9081 477.75,556.6425 Q478.3438,556.3613 478.9688,555.7831 L478.9688,558.5019 Z " fill="#000000"/><text fill="#000000" font-family="sans-serif" font-size="12" font-style="italic" lengthAdjust="spacing" textLength="44" x="525" y="540.7187">&#171;desc&#187;</text><text fill="#000000" font-family="sans-serif" font-size="14" lengthAdjust="spacing" textLength="83" x="505.5" y="556.5439">OneToMany</text><text fill="#000000" font-family="sans-serif" font-size="14" lengthAdjust="spacing" textLength="114" x="490" y="572.8407">ActionParameter</text></g><!--class Object\nAdapter--><g id="elem_Object\nAdapter"><rect codeLine="68" fill="#90EE90" height="80.8594" id="Object\nAdapter" rx="2.5" ry="2.5" style="stroke:#181818;stroke-width:0.5;" width="146" x="663" y="194"/><ellipse cx="705" cy="222.2813" fill="#ADD1B2" rx="11" ry="11" style="stroke:#181818;stroke-width:1.0;"/><path d="M707.9688,227.9219 Q707.3906,228.2188 706.75,228.3594 Q706.1094,228.5156 705.4063,228.5156 Q702.9063,228.5156 701.5781,226.875 Q700.2656,225.2188 700.2656,222.0938 Q700.2656,218.9688 701.5781,217.3125 Q702.9063,215.6563 705.4063,215.6563 Q706.1094,215.6563 706.75,215.8125 Q707.4063,215.9688 707.9688,216.2656 L707.9688,218.9844 Q707.3438,218.4063 706.75,218.1406 Q706.1563,217.8594 705.5313,217.8594 Q704.1875,217.8594 703.5,218.9375 Q702.8125,220 702.8125,222.0938 Q702.8125,224.1875 703.5,225.2656 Q704.1875,226.3281 705.5313,226.3281 Q706.1563,226.3281 706.75,226.0625 Q707.3438,225.7813 707.9688,225.2031 L707.9688,227.9219 Z " fill="#000000"/><text fill="#000000" font-family="sans-serif" font-size="12" font-style="italic" lengthAdjust="spacing" textLength="35" x="734.5" y="210.1387">&#171;ppt&#187;</text><text fill="#000000" font-family="sans-serif" font-size="14" lengthAdjust="spacing" textLength="45" x="729.5" y="225.9639">Object</text><text fill="#000000" font-family="sans-serif" font-size="14" lengthAdjust="spacing" textLength="54" x="725" y="242.2607">Adapter</text><line style="stroke:#181818;stroke-width:0.5;" x1="664" x2="808" y1="250.5625" y2="250.5625"/><ellipse cx="674" cy="264.2109" fill="#84BE84" rx="3" ry="3" style="stroke:#038048;stroke-width:1.0;"/><text fill="#000000" font-family="sans-serif" font-size="14" lengthAdjust="spacing" textLength="120" x="683" y="267.5576">getSpecification()</text></g><!--class Oid--><g id="elem_Oid"><rect codeLine="71" fill="#FFFFFF" height="40.2656" id="Oid" rx="2.5" ry="2.5" style="stroke:#181818;stroke-width:0.5;" width="75" x="680.5" y="61.29"/><ellipse cx="695.5" cy="81.4228" fill="#ADD1B2" rx="11" ry="11" style="stroke:#181818;stroke-width:1.0;"/><path d="M698.4688,87.0634 Q697.8906,87.3603 697.25,87.5009 Q696.6094,87.6572 695.9063,87.6572 Q693.4063,87.6572 692.0781,86.0166 Q690.7656,84.3603 690.7656,81.2353 Q690.7656,78.1103 692.0781,76.4541 Q693.4063,74.7978 695.9063,74.7978 Q696.6094,74.7978 697.25,74.9541 Q697.9063,75.1103 698.4688,75.4072 L698.4688,78.1259 Q697.8438,77.5478 697.25,77.2822 Q696.6563,77.0009 696.0313,77.0009 Q694.6875,77.0009 694,78.0791 Q693.3125,79.1416 693.3125,81.2353 Q693.3125,83.3291 694,84.4072 Q694.6875,85.4697 696.0313,85.4697 Q696.6563,85.4697 697.25,85.2041 Q697.8438,84.9228 698.4688,84.3447 L698.4688,87.0634 Z " fill="#000000"/><text fill="#000000" font-family="sans-serif" font-size="12" font-style="italic" lengthAdjust="spacing" textLength="47" x="707.5" y="77.4287">&#171;value&#187;</text><text fill="#000000" font-family="sans-serif" font-size="14" lengthAdjust="spacing" textLength="23" x="719.5" y="93.2539">Oid</text></g><!--reverse link Object\nSpecId to Object\nSpecification--><g id="link_Object\nSpecId_Object\nSpecification"><path codeLine="78" d="M336.74,118.17 C313.31,137.09 284.12,160.66 258.25,181.55 " fill="none" id="Object\nSpecId-backto-Object\nSpecification" style="stroke:#181818;stroke-width:1.0;"/><polygon fill="#181818" points="340.34,114.45,330.8269,116.9998,336.4524,117.5943,335.8579,123.2199,340.34,114.45" style="stroke:#181818;stroke-width:1.0;"/></g><!--link Object\nSpecification to Object\nMember--><g id="link_Object\nSpecification_Object\nMember"><path codeLine="79" d="M195.3,287.42 C196.2,323.57 197.38,370.69 198.16,401.91 " fill="none" id="Object\nSpecification-to-Object\nMember" style="stroke:#181818;stroke-width:1.0;"/><polygon fill="#181818" points="198.31,406.55,202.0773,397.4502,198.1815,401.5517,194.08,397.6558,198.31,406.55" style="stroke:#181818;stroke-width:1.0;"/><text fill="#000000" font-family="sans-serif" font-size="13" lengthAdjust="spacing" textLength="7" x="190.4458" y="397.1558">*</text></g><!--reverse link Object\nMember to Object\nAssociation--><g id="link_Object\nMember_Object\nAssociation"><path codeLine="80" d="M154.56,479.37 C138.7,494.39 121.25,510.91 107.02,524.38 " fill="none" id="Object\nMember-backto-Object\nAssociation" style="stroke:#181818;stroke-width:1.0;"/><polygon fill="none" points="149.37,474.69,168.71,466.03,159,484.86,149.37,474.69" style="stroke:#181818;stroke-width:1.0;"/></g><!--reverse link Object\nMember to Object\nAction--><g id="link_Object\nMember_Object\nAction"><path codeLine="81" d="M202.37,485.54 C203.3,498.81 204.27,512.73 205.08,524.38 " fill="none" id="Object\nMember-backto-Object\nAction" style="stroke:#181818;stroke-width:1.0;"/><polygon fill="none" points="195.35,486.47,200.94,466.03,209.31,485.49,195.35,486.47" style="stroke:#181818;stroke-width:1.0;"/></g><!--reverse link Object\nAssociation to OneToOne\nAssociation--><g id="link_Object\nAssociation_OneToOne\nAssociation"><path codeLine="82" d="M78,602.59 C78,615.71 78,629.44 78,640.94 " fill="none" id="Object\nAssociation-backto-OneToOne\nAssociation" style="stroke:#181818;stroke-width:1.0;"/><polygon fill="none" points="71,602.59,78,582.59,85,602.59,71,602.59" style="stroke:#181818;stroke-width:1.0;"/></g><!--reverse link Object\nAssociation to OneToMany\nAssociation--><g id="link_Object\nAssociation_OneToMany\nAssociation"><path codeLine="83" d="M130.18,594.25 C150.06,609.63 172.24,626.8 190.25,640.74 " fill="none" id="Object\nAssociation-backto-OneToMany\nAssociation" style="stroke:#181818;stroke-width:1.0;"/><polygon fill="none" points="126.36,599.37,114.83,581.59,134.93,588.3,126.36,599.37" style="stroke:#181818;stroke-width:1.0;"/></g><!--reverse link Object\nActionParameter to OneToOne\nActionParameter--><g id="link_Object\nActionParameter_OneToOne\nActionParameter"><path codeLine="84" d="M357.05,485.54 C356.24,498.81 355.39,512.73 354.68,524.38 " fill="none" id="Object\nActionParameter-backto-OneToOne\nActionParameter" style="stroke:#181818;stroke-width:1.0;"/><polygon fill="none" points="350.1,485.56,358.31,466.03,364.07,486.42,350.1,485.56" style="stroke:#181818;stroke-width:1.0;"/></g><!--reverse link Object\nActionParameter to OneToMany\nActionParameter--><g id="link_Object\nActionParameter_OneToMany\nActionParameter"><path codeLine="85" d="M419.6,476.53 C443.4,492.21 470.26,509.89 491.97,524.18 " fill="none" id="Object\nActionParameter-backto-OneToMany\nActionParameter" style="stroke:#181818;stroke-width:1.0;"/><polygon fill="none" points="415.98,481.87,403.12,465.03,423.67,470.18,415.98,481.87" style="stroke:#181818;stroke-width:1.0;"/></g><!--reverse link Object\nActionParameter to Object\nAction--><g id="link_Object\nActionParameter_Object\nAction"><path codeLine="86" d="M318.39,468.45 C295.14,485.86 266.42,507.37 243.96,524.18 " fill="none" id="Object\nActionParameter-backto-Object\nAction" style="stroke:#181818;stroke-width:1.0;"/><polygon fill="#181818" points="321.96,465.03,312.36,467.23,317.96,468.03,317.16,473.63,321.96,465.03" style="stroke:#181818;stroke-width:1.0;"/><text fill="#000000" font-family="sans-serif" font-size="13" lengthAdjust="spacing" textLength="7" x="307.5986" y="484.5848">*</text></g><!--link Object\nSpecification to FacetHolder--><g id="link_Object\nSpecification_FacetHolder"><path codeLine="88" d="M288.45,234.43 C292.74,234.43 297.03,234.43 301.32,234.43 " fill="none" id="Object\nSpecification-to-FacetHolder" style="stroke:#181818;stroke-width:1.0;stroke-dasharray:7.0,7.0;"/><polygon fill="none" points="301.07,227.43,321.07,234.43,301.07,241.43,301.07,227.43" style="stroke:#181818;stroke-width:1.0;"/></g><!--reverse link FacetHolder to Object\nMember--><g id="link_FacetHolder_Object\nMember"><path codeLine="89" d="M348.36,270.37 C312.96,309.46 256.34,371.98 223.93,407.76 " fill="none" id="FacetHolder-backto-Object\nMember" style="stroke:#181818;stroke-width:1.0;stroke-dasharray:7.0,7.0;"/><polygon fill="none" points="342.7,266.09,361.32,255.96,353.08,275.48,342.7,266.09" style="stroke:#181818;stroke-width:1.0;"/></g><!--reverse link FacetHolder to Object\nActionParameter--><g id="link_FacetHolder_Object\nActionParameter"><path codeLine="90" d="M375.96,275.76 C372.04,315 366.18,373.58 362.76,407.76 " fill="none" id="FacetHolder-backto-Object\nActionParameter" style="stroke:#181818;stroke-width:1.0;stroke-dasharray:7.0,7.0;"/><polygon fill="none" points="369.09,275.17,378.05,255.96,383.02,276.56,369.09,275.17" style="stroke:#181818;stroke-width:1.0;"/></g><!--link FacetHolder to Facet--><g id="link_FacetHolder_Facet"><path codeLine="91" d="M437.5,234.43 C446.93,234.43 456.35,234.43 465.78,234.43 " fill="none" id="FacetHolder-to-Facet" style="stroke:#181818;stroke-width:1.0;"/><polygon fill="#181818" points="470.65,234.43,461.65,230.43,465.65,234.43,461.65,238.43,470.65,234.43" style="stroke:#181818;stroke-width:1.0;"/><text fill="#000000" font-family="sans-serif" font-size="13" lengthAdjust="spacing" textLength="7" x="457.0536" y="230.0793">*</text></g><!--reverse link Oid to Object\nAdapter--><g id="link_Oid_Object\nAdapter"><path codeLine="94" d="M721,107.55 C723.79,131.02 728.01,166.42 731.26,193.7 " fill="none" id="Oid-backto-Object\nAdapter" style="stroke:#181818;stroke-width:1.0;"/><polygon fill="#181818" points="720.32,102.86,717.4005,112.2662,720.905,107.8257,725.3456,111.3302,720.32,102.86" style="stroke:#181818;stroke-width:1.0;"/></g><!--link Oid to Object\nSpecId--><g id="link_Oid_Object\nSpecId"><path codeLine="96" d="M680.27,81.43 C595.73,81.43 511.19,81.43 426.65,81.43 " fill="none" id="Oid-to-Object\nSpecId" style="stroke:#181818;stroke-width:1.0;"/><polygon fill="#181818" points="421.82,81.43,430.82,85.43,426.82,81.43,430.82,77.43,421.82,81.43" style="stroke:#181818;stroke-width:1.0;"/></g><!--SRC=[bPJRYjim48RlzHHYhth0-mHBe0sqNTXjjxHG2gMWbIRED3eXoPkQikzUnNPYMPNZL1S2Mzy_endzqXO5K50sj5I1UWJd2V4xr9OvfYYNp7lwXz0utZA-gvrfj5WRQTpDZG3FLokwRfak0zQ6k7w7zJQyTm0pbC8Zz81wLsQSaN2aleEKPb_cV70iGDr6zjiM0vGfPl4yu9S0r06SPZ8fhosJJqmsS0fMPa073Eq5hNf2s2iZG2vtJE5lr5dBdWcnaMCrnBCEh8iK3xSBq9_qfyTVmCCF_SK2lnNZxdi77CRhqDg-ASzpGjmWPm6DFbaaaPiExEEV_bx7SVgeDesKxUU6oHW8nFeG_oDJPvBUTyPDiisZRtYsiJEezuOZM-OrV3Ln-a_5FTFj9PBEQXl6WRwBK_XWf9ZKkb3gm-4UGrYGZ2LS8igsj1XvA7KXTE9EryGReM1OoieIp7Ro_dL9h5L3cDZlnSiXSX849wOUCnDIT32j6bkjicinXmgprn6-UdMLEPDCF-dF7YqvRH7b4ofHZcZ9ZykAV_n8PenKIZGbBbCMNP59QILX4xAcvXAIN8oOuhgJb5-a79qsTpYjiqoUF8KhTtXiXzrs2ucl1j_IewLGn3KKesXgihy0]--></g></svg>