<?xml version="1.0" encoding="UTF-8" standalone="no"?><svg xmlns="http://www.w3.org/2000/svg" xmlns:xlink="http://www.w3.org/1999/xlink" contentStyleType="text/css" height="556px" preserveAspectRatio="none" style="width:804px;height:556px;background:#FFFFFF;" version="1.1" viewBox="0 0 804 556" width="804px" zoomAndPan="magnify"><defs/><g><!--MD5=[4945c737fad898a5ce312252f730d528]
class Renderer--><g id="elem_Renderer"><rect codeLine="1" fill="#F1F1F1" height="115.1997" id="Renderer" rx="2.5" ry="2.5" style="stroke:#181818;stroke-width:0.5;" width="114" x="306" y="166"/><ellipse cx="330.9" cy="182" fill="#A9DCDF" rx="11" ry="11" style="stroke:#181818;stroke-width:1.0;"/><path d="M331.8531,185.6563 Q331.8531,185.1563 332.1344,184.9844 Q332.4313,184.7969 332.9781,184.7969 L333.3688,184.7969 L332.9781,183.8125 L328.9313,183.8125 L328.5406,184.7969 L328.9313,184.7969 Q330.0406,184.7969 330.0406,185.6563 Q330.0406,186.5 328.9313,186.5 L326.6656,186.5 Q325.5406,186.5 325.5406,185.6563 Q325.5406,185.1406 325.8375,184.9688 Q326.1344,184.7969 326.6813,184.7969 L329.3219,178.2813 L328.2438,178.2813 Q327.1031,178.2813 327.1031,177.4375 Q327.1031,176.9219 327.4,176.7656 Q327.6969,176.5938 328.2438,176.5938 L331.9156,176.5938 L335.3063,184.7969 Q336.4625,184.7969 336.4625,185.6563 Q336.4625,186.5 335.3375,186.5 L332.9781,186.5 Q331.8531,186.5 331.8531,185.6563 Z M332.275,182.1094 L330.9469,178.8438 L329.6031,182.1094 L332.275,182.1094 Z " fill="#000000"/><text fill="#000000" font-family="sans-serif" font-size="14" font-style="italic" lengthAdjust="spacing" textLength="60" x="347.1" y="187.6">Renderer</text><line style="stroke:#181818;stroke-width:0.5;" x1="307" x2="419" y1="198" y2="198"/><text fill="#000000" font-family="sans-serif" font-size="14" lengthAdjust="spacing" textLength="102" x="312" y="215.9999">iconName:String</text><text fill="#000000" font-family="sans-serif" font-size="14" lengthAdjust="spacing" textLength="62" x="312" y="232.7999">title:String</text><text fill="#000000" font-family="sans-serif" font-size="14" lengthAdjust="spacing" textLength="77" x="312" y="249.5998">view:RoView</text><text fill="#000000" font-family="sans-serif" font-size="14" lengthAdjust="spacing" textLength="101" x="312" y="266.3997">protocol:Protocol</text><line style="stroke:#181818;stroke-width:0.5;" x1="307" x2="419" y1="273.1997" y2="273.1997"/></g><!--MD5=[a0c27cfb527bdb20a6436baa93834728]
class Protocol--><g id="elem_Protocol"><rect codeLine="9" fill="#F1F1F1" height="64.7999" id="Protocol" rx="2.5" ry="2.5" style="stroke:#181818;stroke-width:0.5;" width="201" x="477.5" y="191"/><ellipse cx="547.75" cy="207" fill="#A9DCDF" rx="11" ry="11" style="stroke:#181818;stroke-width:1.0;"/><path d="M548.7031,210.6563 Q548.7031,210.1563 548.9844,209.9844 Q549.2813,209.7969 549.8281,209.7969 L550.2188,209.7969 L549.8281,208.8125 L545.7813,208.8125 L545.3906,209.7969 L545.7813,209.7969 Q546.8906,209.7969 546.8906,210.6563 Q546.8906,211.5 545.7813,211.5 L543.5156,211.5 Q542.3906,211.5 542.3906,210.6563 Q542.3906,210.1406 542.6875,209.9688 Q542.9844,209.7969 543.5313,209.7969 L546.1719,203.2813 L545.0938,203.2813 Q543.9531,203.2813 543.9531,202.4375 Q543.9531,201.9219 544.25,201.7656 Q544.5469,201.5938 545.0938,201.5938 L548.7656,201.5938 L552.1563,209.7969 Q553.3125,209.7969 553.3125,210.6563 Q553.3125,211.5 552.1875,211.5 L549.8281,211.5 Q548.7031,211.5 548.7031,210.6563 Z M549.125,207.1094 L547.7969,203.8438 L546.4531,207.1094 L549.125,207.1094 Z " fill="#000000"/><text fill="#000000" font-family="sans-serif" font-size="14" font-style="italic" lengthAdjust="spacing" textLength="52" x="568.25" y="212.6">Protocol</text><line style="stroke:#181818;stroke-width:0.5;" x1="478.5" x2="677.5" y1="223" y2="223"/><line style="stroke:#181818;stroke-width:0.5;" x1="478.5" x2="677.5" y1="231" y2="231"/><text fill="#000000" font-family="sans-serif" font-size="14" lengthAdjust="spacing" textLength="189" x="483.5" y="248.9999">includes(propertyName:String)</text></g><!--MD5=[b6539e280a383d4bd2138df28ea79f0b]
class ObjectRdr--><g id="elem_ObjectRdr"><rect fill="#F1F1F1" height="48" id="ObjectRdr" rx="2.5" ry="2.5" style="stroke:#181818;stroke-width:0.5;" width="95" x="280.5" y="367"/><ellipse cx="295.5" cy="383" fill="#ADD1B2" rx="11" ry="11" style="stroke:#181818;stroke-width:1.0;"/><path d="M294.8594,386.7813 Q295.6563,386.7813 296.2188,386.5938 Q296.7969,386.3906 297.0313,386.1719 Q297.2813,385.9375 297.5156,385.75 Q297.7656,385.5469 297.9844,385.5469 Q298.3281,385.5469 298.5781,385.8125 Q298.8438,386.0625 298.8438,386.3906 Q298.8438,387.125 297.6719,387.8125 Q296.5156,388.4844 294.8125,388.4844 Q292.6563,388.4844 291.2344,387.2188 Q289.8125,385.9531 289.8125,384.0156 L289.8125,382.8906 Q289.8125,380.8594 291.1406,379.4844 Q292.4688,378.0938 294.4375,378.0938 Q295.625,378.0938 296.8438,378.6719 L297.0156,378.75 Q297.3125,378.3438 297.7344,378.3438 Q298.2188,378.3438 298.3906,378.6406 Q298.5781,378.9219 298.5781,379.4688 L298.5781,380.8906 Q298.5781,382.0156 297.7344,382.0156 Q297.4219,382.0156 297.2188,381.8438 Q297.0313,381.6719 296.9844,381.5313 Q296.9531,381.375 296.9063,381.1094 Q296.7969,380.5938 296.2813,380.2813 Q295.7656,379.9688 295.3125,379.8906 Q294.875,379.7969 294.5,379.7969 Q293.2188,379.7969 292.3594,380.6719 Q291.5156,381.5469 291.5156,382.8906 L291.5156,383.9844 Q291.5156,385.2656 292.4219,386.0313 Q293.3281,386.7813 294.8594,386.7813 Z " fill="#000000"/><text fill="#000000" font-family="sans-serif" font-size="14" lengthAdjust="spacing" textLength="63" x="309.5" y="388.6">ObjectRdr</text><line style="stroke:#181818;stroke-width:0.5;" x1="281.5" x2="374.5" y1="399" y2="399"/><line style="stroke:#181818;stroke-width:0.5;" x1="281.5" x2="374.5" y1="407" y2="407"/></g><!--MD5=[660956bd813a32f4c4e01cf0c9a6a063]
class ListRdr--><g id="elem_ListRdr"><rect fill="#F1F1F1" height="48" id="ListRdr" rx="2.5" ry="2.5" style="stroke:#181818;stroke-width:0.5;" width="77" x="410.5" y="367"/><ellipse cx="425.5" cy="383" fill="#ADD1B2" rx="11" ry="11" style="stroke:#181818;stroke-width:1.0;"/><path d="M424.8594,386.7813 Q425.6563,386.7813 426.2188,386.5938 Q426.7969,386.3906 427.0313,386.1719 Q427.2813,385.9375 427.5156,385.75 Q427.7656,385.5469 427.9844,385.5469 Q428.3281,385.5469 428.5781,385.8125 Q428.8438,386.0625 428.8438,386.3906 Q428.8438,387.125 427.6719,387.8125 Q426.5156,388.4844 424.8125,388.4844 Q422.6563,388.4844 421.2344,387.2188 Q419.8125,385.9531 419.8125,384.0156 L419.8125,382.8906 Q419.8125,380.8594 421.1406,379.4844 Q422.4688,378.0938 424.4375,378.0938 Q425.625,378.0938 426.8438,378.6719 L427.0156,378.75 Q427.3125,378.3438 427.7344,378.3438 Q428.2188,378.3438 428.3906,378.6406 Q428.5781,378.9219 428.5781,379.4688 L428.5781,380.8906 Q428.5781,382.0156 427.7344,382.0156 Q427.4219,382.0156 427.2188,381.8438 Q427.0313,381.6719 426.9844,381.5313 Q426.9531,381.375 426.9063,381.1094 Q426.7969,380.5938 426.2813,380.2813 Q425.7656,379.9688 425.3125,379.8906 Q424.875,379.7969 424.5,379.7969 Q423.2188,379.7969 422.3594,380.6719 Q421.5156,381.5469 421.5156,382.8906 L421.5156,383.9844 Q421.5156,385.2656 422.4219,386.0313 Q423.3281,386.7813 424.8594,386.7813 Z " fill="#000000"/><text fill="#000000" font-family="sans-serif" font-size="14" lengthAdjust="spacing" textLength="45" x="439.5" y="388.6">ListRdr</text><line style="stroke:#181818;stroke-width:0.5;" x1="411.5" x2="486.5" y1="399" y2="399"/><line style="stroke:#181818;stroke-width:0.5;" x1="411.5" x2="486.5" y1="407" y2="407"/></g><!--MD5=[24f215063a43c8314490619b47a99cd0]
class GeoLocationRdr--><g id="elem_GeoLocationRdr"><rect fill="#F1F1F1" height="48" id="GeoLocationRdr" rx="2.5" ry="2.5" style="stroke:#181818;stroke-width:0.5;" width="132" x="363" y="501"/><ellipse cx="378" cy="517" fill="#ADD1B2" rx="11" ry="11" style="stroke:#181818;stroke-width:1.0;"/><path d="M377.3594,520.7813 Q378.1563,520.7813 378.7188,520.5938 Q379.2969,520.3906 379.5313,520.1719 Q379.7813,519.9375 380.0156,519.75 Q380.2656,519.5469 380.4844,519.5469 Q380.8281,519.5469 381.0781,519.8125 Q381.3438,520.0625 381.3438,520.3906 Q381.3438,521.125 380.1719,521.8125 Q379.0156,522.4844 377.3125,522.4844 Q375.1563,522.4844 373.7344,521.2188 Q372.3125,519.9531 372.3125,518.0156 L372.3125,516.8906 Q372.3125,514.8594 373.6406,513.4844 Q374.9688,512.0938 376.9375,512.0938 Q378.125,512.0938 379.3438,512.6719 L379.5156,512.75 Q379.8125,512.3438 380.2344,512.3438 Q380.7188,512.3438 380.8906,512.6406 Q381.0781,512.9219 381.0781,513.4688 L381.0781,514.8906 Q381.0781,516.0156 380.2344,516.0156 Q379.9219,516.0156 379.7188,515.8438 Q379.5313,515.6719 379.4844,515.5313 Q379.4531,515.375 379.4063,515.1094 Q379.2969,514.5938 378.7813,514.2813 Q378.2656,513.9688 377.8125,513.8906 Q377.375,513.7969 377,513.7969 Q375.7188,513.7969 374.8594,514.6719 Q374.0156,515.5469 374.0156,516.8906 L374.0156,517.9844 Q374.0156,519.2656 374.9219,520.0313 Q375.8281,520.7813 377.3594,520.7813 Z " fill="#000000"/><text fill="#000000" font-family="sans-serif" font-size="14" lengthAdjust="spacing" textLength="100" x="392" y="522.6">GeoLocationRdr</text><line style="stroke:#181818;stroke-width:0.5;" x1="364" x2="494" y1="533" y2="533"/><line style="stroke:#181818;stroke-width:0.5;" x1="364" x2="494" y1="541" y2="541"/></g><!--MD5=[3ac3a25a251d55f379c2f348a979e9b0]
class EventRdr--><g id="elem_EventRdr"><rect fill="#F1F1F1" height="48" id="EventRdr" rx="2.5" ry="2.5" style="stroke:#181818;stroke-width:0.5;" width="90" x="530" y="501"/><ellipse cx="545" cy="517" fill="#ADD1B2" rx="11" ry="11" style="stroke:#181818;stroke-width:1.0;"/><path d="M544.3594,520.7813 Q545.1563,520.7813 545.7188,520.5938 Q546.2969,520.3906 546.5313,520.1719 Q546.7813,519.9375 547.0156,519.75 Q547.2656,519.5469 547.4844,519.5469 Q547.8281,519.5469 548.0781,519.8125 Q548.3438,520.0625 548.3438,520.3906 Q548.3438,521.125 547.1719,521.8125 Q546.0156,522.4844 544.3125,522.4844 Q542.1563,522.4844 540.7344,521.2188 Q539.3125,519.9531 539.3125,518.0156 L539.3125,516.8906 Q539.3125,514.8594 540.6406,513.4844 Q541.9688,512.0938 543.9375,512.0938 Q545.125,512.0938 546.3438,512.6719 L546.5156,512.75 Q546.8125,512.3438 547.2344,512.3438 Q547.7188,512.3438 547.8906,512.6406 Q548.0781,512.9219 548.0781,513.4688 L548.0781,514.8906 Q548.0781,516.0156 547.2344,516.0156 Q546.9219,516.0156 546.7188,515.8438 Q546.5313,515.6719 546.4844,515.5313 Q546.4531,515.375 546.4063,515.1094 Q546.2969,514.5938 545.7813,514.2813 Q545.2656,513.9688 544.8125,513.8906 Q544.375,513.7969 544,513.7969 Q542.7188,513.7969 541.8594,514.6719 Q541.0156,515.5469 541.0156,516.8906 L541.0156,517.9844 Q541.0156,519.2656 541.9219,520.0313 Q542.8281,520.7813 544.3594,520.7813 Z " fill="#000000"/><text fill="#000000" font-family="sans-serif" font-size="14" lengthAdjust="spacing" textLength="58" x="559" y="522.6">EventRdr</text><line style="stroke:#181818;stroke-width:0.5;" x1="531" x2="619" y1="533" y2="533"/><line style="stroke:#181818;stroke-width:0.5;" x1="531" x2="619" y1="541" y2="541"/></g><!--MD5=[94b905841b8882956344401c70c922d8]
class RoView--><g id="elem_RoView"><rect codeLine="18" fill="#F1F1F1" height="48" id="RoView" rx="2.5" ry="2.5" style="stroke:#181818;stroke-width:0.5;" width="80" x="169" y="199.5"/><ellipse cx="184" cy="215.5" fill="#A9DCDF" rx="11" ry="11" style="stroke:#181818;stroke-width:1.0;"/><path d="M184.9531,219.1563 Q184.9531,218.6563 185.2344,218.4844 Q185.5313,218.2969 186.0781,218.2969 L186.4688,218.2969 L186.0781,217.3125 L182.0313,217.3125 L181.6406,218.2969 L182.0313,218.2969 Q183.1406,218.2969 183.1406,219.1563 Q183.1406,220 182.0313,220 L179.7656,220 Q178.6406,220 178.6406,219.1563 Q178.6406,218.6406 178.9375,218.4688 Q179.2344,218.2969 179.7813,218.2969 L182.4219,211.7813 L181.3438,211.7813 Q180.2031,211.7813 180.2031,210.9375 Q180.2031,210.4219 180.5,210.2656 Q180.7969,210.0938 181.3438,210.0938 L185.0156,210.0938 L188.4063,218.2969 Q189.5625,218.2969 189.5625,219.1563 Q189.5625,220 188.4375,220 L186.0781,220 Q184.9531,220 184.9531,219.1563 Z M185.375,215.6094 L184.0469,212.3438 L182.7031,215.6094 L185.375,215.6094 Z " fill="#000000"/><text fill="#000000" font-family="sans-serif" font-size="14" font-style="italic" lengthAdjust="spacing" textLength="48" x="198" y="221.1">RoView</text><line style="stroke:#181818;stroke-width:0.5;" x1="170" x2="248" y1="231.5" y2="231.5"/><line style="stroke:#181818;stroke-width:0.5;" x1="170" x2="248" y1="239.5" y2="239.5"/></g><!--MD5=[ac681369a1a81eadc0880c8fcd051002]
class ObjectVw--><g id="elem_ObjectVw"><rect fill="#F1F1F1" height="48" id="ObjectVw" rx="2.5" ry="2.5" style="stroke:#181818;stroke-width:0.5;" width="91" x="46.5" y="367"/><ellipse cx="61.5" cy="383" fill="#ADD1B2" rx="11" ry="11" style="stroke:#181818;stroke-width:1.0;"/><path d="M60.8594,386.7813 Q61.6563,386.7813 62.2188,386.5938 Q62.7969,386.3906 63.0313,386.1719 Q63.2813,385.9375 63.5156,385.75 Q63.7656,385.5469 63.9844,385.5469 Q64.3281,385.5469 64.5781,385.8125 Q64.8438,386.0625 64.8438,386.3906 Q64.8438,387.125 63.6719,387.8125 Q62.5156,388.4844 60.8125,388.4844 Q58.6563,388.4844 57.2344,387.2188 Q55.8125,385.9531 55.8125,384.0156 L55.8125,382.8906 Q55.8125,380.8594 57.1406,379.4844 Q58.4688,378.0938 60.4375,378.0938 Q61.625,378.0938 62.8438,378.6719 L63.0156,378.75 Q63.3125,378.3438 63.7344,378.3438 Q64.2188,378.3438 64.3906,378.6406 Q64.5781,378.9219 64.5781,379.4688 L64.5781,380.8906 Q64.5781,382.0156 63.7344,382.0156 Q63.4219,382.0156 63.2188,381.8438 Q63.0313,381.6719 62.9844,381.5313 Q62.9531,381.375 62.9063,381.1094 Q62.7969,380.5938 62.2813,380.2813 Q61.7656,379.9688 61.3125,379.8906 Q60.875,379.7969 60.5,379.7969 Q59.2188,379.7969 58.3594,380.6719 Q57.5156,381.5469 57.5156,382.8906 L57.5156,383.9844 Q57.5156,385.2656 58.4219,386.0313 Q59.3281,386.7813 60.8594,386.7813 Z " fill="#000000"/><text fill="#000000" font-family="sans-serif" font-size="14" lengthAdjust="spacing" textLength="59" x="75.5" y="388.6">ObjectVw</text><line style="stroke:#181818;stroke-width:0.5;" x1="47.5" x2="136.5" y1="399" y2="399"/><line style="stroke:#181818;stroke-width:0.5;" x1="47.5" x2="136.5" y1="407" y2="407"/></g><!--MD5=[6001a356541f2e1ff9f964c5f5b67d85]
class ListVw--><g id="elem_ListVw"><rect fill="#F1F1F1" height="48" id="ListVw" rx="2.5" ry="2.5" style="stroke:#181818;stroke-width:0.5;" width="73" x="172.5" y="367"/><ellipse cx="187.5" cy="383" fill="#ADD1B2" rx="11" ry="11" style="stroke:#181818;stroke-width:1.0;"/><path d="M186.8594,386.7813 Q187.6563,386.7813 188.2188,386.5938 Q188.7969,386.3906 189.0313,386.1719 Q189.2813,385.9375 189.5156,385.75 Q189.7656,385.5469 189.9844,385.5469 Q190.3281,385.5469 190.5781,385.8125 Q190.8438,386.0625 190.8438,386.3906 Q190.8438,387.125 189.6719,387.8125 Q188.5156,388.4844 186.8125,388.4844 Q184.6563,388.4844 183.2344,387.2188 Q181.8125,385.9531 181.8125,384.0156 L181.8125,382.8906 Q181.8125,380.8594 183.1406,379.4844 Q184.4688,378.0938 186.4375,378.0938 Q187.625,378.0938 188.8438,378.6719 L189.0156,378.75 Q189.3125,378.3438 189.7344,378.3438 Q190.2188,378.3438 190.3906,378.6406 Q190.5781,378.9219 190.5781,379.4688 L190.5781,380.8906 Q190.5781,382.0156 189.7344,382.0156 Q189.4219,382.0156 189.2188,381.8438 Q189.0313,381.6719 188.9844,381.5313 Q188.9531,381.375 188.9063,381.1094 Q188.7969,380.5938 188.2813,380.2813 Q187.7656,379.9688 187.3125,379.8906 Q186.875,379.7969 186.5,379.7969 Q185.2188,379.7969 184.3594,380.6719 Q183.5156,381.5469 183.5156,382.8906 L183.5156,383.9844 Q183.5156,385.2656 184.4219,386.0313 Q185.3281,386.7813 186.8594,386.7813 Z " fill="#000000"/><text fill="#000000" font-family="sans-serif" font-size="14" lengthAdjust="spacing" textLength="41" x="201.5" y="388.6">ListVw</text><line style="stroke:#181818;stroke-width:0.5;" x1="173.5" x2="244.5" y1="399" y2="399"/><line style="stroke:#181818;stroke-width:0.5;" x1="173.5" x2="244.5" y1="407" y2="407"/></g><!--MD5=[293cdd98efd2ef6414c6838d728daf9e]
class GeoLocationVw--><g id="elem_GeoLocationVw"><rect fill="#F1F1F1" height="48" id="GeoLocationVw" rx="2.5" ry="2.5" style="stroke:#181818;stroke-width:0.5;" width="128" x="7" y="501"/><ellipse cx="22" cy="517" fill="#ADD1B2" rx="11" ry="11" style="stroke:#181818;stroke-width:1.0;"/><path d="M21.3594,520.7813 Q22.1563,520.7813 22.7188,520.5938 Q23.2969,520.3906 23.5313,520.1719 Q23.7813,519.9375 24.0156,519.75 Q24.2656,519.5469 24.4844,519.5469 Q24.8281,519.5469 25.0781,519.8125 Q25.3438,520.0625 25.3438,520.3906 Q25.3438,521.125 24.1719,521.8125 Q23.0156,522.4844 21.3125,522.4844 Q19.1563,522.4844 17.7344,521.2188 Q16.3125,519.9531 16.3125,518.0156 L16.3125,516.8906 Q16.3125,514.8594 17.6406,513.4844 Q18.9688,512.0938 20.9375,512.0938 Q22.125,512.0938 23.3438,512.6719 L23.5156,512.75 Q23.8125,512.3438 24.2344,512.3438 Q24.7188,512.3438 24.8906,512.6406 Q25.0781,512.9219 25.0781,513.4688 L25.0781,514.8906 Q25.0781,516.0156 24.2344,516.0156 Q23.9219,516.0156 23.7188,515.8438 Q23.5313,515.6719 23.4844,515.5313 Q23.4531,515.375 23.4063,515.1094 Q23.2969,514.5938 22.7813,514.2813 Q22.2656,513.9688 21.8125,513.8906 Q21.375,513.7969 21,513.7969 Q19.7188,513.7969 18.8594,514.6719 Q18.0156,515.5469 18.0156,516.8906 L18.0156,517.9844 Q18.0156,519.2656 18.9219,520.0313 Q19.8281,520.7813 21.3594,520.7813 Z " fill="#000000"/><text fill="#000000" font-family="sans-serif" font-size="14" lengthAdjust="spacing" textLength="96" x="36" y="522.6">GeoLocationVw</text><line style="stroke:#181818;stroke-width:0.5;" x1="8" x2="134" y1="533" y2="533"/><line style="stroke:#181818;stroke-width:0.5;" x1="8" x2="134" y1="541" y2="541"/></g><!--MD5=[b5b2b5ee462037f139d18fe25361c91f]
class TimeLineView--><g id="elem_TimeLineView"><rect fill="#F1F1F1" height="48" id="TimeLineView" rx="2.5" ry="2.5" style="stroke:#181818;stroke-width:0.5;" width="117" x="170.5" y="501"/><ellipse cx="185.5" cy="517" fill="#ADD1B2" rx="11" ry="11" style="stroke:#181818;stroke-width:1.0;"/><path d="M184.8594,520.7813 Q185.6563,520.7813 186.2188,520.5938 Q186.7969,520.3906 187.0313,520.1719 Q187.2813,519.9375 187.5156,519.75 Q187.7656,519.5469 187.9844,519.5469 Q188.3281,519.5469 188.5781,519.8125 Q188.8438,520.0625 188.8438,520.3906 Q188.8438,521.125 187.6719,521.8125 Q186.5156,522.4844 184.8125,522.4844 Q182.6563,522.4844 181.2344,521.2188 Q179.8125,519.9531 179.8125,518.0156 L179.8125,516.8906 Q179.8125,514.8594 181.1406,513.4844 Q182.4688,512.0938 184.4375,512.0938 Q185.625,512.0938 186.8438,512.6719 L187.0156,512.75 Q187.3125,512.3438 187.7344,512.3438 Q188.2188,512.3438 188.3906,512.6406 Q188.5781,512.9219 188.5781,513.4688 L188.5781,514.8906 Q188.5781,516.0156 187.7344,516.0156 Q187.4219,516.0156 187.2188,515.8438 Q187.0313,515.6719 186.9844,515.5313 Q186.9531,515.375 186.9063,515.1094 Q186.7969,514.5938 186.2813,514.2813 Q185.7656,513.9688 185.3125,513.8906 Q184.875,513.7969 184.5,513.7969 Q183.2188,513.7969 182.3594,514.6719 Q181.5156,515.5469 181.5156,516.8906 L181.5156,517.9844 Q181.5156,519.2656 182.4219,520.0313 Q183.3281,520.7813 184.8594,520.7813 Z " fill="#000000"/><text fill="#000000" font-family="sans-serif" font-size="14" lengthAdjust="spacing" textLength="85" x="199.5" y="522.6">TimeLineView</text><line style="stroke:#181818;stroke-width:0.5;" x1="171.5" x2="286.5" y1="533" y2="533"/><line style="stroke:#181818;stroke-width:0.5;" x1="171.5" x2="286.5" y1="541" y2="541"/></g><!--MD5=[bd1591ba57da9f11d5bbb0d64d5c2717]
class Exposer--><g id="elem_Exposer"><rect codeLine="28" fill="#F1F1F1" height="64.7999" id="Exposer" rx="2.5" ry="2.5" style="stroke:#181818;stroke-width:0.5;" width="161" x="497.5" y="15.5"/><ellipse cx="548.75" cy="31.5" fill="#ADD1B2" rx="11" ry="11" style="stroke:#181818;stroke-width:1.0;"/><path d="M548.1094,35.2813 Q548.9063,35.2813 549.4688,35.0938 Q550.0469,34.8906 550.2813,34.6719 Q550.5313,34.4375 550.7656,34.25 Q551.0156,34.0469 551.2344,34.0469 Q551.5781,34.0469 551.8281,34.3125 Q552.0938,34.5625 552.0938,34.8906 Q552.0938,35.625 550.9219,36.3125 Q549.7656,36.9844 548.0625,36.9844 Q545.9063,36.9844 544.4844,35.7188 Q543.0625,34.4531 543.0625,32.5156 L543.0625,31.3906 Q543.0625,29.3594 544.3906,27.9844 Q545.7188,26.5938 547.6875,26.5938 Q548.875,26.5938 550.0938,27.1719 L550.2656,27.25 Q550.5625,26.8438 550.9844,26.8438 Q551.4688,26.8438 551.6406,27.1406 Q551.8281,27.4219 551.8281,27.9688 L551.8281,29.3906 Q551.8281,30.5156 550.9844,30.5156 Q550.6719,30.5156 550.4688,30.3438 Q550.2813,30.1719 550.2344,30.0313 Q550.2031,29.875 550.1563,29.6094 Q550.0469,29.0938 549.5313,28.7813 Q549.0156,28.4688 548.5625,28.3906 Q548.125,28.2969 547.75,28.2969 Q546.4688,28.2969 545.6094,29.1719 Q544.7656,30.0469 544.7656,31.3906 L544.7656,32.4844 Q544.7656,33.7656 545.6719,34.5313 Q546.5781,35.2813 548.1094,35.2813 Z " fill="#000000"/><text fill="#000000" font-family="sans-serif" font-size="14" lengthAdjust="spacing" textLength="50" x="569.25" y="37.1">Exposer</text><line style="stroke:#181818;stroke-width:0.5;" x1="498.5" x2="657.5" y1="47.5" y2="47.5"/><text fill="#000000" font-family="sans-serif" font-size="14" lengthAdjust="spacing" textLength="149" x="503.5" y="65.4999">delegate:TransferObject</text><line style="stroke:#181818;stroke-width:0.5;" x1="498.5" x2="657.5" y1="72.2999" y2="72.2999"/></g><!--MD5=[1baf32c238e7b10acca77db68c6197d6]
class TransferObject--><g id="elem_TransferObject"><rect codeLine="32" fill="#90EE90" height="64.7999" id="TransferObject" rx="2.5" ry="2.5" style="stroke:#181818;stroke-width:0.5;" width="167" x="295.5" y="15.5"/><ellipse cx="328.5" cy="31.5" fill="#A9DCDF" rx="11" ry="11" style="stroke:#181818;stroke-width:1.0;"/><path d="M329.4531,35.1563 Q329.4531,34.6563 329.7344,34.4844 Q330.0313,34.2969 330.5781,34.2969 L330.9688,34.2969 L330.5781,33.3125 L326.5313,33.3125 L326.1406,34.2969 L326.5313,34.2969 Q327.6406,34.2969 327.6406,35.1563 Q327.6406,36 326.5313,36 L324.2656,36 Q323.1406,36 323.1406,35.1563 Q323.1406,34.6406 323.4375,34.4688 Q323.7344,34.2969 324.2813,34.2969 L326.9219,27.7813 L325.8438,27.7813 Q324.7031,27.7813 324.7031,26.9375 Q324.7031,26.4219 325,26.2656 Q325.2969,26.0938 325.8438,26.0938 L329.5156,26.0938 L332.9063,34.2969 Q334.0625,34.2969 334.0625,35.1563 Q334.0625,36 332.9375,36 L330.5781,36 Q329.4531,36 329.4531,35.1563 Z M329.875,31.6094 L328.5469,28.3438 L327.2031,31.6094 L329.875,31.6094 Z " fill="#000000"/><text fill="#000000" font-family="sans-serif" font-size="14" font-style="italic" lengthAdjust="spacing" textLength="95" x="346.5" y="37.1">TransferObject</text><line style="stroke:#181818;stroke-width:0.5;" x1="296.5" x2="461.5" y1="47.5" y2="47.5"/><text fill="#000000" font-family="sans-serif" font-size="14" lengthAdjust="spacing" textLength="155" x="301.5" y="65.4999">properties:List&lt;Property&gt;</text><line style="stroke:#181818;stroke-width:0.5;" x1="296.5" x2="461.5" y1="72.2999" y2="72.2999"/></g><!--MD5=[6b626634f3bb0842bebd5e499c80b711]
class Property--><g id="elem_Property"><rect codeLine="36" fill="#ADD8E6" height="81.5999" id="Property" rx="2.5" ry="2.5" style="stroke:#181818;stroke-width:0.5;" width="91" x="147.5" y="7"/><ellipse cx="165.65" cy="23" fill="#ADD1B2" rx="11" ry="11" style="stroke:#181818;stroke-width:1.0;"/><path d="M165.0094,26.7813 Q165.8063,26.7813 166.3688,26.5938 Q166.9469,26.3906 167.1813,26.1719 Q167.4313,25.9375 167.6656,25.75 Q167.9156,25.5469 168.1344,25.5469 Q168.4781,25.5469 168.7281,25.8125 Q168.9938,26.0625 168.9938,26.3906 Q168.9938,27.125 167.8219,27.8125 Q166.6656,28.4844 164.9625,28.4844 Q162.8063,28.4844 161.3844,27.2188 Q159.9625,25.9531 159.9625,24.0156 L159.9625,22.8906 Q159.9625,20.8594 161.2906,19.4844 Q162.6188,18.0938 164.5875,18.0938 Q165.775,18.0938 166.9938,18.6719 L167.1656,18.75 Q167.4625,18.3438 167.8844,18.3438 Q168.3688,18.3438 168.5406,18.6406 Q168.7281,18.9219 168.7281,19.4688 L168.7281,20.8906 Q168.7281,22.0156 167.8844,22.0156 Q167.5719,22.0156 167.3688,21.8438 Q167.1813,21.6719 167.1344,21.5313 Q167.1031,21.375 167.0563,21.1094 Q166.9469,20.5938 166.4313,20.2813 Q165.9156,19.9688 165.4625,19.8906 Q165.025,19.7969 164.65,19.7969 Q163.3688,19.7969 162.5094,20.6719 Q161.6656,21.5469 161.6656,22.8906 L161.6656,23.9844 Q161.6656,25.2656 162.5719,26.0313 Q163.4781,26.7813 165.0094,26.7813 Z " fill="#000000"/><text fill="#000000" font-family="sans-serif" font-size="14" lengthAdjust="spacing" textLength="52" x="180.35" y="28.6">Property</text><line style="stroke:#181818;stroke-width:0.5;" x1="148.5" x2="237.5" y1="39" y2="39"/><text fill="#000000" font-family="sans-serif" font-size="14" lengthAdjust="spacing" textLength="79" x="153.5" y="56.9999">name: String</text><text fill="#000000" font-family="sans-serif" font-size="14" lengthAdjust="spacing" textLength="69" x="153.5" y="73.7999">type: Class</text><line style="stroke:#181818;stroke-width:0.5;" x1="148.5" x2="237.5" y1="80.5999" y2="80.5999"/></g><!--MD5=[1e477e70b6ee4c5ba5660faf99f4d9ee]
class TimeLinePtc--><g id="elem_TimeLinePtc"><rect codeLine="43" fill="#ADD8E6" height="98.3998" id="TimeLinePtc" rx="2.5" ry="2.5" style="stroke:#181818;stroke-width:0.5;" width="110" x="523" y="342"/><ellipse cx="538.9" cy="358" fill="#ADD1B2" rx="11" ry="11" style="stroke:#181818;stroke-width:1.0;"/><path d="M538.2594,361.7813 Q539.0563,361.7813 539.6188,361.5938 Q540.1969,361.3906 540.4313,361.1719 Q540.6813,360.9375 540.9156,360.75 Q541.1656,360.5469 541.3844,360.5469 Q541.7281,360.5469 541.9781,360.8125 Q542.2438,361.0625 542.2438,361.3906 Q542.2438,362.125 541.0719,362.8125 Q539.9156,363.4844 538.2125,363.4844 Q536.0563,363.4844 534.6344,362.2188 Q533.2125,360.9531 533.2125,359.0156 L533.2125,357.8906 Q533.2125,355.8594 534.5406,354.4844 Q535.8688,353.0938 537.8375,353.0938 Q539.025,353.0938 540.2438,353.6719 L540.4156,353.75 Q540.7125,353.3438 541.1344,353.3438 Q541.6188,353.3438 541.7906,353.6406 Q541.9781,353.9219 541.9781,354.4688 L541.9781,355.8906 Q541.9781,357.0156 541.1344,357.0156 Q540.8219,357.0156 540.6188,356.8438 Q540.4313,356.6719 540.3844,356.5313 Q540.3531,356.375 540.3063,356.1094 Q540.1969,355.5938 539.6813,355.2813 Q539.1656,354.9688 538.7125,354.8906 Q538.275,354.7969 537.9,354.7969 Q536.6188,354.7969 535.7594,355.6719 Q534.9156,356.5469 534.9156,357.8906 L534.9156,358.9844 Q534.9156,360.2656 535.8219,361.0313 Q536.7281,361.7813 538.2594,361.7813 Z " fill="#000000"/><text fill="#000000" font-family="sans-serif" font-size="14" lengthAdjust="spacing" textLength="76" x="553.1" y="363.6">TimeLinePtc</text><line style="stroke:#181818;stroke-width:0.5;" x1="524" x2="632" y1="374" y2="374"/><text fill="#000000" font-family="sans-serif" font-size="14" lengthAdjust="spacing" textLength="91" x="529" y="391.9999">start:DateTime</text><text fill="#000000" font-family="sans-serif" font-size="14" lengthAdjust="spacing" textLength="86" x="529" y="408.7999">end:DateTime</text><text fill="#000000" font-family="sans-serif" font-size="14" lengthAdjust="spacing" textLength="98" x="529" y="425.5998">duration:Double</text><line style="stroke:#181818;stroke-width:0.5;" x1="524" x2="632" y1="432.3998" y2="432.3998"/></g><!--MD5=[701a273d35b20c028becaec0330689a0]
class GeoLocationPtc--><g id="elem_GeoLocationPtc"><rect codeLine="48" fill="#ADD8E6" height="81.5999" id="GeoLocationPtc" rx="2.5" ry="2.5" style="stroke:#181818;stroke-width:0.5;" width="129" x="668.5" y="350"/><ellipse cx="683.5" cy="366" fill="#ADD1B2" rx="11" ry="11" style="stroke:#181818;stroke-width:1.0;"/><path d="M682.8594,369.7813 Q683.6563,369.7813 684.2188,369.5938 Q684.7969,369.3906 685.0313,369.1719 Q685.2813,368.9375 685.5156,368.75 Q685.7656,368.5469 685.9844,368.5469 Q686.3281,368.5469 686.5781,368.8125 Q686.8438,369.0625 686.8438,369.3906 Q686.8438,370.125 685.6719,370.8125 Q684.5156,371.4844 682.8125,371.4844 Q680.6563,371.4844 679.2344,370.2188 Q677.8125,368.9531 677.8125,367.0156 L677.8125,365.8906 Q677.8125,363.8594 679.1406,362.4844 Q680.4688,361.0938 682.4375,361.0938 Q683.625,361.0938 684.8438,361.6719 L685.0156,361.75 Q685.3125,361.3438 685.7344,361.3438 Q686.2188,361.3438 686.3906,361.6406 Q686.5781,361.9219 686.5781,362.4688 L686.5781,363.8906 Q686.5781,365.0156 685.7344,365.0156 Q685.4219,365.0156 685.2188,364.8438 Q685.0313,364.6719 684.9844,364.5313 Q684.9531,364.375 684.9063,364.1094 Q684.7969,363.5938 684.2813,363.2813 Q683.7656,362.9688 683.3125,362.8906 Q682.875,362.7969 682.5,362.7969 Q681.2188,362.7969 680.3594,363.6719 Q679.5156,364.5469 679.5156,365.8906 L679.5156,366.9844 Q679.5156,368.2656 680.4219,369.0313 Q681.3281,369.7813 682.8594,369.7813 Z " fill="#000000"/><text fill="#000000" font-family="sans-serif" font-size="14" lengthAdjust="spacing" textLength="97" x="697.5" y="371.6">GeoLocationPtc</text><line style="stroke:#181818;stroke-width:0.5;" x1="669.5" x2="796.5" y1="382" y2="382"/><text fill="#000000" font-family="sans-serif" font-size="14" lengthAdjust="spacing" textLength="92" x="674.5" y="399.9999">latitude:Double</text><text fill="#000000" font-family="sans-serif" font-size="14" lengthAdjust="spacing" textLength="103" x="674.5" y="416.7999">longitude:Double</text><line style="stroke:#181818;stroke-width:0.5;" x1="669.5" x2="796.5" y1="423.5999" y2="423.5999"/></g><!--MD5=[776de531de4fc26eb6aa1d58b5cd9cef]
link Renderer to Protocol--><g id="link_Renderer_Protocol"><path codeLine="7" d="M420.11,223.5 C437.44,223.5 454.76,223.5 472.09,223.5 " fill="none" id="Renderer-to-Protocol" style="stroke:#181818;stroke-width:1.0;"/><polygon fill="#181818" points="477.47,223.5,468.47,219.5,472.47,223.5,468.47,227.5,477.47,223.5" style="stroke:#181818;stroke-width:1.0;"/></g><!--MD5=[3cb176c019a1793214f32deabd48c781]
reverse link Renderer to ObjectRdr--><g id="link_Renderer_ObjectRdr"><path codeLine="13" d="M346.8,301.11 C341.77,324.9 336.59,349.38 332.95,366.61 " fill="none" id="Renderer-backto-ObjectRdr" style="stroke:#181818;stroke-width:1.0;"/><polygon fill="none" points="339.97,299.57,350.95,281.46,353.67,302.47,339.97,299.57" style="stroke:#181818;stroke-width:1.0;"/></g><!--MD5=[2d003ea05eff3833a625365fa4a23c92]
reverse link Renderer to ListRdr--><g id="link_Renderer_ListRdr"><path codeLine="14" d="M401.88,299.33 C414.53,323.67 427.67,348.95 436.84,366.61 " fill="none" id="Renderer-backto-ListRdr" style="stroke:#181818;stroke-width:1.0;"/><polygon fill="none" points="395.61,302.43,392.6,281.46,408.03,295.97,395.61,302.43" style="stroke:#181818;stroke-width:1.0;"/></g><!--MD5=[270c2e783ce252c6a17b4cdda7eeb367]
reverse link ListRdr to GeoLocationRdr--><g id="link_ListRdr_GeoLocationRdr"><path codeLine="15" d="M442.46,435.13 C439.14,457.05 435.24,482.81 432.49,500.94 " fill="none" id="ListRdr-backto-GeoLocationRdr" style="stroke:#181818;stroke-width:1.0;"/><polygon fill="none" points="435.55,434.02,445.47,415.3,449.4,436.12,435.55,434.02" style="stroke:#181818;stroke-width:1.0;"/></g><!--MD5=[5fa14edd34496078a462d0f43443cad0]
reverse link ListRdr to EventRdr--><g id="link_ListRdr_EventRdr"><path codeLine="16" d="M485.05,429.77 C506.97,452.73 534.25,481.31 552.99,500.94 " fill="none" id="ListRdr-backto-EventRdr" style="stroke:#181818;stroke-width:1.0;"/><polygon fill="none" points="479.98,434.6,471.24,415.3,490.11,424.93,479.98,434.6" style="stroke:#181818;stroke-width:1.0;"/></g><!--MD5=[ed7825cf26eab76999869bbf1a2f89e6]
reverse link RoView to ObjectVw--><g id="link_RoView_ObjectVw"><path codeLine="21" d="M181.13,263.92 C158.43,296.03 127.15,340.28 108.32,366.92 " fill="none" id="RoView-backto-ObjectVw" style="stroke:#181818;stroke-width:1.0;"/><polygon fill="none" points="175.47,259.8,192.73,247.51,186.9,267.88,175.47,259.8" style="stroke:#181818;stroke-width:1.0;"/></g><!--MD5=[216093aafde1c45b2e5b0712ff058d71]
reverse link RoView to ListVw--><g id="link_RoView_ListVw"><path codeLine="22" d="M209,267.53 C209,299.29 209,341.27 209,366.92 " fill="none" id="RoView-backto-ListVw" style="stroke:#181818;stroke-width:1.0;"/><polygon fill="none" points="202,267.51,209,247.51,216,267.51,202,267.51" style="stroke:#181818;stroke-width:1.0;"/></g><!--MD5=[4f43e277fa3c3b5869da3b3235ceba62]
reverse link ListVw to GeoLocationVw--><g id="link_ListVw_GeoLocationVw"><path codeLine="23" d="M169.86,429.44 C145.8,452.46 115.73,481.22 95.11,500.94 " fill="none" id="ListVw-backto-GeoLocationVw" style="stroke:#181818;stroke-width:1.0;"/><polygon fill="none" points="165.35,424.06,184.65,415.3,175.03,434.18,165.35,424.06" style="stroke:#181818;stroke-width:1.0;"/></g><!--MD5=[1436f1ec751da39d0b8ebbe47b3dd9e6]
reverse link ListVw to TimeLineView--><g id="link_ListVw_TimeLineView"><path codeLine="24" d="M215.54,435.13 C218.86,457.05 222.76,482.81 225.51,500.94 " fill="none" id="ListVw-backto-TimeLineView" style="stroke:#181818;stroke-width:1.0;"/><polygon fill="none" points="208.6,436.12,212.53,415.3,222.45,434.02,208.6,436.12" style="stroke:#181818;stroke-width:1.0;"/></g><!--MD5=[d87128cbb67638ba9a85a96e24c98396]
reverse link RoView to Renderer--><g id="link_RoView_Renderer"><path codeLine="26" d="M254.31,223.5 C271.39,223.5 288.47,223.5 305.56,223.5 " fill="none" id="RoView-backto-Renderer" style="stroke:#181818;stroke-width:1.0;"/><polygon fill="#181818" points="249,223.5,258,227.5,254,223.5,258,219.5,249,223.5" style="stroke:#181818;stroke-width:1.0;"/></g><!--MD5=[7f100461146c8f8905a6594a925a30e1]
reverse link TransferObject to Exposer--><g id="link_TransferObject_Exposer"><path codeLine="35" d="M467.72,48 C477.57,48 487.43,48 497.29,48 " fill="none" id="TransferObject-backto-Exposer" style="stroke:#181818;stroke-width:1.0;"/><polygon fill="#181818" points="462.56,48,471.56,52,467.56,48,471.56,44,462.56,48" style="stroke:#181818;stroke-width:1.0;"/></g><!--MD5=[ca8c0f72eda8f7f565b74e74c1e8a3d2]
link Property to TransferObject--><g id="link_Property_TransferObject"><path codeLine="40" d="M238.5,48 C251.81,48 266.89,48 282.12,48 " fill="none" id="Property-to-TransferObject" style="stroke:#181818;stroke-width:1.0;"/><polygon fill="#181818" points="295.49,48,289.49,44,283.49,48,289.49,52,295.49,48" style="stroke:#181818;stroke-width:1.0;"/><text fill="#000000" font-family="sans-serif" font-size="13" lengthAdjust="spacing" textLength="20" x="257" y="42">has</text></g><!--MD5=[b98afa943d79ecfbff6cd27acaf81a75]
link Exposer to Protocol--><g id="link_Exposer_Protocol"><path codeLine="41" d="M578,80.82 C578,110.42 578,154.5 578,185.61 " fill="none" id="Exposer-to-Protocol" style="stroke:#181818;stroke-width:1.0;"/><polygon fill="#181818" points="578,190.88,582,181.88,578,185.88,574,181.88,578,190.88" style="stroke:#181818;stroke-width:1.0;"/><text fill="#000000" font-family="sans-serif" font-size="13" lengthAdjust="spacing" textLength="128" x="579" y="133">delegate.conformsTo()</text></g><!--MD5=[49f8108e56dec56423f64f1d301d4747]
reverse link Protocol to GeoLocationPtc--><g id="link_Protocol_GeoLocationPtc"><path codeLine="52" d="M621.25,270.68 C644.54,295.54 672.99,325.92 695.35,349.8 " fill="none" id="Protocol-backto-GeoLocationPtc" style="stroke:#181818;stroke-width:1.0;"/><polygon fill="none" points="616.08,275.4,607.52,256.02,626.3,265.83,616.08,275.4" style="stroke:#181818;stroke-width:1.0;"/></g><!--MD5=[8b653c0a697b1fbb7536d936f8568711]
reverse link Protocol to TimeLinePtc--><g id="link_Protocol_TimeLinePtc"><path codeLine="53" d="M578,276.14 C578,297.17 578,321.34 578,341.98 " fill="none" id="Protocol-backto-TimeLinePtc" style="stroke:#181818;stroke-width:1.0;"/><polygon fill="none" points="571,276.02,578,256.02,585,276.02,571,276.02" style="stroke:#181818;stroke-width:1.0;"/></g><!--MD5=[0e9219498a35379a6aa12cab7e2e162a]
@startuml
abstract class Renderer {
    iconName:String
    title:String
    view:RoView
    protocol:Protocol
}
Renderer -right-> Protocol

abstract class Protocol {
    includes(propertyName:String)
}

Renderer <|-down- ObjectRdr
Renderer <|-down- ListRdr
ListRdr <|-down- GeoLocationRdr
ListRdr <|-down- EventRdr

abstract class RoView {
}

RoView <|-down- ObjectVw
RoView <|-down- ListVw
ListVw <|-down- GeoLocationVw
ListVw <|-down- TimeLineView

Renderer -left-> RoView

class Exposer {
    delegate:TransferObject
}

abstract class TransferObject #LightGreen {
    properties:List<Property>
}
Exposer -left-> TransferObject
class Property #LightBlue {
    name: String
    type: Class
}
TransferObject *-left- Property : has
Exposer -down-> Protocol : delegate.conformsTo()

class TimeLinePtc #LightBlue {
start:DateTime
end:DateTime
duration:Double
}
class GeoLocationPtc #LightBlue {
latitude:Double
longitude:Double
}
Protocol <|-down- GeoLocationPtc
Protocol <|-down- TimeLinePtc
@enduml

PlantUML version 1.2022.5(Sat Apr 30 10:55:52 GMT 2022)
(GPL source distribution)
Java Runtime: OpenJDK Runtime Environment
JVM: OpenJDK 64-Bit Server VM
Default Encoding: UTF-8
Language: en
Country: US
--></g></svg>