<?xml version="1.0" encoding="UTF-8" standalone="no"?><svg xmlns="http://www.w3.org/2000/svg" xmlns:xlink="http://www.w3.org/1999/xlink" contentStyleType="text/css" height="1398px" preserveAspectRatio="none" style="width:1176px;height:1398px;background:#FFFFFF;" version="1.1" viewBox="0 0 1176 1398" width="1176px" zoomAndPan="magnify"><defs/><g><!--MD5=[c429691f2fe3ffc642d3e6ed879a8b4b]
cluster remote--><g id="cluster_remote"><polygon points="872,120,882,110,1159,110,1159,392.5,1149,402.5,872,402.5,872,120" style="stroke:#181818;stroke-width:1.0;fill:none;"/><line style="stroke:#181818;stroke-width:1.0;fill:none;" x1="1149" x2="1159" y1="120" y2="110"/><line style="stroke:#181818;stroke-width:1.0;fill:none;" x1="872" x2="1149" y1="120" y2="120"/><line style="stroke:#181818;stroke-width:1.0;fill:none;" x1="1149" x2="1149" y1="120" y2="402.5"/><text fill="#000000" font-family="sans-serif" font-size="14" font-weight="bold" lengthAdjust="spacing" textLength="48" x="987.5" y="136.9999">remote</text></g><!--MD5=[ffd769195028dd438823d2edcff41d80]
cluster to--><g id="cluster_to"><path d="M8.5,837.5 L23.5,837.5 A3.75,3.75 0 0 1 26,840 L33,860.2999 L520.5,860.2999 A2.5,2.5 0 0 1 523,862.7999 L523,1389 A2.5,2.5 0 0 1 520.5,1391.5 L8.5,1391.5 A2.5,2.5 0 0 1 6,1389 L6,840 A2.5,2.5 0 0 1 8.5,837.5 " style="stroke:#000000;stroke-width:1.5;fill:none;"/><line style="stroke:#000000;stroke-width:1.5;fill:none;" x1="6" x2="33" y1="860.2999" y2="860.2999"/><text fill="#000000" font-family="sans-serif" font-size="14" font-weight="bold" lengthAdjust="spacing" textLength="14" x="10" y="853.4999">to</text></g><!--MD5=[ccc460d39f96760bc67bdadf7a404591]
cluster to.layout--><g id="cluster_to.layout"><path d="M613.5,1162.5 L674.5,1162.5 A3.75,3.75 0 0 1 677,1165 L684,1185.2999 L714.5,1185.2999 A2.5,2.5 0 0 1 717,1187.7999 L717,1278 A2.5,2.5 0 0 1 714.5,1280.5 L613.5,1280.5 A2.5,2.5 0 0 1 611,1278 L611,1165 A2.5,2.5 0 0 1 613.5,1162.5 " style="stroke:#000000;stroke-width:1.5;fill:none;"/><line style="stroke:#000000;stroke-width:1.5;fill:none;" x1="611" x2="684" y1="1185.2999" y2="1185.2999"/><text fill="#000000" font-family="sans-serif" font-size="14" font-weight="bold" lengthAdjust="spacing" textLength="60" x="615" y="1178.4999">to.layout</text></g><!--MD5=[5f5aa3eac08eb7d12d88ffe0016b5131]
class RestfulObjects--><g id="elem_RestfulObjects"><rect codeLine="41" fill="#F1F1F1" height="48" id="RestfulObjects" rx="2.5" ry="2.5" style="stroke:#181818;stroke-width:0.5;" width="124" x="889" y="174"/><ellipse cx="904" cy="190" fill="#B4A7E5" rx="11" ry="11" style="stroke:#181818;stroke-width:1.0;"/><path d="M906.6719,193.2969 Q907.2188,193.2969 907.5,193.4844 Q907.7813,193.6563 907.7813,194.1563 Q907.7813,195 906.6719,195 L901.5313,195 Q900.4063,195 900.4063,194.1563 Q900.4063,193.6563 900.6875,193.4844 Q900.9844,193.2969 901.5313,193.2969 L903.25,193.2969 L903.25,186.7813 L901.5313,186.7813 Q900.4063,186.7813 900.4063,185.9375 Q900.4063,185.4531 900.6875,185.2813 Q900.9844,185.0938 901.5313,185.0938 L906.6719,185.0938 Q907.2188,185.0938 907.5,185.2813 Q907.7813,185.4531 907.7813,185.9375 Q907.7813,186.7813 906.6719,186.7813 L904.9531,186.7813 L904.9531,193.2969 L906.6719,193.2969 Z " fill="#000000"/><text fill="#000000" font-family="sans-serif" font-size="14" font-style="italic" lengthAdjust="spacing" textLength="92" x="918" y="195.6">RestfulObjects</text><line style="stroke:#181818;stroke-width:0.5;" x1="890" x2="1012" y1="206" y2="206"/><line style="stroke:#181818;stroke-width:0.5;" x1="890" x2="1012" y1="214" y2="214"/></g><!--MD5=[6e6ce35054dfdc08bc5a651d5a81235c]
class ApacheIsis--><g id="elem_ApacheIsis"><rect codeLine="42" fill="#F1F1F1" height="57.2" id="ApacheIsis" rx="2.5" ry="2.5" style="stroke:#181818;stroke-width:0.5;" width="100" x="888" y="329.5"/><ellipse cx="903" cy="350.1" fill="#FF7700" rx="11" ry="11" style="stroke:#A80036;stroke-width:1.0;"/><path d="M903.9531,353.7563 Q903.9531,353.2563 904.2344,353.0844 Q904.5313,352.8969 905.0781,352.8969 L905.4688,352.8969 L905.0781,351.9125 L901.0313,351.9125 L900.6406,352.8969 L901.0313,352.8969 Q902.1406,352.8969 902.1406,353.7563 Q902.1406,354.6 901.0313,354.6 L898.7656,354.6 Q897.6406,354.6 897.6406,353.7563 Q897.6406,353.2406 897.9375,353.0688 Q898.2344,352.8969 898.7813,352.8969 L901.4219,346.3813 L900.3438,346.3813 Q899.2031,346.3813 899.2031,345.5375 Q899.2031,345.0219 899.5,344.8656 Q899.7969,344.6938 900.3438,344.6938 L904.0156,344.6938 L907.4063,352.8969 Q908.5625,352.8969 908.5625,353.7563 Q908.5625,354.6 907.4375,354.6 L905.0781,354.6 Q903.9531,354.6 903.9531,353.7563 Z M904.375,350.2094 L903.0469,346.9438 L901.7031,350.2094 L904.375,350.2094 Z " fill="#000000"/><text fill="#000000" font-family="sans-serif" font-size="12" font-style="italic" lengthAdjust="spacing" textLength="70" x="916" y="346.5001">«Application»</text><text fill="#000000" font-family="sans-serif" font-size="14" lengthAdjust="spacing" textLength="68" x="917" y="362.9">ApacheIsis</text><line style="stroke:#181818;stroke-width:0.5;" x1="889" x2="987" y1="370.7" y2="370.7"/><line style="stroke:#181818;stroke-width:0.5;" x1="889" x2="987" y1="378.7" y2="378.7"/></g><!--MD5=[3065a834c1969130b06cda341c336231]
class NakedObjects--><g id="elem_NakedObjects"><rect codeLine="43" fill="#F1F1F1" height="57.2" id="NakedObjects" rx="2.5" ry="2.5" style="stroke:#181818;stroke-width:0.5;" width="119" x="1023.5" y="329.5"/><ellipse cx="1038.5" cy="350.1" fill="#FF7700" rx="11" ry="11" style="stroke:#A80036;stroke-width:1.0;"/><path d="M1039.4531,353.7563 Q1039.4531,353.2563 1039.7344,353.0844 Q1040.0313,352.8969 1040.5781,352.8969 L1040.9688,352.8969 L1040.5781,351.9125 L1036.5313,351.9125 L1036.1406,352.8969 L1036.5313,352.8969 Q1037.6406,352.8969 1037.6406,353.7563 Q1037.6406,354.6 1036.5313,354.6 L1034.2656,354.6 Q1033.1406,354.6 1033.1406,353.7563 Q1033.1406,353.2406 1033.4375,353.0688 Q1033.7344,352.8969 1034.2813,352.8969 L1036.9219,346.3813 L1035.8438,346.3813 Q1034.7031,346.3813 1034.7031,345.5375 Q1034.7031,345.0219 1035,344.8656 Q1035.2969,344.6938 1035.8438,344.6938 L1039.5156,344.6938 L1042.9063,352.8969 Q1044.0625,352.8969 1044.0625,353.7563 Q1044.0625,354.6 1042.9375,354.6 L1040.5781,354.6 Q1039.4531,354.6 1039.4531,353.7563 Z M1039.875,350.2094 L1038.5469,346.9438 L1037.2031,350.2094 L1039.875,350.2094 Z " fill="#000000"/><text fill="#000000" font-family="sans-serif" font-size="12" font-style="italic" lengthAdjust="spacing" textLength="70" x="1061" y="346.5001">«Application»</text><text fill="#000000" font-family="sans-serif" font-size="14" lengthAdjust="spacing" textLength="87" x="1052.5" y="362.9">NakedObjects</text><line style="stroke:#181818;stroke-width:0.5;" x1="1024.5" x2="1141.5" y1="370.7" y2="370.7"/><line style="stroke:#181818;stroke-width:0.5;" x1="1024.5" x2="1141.5" y1="378.7" y2="378.7"/></g><!--MD5=[48b56ac2df9be209c01ca851021fb6e4]
class to.Link--><g id="elem_to.Link"><rect fill="#F1F1F1" height="48" id="to.Link" rx="2.5" ry="2.5" style="stroke:#181818;stroke-width:0.5;" width="58" x="440" y="1042.5"/><ellipse cx="455" cy="1058.5" fill="#ADD1B2" rx="11" ry="11" style="stroke:#181818;stroke-width:1.0;"/><path d="M454.3594,1062.2813 Q455.1563,1062.2813 455.7188,1062.0938 Q456.2969,1061.8906 456.5313,1061.6719 Q456.7813,1061.4375 457.0156,1061.25 Q457.2656,1061.0469 457.4844,1061.0469 Q457.8281,1061.0469 458.0781,1061.3125 Q458.3438,1061.5625 458.3438,1061.8906 Q458.3438,1062.625 457.1719,1063.3125 Q456.0156,1063.9844 454.3125,1063.9844 Q452.1563,1063.9844 450.7344,1062.7188 Q449.3125,1061.4531 449.3125,1059.5156 L449.3125,1058.3906 Q449.3125,1056.3594 450.6406,1054.9844 Q451.9688,1053.5938 453.9375,1053.5938 Q455.125,1053.5938 456.3438,1054.1719 L456.5156,1054.25 Q456.8125,1053.8438 457.2344,1053.8438 Q457.7188,1053.8438 457.8906,1054.1406 Q458.0781,1054.4219 458.0781,1054.9688 L458.0781,1056.3906 Q458.0781,1057.5156 457.2344,1057.5156 Q456.9219,1057.5156 456.7188,1057.3438 Q456.5313,1057.1719 456.4844,1057.0313 Q456.4531,1056.875 456.4063,1056.6094 Q456.2969,1056.0938 455.7813,1055.7813 Q455.2656,1055.4688 454.8125,1055.3906 Q454.375,1055.2969 454,1055.2969 Q452.7188,1055.2969 451.8594,1056.1719 Q451.0156,1057.0469 451.0156,1058.3906 L451.0156,1059.4844 Q451.0156,1060.7656 451.9219,1061.5313 Q452.8281,1062.2813 454.3594,1062.2813 Z " fill="#000000"/><text fill="#000000" font-family="sans-serif" font-size="14" lengthAdjust="spacing" textLength="26" x="469" y="1064.1">Link</text><line style="stroke:#181818;stroke-width:0.5;" x1="441" x2="497" y1="1074.5" y2="1074.5"/><line style="stroke:#181818;stroke-width:0.5;" x1="441" x2="497" y1="1082.5" y2="1082.5"/></g><!--MD5=[88fc8b85a12edaa5dd811294722453b2]
class to.Extensions--><g id="elem_to.Extensions"><rect fill="#F1F1F1" height="48" id="to.Extensions" rx="2.5" ry="2.5" style="stroke:#181818;stroke-width:0.5;" width="99" x="407.5" y="1216.5"/><ellipse cx="422.5" cy="1232.5" fill="#ADD1B2" rx="11" ry="11" style="stroke:#181818;stroke-width:1.0;"/><path d="M421.8594,1236.2813 Q422.6563,1236.2813 423.2188,1236.0938 Q423.7969,1235.8906 424.0313,1235.6719 Q424.2813,1235.4375 424.5156,1235.25 Q424.7656,1235.0469 424.9844,1235.0469 Q425.3281,1235.0469 425.5781,1235.3125 Q425.8438,1235.5625 425.8438,1235.8906 Q425.8438,1236.625 424.6719,1237.3125 Q423.5156,1237.9844 421.8125,1237.9844 Q419.6563,1237.9844 418.2344,1236.7188 Q416.8125,1235.4531 416.8125,1233.5156 L416.8125,1232.3906 Q416.8125,1230.3594 418.1406,1228.9844 Q419.4688,1227.5938 421.4375,1227.5938 Q422.625,1227.5938 423.8438,1228.1719 L424.0156,1228.25 Q424.3125,1227.8438 424.7344,1227.8438 Q425.2188,1227.8438 425.3906,1228.1406 Q425.5781,1228.4219 425.5781,1228.9688 L425.5781,1230.3906 Q425.5781,1231.5156 424.7344,1231.5156 Q424.4219,1231.5156 424.2188,1231.3438 Q424.0313,1231.1719 423.9844,1231.0313 Q423.9531,1230.875 423.9063,1230.6094 Q423.7969,1230.0938 423.2813,1229.7813 Q422.7656,1229.4688 422.3125,1229.3906 Q421.875,1229.2969 421.5,1229.2969 Q420.2188,1229.2969 419.3594,1230.1719 Q418.5156,1231.0469 418.5156,1232.3906 L418.5156,1233.4844 Q418.5156,1234.7656 419.4219,1235.5313 Q420.3281,1236.2813 421.8594,1236.2813 Z " fill="#000000"/><text fill="#000000" font-family="sans-serif" font-size="14" lengthAdjust="spacing" textLength="67" x="436.5" y="1238.1">Extensions</text><line style="stroke:#181818;stroke-width:0.5;" x1="408.5" x2="505.5" y1="1248.5" y2="1248.5"/><line style="stroke:#181818;stroke-width:0.5;" x1="408.5" x2="505.5" y1="1256.5" y2="1256.5"/></g><!--MD5=[d2875fcdac0f9e41334b834345d959ac]
class to.Linked--><g id="elem_to.Linked"><rect codeLine="55" fill="#F1F1F1" height="64.7999" id="to.Linked" rx="2.5" ry="2.5" style="stroke:#181818;stroke-width:0.5;" width="78" x="292" y="891.5"/><ellipse cx="308.8" cy="907.5" fill="#B4A7E5" rx="11" ry="11" style="stroke:#181818;stroke-width:1.0;"/><path d="M311.4719,910.7969 Q312.0188,910.7969 312.3,910.9844 Q312.5813,911.1563 312.5813,911.6563 Q312.5813,912.5 311.4719,912.5 L306.3313,912.5 Q305.2063,912.5 305.2063,911.6563 Q305.2063,911.1563 305.4875,910.9844 Q305.7844,910.7969 306.3313,910.7969 L308.05,910.7969 L308.05,904.2813 L306.3313,904.2813 Q305.2063,904.2813 305.2063,903.4375 Q305.2063,902.9531 305.4875,902.7813 Q305.7844,902.5938 306.3313,902.5938 L311.4719,902.5938 Q312.0188,902.5938 312.3,902.7813 Q312.5813,902.9531 312.5813,903.4375 Q312.5813,904.2813 311.4719,904.2813 L309.7531,904.2813 L309.7531,910.7969 L311.4719,910.7969 Z " fill="#000000"/><text fill="#000000" font-family="sans-serif" font-size="14" font-style="italic" lengthAdjust="spacing" textLength="42" x="323.2" y="913.1">Linked</text><line style="stroke:#181818;stroke-width:0.5;" x1="293" x2="369" y1="923.5" y2="923.5"/><text fill="#000000" font-family="sans-serif" font-size="14" lengthAdjust="spacing" textLength="66" x="298" y="941.4999">links:Link[]</text><line style="stroke:#181818;stroke-width:0.5;" x1="293" x2="369" y1="948.2999" y2="948.2999"/></g><!--MD5=[1858d48b4b7ae0517ff3774fd6a6bbfd]
class to.Result--><g id="elem_to.Result"><rect fill="#F1F1F1" height="48" id="to.Result" rx="2.5" ry="2.5" style="stroke:#181818;stroke-width:0.5;" width="71" x="22.5" y="1042.5"/><ellipse cx="37.5" cy="1058.5" fill="#ADD1B2" rx="11" ry="11" style="stroke:#181818;stroke-width:1.0;"/><path d="M36.8594,1062.2813 Q37.6563,1062.2813 38.2188,1062.0938 Q38.7969,1061.8906 39.0313,1061.6719 Q39.2813,1061.4375 39.5156,1061.25 Q39.7656,1061.0469 39.9844,1061.0469 Q40.3281,1061.0469 40.5781,1061.3125 Q40.8438,1061.5625 40.8438,1061.8906 Q40.8438,1062.625 39.6719,1063.3125 Q38.5156,1063.9844 36.8125,1063.9844 Q34.6563,1063.9844 33.2344,1062.7188 Q31.8125,1061.4531 31.8125,1059.5156 L31.8125,1058.3906 Q31.8125,1056.3594 33.1406,1054.9844 Q34.4688,1053.5938 36.4375,1053.5938 Q37.625,1053.5938 38.8438,1054.1719 L39.0156,1054.25 Q39.3125,1053.8438 39.7344,1053.8438 Q40.2188,1053.8438 40.3906,1054.1406 Q40.5781,1054.4219 40.5781,1054.9688 L40.5781,1056.3906 Q40.5781,1057.5156 39.7344,1057.5156 Q39.4219,1057.5156 39.2188,1057.3438 Q39.0313,1057.1719 38.9844,1057.0313 Q38.9531,1056.875 38.9063,1056.6094 Q38.7969,1056.0938 38.2813,1055.7813 Q37.7656,1055.4688 37.3125,1055.3906 Q36.875,1055.2969 36.5,1055.2969 Q35.2188,1055.2969 34.3594,1056.1719 Q33.5156,1057.0469 33.5156,1058.3906 L33.5156,1059.4844 Q33.5156,1060.7656 34.4219,1061.5313 Q35.3281,1062.2813 36.8594,1062.2813 Z " fill="#000000"/><text fill="#000000" font-family="sans-serif" font-size="14" lengthAdjust="spacing" textLength="39" x="51.5" y="1064.1">Result</text><line style="stroke:#181818;stroke-width:0.5;" x1="23.5" x2="92.5" y1="1074.5" y2="1074.5"/><line style="stroke:#181818;stroke-width:0.5;" x1="23.5" x2="92.5" y1="1082.5" y2="1082.5"/></g><!--MD5=[75083d369f37e55eadef4305dfe0c535]
class to.ResultList--><g id="elem_to.ResultList"><rect fill="#F1F1F1" height="48" id="to.ResultList" rx="2.5" ry="2.5" style="stroke:#181818;stroke-width:0.5;" width="93" x="128.5" y="1042.5"/><ellipse cx="143.5" cy="1058.5" fill="#ADD1B2" rx="11" ry="11" style="stroke:#181818;stroke-width:1.0;"/><path d="M142.8594,1062.2813 Q143.6563,1062.2813 144.2188,1062.0938 Q144.7969,1061.8906 145.0313,1061.6719 Q145.2813,1061.4375 145.5156,1061.25 Q145.7656,1061.0469 145.9844,1061.0469 Q146.3281,1061.0469 146.5781,1061.3125 Q146.8438,1061.5625 146.8438,1061.8906 Q146.8438,1062.625 145.6719,1063.3125 Q144.5156,1063.9844 142.8125,1063.9844 Q140.6563,1063.9844 139.2344,1062.7188 Q137.8125,1061.4531 137.8125,1059.5156 L137.8125,1058.3906 Q137.8125,1056.3594 139.1406,1054.9844 Q140.4688,1053.5938 142.4375,1053.5938 Q143.625,1053.5938 144.8438,1054.1719 L145.0156,1054.25 Q145.3125,1053.8438 145.7344,1053.8438 Q146.2188,1053.8438 146.3906,1054.1406 Q146.5781,1054.4219 146.5781,1054.9688 L146.5781,1056.3906 Q146.5781,1057.5156 145.7344,1057.5156 Q145.4219,1057.5156 145.2188,1057.3438 Q145.0313,1057.1719 144.9844,1057.0313 Q144.9531,1056.875 144.9063,1056.6094 Q144.7969,1056.0938 144.2813,1055.7813 Q143.7656,1055.4688 143.3125,1055.3906 Q142.875,1055.2969 142.5,1055.2969 Q141.2188,1055.2969 140.3594,1056.1719 Q139.5156,1057.0469 139.5156,1058.3906 L139.5156,1059.4844 Q139.5156,1060.7656 140.4219,1061.5313 Q141.3281,1062.2813 142.8594,1062.2813 Z " fill="#000000"/><text fill="#000000" font-family="sans-serif" font-size="14" lengthAdjust="spacing" textLength="61" x="157.5" y="1064.1">ResultList</text><line style="stroke:#181818;stroke-width:0.5;" x1="129.5" x2="220.5" y1="1074.5" y2="1074.5"/><line style="stroke:#181818;stroke-width:0.5;" x1="129.5" x2="220.5" y1="1082.5" y2="1082.5"/></g><!--MD5=[802b8ec96140f74d491c11f54def2bb4]
class to.Extended--><g id="elem_to.Extended"><rect codeLine="63" fill="#F1F1F1" height="64.7999" id="to.Extended" rx="2.5" ry="2.5" style="stroke:#181818;stroke-width:0.5;" width="148" x="257" y="1034"/><ellipse cx="297.2" cy="1050" fill="#B4A7E5" rx="11" ry="11" style="stroke:#181818;stroke-width:1.0;"/><path d="M299.8719,1053.2969 Q300.4188,1053.2969 300.7,1053.4844 Q300.9813,1053.6563 300.9813,1054.1563 Q300.9813,1055 299.8719,1055 L294.7313,1055 Q293.6063,1055 293.6063,1054.1563 Q293.6063,1053.6563 293.8875,1053.4844 Q294.1844,1053.2969 294.7313,1053.2969 L296.45,1053.2969 L296.45,1046.7813 L294.7313,1046.7813 Q293.6063,1046.7813 293.6063,1045.9375 Q293.6063,1045.4531 293.8875,1045.2813 Q294.1844,1045.0938 294.7313,1045.0938 L299.8719,1045.0938 Q300.4188,1045.0938 300.7,1045.2813 Q300.9813,1045.4531 300.9813,1045.9375 Q300.9813,1046.7813 299.8719,1046.7813 L298.1531,1046.7813 L298.1531,1053.2969 L299.8719,1053.2969 Z " fill="#000000"/><text fill="#000000" font-family="sans-serif" font-size="14" font-style="italic" lengthAdjust="spacing" textLength="60" x="316.8" y="1055.6">Extended</text><line style="stroke:#181818;stroke-width:0.5;" x1="258" x2="404" y1="1066" y2="1066"/><text fill="#000000" font-family="sans-serif" font-size="14" lengthAdjust="spacing" textLength="136" x="263" y="1083.9999">extensions:Extensions</text><line style="stroke:#181818;stroke-width:0.5;" x1="258" x2="404" y1="1090.7999" y2="1090.7999"/></g><!--MD5=[4b3b64e2f661de805ecbdda138a2b7b5]
class to.Property--><g id="elem_to.Property"><rect fill="#F1F1F1" height="48" id="to.Property" rx="2.5" ry="2.5" style="stroke:#181818;stroke-width:0.5;" width="84" x="22" y="1216.5"/><ellipse cx="37" cy="1232.5" fill="#ADD1B2" rx="11" ry="11" style="stroke:#181818;stroke-width:1.0;"/><path d="M36.3594,1236.2813 Q37.1563,1236.2813 37.7188,1236.0938 Q38.2969,1235.8906 38.5313,1235.6719 Q38.7813,1235.4375 39.0156,1235.25 Q39.2656,1235.0469 39.4844,1235.0469 Q39.8281,1235.0469 40.0781,1235.3125 Q40.3438,1235.5625 40.3438,1235.8906 Q40.3438,1236.625 39.1719,1237.3125 Q38.0156,1237.9844 36.3125,1237.9844 Q34.1563,1237.9844 32.7344,1236.7188 Q31.3125,1235.4531 31.3125,1233.5156 L31.3125,1232.3906 Q31.3125,1230.3594 32.6406,1228.9844 Q33.9688,1227.5938 35.9375,1227.5938 Q37.125,1227.5938 38.3438,1228.1719 L38.5156,1228.25 Q38.8125,1227.8438 39.2344,1227.8438 Q39.7188,1227.8438 39.8906,1228.1406 Q40.0781,1228.4219 40.0781,1228.9688 L40.0781,1230.3906 Q40.0781,1231.5156 39.2344,1231.5156 Q38.9219,1231.5156 38.7188,1231.3438 Q38.5313,1231.1719 38.4844,1231.0313 Q38.4531,1230.875 38.4063,1230.6094 Q38.2969,1230.0938 37.7813,1229.7813 Q37.2656,1229.4688 36.8125,1229.3906 Q36.375,1229.2969 36,1229.2969 Q34.7188,1229.2969 33.8594,1230.1719 Q33.0156,1231.0469 33.0156,1232.3906 L33.0156,1233.4844 Q33.0156,1234.7656 33.9219,1235.5313 Q34.8281,1236.2813 36.3594,1236.2813 Z " fill="#000000"/><text fill="#000000" font-family="sans-serif" font-size="14" lengthAdjust="spacing" textLength="52" x="51" y="1238.1">Property</text><line style="stroke:#181818;stroke-width:0.5;" x1="23" x2="105" y1="1248.5" y2="1248.5"/><line style="stroke:#181818;stroke-width:0.5;" x1="23" x2="105" y1="1256.5" y2="1256.5"/></g><!--MD5=[8c3e8a00713e40d480934de680816730]
class to.TObject--><g id="elem_to.TObject"><rect fill="#F1F1F1" height="48" id="to.TObject" rx="2.5" ry="2.5" style="stroke:#181818;stroke-width:0.5;" width="81" x="141.5" y="1216.5"/><ellipse cx="156.5" cy="1232.5" fill="#ADD1B2" rx="11" ry="11" style="stroke:#181818;stroke-width:1.0;"/><path d="M155.8594,1236.2813 Q156.6563,1236.2813 157.2188,1236.0938 Q157.7969,1235.8906 158.0313,1235.6719 Q158.2813,1235.4375 158.5156,1235.25 Q158.7656,1235.0469 158.9844,1235.0469 Q159.3281,1235.0469 159.5781,1235.3125 Q159.8438,1235.5625 159.8438,1235.8906 Q159.8438,1236.625 158.6719,1237.3125 Q157.5156,1237.9844 155.8125,1237.9844 Q153.6563,1237.9844 152.2344,1236.7188 Q150.8125,1235.4531 150.8125,1233.5156 L150.8125,1232.3906 Q150.8125,1230.3594 152.1406,1228.9844 Q153.4688,1227.5938 155.4375,1227.5938 Q156.625,1227.5938 157.8438,1228.1719 L158.0156,1228.25 Q158.3125,1227.8438 158.7344,1227.8438 Q159.2188,1227.8438 159.3906,1228.1406 Q159.5781,1228.4219 159.5781,1228.9688 L159.5781,1230.3906 Q159.5781,1231.5156 158.7344,1231.5156 Q158.4219,1231.5156 158.2188,1231.3438 Q158.0313,1231.1719 157.9844,1231.0313 Q157.9531,1230.875 157.9063,1230.6094 Q157.7969,1230.0938 157.2813,1229.7813 Q156.7656,1229.4688 156.3125,1229.3906 Q155.875,1229.2969 155.5,1229.2969 Q154.2188,1229.2969 153.3594,1230.1719 Q152.5156,1231.0469 152.5156,1232.3906 L152.5156,1233.4844 Q152.5156,1234.7656 153.4219,1235.5313 Q154.3281,1236.2813 155.8594,1236.2813 Z " fill="#000000"/><text fill="#000000" font-family="sans-serif" font-size="14" lengthAdjust="spacing" textLength="49" x="170.5" y="1238.1">TObject</text><line style="stroke:#181818;stroke-width:0.5;" x1="142.5" x2="221.5" y1="1248.5" y2="1248.5"/><line style="stroke:#181818;stroke-width:0.5;" x1="142.5" x2="221.5" y1="1256.5" y2="1256.5"/></g><!--MD5=[ecede42f2e3c94d38b6272a55fc9c623]
class to.Service--><g id="elem_to.Service"><rect fill="#F1F1F1" height="48" id="to.Service" rx="2.5" ry="2.5" style="stroke:#181818;stroke-width:0.5;" width="77" x="257.5" y="1216.5"/><ellipse cx="272.5" cy="1232.5" fill="#ADD1B2" rx="11" ry="11" style="stroke:#181818;stroke-width:1.0;"/><path d="M271.8594,1236.2813 Q272.6563,1236.2813 273.2188,1236.0938 Q273.7969,1235.8906 274.0313,1235.6719 Q274.2813,1235.4375 274.5156,1235.25 Q274.7656,1235.0469 274.9844,1235.0469 Q275.3281,1235.0469 275.5781,1235.3125 Q275.8438,1235.5625 275.8438,1235.8906 Q275.8438,1236.625 274.6719,1237.3125 Q273.5156,1237.9844 271.8125,1237.9844 Q269.6563,1237.9844 268.2344,1236.7188 Q266.8125,1235.4531 266.8125,1233.5156 L266.8125,1232.3906 Q266.8125,1230.3594 268.1406,1228.9844 Q269.4688,1227.5938 271.4375,1227.5938 Q272.625,1227.5938 273.8438,1228.1719 L274.0156,1228.25 Q274.3125,1227.8438 274.7344,1227.8438 Q275.2188,1227.8438 275.3906,1228.1406 Q275.5781,1228.4219 275.5781,1228.9688 L275.5781,1230.3906 Q275.5781,1231.5156 274.7344,1231.5156 Q274.4219,1231.5156 274.2188,1231.3438 Q274.0313,1231.1719 273.9844,1231.0313 Q273.9531,1230.875 273.9063,1230.6094 Q273.7969,1230.0938 273.2813,1229.7813 Q272.7656,1229.4688 272.3125,1229.3906 Q271.875,1229.2969 271.5,1229.2969 Q270.2188,1229.2969 269.3594,1230.1719 Q268.5156,1231.0469 268.5156,1232.3906 L268.5156,1233.4844 Q268.5156,1234.7656 269.4219,1235.5313 Q270.3281,1236.2813 271.8594,1236.2813 Z " fill="#000000"/><text fill="#000000" font-family="sans-serif" font-size="14" lengthAdjust="spacing" textLength="45" x="286.5" y="1238.1">Service</text><line style="stroke:#181818;stroke-width:0.5;" x1="258.5" x2="333.5" y1="1248.5" y2="1248.5"/><line style="stroke:#181818;stroke-width:0.5;" x1="258.5" x2="333.5" y1="1256.5" y2="1256.5"/></g><!--MD5=[2360f29975458341e81be0af6e595b66]
class to.Member--><g id="elem_to.Member"><rect fill="#F1F1F1" height="48" id="to.Member" rx="2.5" ry="2.5" style="stroke:#181818;stroke-width:0.5;" width="82" x="293" y="1327.5"/><ellipse cx="308" cy="1343.5" fill="#ADD1B2" rx="11" ry="11" style="stroke:#181818;stroke-width:1.0;"/><path d="M307.3594,1347.2813 Q308.1563,1347.2813 308.7188,1347.0938 Q309.2969,1346.8906 309.5313,1346.6719 Q309.7813,1346.4375 310.0156,1346.25 Q310.2656,1346.0469 310.4844,1346.0469 Q310.8281,1346.0469 311.0781,1346.3125 Q311.3438,1346.5625 311.3438,1346.8906 Q311.3438,1347.625 310.1719,1348.3125 Q309.0156,1348.9844 307.3125,1348.9844 Q305.1563,1348.9844 303.7344,1347.7188 Q302.3125,1346.4531 302.3125,1344.5156 L302.3125,1343.3906 Q302.3125,1341.3594 303.6406,1339.9844 Q304.9688,1338.5938 306.9375,1338.5938 Q308.125,1338.5938 309.3438,1339.1719 L309.5156,1339.25 Q309.8125,1338.8438 310.2344,1338.8438 Q310.7188,1338.8438 310.8906,1339.1406 Q311.0781,1339.4219 311.0781,1339.9688 L311.0781,1341.3906 Q311.0781,1342.5156 310.2344,1342.5156 Q309.9219,1342.5156 309.7188,1342.3438 Q309.5313,1342.1719 309.4844,1342.0313 Q309.4531,1341.875 309.4063,1341.6094 Q309.2969,1341.0938 308.7813,1340.7813 Q308.2656,1340.4688 307.8125,1340.3906 Q307.375,1340.2969 307,1340.2969 Q305.7188,1340.2969 304.8594,1341.1719 Q304.0156,1342.0469 304.0156,1343.3906 L304.0156,1344.4844 Q304.0156,1345.7656 304.9219,1346.5313 Q305.8281,1347.2813 307.3594,1347.2813 Z " fill="#000000"/><text fill="#000000" font-family="sans-serif" font-size="14" lengthAdjust="spacing" textLength="50" x="322" y="1349.1">Member</text><line style="stroke:#181818;stroke-width:0.5;" x1="294" x2="374" y1="1359.5" y2="1359.5"/><line style="stroke:#181818;stroke-width:0.5;" x1="294" x2="374" y1="1367.5" y2="1367.5"/></g><!--MD5=[43ef6731b7cbc091f6f1344f4cedfefa]
class to.layout.Layout--><g id="elem_to.layout.Layout"><rect fill="#F1F1F1" height="48" id="to.layout.Layout" rx="2.5" ry="2.5" style="stroke:#181818;stroke-width:0.5;" width="74" x="627" y="1216.5"/><ellipse cx="642" cy="1232.5" fill="#ADD1B2" rx="11" ry="11" style="stroke:#181818;stroke-width:1.0;"/><path d="M641.3594,1236.2813 Q642.1563,1236.2813 642.7188,1236.0938 Q643.2969,1235.8906 643.5313,1235.6719 Q643.7813,1235.4375 644.0156,1235.25 Q644.2656,1235.0469 644.4844,1235.0469 Q644.8281,1235.0469 645.0781,1235.3125 Q645.3438,1235.5625 645.3438,1235.8906 Q645.3438,1236.625 644.1719,1237.3125 Q643.0156,1237.9844 641.3125,1237.9844 Q639.1563,1237.9844 637.7344,1236.7188 Q636.3125,1235.4531 636.3125,1233.5156 L636.3125,1232.3906 Q636.3125,1230.3594 637.6406,1228.9844 Q638.9688,1227.5938 640.9375,1227.5938 Q642.125,1227.5938 643.3438,1228.1719 L643.5156,1228.25 Q643.8125,1227.8438 644.2344,1227.8438 Q644.7188,1227.8438 644.8906,1228.1406 Q645.0781,1228.4219 645.0781,1228.9688 L645.0781,1230.3906 Q645.0781,1231.5156 644.2344,1231.5156 Q643.9219,1231.5156 643.7188,1231.3438 Q643.5313,1231.1719 643.4844,1231.0313 Q643.4531,1230.875 643.4063,1230.6094 Q643.2969,1230.0938 642.7813,1229.7813 Q642.2656,1229.4688 641.8125,1229.3906 Q641.375,1229.2969 641,1229.2969 Q639.7188,1229.2969 638.8594,1230.1719 Q638.0156,1231.0469 638.0156,1232.3906 L638.0156,1233.4844 Q638.0156,1234.7656 638.9219,1235.5313 Q639.8281,1236.2813 641.3594,1236.2813 Z " fill="#000000"/><text fill="#000000" font-family="sans-serif" font-size="14" lengthAdjust="spacing" textLength="42" x="656" y="1238.1">Layout</text><line style="stroke:#181818;stroke-width:0.5;" x1="628" x2="700" y1="1248.5" y2="1248.5"/><line style="stroke:#181818;stroke-width:0.5;" x1="628" x2="700" y1="1256.5" y2="1256.5"/></g><!--MD5=[3b2d7f27bec20edac89f8d9c90732cb8]
class XHR--><g id="elem_XHR"><rect codeLine="1" fill="#F1F1F1" height="64.7999" id="XHR" rx="2.5" ry="2.5" style="stroke:#181818;stroke-width:0.5;" width="61" x="547.5" y="165.5"/><ellipse cx="562.5" cy="181.5" fill="#ADD1B2" rx="11" ry="11" style="stroke:#181818;stroke-width:1.0;"/><path d="M561.8594,185.2813 Q562.6563,185.2813 563.2188,185.0938 Q563.7969,184.8906 564.0313,184.6719 Q564.2813,184.4375 564.5156,184.25 Q564.7656,184.0469 564.9844,184.0469 Q565.3281,184.0469 565.5781,184.3125 Q565.8438,184.5625 565.8438,184.8906 Q565.8438,185.625 564.6719,186.3125 Q563.5156,186.9844 561.8125,186.9844 Q559.6563,186.9844 558.2344,185.7188 Q556.8125,184.4531 556.8125,182.5156 L556.8125,181.3906 Q556.8125,179.3594 558.1406,177.9844 Q559.4688,176.5938 561.4375,176.5938 Q562.625,176.5938 563.8438,177.1719 L564.0156,177.25 Q564.3125,176.8438 564.7344,176.8438 Q565.2188,176.8438 565.3906,177.1406 Q565.5781,177.4219 565.5781,177.9688 L565.5781,179.3906 Q565.5781,180.5156 564.7344,180.5156 Q564.4219,180.5156 564.2188,180.3438 Q564.0313,180.1719 563.9844,180.0313 Q563.9531,179.875 563.9063,179.6094 Q563.7969,179.0938 563.2813,178.7813 Q562.7656,178.4688 562.3125,178.3906 Q561.875,178.2969 561.5,178.2969 Q560.2188,178.2969 559.3594,179.1719 Q558.5156,180.0469 558.5156,181.3906 L558.5156,182.4844 Q558.5156,183.7656 559.4219,184.5313 Q560.3281,185.2813 561.8594,185.2813 Z " fill="#000000"/><text fill="#000000" font-family="sans-serif" font-size="14" lengthAdjust="spacing" textLength="29" x="576.5" y="187.1">XHR</text><line style="stroke:#181818;stroke-width:0.5;" x1="548.5" x2="607.5" y1="197.5" y2="197.5"/><line style="stroke:#181818;stroke-width:0.5;" x1="548.5" x2="607.5" y1="205.5" y2="205.5"/><text fill="#000000" font-family="sans-serif" font-size="14" lengthAdjust="spacing" textLength="49" x="553.5" y="223.4999">invoke()</text></g><!--MD5=[36f4d8c507a01d05cb42b0aec07b28f8]
class EventStore--><g id="elem_EventStore"><rect codeLine="5" fill="#F1F1F1" height="141.1997" id="EventStore" rx="2.5" ry="2.5" style="stroke:#181818;stroke-width:0.5;" width="99" x="643.5" y="127.5"/><ellipse cx="658.5" cy="148.1" fill="#FF7700" rx="11" ry="11" style="stroke:#A80036;stroke-width:1.0;"/><path d="M661.4531,142.9438 Q661.9688,142.9438 662.125,143.2406 Q662.2813,143.5219 662.2813,144.0688 L662.2813,145.5688 Q662.2813,146.7094 661.4531,146.7094 Q661.3125,146.7094 661.2031,146.6938 Q661.0938,146.6625 661.0156,146.6156 Q660.9531,146.5688 660.875,146.4906 Q660.8125,146.4125 660.7656,146.3656 Q660.7344,146.3188 660.7031,146.225 Q660.6719,146.1156 660.6563,146.0688 Q660.6563,146.0219 660.625,145.9125 Q660.6094,145.8031 660.6094,145.7875 Q660.4844,145.2875 659.9219,144.975 Q659.375,144.6469 658.5781,144.6469 Q657.7813,144.6469 657.2188,145.0219 Q656.6563,145.3969 656.6563,145.9438 Q656.6563,146.5219 657.2188,146.8344 Q657.7813,147.1469 658.5313,147.2406 Q659.2813,147.3344 660.1875,147.5844 Q661.1094,147.8344 661.6406,148.2563 Q662.6406,149.0531 662.6406,150.3813 Q662.6406,151.7094 661.5625,152.5219 Q660.5,153.3344 658.75,153.3344 Q657.3438,153.3344 656.0938,152.6781 Q655.7656,153.0844 655.4219,153.0844 Q654.5469,153.0844 654.5469,151.9594 L654.5469,150.8344 Q654.5469,150.2719 654.7344,149.9906 Q654.9219,149.7094 655.4063,149.7094 Q655.5625,149.7094 655.6875,149.7563 Q655.8125,149.7875 655.8906,149.8656 Q655.9844,149.9281 656.0313,149.9906 Q656.0938,150.0375 656.1406,150.1469 Q656.1875,150.2406 656.2031,150.3031 Q656.2188,150.35 656.2344,150.4438 Q656.2656,150.5219 656.2656,150.5375 Q656.3906,150.9906 657.0781,151.3188 Q657.7813,151.6313 658.6406,151.6313 Q659.5938,151.6313 660.2344,151.2719 Q660.875,150.8969 660.875,150.35 Q660.875,149.8344 660.375,149.5375 Q659.875,149.225 659.2188,149.1313 Q658.5625,149.0219 657.6875,148.8188 Q656.8125,148.6156 656.2813,148.3188 Q655.6406,147.9438 655.2656,147.3188 Q654.8906,146.6938 654.8906,145.9594 Q654.8906,144.6625 655.9375,143.8031 Q657,142.9438 658.5781,142.9438 Q659.8906,142.9438 660.7969,143.5063 Q660.9219,143.1938 661.0625,143.0688 Q661.2031,142.9438 661.4531,142.9438 Z " fill="#000000"/><text fill="#000000" font-family="sans-serif" font-size="12" font-style="italic" lengthAdjust="spacing" textLength="60" x="676" y="144.5001">«Singleton»</text><text fill="#000000" font-family="sans-serif" font-size="14" lengthAdjust="spacing" textLength="67" x="672.5" y="160.9">EventStore</text><line style="stroke:#181818;stroke-width:0.5;" x1="644.5" x2="741.5" y1="168.7" y2="168.7"/><text fill="#000000" font-family="sans-serif" font-size="14" lengthAdjust="spacing" textLength="86" x="649.5" y="186.7">log:LogEntry[]</text><line style="stroke:#181818;stroke-width:0.5;" x1="644.5" x2="741.5" y1="193.5" y2="193.5"/><text fill="#000000" font-family="sans-serif" font-size="14" lengthAdjust="spacing" textLength="38" x="649.5" y="211.4999">start()</text><text fill="#000000" font-family="sans-serif" font-size="14" lengthAdjust="spacing" textLength="33" x="649.5" y="228.2998">end()</text><text fill="#000000" font-family="sans-serif" font-size="14" lengthAdjust="spacing" textLength="37" x="649.5" y="245.0997">fault()</text><text fill="#000000" font-family="sans-serif" font-size="14" lengthAdjust="spacing" textLength="57" x="649.5" y="261.8997">find(href)</text></g><!--MD5=[cb32f8b1b756f5d42df70837c47813f1]
class LogEntry--><g id="elem_LogEntry"><rect codeLine="13" fill="#F1F1F1" height="199.1993" id="LogEntry" rx="2.5" ry="2.5" style="stroke:#181818;stroke-width:0.5;" width="153" x="604.5" y="465.5"/><ellipse cx="648.75" cy="481.5" fill="#ADD1B2" rx="11" ry="11" style="stroke:#181818;stroke-width:1.0;"/><path d="M648.1094,485.2813 Q648.9063,485.2813 649.4688,485.0938 Q650.0469,484.8906 650.2813,484.6719 Q650.5313,484.4375 650.7656,484.25 Q651.0156,484.0469 651.2344,484.0469 Q651.5781,484.0469 651.8281,484.3125 Q652.0938,484.5625 652.0938,484.8906 Q652.0938,485.625 650.9219,486.3125 Q649.7656,486.9844 648.0625,486.9844 Q645.9063,486.9844 644.4844,485.7188 Q643.0625,484.4531 643.0625,482.5156 L643.0625,481.3906 Q643.0625,479.3594 644.3906,477.9844 Q645.7188,476.5938 647.6875,476.5938 Q648.875,476.5938 650.0938,477.1719 L650.2656,477.25 Q650.5625,476.8438 650.9844,476.8438 Q651.4688,476.8438 651.6406,477.1406 Q651.8281,477.4219 651.8281,477.9688 L651.8281,479.3906 Q651.8281,480.5156 650.9844,480.5156 Q650.6719,480.5156 650.4688,480.3438 Q650.2813,480.1719 650.2344,480.0313 Q650.2031,479.875 650.1563,479.6094 Q650.0469,479.0938 649.5313,478.7813 Q649.0156,478.4688 648.5625,478.3906 Q648.125,478.2969 647.75,478.2969 Q646.4688,478.2969 645.6094,479.1719 Q644.7656,480.0469 644.7656,481.3906 L644.7656,482.4844 Q644.7656,483.7656 645.6719,484.5313 Q646.5781,485.2813 648.1094,485.2813 Z " fill="#000000"/><text fill="#000000" font-family="sans-serif" font-size="14" lengthAdjust="spacing" textLength="56" x="669.25" y="487.1">LogEntry</text><line style="stroke:#181818;stroke-width:0.5;" x1="605.5" x2="756.5" y1="497.5" y2="497.5"/><text fill="#000000" font-family="sans-serif" font-size="14" lengthAdjust="spacing" textLength="46" x="610.5" y="515.4999">url:Href</text><text fill="#000000" font-family="sans-serif" font-size="14" lengthAdjust="spacing" textLength="62" x="610.5" y="532.2999">title:String</text><text fill="#000000" font-family="sans-serif" font-size="14" lengthAdjust="spacing" textLength="89" x="610.5" y="549.0998">startedAt:Date</text><text fill="#000000" font-family="sans-serif" font-size="14" lengthAdjust="spacing" textLength="97" x="610.5" y="565.8997">updatedAt:Date</text><text fill="#000000" font-family="sans-serif" font-size="14" lengthAdjust="spacing" textLength="87" x="610.5" y="582.6996">request:String</text><text fill="#000000" font-family="sans-serif" font-size="14" lengthAdjust="spacing" textLength="97" x="610.5" y="599.4996">response:String</text><text fill="#000000" font-family="sans-serif" font-size="14" lengthAdjust="spacing" textLength="133" x="610.5" y="616.2995">object:TransferObject</text><text fill="#000000" font-family="sans-serif" font-size="14" lengthAdjust="spacing" textLength="141" x="610.5" y="633.0994">aggregator:Aggregator</text><text fill="#000000" font-family="sans-serif" font-size="14" lengthAdjust="spacing" textLength="80" x="610.5" y="649.8994">cacheHits:int</text><line style="stroke:#181818;stroke-width:0.5;" x1="605.5" x2="756.5" y1="656.6993" y2="656.6993"/></g><!--MD5=[1baf32c238e7b10acca77db68c6197d6]
class TransferObject--><g id="elem_TransferObject"><rect codeLine="51" fill="#F1F1F1" height="48" id="TransferObject" rx="2.5" ry="2.5" style="stroke:#181818;stroke-width:0.5;" width="127" x="446.5" y="734"/><ellipse cx="461.5" cy="750" fill="#B4A7E5" rx="11" ry="11" style="stroke:#181818;stroke-width:1.0;"/><path d="M464.1719,753.2969 Q464.7188,753.2969 465,753.4844 Q465.2813,753.6563 465.2813,754.1563 Q465.2813,755 464.1719,755 L459.0313,755 Q457.9063,755 457.9063,754.1563 Q457.9063,753.6563 458.1875,753.4844 Q458.4844,753.2969 459.0313,753.2969 L460.75,753.2969 L460.75,746.7813 L459.0313,746.7813 Q457.9063,746.7813 457.9063,745.9375 Q457.9063,745.4531 458.1875,745.2813 Q458.4844,745.0938 459.0313,745.0938 L464.1719,745.0938 Q464.7188,745.0938 465,745.2813 Q465.2813,745.4531 465.2813,745.9375 Q465.2813,746.7813 464.1719,746.7813 L462.4531,746.7813 L462.4531,753.2969 L464.1719,753.2969 Z " fill="#000000"/><text fill="#000000" font-family="sans-serif" font-size="14" font-style="italic" lengthAdjust="spacing" textLength="95" x="475.5" y="755.6">TransferObject</text><line style="stroke:#181818;stroke-width:0.5;" x1="447.5" x2="572.5" y1="766" y2="766"/><line style="stroke:#181818;stroke-width:0.5;" x1="447.5" x2="572.5" y1="774" y2="774"/></g><!--MD5=[c5240e5c49866b6831018b14556465c0]
class Aggregator--><g id="elem_Aggregator"><rect codeLine="74" fill="#F1F1F1" height="64.7999" id="Aggregator" rx="2.5" ry="2.5" style="stroke:#181818;stroke-width:0.5;" width="116" x="758" y="725.5"/><ellipse cx="778.85" cy="741.5" fill="#B4A7E5" rx="11" ry="11" style="stroke:#181818;stroke-width:1.0;"/><path d="M781.5219,744.7969 Q782.0688,744.7969 782.35,744.9844 Q782.6313,745.1563 782.6313,745.6563 Q782.6313,746.5 781.5219,746.5 L776.3813,746.5 Q775.2563,746.5 775.2563,745.6563 Q775.2563,745.1563 775.5375,744.9844 Q775.8344,744.7969 776.3813,744.7969 L778.1,744.7969 L778.1,738.2813 L776.3813,738.2813 Q775.2563,738.2813 775.2563,737.4375 Q775.2563,736.9531 775.5375,736.7813 Q775.8344,736.5938 776.3813,736.5938 L781.5219,736.5938 Q782.0688,736.5938 782.35,736.7813 Q782.6313,736.9531 782.6313,737.4375 Q782.6313,738.2813 781.5219,738.2813 L779.8031,738.2813 L779.8031,744.7969 L781.5219,744.7969 Z " fill="#000000"/><text fill="#000000" font-family="sans-serif" font-size="14" font-style="italic" lengthAdjust="spacing" textLength="71" x="794.15" y="747.1">Aggregator</text><line style="stroke:#181818;stroke-width:0.5;" x1="759" x2="873" y1="757.5" y2="757.5"/><line style="stroke:#181818;stroke-width:0.5;" x1="759" x2="873" y1="765.5" y2="765.5"/><text fill="#000000" font-family="sans-serif" font-size="14" lengthAdjust="spacing" textLength="104" x="764" y="783.4999">update(logEntry)</text></g><!--MD5=[c8ff661d8810405741f708d20018b1ce]
class ResponseHandler--><g id="elem_ResponseHandler"><rect codeLine="28" fill="#F1F1F1" height="124.3997" id="ResponseHandler" rx="2.5" ry="2.5" style="stroke:#181818;stroke-width:0.5;" width="201" x="273.5" y="136"/><ellipse cx="288.5" cy="156.6" fill="#ADD1B2" rx="11" ry="11" style="stroke:#181818;stroke-width:1.0;"/><path d="M287.8594,160.3813 Q288.6563,160.3813 289.2188,160.1938 Q289.7969,159.9906 290.0313,159.7719 Q290.2813,159.5375 290.5156,159.35 Q290.7656,159.1469 290.9844,159.1469 Q291.3281,159.1469 291.5781,159.4125 Q291.8438,159.6625 291.8438,159.9906 Q291.8438,160.725 290.6719,161.4125 Q289.5156,162.0844 287.8125,162.0844 Q285.6563,162.0844 284.2344,160.8188 Q282.8125,159.5531 282.8125,157.6156 L282.8125,156.4906 Q282.8125,154.4594 284.1406,153.0844 Q285.4688,151.6938 287.4375,151.6938 Q288.625,151.6938 289.8438,152.2719 L290.0156,152.35 Q290.3125,151.9438 290.7344,151.9438 Q291.2188,151.9438 291.3906,152.2406 Q291.5781,152.5219 291.5781,153.0688 L291.5781,154.4906 Q291.5781,155.6156 290.7344,155.6156 Q290.4219,155.6156 290.2188,155.4438 Q290.0313,155.2719 289.9844,155.1313 Q289.9531,154.975 289.9063,154.7094 Q289.7969,154.1938 289.2813,153.8813 Q288.7656,153.5688 288.3125,153.4906 Q287.875,153.3969 287.5,153.3969 Q286.2188,153.3969 285.3594,154.2719 Q284.5156,155.1469 284.5156,156.4906 L284.5156,157.5844 Q284.5156,158.8656 285.4219,159.6313 Q286.3281,160.3813 287.8594,160.3813 Z " fill="#000000"/><text fill="#000000" font-family="sans-serif" font-size="12" font-style="italic" lengthAdjust="spacing" textLength="173" x="300.5" y="153.0001">«Facade,ChainOfResponsibility»</text><text fill="#000000" font-family="sans-serif" font-size="14" lengthAdjust="spacing" textLength="110" x="332" y="169.4">ResponseHandler</text><line style="stroke:#181818;stroke-width:0.5;" x1="274.5" x2="473.5" y1="177.2" y2="177.2"/><line style="stroke:#181818;stroke-width:0.5;" x1="274.5" x2="473.5" y1="185.2" y2="185.2"/><text fill="#000000" font-family="sans-serif" font-size="14" lengthAdjust="spacing" textLength="108" x="279.5" y="203.2">handle(LogEntry)</text><text fill="#000000" font-family="sans-serif" font-size="14" lengthAdjust="spacing" textLength="102" x="279.5" y="219.9999">canHandle(json)</text><text fill="#000000" font-family="sans-serif" font-size="14" lengthAdjust="spacing" textLength="69" x="279.5" y="236.7998">doHandle()</text><text fill="#000000" font-family="sans-serif" font-size="14" lengthAdjust="spacing" textLength="70" x="279.5" y="253.5997">parse(json)</text></g><!--MD5=[7159127f00184f1ac18604399a59f018]
class CollectionAggregator--><g id="elem_CollectionAggregator"><rect codeLine="77" fill="#F1F1F1" height="64.7999" id="CollectionAggregator" rx="2.5" ry="2.5" style="stroke:#181818;stroke-width:0.5;" width="160" x="675" y="891.5"/><ellipse cx="690" cy="907.5" fill="#ADD1B2" rx="11" ry="11" style="stroke:#181818;stroke-width:1.0;"/><path d="M689.3594,911.2813 Q690.1563,911.2813 690.7188,911.0938 Q691.2969,910.8906 691.5313,910.6719 Q691.7813,910.4375 692.0156,910.25 Q692.2656,910.0469 692.4844,910.0469 Q692.8281,910.0469 693.0781,910.3125 Q693.3438,910.5625 693.3438,910.8906 Q693.3438,911.625 692.1719,912.3125 Q691.0156,912.9844 689.3125,912.9844 Q687.1563,912.9844 685.7344,911.7188 Q684.3125,910.4531 684.3125,908.5156 L684.3125,907.3906 Q684.3125,905.3594 685.6406,903.9844 Q686.9688,902.5938 688.9375,902.5938 Q690.125,902.5938 691.3438,903.1719 L691.5156,903.25 Q691.8125,902.8438 692.2344,902.8438 Q692.7188,902.8438 692.8906,903.1406 Q693.0781,903.4219 693.0781,903.9688 L693.0781,905.3906 Q693.0781,906.5156 692.2344,906.5156 Q691.9219,906.5156 691.7188,906.3438 Q691.5313,906.1719 691.4844,906.0313 Q691.4531,905.875 691.4063,905.6094 Q691.2969,905.0938 690.7813,904.7813 Q690.2656,904.4688 689.8125,904.3906 Q689.375,904.2969 689,904.2969 Q687.7188,904.2969 686.8594,905.1719 Q686.0156,906.0469 686.0156,907.3906 L686.0156,908.4844 Q686.0156,909.7656 686.9219,910.5313 Q687.8281,911.2813 689.3594,911.2813 Z " fill="#000000"/><text fill="#000000" font-family="sans-serif" font-size="14" lengthAdjust="spacing" textLength="128" x="704" y="913.1">CollectionAggregator</text><line style="stroke:#181818;stroke-width:0.5;" x1="676" x2="834" y1="923.5" y2="923.5"/><rect fill="none" height="6" style="stroke:#C82930;stroke-width:1.0;" width="6" x="683" y="931.5"/><text fill="#000000" font-family="sans-serif" font-size="14" lengthAdjust="spacing" textLength="83" x="695" y="941.4999">list:ObjectList</text><line style="stroke:#181818;stroke-width:0.5;" x1="676" x2="834" y1="948.2999" y2="948.2999"/></g><!--MD5=[efa4f010a0e7c7395f45ac8dfaa8f5b8]
class ObjectList--><g id="elem_ObjectList"><rect codeLine="86" fill="#F1F1F1" height="98.3998" id="ObjectList" rx="2.5" ry="2.5" style="stroke:#181818;stroke-width:0.5;" width="136" x="681" y="1017.5"/><ellipse cx="714.9" cy="1033.5" fill="#ADD1B2" rx="11" ry="11" style="stroke:#181818;stroke-width:1.0;"/><path d="M714.2594,1037.2813 Q715.0563,1037.2813 715.6188,1037.0938 Q716.1969,1036.8906 716.4313,1036.6719 Q716.6813,1036.4375 716.9156,1036.25 Q717.1656,1036.0469 717.3844,1036.0469 Q717.7281,1036.0469 717.9781,1036.3125 Q718.2438,1036.5625 718.2438,1036.8906 Q718.2438,1037.625 717.0719,1038.3125 Q715.9156,1038.9844 714.2125,1038.9844 Q712.0563,1038.9844 710.6344,1037.7188 Q709.2125,1036.4531 709.2125,1034.5156 L709.2125,1033.3906 Q709.2125,1031.3594 710.5406,1029.9844 Q711.8688,1028.5938 713.8375,1028.5938 Q715.025,1028.5938 716.2438,1029.1719 L716.4156,1029.25 Q716.7125,1028.8438 717.1344,1028.8438 Q717.6188,1028.8438 717.7906,1029.1406 Q717.9781,1029.4219 717.9781,1029.9688 L717.9781,1031.3906 Q717.9781,1032.5156 717.1344,1032.5156 Q716.8219,1032.5156 716.6188,1032.3438 Q716.4313,1032.1719 716.3844,1032.0313 Q716.3531,1031.875 716.3063,1031.6094 Q716.1969,1031.0938 715.6813,1030.7813 Q715.1656,1030.4688 714.7125,1030.3906 Q714.275,1030.2969 713.9,1030.2969 Q712.6188,1030.2969 711.7594,1031.1719 Q710.9156,1032.0469 710.9156,1033.3906 L710.9156,1034.4844 Q710.9156,1035.7656 711.8219,1036.5313 Q712.7281,1037.2813 714.2594,1037.2813 Z " fill="#000000"/><text fill="#000000" font-family="sans-serif" font-size="14" lengthAdjust="spacing" textLength="62" x="733.1" y="1039.1">ObjectList</text><line style="stroke:#181818;stroke-width:0.5;" x1="682" x2="816" y1="1049.5" y2="1049.5"/><text fill="#000000" font-family="sans-serif" font-size="14" lengthAdjust="spacing" textLength="110" x="701" y="1067.4999">list:ObjectAdapter</text><rect fill="none" height="6" style="stroke:#C82930;stroke-width:1.0;" width="6" x="689" y="1074.2999"/><text fill="#000000" font-family="sans-serif" font-size="14" lengthAdjust="spacing" textLength="43" x="701" y="1084.2999">limit:int</text><rect fill="none" height="6" style="stroke:#C82930;stroke-width:1.0;" width="6" x="689" y="1091.0999"/><text fill="#000000" font-family="sans-serif" font-size="14" lengthAdjust="spacing" textLength="83" x="701" y="1101.0998">layout:Layout</text><line style="stroke:#181818;stroke-width:0.5;" x1="682" x2="816" y1="1107.8998" y2="1107.8998"/></g><!--MD5=[3dd54cafc866609b722581d188472fec]
class NavigationAggregator--><g id="elem_NavigationAggregator"><rect codeLine="83" fill="#F1F1F1" height="48" id="NavigationAggregator" rx="2.5" ry="2.5" style="stroke:#181818;stroke-width:0.5;" width="167" x="870.5" y="900"/><ellipse cx="885.5" cy="916" fill="#ADD1B2" rx="11" ry="11" style="stroke:#181818;stroke-width:1.0;"/><path d="M884.8594,919.7813 Q885.6563,919.7813 886.2188,919.5938 Q886.7969,919.3906 887.0313,919.1719 Q887.2813,918.9375 887.5156,918.75 Q887.7656,918.5469 887.9844,918.5469 Q888.3281,918.5469 888.5781,918.8125 Q888.8438,919.0625 888.8438,919.3906 Q888.8438,920.125 887.6719,920.8125 Q886.5156,921.4844 884.8125,921.4844 Q882.6563,921.4844 881.2344,920.2188 Q879.8125,918.9531 879.8125,917.0156 L879.8125,915.8906 Q879.8125,913.8594 881.1406,912.4844 Q882.4688,911.0938 884.4375,911.0938 Q885.625,911.0938 886.8438,911.6719 L887.0156,911.75 Q887.3125,911.3438 887.7344,911.3438 Q888.2188,911.3438 888.3906,911.6406 Q888.5781,911.9219 888.5781,912.4688 L888.5781,913.8906 Q888.5781,915.0156 887.7344,915.0156 Q887.4219,915.0156 887.2188,914.8438 Q887.0313,914.6719 886.9844,914.5313 Q886.9531,914.375 886.9063,914.1094 Q886.7969,913.5938 886.2813,913.2813 Q885.7656,912.9688 885.3125,912.8906 Q884.875,912.7969 884.5,912.7969 Q883.2188,912.7969 882.3594,913.6719 Q881.5156,914.5469 881.5156,915.8906 L881.5156,916.9844 Q881.5156,918.2656 882.4219,919.0313 Q883.3281,919.7813 884.8594,919.7813 Z " fill="#000000"/><text fill="#000000" font-family="sans-serif" font-size="14" lengthAdjust="spacing" textLength="135" x="899.5" y="921.6">NavigationAggregator</text><line style="stroke:#181818;stroke-width:0.5;" x1="871.5" x2="1036.5" y1="932" y2="932"/><line style="stroke:#181818;stroke-width:0.5;" x1="871.5" x2="1036.5" y1="940" y2="940"/></g><g id="elem_PES"><path d="M659,337.5 L659,378.7 L763,378.7 L763,347.5 L753,337.5 L659,337.5 " fill="#FEFFDD" style="stroke:#181818;stroke-width:0.5;"/><path d="M753,337.5 L753,347.5 L763,347.5 L753,337.5 " fill="#FEFFDD" style="stroke:#181818;stroke-width:1.0;"/><text fill="#000000" font-family="sans-serif" font-size="13" lengthAdjust="spacing" textLength="55" x="665" y="355.5">«Pattern»</text><text fill="#000000" font-family="sans-serif" font-size="13" lengthAdjust="spacing" textLength="83" x="665" y="371.1">EventSourcing</text></g><g id="elem_PR"><path d="M778,177.5 L778,218.7 L854,218.7 L854,187.5 L844,177.5 L778,177.5 " fill="#FEFFDD" style="stroke:#181818;stroke-width:0.5;"/><path d="M844,177.5 L844,187.5 L854,187.5 L844,177.5 " fill="#FEFFDD" style="stroke:#181818;stroke-width:1.0;"/><text fill="#000000" font-family="sans-serif" font-size="13" lengthAdjust="spacing" textLength="55" x="784" y="195.5">«Pattern»</text><text fill="#000000" font-family="sans-serif" font-size="13" lengthAdjust="spacing" textLength="36" x="784" y="211.1">Redux</text></g><g id="elem_PRF"><path d="M896.5,6 L896.5,47.2 A0,0 0 0 0 896.5,47.2 L947,47.2 L951,173.84 L955,47.2 L1005.5,47.2 A0,0 0 0 0 1005.5,47.2 L1005.5,16 L995.5,6 L896.5,6 A0,0 0 0 0 896.5,6 " fill="#FEFFDD" style="stroke:#181818;stroke-width:0.5;"/><path d="M995.5,6 L995.5,16 L1005.5,16 L995.5,6 " fill="#FEFFDD" style="stroke:#181818;stroke-width:0.5;"/><text fill="#000000" font-family="sans-serif" font-size="13" lengthAdjust="spacing" textLength="55" x="902.5" y="24">«Pattern»</text><text fill="#000000" font-family="sans-serif" font-size="13" lengthAdjust="spacing" textLength="88" x="902.5" y="39.6">RemoteFacade</text></g><g id="elem_PTO"><path d="M457,544.5 L457,585.7 A0,0 0 0 0 457,585.7 L506,585.7 L510,733.84 L514,585.7 L563,585.7 A0,0 0 0 0 563,585.7 L563,554.5 L553,544.5 L457,544.5 A0,0 0 0 0 457,544.5 " fill="#FEFFDD" style="stroke:#181818;stroke-width:0.5;"/><path d="M553,544.5 L553,554.5 L563,554.5 L553,544.5 " fill="#FEFFDD" style="stroke:#181818;stroke-width:0.5;"/><text fill="#000000" font-family="sans-serif" font-size="13" lengthAdjust="spacing" textLength="55" x="463" y="562.5">«Pattern»</text><text fill="#000000" font-family="sans-serif" font-size="13" lengthAdjust="spacing" textLength="85" x="463" y="578.1">TransferObject</text></g><g id="elem_PA"><path d="M869,544.5 L869,585.7 A0,0 0 0 0 869,585.7 L897.19,585.7 L831.71,725.41 L905.19,585.7 L953,585.7 A0,0 0 0 0 953,585.7 L953,554.5 L943,544.5 L869,544.5 A0,0 0 0 0 869,544.5 " fill="#FEFFDD" style="stroke:#181818;stroke-width:0.5;"/><path d="M943,544.5 L943,554.5 L953,554.5 L943,544.5 " fill="#FEFFDD" style="stroke:#181818;stroke-width:0.5;"/><text fill="#000000" font-family="sans-serif" font-size="13" lengthAdjust="spacing" textLength="55" x="875" y="562.5">«Pattern»</text><text fill="#000000" font-family="sans-serif" font-size="13" lengthAdjust="spacing" textLength="63" x="875" y="578.1">Aggregator</text></g><!--MD5=[211fb28d7af036b7e2906500ae0df584]
reverse link EventStore to LogEntry--><g id="link_EventStore_LogEntry"><path codeLine="24" d="M655.6,281.12 C649.96,296.88 645.02,313.47 642,329.5 C633.61,374.01 639.58,423.46 649.14,465.43 " fill="none" id="EventStore-backto-LogEntry" style="stroke:#181818;stroke-width:1.0;"/><polygon fill="none" points="660.26,268.7,654.4058,272.9105,656.0407,279.9338,661.895,275.7233,660.26,268.7" style="stroke:#181818;stroke-width:1.0;"/></g><!--MD5=[c66ef044075bfa520abea1b298c82d62]
reverse link LogEntry to TransferObject--><g id="link_LogEntry_TransferObject"><path codeLine="25" d="M595.37,661.65 C571.22,688.62 547.08,715.58 530.66,733.92 " fill="none" id="LogEntry-backto-TransferObject" style="stroke:#181818;stroke-width:1.0;"/><polygon fill="none" points="604.25,651.72,597.2677,653.5222,596.2458,660.6605,603.228,658.8583,604.25,651.72" style="stroke:#181818;stroke-width:1.0;"/></g><!--MD5=[1323f1ce2513c9cf1e00c7aff6d8ac1a]
reverse link LogEntry to Aggregator--><g id="link_LogEntry_Aggregator"><path codeLine="26" d="M758.33,675.4 C771.25,693.69 783.69,711.28 793.68,725.42 " fill="none" id="LogEntry-backto-Aggregator" style="stroke:#181818;stroke-width:1.0;"/><polygon fill="none" points="750.67,664.58,750.8657,671.7884,757.5949,674.3803,757.3992,667.1719,750.67,664.58" style="stroke:#181818;stroke-width:1.0;"/></g><!--MD5=[c99a35cbbebd0771999276ef9d68dcaa]
link ResponseHandler to XHR--><g id="link_ResponseHandler_XHR"><path codeLine="34" d="M474.51,198 C498.78,198 523.16,198 542.16,198 " fill="none" id="ResponseHandler-to-XHR" style="stroke:#181818;stroke-width:1.0;"/><polygon fill="#181818" points="547.37,198,538.37,194,542.37,198,538.37,202,547.37,198" style="stroke:#181818;stroke-width:1.0;"/><polygon fill="#000000" points="492,186.8,501.0451,189.7389,501.0451,183.8611,492,186.8" style="stroke:#000000;stroke-width:1.0;"/><text fill="#000000" font-family="sans-serif" font-size="13" lengthAdjust="spacing" textLength="23" x="506" y="192">json</text></g><!--MD5=[8026b4f18a77ec0460a752f560bfe8e5]
link ResponseHandler to TransferObject--><g id="link_ResponseHandler_TransferObject"><path codeLine="35" d="M373.06,260.33 C373.75,351.88 383.24,528.1 440,664.5 C450.14,688.87 468.25,712.54 483.51,729.83 " fill="none" id="ResponseHandler-to-TransferObject" style="stroke:#181818;stroke-width:1.0;stroke-dasharray:7.0,7.0;"/><polygon fill="#181818" points="486.92,733.64,483.9103,724.2623,483.5902,729.9101,477.9424,729.5899,486.92,733.64" style="stroke:#181818;stroke-width:1.0;"/><text fill="#000000" font-family="sans-serif" font-size="13" lengthAdjust="spacing" textLength="131" x="385" y="432.5">converts JSON into TO</text></g><!--MD5=[188c581f5f130a291821e1acadd3d25d]
link XHR to EventStore--><g id="link_XHR_EventStore"><path codeLine="37" d="M608.55,198 C618.38,198 628.21,198 638.04,198 " fill="none" id="XHR-to-EventStore" style="stroke:#181818;stroke-width:1.0;"/><polygon fill="#181818" points="643.19,198,634.19,194,638.19,198,634.19,202,643.19,198" style="stroke:#181818;stroke-width:1.0;"/></g><!--MD5=[1b036d3bee70abab8c1eec6380d9d2d0]
reverse link RestfulObjects to ApacheIsis--><g id="link_RestfulObjects_ApacheIsis"><path codeLine="45" d="M947.41,242.62 C945.13,270.34 942.25,305.39 940.28,329.33 " fill="none" id="RestfulObjects-backto-ApacheIsis" style="stroke:#181818;stroke-width:1.0;"/><polygon fill="none" points="940.47,241.67,949.08,222.31,954.42,242.82,940.47,241.67" style="stroke:#181818;stroke-width:1.0;"/></g><!--MD5=[ff455b0d12e54cd289f5a016df291ab1]
reverse link RestfulObjects to NakedObjects--><g id="link_RestfulObjects_NakedObjects"><path codeLine="46" d="M983.38,237.76 C1007.09,266.14 1038.69,303.96 1059.88,329.33 " fill="none" id="RestfulObjects-backto-NakedObjects" style="stroke:#181818;stroke-width:1.0;"/><polygon fill="none" points="977.93,242.15,970.48,222.31,988.67,233.17,977.93,242.15" style="stroke:#181818;stroke-width:1.0;"/></g><!--MD5=[1cde971cbfc4340e811b59a359229905]
link XHR to RestfulObjects--><g id="link_XHR_RestfulObjects"><path codeLine="47" d="M585.04,165.29 C591.64,143.31 603.93,115.9 626,102 C685.24,64.69 713.5,99.21 783.5,100 C822.84,100.44 836.61,84.8 872,102 C901.12,116.15 923.24,146.68 936.56,169.53 " fill="none" id="XHR-to-RestfulObjects" style="stroke:#181818;stroke-width:1.0;"/><polygon fill="#181818" points="939.11,173.99,938.1108,164.192,936.6262,169.6505,931.1677,168.166,939.11,173.99" style="stroke:#181818;stroke-width:1.0;"/><text fill="#000000" font-family="sans-serif" font-size="13" lengthAdjust="spacing" textLength="37" x="745.5" y="91">invoke</text></g><!--MD5=[ff6d4b24c1a91bdf451691770f7e5cbd]
reverse link XHR to RestfulObjects--><g id="link_XHR_RestfulObjects"><path codeLine="48" d="M586.6,160.32 C593.52,139.32 605.56,114.87 626,102 C685.24,64.69 713.5,99.21 783.5,100 C822.84,100.44 836.61,84.8 872,102 C903.06,117.1 926.15,150.82 939.11,173.99 " fill="none" id="XHR-backto-RestfulObjects" style="stroke:#181818;stroke-width:1.0;"/><polygon fill="#181818" points="585.04,165.29,591.555,157.9039,586.5395,160.5201,583.9232,155.5047,585.04,165.29" style="stroke:#181818;stroke-width:1.0;"/><text fill="#000000" font-family="sans-serif" font-size="13" lengthAdjust="spacing" textLength="23" x="752.5" y="91">json</text></g><!--MD5=[4620c297ba6f1d781cd0ed1daa775bee]
reverse link TransferObject to to.Link--><g id="link_TransferObject_to.Link"><path codeLine="52" d="M504.26,801.93 C495.47,867.63 478.98,990.91 472.12,1042.2 " fill="none" id="TransferObject-backto-to.Link" style="stroke:#181818;stroke-width:1.0;stroke-dasharray:7.0,7.0;"/><polygon fill="none" points="497.33,800.93,506.92,782.04,511.2,802.79,497.33,800.93" style="stroke:#181818;stroke-width:1.0;"/></g><!--MD5=[b54b6402f2c0aeee3f02bd164175ae12]
reverse link TransferObject to to.Extensions--><g id="link_TransferObject_to.Extensions"><path codeLine="53" d="M524.96,801.43 C526.3,808.07 527.12,814.91 527,821.5 C524.56,952.24 547.18,988.51 516,1115.5 C506.85,1152.78 485.87,1192.21 471.56,1216.35 " fill="none" id="TransferObject-backto-to.Extensions" style="stroke:#181818;stroke-width:1.0;stroke-dasharray:7.0,7.0;"/><polygon fill="none" points="518.18,803.19,519.61,782.05,531.68,799.46,518.18,803.19" style="stroke:#181818;stroke-width:1.0;"/></g><!--MD5=[b581451216a7d46b23357fd86de0a340]
reverse link TransferObject to to.layout.Layout--><g id="link_TransferObject_to.layout.Layout"><path codeLine="54" d="M540.6,798.5 C545.2,805.58 549.55,813.07 553,820.5 C619.06,962.82 651.14,1151.25 660.78,1216.28 " fill="none" id="TransferObject-backto-to.layout.Layout" style="stroke:#181818;stroke-width:1.0;stroke-dasharray:7.0,7.0;"/><polygon fill="none" points="534.81,802.44,529.02,782.05,546.26,794.38,534.81,802.44" style="stroke:#181818;stroke-width:1.0;"/></g><!--MD5=[0292e4433c127d38dd87063e03d1827b]
reverse link TransferObject to to.Linked--><g id="link_TransferObject_to.Linked"><path codeLine="58" d="M469.98,795.66 C438.65,824.37 395.52,863.88 365.65,891.25 " fill="none" id="TransferObject-backto-to.Linked" style="stroke:#181818;stroke-width:1.0;stroke-dasharray:7.0,7.0;"/><polygon fill="none" points="465.26,790.5,484.73,782.15,474.72,800.82,465.26,790.5" style="stroke:#181818;stroke-width:1.0;"/></g><!--MD5=[da56766a10462bcc890735f4ba220c5c]
reverse link to.Linked to to.Result--><g id="link_to.Linked_to.Result"><path codeLine="59" d="M272.64,943.45 C226.71,959.37 162.15,984.93 111,1017.5 C100,1024.5 89.11,1033.83 80.09,1042.41 " fill="none" id="to.Linked-backto-to.Result" style="stroke:#181818;stroke-width:1.0;stroke-dasharray:7.0,7.0;"/><polygon fill="none" points="270.51,936.78,291.7,937.02,274.98,950.05,270.51,936.78" style="stroke:#181818;stroke-width:1.0;"/></g><!--MD5=[609a7d2eede23fcf68d875f7da410297]
reverse link to.Linked to to.ResultList--><g id="link_to.Linked_to.ResultList"><path codeLine="60" d="M280.94,970.08 C254.2,994.17 222.4,1022.81 200.67,1042.38 " fill="none" id="to.Linked-backto-to.ResultList" style="stroke:#181818;stroke-width:1.0;stroke-dasharray:7.0,7.0;"/><polygon fill="none" points="276.44,964.71,295.99,956.53,285.81,975.12,276.44,964.71" style="stroke:#181818;stroke-width:1.0;"/></g><!--MD5=[2344372b37003ed52512b79ad8325196]
reverse link to.Linked to to.Extended--><g id="link_to.Linked_to.Extended"><path codeLine="61" d="M331,976.55 C331,995.65 331,1016.74 331,1033.59 " fill="none" id="to.Linked-backto-to.Extended" style="stroke:#181818;stroke-width:1.0;stroke-dasharray:7.0,7.0;"/><polygon fill="none" points="324,976.53,331,956.53,338,976.53,324,976.53" style="stroke:#181818;stroke-width:1.0;"/></g><!--MD5=[003c6c4f33e5a65c22164ded883e5d46]
reverse link to.Linked to to.Link--><g id="link_to.Linked_to.Link"><path codeLine="66" d="M372.22,966.12 C388.15,982.1 406.49,1000.59 423,1017.5 C430.9,1025.59 439.49,1034.52 447.09,1042.47 " fill="none" id="to.Linked-backto-to.Link" style="stroke:#181818;stroke-width:1.0;"/><polygon fill="none" points="362.65,956.54,364.0587,963.6122,371.1287,965.0319,369.72,957.9597,362.65,956.54" style="stroke:#181818;stroke-width:1.0;"/></g><!--MD5=[3bc29dac53101b63679b8c6ff6e02894]
reverse link to.Extended to to.Extensions--><g id="link_to.Extended_to.Extensions"><path codeLine="67" d="M362.09,1109.94 C386.71,1143.55 420.18,1189.23 440.08,1216.41 " fill="none" id="to.Extended-backto-to.Extensions" style="stroke:#181818;stroke-width:1.0;"/><polygon fill="none" points="354.11,1099.05,354.4245,1106.2542,361.1955,1108.7348,360.881,1101.5306,354.11,1099.05" style="stroke:#181818;stroke-width:1.0;"/></g><!--MD5=[cb8c64333b052217f1b563adf04eefcf]
reverse link to.Extended to to.Property--><g id="link_to.Extended_to.Property"><path codeLine="68" d="M255.58,1108.02 C250.01,1110.65 244.45,1113.17 239,1115.5 C189.37,1136.71 167.24,1122.2 124,1154.5 C102.29,1170.71 85.42,1197.11 75.18,1216.19 " fill="none" id="to.Extended-backto-to.Property" style="stroke:#181818;stroke-width:1.0;stroke-dasharray:7.0,7.0;"/><polygon fill="none" points="252.71,1101.63,273.74,1099.1,258.88,1114.2,252.71,1101.63" style="stroke:#181818;stroke-width:1.0;"/></g><!--MD5=[1a07ac71847d082ca2d8e7391285ac3d]
reverse link to.Extended to to.TObject--><g id="link_to.Extended_to.TObject"><path codeLine="69" d="M279.52,1113.12 C266.09,1125.98 252.02,1140.33 240,1154.5 C223.36,1174.12 207.09,1198.56 196.04,1216.19 " fill="none" id="to.Extended-backto-to.TObject" style="stroke:#181818;stroke-width:1.0;stroke-dasharray:7.0,7.0;"/><polygon fill="none" points="274.88,1107.88,294.28,1099.34,284.44,1118.11,274.88,1107.88" style="stroke:#181818;stroke-width:1.0;"/></g><!--MD5=[09c2f7ddeb4aba1e4193c5b221896601]
reverse link to.Extended to to.Service--><g id="link_to.Extended_to.Service"><path codeLine="70" d="M320.53,1118.96 C313.94,1151.36 305.75,1191.6 300.7,1216.41 " fill="none" id="to.Extended-backto-to.Service" style="stroke:#181818;stroke-width:1.0;stroke-dasharray:7.0,7.0;"/><polygon fill="none" points="313.73,1117.25,324.58,1099.05,327.45,1120.04,313.73,1117.25" style="stroke:#181818;stroke-width:1.0;"/></g><!--MD5=[f58379db15f2c16fbc74c274baa5ffca]
reverse link to.Extended to to.Member--><g id="link_to.Extended_to.Member"><path codeLine="71" d="M345.58,1119.12 C348.25,1130.67 350.62,1142.93 352,1154.5 C359.04,1213.64 360.39,1229.54 352,1288.5 C350.14,1301.59 346.17,1315.79 342.43,1327.29 " fill="none" id="to.Extended-backto-to.Member" style="stroke:#181818;stroke-width:1.0;stroke-dasharray:7.0,7.0;"/><polygon fill="none" points="338.71,1120.5,340.62,1099.4,352.29,1117.08,338.71,1120.5" style="stroke:#181818;stroke-width:1.0;"/></g><!--MD5=[d5af093094f02e9038ff511b3336013b]
reverse link to.Service to to.Member--><g id="link_to.Service_to.Member"><path codeLine="72" d="M308.43,1277.16 C314.19,1293.68 320.87,1312.83 325.95,1327.42 " fill="none" id="to.Service-backto-to.Member" style="stroke:#181818;stroke-width:1.0;"/><polygon fill="none" points="304.06,1264.62,302.262,1271.6033,308.0166,1275.949,309.8146,1268.9656,304.06,1264.62" style="stroke:#181818;stroke-width:1.0;"/></g><!--MD5=[eaa73d39ea85ff813bc173c35bfd405f]
reverse link CollectionAggregator to ObjectList--><g id="link_CollectionAggregator_ObjectList"><path codeLine="80" d="M753.09,969.81 C752.44,984.93 751.72,1001.86 751.06,1017.24 " fill="none" id="CollectionAggregator-backto-ObjectList" style="stroke:#181818;stroke-width:1.0;"/><polygon fill="#181818" points="753.65,956.53,749.3965,962.353,753.1356,968.519,757.3891,962.6959,753.65,956.53" style="stroke:#181818;stroke-width:1.0;"/></g><!--MD5=[34dad95bf59e7e8a9e3dafd0e6410534]
reverse link Aggregator to CollectionAggregator--><g id="link_Aggregator_CollectionAggregator"><path codeLine="81" d="M797.25,809.4 C787.3,836.17 775.37,868.25 766.73,891.48 " fill="none" id="Aggregator-backto-CollectionAggregator" style="stroke:#181818;stroke-width:1.0;stroke-dasharray:7.0,7.0;"/><polygon fill="none" points="790.71,806.93,804.24,790.62,803.83,811.81,790.71,806.93" style="stroke:#181818;stroke-width:1.0;"/></g><!--MD5=[b4aab1c3b82142bf25eafd68b215e7d9]
reverse link Aggregator to NavigationAggregator--><g id="link_Aggregator_NavigationAggregator"><path codeLine="84" d="M855.79,806.29 C881.66,837.03 914.23,875.74 934.59,899.94 " fill="none" id="Aggregator-backto-NavigationAggregator" style="stroke:#181818;stroke-width:1.0;stroke-dasharray:7.0,7.0;"/><polygon fill="none" points="850.13,810.43,842.61,790.62,860.84,801.42,850.13,810.43" style="stroke:#181818;stroke-width:1.0;"/></g><!--MD5=[02363c8b3a49bab427c3799533d1b7f7]
reverse link ObjectList to to.layout.Layout--><g id="link_ObjectList_to.layout.Layout"><path codeLine="91" d="M719.23,1127.73 C704.15,1158.25 686.71,1193.54 675.53,1216.17 " fill="none" id="ObjectList-backto-to.layout.Layout" style="stroke:#181818;stroke-width:1.0;"/><polygon fill="#181818" points="725.1,1115.87,718.8567,1119.4784,719.7862,1126.6294,726.0296,1123.0209,725.1,1115.87" style="stroke:#181818;stroke-width:1.0;"/></g><!--MD5=[2683420a5b2a98e1bda227ab530b68b6]
link EventStore to PES--><g id="link_EventStore_PES"><path codeLine="94" d="M700.95,268.76 C703.79,293.73 706.78,319.94 708.75,337.24 " fill="none" id="EventStore-PES" style="stroke:#181818;stroke-width:1.0;stroke-dasharray:7.0,7.0;"/></g><!--MD5=[dc7d639b028d6d86f7d7b80029c66660]
link PES to LogEntry--><g id="link_PES_LogEntry"><path codeLine="95" d="M708.12,378.66 C705.15,399 700.27,432.35 695.46,465.19 " fill="none" id="PES-LogEntry" style="stroke:#181818;stroke-width:1.0;stroke-dasharray:7.0,7.0;"/></g><!--MD5=[9256243b97998dd164b7f3e89ee2f45c]
link PR to PES--><g id="link_PR_PES"><path codeLine="98" d="M802.91,218.69 C782.74,249.05 744.26,306.95 724.09,337.31 " fill="none" id="PR-PES" style="stroke:#181818;stroke-width:1.0;stroke-dasharray:7.0,7.0;"/></g><!--MD5=[28e9bca5f42469f8883209bd5c5a0e39]
link PR to Aggregator--><g id="link_PR_Aggregator"><path codeLine="99" d="M816,218.53 C816,301.19 816,622.65 816,725.3 " fill="none" id="PR-Aggregator" style="stroke:#181818;stroke-width:1.0;stroke-dasharray:7.0,7.0;"/></g><!--MD5=[7ae4b1ebc26f72ed068516e2cf51bd54]
@startuml
class XHR {
    invoke()
}

class EventStore<<(S,#FF7700) Singleton>> {
    log:LogEntry[]
    start()
    end()
    fault()
    find(href)
}

class LogEntry {
    url:Href
    title:String
    startedAt:Date
    updatedAt:Date
    request:String
    response:String
    object:TransferObject
    aggregator:Aggregator
    cacheHits:int
}
EventStore o- - LogEntry
LogEntry o- - TransferObject
LogEntry o- - Aggregator

class ResponseHandler<<Facade,ChainOfResponsibility>>{
    handle(LogEntry)
    canHandle(json)
    doHandle()
    parse(json)
}
ResponseHandler -> XHR : json <
ResponseHandler .> TransferObject : converts JSON into TO

XHR -> EventStore


package remote <<Node>> {
interface RestfulObjects
    class ApacheIsis<<(A, #FF7700)Application>>
    class NakedObjects<<(A, #FF7700)Application>>
}
RestfulObjects <|- - ApacheIsis
RestfulObjects <|- - NakedObjects
XHR -> RestfulObjects : invoke
XHR <- RestfulObjects : json


interface TransferObject
TransferObject <|.. to.Link
TransferObject <|.. to.Extensions
TransferObject <|.. to.layout.Layout
interface to.Linked{
    links:Link[]
}
TransferObject <|.. to.Linked
to.Linked <|.. to.Result
to.Linked <|.. to.ResultList
to.Linked <|.. to.Extended

interface to.Extended{
    extensions:Extensions
}
to.Linked o- - to.Link
to.Extended o- - to.Extensions
to.Extended <|.. to.Property
to.Extended <|.. to.TObject
to.Extended <|.. to.Service
to.Extended <|.. to.Member
to.Service o- - to.Member

interface Aggregator {
    update(logEntry)
}
class CollectionAggregator {
    -list:ObjectList
}
CollectionAggregator *- - ObjectList
Aggregator <|.. CollectionAggregator

class NavigationAggregator
Aggregator <|.. NavigationAggregator

class ObjectList {
    list:ObjectAdapter
    -limit:int
    -layout:Layout
}
ObjectList *- - to.layout.Layout

note "<<Pattern>>\nEventSourcing" as PES
EventStore .. PES
PES .. LogEntry

note "<<Pattern>>\nRedux" as PR
PR .. PES
PR .. Aggregator

note "<<Pattern>>\nRemoteFacade" as PRF
PRF .. RestfulObjects

note "<<Pattern>>\nTransferObject" as PTO
PTO .. TransferObject

note "<<Pattern>>\nAggregator" as PA
PA .. Aggregator
@enduml

PlantUML version 1.2022.5(Sat Apr 30 10:55:52 GMT 2022)
(GPL source distribution)
Java Runtime: OpenJDK Runtime Environment
JVM: OpenJDK 64-Bit Server VM
Default Encoding: UTF-8
Language: en
Country: US
--></g></svg>