<?xml version="1.0" encoding="UTF-8" standalone="no"?><svg xmlns="http://www.w3.org/2000/svg" xmlns:xlink="http://www.w3.org/1999/xlink" contentStyleType="text/css" height="321px" preserveAspectRatio="none" style="width:372px;height:321px;background:#FFFFFF;" version="1.1" viewBox="0 0 372 321" width="372px" zoomAndPan="magnify"><defs/><g><!--entity webapp--><g id="elem_webapp"><rect fill="#F1F1F1" height="62.5938" rx="2.5" ry="2.5" style="stroke:#181818;stroke-width:0.5;" width="161" x="105" y="253"/><rect fill="#F1F1F1" height="10" style="stroke:#181818;stroke-width:0.5;" width="15" x="246" y="258"/><rect fill="#F1F1F1" height="2" style="stroke:#181818;stroke-width:0.5;" width="4" x="244" y="260"/><rect fill="#F1F1F1" height="2" style="stroke:#181818;stroke-width:0.5;" width="4" x="244" y="264"/><text fill="#000000" font-family="sans-serif" font-size="14" font-style="italic" lengthAdjust="spacing" textLength="121" x="120" y="285.9951">«maven module»</text><text fill="#000000" font-family="sans-serif" font-size="14" lengthAdjust="spacing" textLength="55" x="153" y="302.292">webapp</text></g><!--entity module-order--><g id="elem_module-order"><rect fill="#F1F1F1" height="62.5938" rx="2.5" ry="2.5" style="stroke:#181818;stroke-width:0.5;" width="161" x="105" y="130"/><rect fill="#F1F1F1" height="10" style="stroke:#181818;stroke-width:0.5;" width="15" x="246" y="135"/><rect fill="#F1F1F1" height="2" style="stroke:#181818;stroke-width:0.5;" width="4" x="244" y="137"/><rect fill="#F1F1F1" height="2" style="stroke:#181818;stroke-width:0.5;" width="4" x="244" y="141"/><text fill="#000000" font-family="sans-serif" font-size="14" font-style="italic" lengthAdjust="spacing" textLength="121" x="120" y="162.9951">«maven module»</text><text fill="#000000" font-family="sans-serif" font-size="14" lengthAdjust="spacing" textLength="94" x="133.5" y="179.292">module-order</text></g><!--entity module-customer--><g id="elem_module-customer"><rect fill="#F1F1F1" height="62.5938" rx="2.5" ry="2.5" style="stroke:#181818;stroke-width:0.5;" width="163" x="203" y="7"/><rect fill="#F1F1F1" height="10" style="stroke:#181818;stroke-width:0.5;" width="15" x="346" y="12"/><rect fill="#F1F1F1" height="2" style="stroke:#181818;stroke-width:0.5;" width="4" x="344" y="14"/><rect fill="#F1F1F1" height="2" style="stroke:#181818;stroke-width:0.5;" width="4" x="344" y="18"/><text fill="#000000" font-family="sans-serif" font-size="14" font-style="italic" lengthAdjust="spacing" textLength="121" x="219" y="39.9951">«maven module»</text><text fill="#000000" font-family="sans-serif" font-size="14" lengthAdjust="spacing" textLength="123" x="218" y="56.292">module-customer</text></g><!--entity module-product--><g id="elem_module-product"><rect fill="#F1F1F1" height="62.5938" rx="2.5" ry="2.5" style="stroke:#181818;stroke-width:0.5;" width="161" x="7" y="7"/><rect fill="#F1F1F1" height="10" style="stroke:#181818;stroke-width:0.5;" width="15" x="148" y="12"/><rect fill="#F1F1F1" height="2" style="stroke:#181818;stroke-width:0.5;" width="4" x="146" y="14"/><rect fill="#F1F1F1" height="2" style="stroke:#181818;stroke-width:0.5;" width="4" x="146" y="18"/><text fill="#000000" font-family="sans-serif" font-size="14" font-style="italic" lengthAdjust="spacing" textLength="121" x="22" y="39.9951">«maven module»</text><text fill="#000000" font-family="sans-serif" font-size="14" lengthAdjust="spacing" textLength="111" x="27" y="56.292">module-product</text></g><!--reverse link module-order to webapp--><g id="link_module-order_webapp"><path d="M185.5,199.48 C185.5,216.52 185.5,236.51 185.5,252.71 " fill="none" id="module-order-backto-webapp" style="stroke:#181818;stroke-width:1.0;stroke-dasharray:7.0,7.0;"/><polygon fill="#181818" points="185.5,194.86,181.5,203.86,185.5,199.86,189.5,203.86,185.5,194.86" style="stroke:#181818;stroke-width:1.0;"/></g><!--reverse link module-customer to module-order--><g id="link_module-customer_module-order"><path d="M255.34,75.14 C241.17,92.46 224.3,113.08 210.69,129.71 " fill="none" id="module-customer-backto-module-order" style="stroke:#181818;stroke-width:1.0;stroke-dasharray:7.0,7.0;"/><polygon fill="#181818" points="258.3,71.52,249.5024,75.9474,255.1315,75.3879,255.691,81.017,258.3,71.52" style="stroke:#181818;stroke-width:1.0;"/></g><!--reverse link module-product to module-order--><g id="link_module-product_module-order"><path d="M116.36,75.14 C130.4,92.46 147.09,113.08 160.56,129.71 " fill="none" id="module-product-backto-module-order" style="stroke:#181818;stroke-width:1.0;stroke-dasharray:7.0,7.0;"/><polygon fill="#181818" points="113.44,71.52,115.9898,81.0331,116.5843,75.4076,122.2099,76.0021,113.44,71.52" style="stroke:#181818;stroke-width:1.0;"/></g><!--SRC=[YovFJKeiA8XLiB79JInBpLF8pKyfpKcri-EAXh1qyujIKejY5N0hI2ujBidFnQ-ce0X89vTWKy8L3NE2NgckdGAgjUYkG542jnYlAfZL0000]--></g></svg>