<?xml version="1.0" encoding="UTF-8" standalone="no"?><svg xmlns="http://www.w3.org/2000/svg" xmlns:xlink="http://www.w3.org/1999/xlink" contentStyleType="text/css" height="127px" preserveAspectRatio="none" style="width:332px;height:127px;background:#FFFFFF;" version="1.1" viewBox="0 0 332 127" width="332px" zoomAndPan="magnify"><defs/><g><!--class Customer--><g id="elem_Customer"><rect fill="#F1F1F1" height="48" id="Customer" rx="2.5" ry="2.5" style="stroke:#181818;stroke-width:0.5;" width="100" x="7" y="39.5"/><ellipse cx="22" cy="55.5" fill="#ADD1B2" rx="11" ry="11" style="stroke:#181818;stroke-width:1.0;"/><path d="M24.9688,61.1406 Q24.3906,61.4375 23.75,61.5781 Q23.1094,61.7344 22.4063,61.7344 Q19.9063,61.7344 18.5781,60.0938 Q17.2656,58.4375 17.2656,55.3125 Q17.2656,52.1875 18.5781,50.5313 Q19.9063,48.875 22.4063,48.875 Q23.1094,48.875 23.75,49.0313 Q24.4063,49.1875 24.9688,49.4844 L24.9688,52.2031 Q24.3438,51.625 23.75,51.3594 Q23.1563,51.0781 22.5313,51.0781 Q21.1875,51.0781 20.5,52.1563 Q19.8125,53.2188 19.8125,55.3125 Q19.8125,57.4063 20.5,58.4844 Q21.1875,59.5469 22.5313,59.5469 Q23.1563,59.5469 23.75,59.2813 Q24.3438,59 24.9688,58.4219 L24.9688,61.1406 Z " fill="#000000"/><text fill="#000000" font-family="sans-serif" font-size="14" lengthAdjust="spacing" textLength="68" x="36" y="60.3467">Customer</text><line style="stroke:#181818;stroke-width:0.5;" x1="8" x2="106" y1="71.5" y2="71.5"/><line style="stroke:#181818;stroke-width:0.5;" x1="8" x2="106" y1="79.5" y2="79.5"/></g><!--class Order--><g id="elem_Order"><rect codeLine="3" fill="#F1F1F1" height="113.1875" id="Order" rx="2.5" ry="2.5" style="stroke:#181818;stroke-width:0.5;" width="125" x="200.5" y="7"/><ellipse cx="239.8" cy="23" fill="#ADD1B2" rx="11" ry="11" style="stroke:#181818;stroke-width:1.0;"/><path d="M242.7688,28.6406 Q242.1906,28.9375 241.55,29.0781 Q240.9094,29.2344 240.2063,29.2344 Q237.7063,29.2344 236.3781,27.5938 Q235.0656,25.9375 235.0656,22.8125 Q235.0656,19.6875 236.3781,18.0313 Q237.7063,16.375 240.2063,16.375 Q240.9094,16.375 241.55,16.5313 Q242.2063,16.6875 242.7688,16.9844 L242.7688,19.7031 Q242.1438,19.125 241.55,18.8594 Q240.9563,18.5781 240.3313,18.5781 Q238.9875,18.5781 238.3,19.6563 Q237.6125,20.7188 237.6125,22.8125 Q237.6125,24.9063 238.3,25.9844 Q238.9875,27.0469 240.3313,27.0469 Q240.9563,27.0469 241.55,26.7813 Q242.1438,26.5 242.7688,25.9219 L242.7688,28.6406 Z " fill="#000000"/><text fill="#000000" font-family="sans-serif" font-size="14" lengthAdjust="spacing" textLength="39" x="259.2" y="27.8467">Order</text><line style="stroke:#181818;stroke-width:0.5;" x1="201.5" x2="324.5" y1="39" y2="39"/><text fill="#000000" font-family="sans-serif" font-size="14" lengthAdjust="spacing" textLength="52" x="206.5" y="55.9951">int num</text><text fill="#000000" font-family="sans-serif" font-size="14" lengthAdjust="spacing" textLength="103" x="206.5" y="72.292">Date placedOn</text><text fill="#000000" font-family="sans-serif" font-size="14" lengthAdjust="spacing" textLength="113" x="206.5" y="88.5889">Date shippedOn</text><text fill="#000000" font-family="sans-serif" font-size="14" lengthAdjust="spacing" textLength="75" x="206.5" y="104.8857">State state</text><line style="stroke:#181818;stroke-width:0.5;" x1="201.5" x2="324.5" y1="112.1875" y2="112.1875"/></g><!--link Customer to Order--><g id="link_Customer_Order"><path codeLine="1" d="M120.91,63.5 C120.91,63.5 164.75,63.5 185.89,63.5 " fill="none" id="Customer-Order" style="stroke:#181818;stroke-width:1.0;"/><polygon fill="#181818" points="108.91,63.5,114.91,67.5,120.91,63.5,114.91,59.5,108.91,63.5" style="stroke:#181818;stroke-width:1.0;"/><polygon fill="#181818" points="198.71,63.5,189.71,59.5,193.71,63.5,189.71,67.5,198.71,63.5" style="stroke:#181818;stroke-width:1.0;"/><line style="stroke:#181818;stroke-width:1.0;" x1="193.71" x2="185.71" y1="63.5" y2="63.5"/><text fill="#000000" font-family="sans-serif" font-size="13" lengthAdjust="spacing" textLength="41" x="141.25" y="56.5669">orders</text><text fill="#000000" font-family="sans-serif" font-size="13" lengthAdjust="spacing" textLength="8" x="115.0386" y="59.5215">1</text><text fill="#000000" font-family="sans-serif" font-size="13" lengthAdjust="spacing" textLength="23" x="169.5599" y="76.3375">0..*</text></g><!--SRC=[SoujBidFJIrIK39KKj3IBTArKr0oqDFJKbBmBqe12bifA2a0GJw8Kwp4nPMSarXS39MhvW99PUQLAEILveBPBeabgGe5EOd9gId-UGYHuepCWWAuK709M0n4SjK20000]--></g></svg>