<?xml version="1.0" encoding="UTF-8" standalone="no"?><svg xmlns="http://www.w3.org/2000/svg" xmlns:xlink="http://www.w3.org/1999/xlink" contentStyleType="text/css" height="129px" preserveAspectRatio="none" style="width:302px;height:129px;background:#FFFFFF;" version="1.1" viewBox="0 0 302 129" width="302px" zoomAndPan="magnify"><defs/><g><!--MD5=[2ce0c9fb7f55b1e256ab28a8ea6b25ec]
class Customer--><g id="elem_Customer"><rect fill="#F1F1F1" height="48" id="Customer" rx="2.5" ry="2.5" style="stroke:#181818;stroke-width:0.5;" width="91" x="7" y="40.5"/><ellipse cx="22" cy="56.5" fill="#ADD1B2" rx="11" ry="11" style="stroke:#181818;stroke-width:1.0;"/><path d="M21.3594,60.2813 Q22.1563,60.2813 22.7188,60.0938 Q23.2969,59.8906 23.5313,59.6719 Q23.7813,59.4375 24.0156,59.25 Q24.2656,59.0469 24.4844,59.0469 Q24.8281,59.0469 25.0781,59.3125 Q25.3438,59.5625 25.3438,59.8906 Q25.3438,60.625 24.1719,61.3125 Q23.0156,61.9844 21.3125,61.9844 Q19.1563,61.9844 17.7344,60.7188 Q16.3125,59.4531 16.3125,57.5156 L16.3125,56.3906 Q16.3125,54.3594 17.6406,52.9844 Q18.9688,51.5938 20.9375,51.5938 Q22.125,51.5938 23.3438,52.1719 L23.5156,52.25 Q23.8125,51.8438 24.2344,51.8438 Q24.7188,51.8438 24.8906,52.1406 Q25.0781,52.4219 25.0781,52.9688 L25.0781,54.3906 Q25.0781,55.5156 24.2344,55.5156 Q23.9219,55.5156 23.7188,55.3438 Q23.5313,55.1719 23.4844,55.0313 Q23.4531,54.875 23.4063,54.6094 Q23.2969,54.0938 22.7813,53.7813 Q22.2656,53.4688 21.8125,53.3906 Q21.375,53.2969 21,53.2969 Q19.7188,53.2969 18.8594,54.1719 Q18.0156,55.0469 18.0156,56.3906 L18.0156,57.4844 Q18.0156,58.7656 18.9219,59.5313 Q19.8281,60.2813 21.3594,60.2813 Z " fill="#000000"/><text fill="#000000" font-family="sans-serif" font-size="14" lengthAdjust="spacing" textLength="59" x="36" y="62.1">Customer</text><line style="stroke:#181818;stroke-width:0.5;" x1="8" x2="97" y1="72.5" y2="72.5"/><line style="stroke:#181818;stroke-width:0.5;" x1="8" x2="97" y1="80.5" y2="80.5"/></g><!--MD5=[cf4d6237fcae255cd2e1656cf84a30e2]
class Order--><g id="elem_Order"><rect codeLine="3" fill="#F1F1F1" height="115.1997" id="Order" rx="2.5" ry="2.5" style="stroke:#181818;stroke-width:0.5;" width="113" x="182" y="7"/><ellipse cx="217.25" cy="23" fill="#ADD1B2" rx="11" ry="11" style="stroke:#181818;stroke-width:1.0;"/><path d="M216.6094,26.7813 Q217.4063,26.7813 217.9688,26.5938 Q218.5469,26.3906 218.7813,26.1719 Q219.0313,25.9375 219.2656,25.75 Q219.5156,25.5469 219.7344,25.5469 Q220.0781,25.5469 220.3281,25.8125 Q220.5938,26.0625 220.5938,26.3906 Q220.5938,27.125 219.4219,27.8125 Q218.2656,28.4844 216.5625,28.4844 Q214.4063,28.4844 212.9844,27.2188 Q211.5625,25.9531 211.5625,24.0156 L211.5625,22.8906 Q211.5625,20.8594 212.8906,19.4844 Q214.2188,18.0938 216.1875,18.0938 Q217.375,18.0938 218.5938,18.6719 L218.7656,18.75 Q219.0625,18.3438 219.4844,18.3438 Q219.9688,18.3438 220.1406,18.6406 Q220.3281,18.9219 220.3281,19.4688 L220.3281,20.8906 Q220.3281,22.0156 219.4844,22.0156 Q219.1719,22.0156 218.9688,21.8438 Q218.7813,21.6719 218.7344,21.5313 Q218.7031,21.375 218.6563,21.1094 Q218.5469,20.5938 218.0313,20.2813 Q217.5156,19.9688 217.0625,19.8906 Q216.625,19.7969 216.25,19.7969 Q214.9688,19.7969 214.1094,20.6719 Q213.2656,21.5469 213.2656,22.8906 L213.2656,23.9844 Q213.2656,25.2656 214.1719,26.0313 Q215.0781,26.7813 216.6094,26.7813 Z " fill="#000000"/><text fill="#000000" font-family="sans-serif" font-size="14" lengthAdjust="spacing" textLength="36" x="235.75" y="28.6">Order</text><line style="stroke:#181818;stroke-width:0.5;" x1="183" x2="294" y1="39" y2="39"/><text fill="#000000" font-family="sans-serif" font-size="14" lengthAdjust="spacing" textLength="46" x="188" y="56.9999">int num</text><text fill="#000000" font-family="sans-serif" font-size="14" lengthAdjust="spacing" textLength="93" x="188" y="73.7999">Date placedOn</text><text fill="#000000" font-family="sans-serif" font-size="14" lengthAdjust="spacing" textLength="101" x="188" y="90.5998">Date shippedOn</text><text fill="#000000" font-family="sans-serif" font-size="14" lengthAdjust="spacing" textLength="66" x="188" y="107.3997">State state</text><line style="stroke:#181818;stroke-width:0.5;" x1="183" x2="294" y1="114.1997" y2="114.1997"/></g><!--MD5=[135794f54b59c9e5883929d048383f81]
link Customer to Order--><g id="link_Customer_Order"><path codeLine="1" d="M110,64.5 C110,64.5 149.74,64.5 168.66,64.5 " fill="none" id="Customer-Order" style="stroke:#181818;stroke-width:1.0;"/><polygon fill="#181818" points="181.82,64.5,172.82,60.5,176.82,64.5,172.82,68.5,181.82,64.5" style="stroke:#181818;stroke-width:1.0;"/><line style="stroke:#181818;stroke-width:1.0;" x1="176.82" x2="168.82" y1="64.5" y2="64.5"/><polygon fill="#181818" points="98,64.5,104,68.5,110,64.5,104,60.5,98,64.5" style="stroke:#181818;stroke-width:1.0;"/><text fill="#000000" font-family="sans-serif" font-size="13" lengthAdjust="spacing" textLength="35" x="128.5" y="58.5">orders</text><text fill="#000000" font-family="sans-serif" font-size="13" lengthAdjust="spacing" textLength="7" x="106.1156" y="61.3075">1</text><text fill="#000000" font-family="sans-serif" font-size="13" lengthAdjust="spacing" textLength="18" x="155.8153" y="78.4385">0..*</text></g><!--MD5=[b567832c8207490e872e094bdb954b1b]
@startuml
Customer "1" *-r-> "0..*" Order : "    orders"

class Order {
    int num
    Date placedOn
    Date shippedOn
    State state
}
@enduml

PlantUML version 1.2022.5(Sat Apr 30 10:55:52 GMT 2022)
(GPL source distribution)
Java Runtime: OpenJDK Runtime Environment
JVM: OpenJDK 64-Bit Server VM
Default Encoding: UTF-8
Language: en
Country: US
--></g></svg>