<?xml version="1.0" encoding="UTF-8" standalone="no"?><svg xmlns="http://www.w3.org/2000/svg" xmlns:xlink="http://www.w3.org/1999/xlink" contentScriptType="application/ecmascript" contentStyleType="text/css" height="145px" preserveAspectRatio="none" style="width:208px;height:145px;" version="1.1" viewBox="0 0 208 145" width="208px" zoomAndPan="magnify"><defs><filter height="300%" id="f7ijlx4mdmlli" width="300%" x="-1" y="-1"><feGaussianBlur result="blurOut" stdDeviation="2.0"/><feColorMatrix in="blurOut" result="blurOut2" type="matrix" values="0 0 0 0 0 0 0 0 0 0 0 0 0 0 0 0 0 0 .4 0"/><feOffset dx="4.0" dy="4.0" in="blurOut2" result="blurOut3"/><feBlend in="SourceGraphic" in2="blurOut3" mode="normal"/></filter></defs><g><!--MD5=[2ce0c9fb7f55b1e256ab28a8ea6b25ec]
class Customer--><rect codeLine="2" fill="#FEFECE" filter="url(#f7ijlx4mdmlli)" height="32" id="Customer" style="stroke:#A80036;stroke-width:1.5;" width="81" x="7" y="7"/><ellipse cx="22" cy="23" fill="#ADD1B2" rx="11" ry="11" style="stroke:#A80036;stroke-width:1.0;"/><path d="M17.9375,23.1406 Q17.9375,19.6875 19.0313,18.0625 Q20.1406,16.4219 22.3594,16.4219 Q23.5625,16.4219 24.8281,17.0781 L24.8281,19.125 Q23.375,18.3438 22.4375,18.3438 Q19.9844,18.3438 19.9844,23.1406 Q19.9844,25.8438 20.6094,26.9063 Q21.25,27.9531 22.4375,27.9531 Q23.4063,27.9531 24.9063,27.0313 L24.9063,29.2344 Q23.6406,29.8594 22.3594,29.8594 Q20.0938,29.8594 19.0156,28.2813 Q17.9375,26.7031 17.9375,23.1406 Z " fill="#000000"/><text fill="#000000" font-family="sans-serif" font-size="12" lengthAdjust="spacing" textLength="49" x="36" y="27.5352">Customer</text><!--MD5=[cf4d6237fcae255cd2e1656cf84a30e2]
class Order--><rect codeLine="3" fill="#FEFECE" filter="url(#f7ijlx4mdmlli)" height="32" id="Order" style="stroke:#A80036;stroke-width:1.5;" width="60" x="17.5" y="99"/><ellipse cx="32.5" cy="115" fill="#ADD1B2" rx="11" ry="11" style="stroke:#A80036;stroke-width:1.0;"/><path d="M28.4375,115.1406 Q28.4375,111.6875 29.5313,110.0625 Q30.6406,108.4219 32.8594,108.4219 Q34.0625,108.4219 35.3281,109.0781 L35.3281,111.125 Q33.875,110.3438 32.9375,110.3438 Q30.4844,110.3438 30.4844,115.1406 Q30.4844,117.8438 31.1094,118.9063 Q31.75,119.9531 32.9375,119.9531 Q33.9063,119.9531 35.4063,119.0313 L35.4063,121.2344 Q34.1406,121.8594 32.8594,121.8594 Q30.5938,121.8594 29.5156,120.2813 Q28.4375,118.7031 28.4375,115.1406 Z " fill="#000000"/><text fill="#000000" font-family="sans-serif" font-size="12" lengthAdjust="spacing" textLength="28" x="46.5" y="119.5352">Order</text><!--MD5=[72136138052d025cffdce3c22fbd185f]
class Product--><rect codeLine="4" fill="#FEFECE" filter="url(#f7ijlx4mdmlli)" height="32" id="Product" style="stroke:#A80036;stroke-width:1.5;" width="71" x="123" y="7"/><ellipse cx="138" cy="23" fill="#ADD1B2" rx="11" ry="11" style="stroke:#A80036;stroke-width:1.0;"/><path d="M133.9375,23.1406 Q133.9375,19.6875 135.0313,18.0625 Q136.1406,16.4219 138.3594,16.4219 Q139.5625,16.4219 140.8281,17.0781 L140.8281,19.125 Q139.375,18.3438 138.4375,18.3438 Q135.9844,18.3438 135.9844,23.1406 Q135.9844,25.8438 136.6094,26.9063 Q137.25,27.9531 138.4375,27.9531 Q139.4063,27.9531 140.9063,27.0313 L140.9063,29.2344 Q139.6406,29.8594 138.3594,29.8594 Q136.0938,29.8594 135.0156,28.2813 Q133.9375,26.7031 133.9375,23.1406 Z " fill="#000000"/><text fill="#000000" font-family="sans-serif" font-size="12" lengthAdjust="spacing" textLength="39" x="152" y="27.5352">Product</text><!--MD5=[135794f54b59c9e5883929d048383f81]
link Customer to Order--><path codeLine="6" d="M47.5,44.62 C47.5,59.38 47.5,79.15 47.5,93.81 " fill="none" id="Customer-Order" style="stroke:#A80036;stroke-width:1.0;"/><polygon fill="#A80036" points="47.5,98.96,51.5,89.96,47.5,93.96,43.5,89.96,47.5,98.96" style="stroke:#A80036;stroke-width:1.0;"/><polygon fill="#A80036" points="47.5,39.27,43.5,48.27,47.5,44.27,51.5,48.27,47.5,39.27" style="stroke:#A80036;stroke-width:1.0;"/><text fill="#000000" font-family="sans-serif" font-size="13" lengthAdjust="spacing" textLength="24" x="19.225" y="87.0002">0..*</text><!--MD5=[6e489335d8a0a0176bf12d16fb839ddd]
link Product to Order--><path codeLine="7" d="M135.94,42.29 C116.83,57.79 89.55,79.91 70.35,95.47 " fill="none" id="Product-Order" style="stroke:#A80036;stroke-width:1.0;"/><polygon fill="#A80036" points="66.14,98.89,75.6474,96.3191,70.0206,95.737,70.6027,90.1102,66.14,98.89" style="stroke:#A80036;stroke-width:1.0;"/><polygon fill="#A80036" points="139.92,39.06,130.4069,41.6098,136.0324,42.2043,135.4379,47.8299,139.92,39.06" style="stroke:#A80036;stroke-width:1.0;"/><text fill="#000000" font-family="sans-serif" font-size="13" lengthAdjust="spacing" textLength="24" x="76.6725" y="87.2095">0..*</text><!--MD5=[28313b65d365f8a5553227a683cc45cd]
@startuml
hide empty members
class Customer {}
class Order {}
class Product {}

Customer <-d-> "0..*" Order
Product <-d[norank]-> "0..*" Order
@enduml

PlantUML version 1.2021.01(Tue Feb 02 07:55:08 GMT 2021)
(GPL source distribution)
Java Runtime: OpenJDK Runtime Environment
JVM: OpenJDK 64-Bit Server VM
Default Encoding: UTF-8
Language: en
Country: US
--></g></svg>