<?xml version="1.0" encoding="us-ascii" standalone="no"?><svg xmlns="http://www.w3.org/2000/svg" xmlns:xlink="http://www.w3.org/1999/xlink" contentStyleType="text/css" height="581px" preserveAspectRatio="none" style="width:413px;height:581px;background:#FFFFFF;" version="1.1" viewBox="0 0 413 581" width="413px" zoomAndPan="magnify"><defs/><g><!--cluster warehouse--><g id="cluster_warehouse"><path d="M54.5,471.38 L144.5,471.38 A3.75,3.75 0 0 1 147,473.88 L154,493.6769 L154.5,493.6769 A2.5,2.5 0 0 1 157,496.1769 L157,572.47 A2.5,2.5 0 0 1 154.5,574.97 L54.5,574.97 A2.5,2.5 0 0 1 52,572.47 L52,473.88 A2.5,2.5 0 0 1 54.5,471.38 " fill="none" style="stroke:#000000;stroke-width:1.5;"/><line style="stroke:#000000;stroke-width:1.5;" x1="52" x2="154" y1="493.6769" y2="493.6769"/><text fill="#000000" font-family="sans-serif" font-size="14" font-weight="bold" lengthAdjust="spacing" textLength="89" x="56" y="486.3751">warehouse</text></g><!--cluster shipping--><g id="cluster_shipping"><path d="M325.5,6 L393.5,6 A3.75,3.75 0 0 1 396,8.5 L403,28.2969 L403.5,28.2969 A2.5,2.5 0 0 1 406,30.7969 L406,107.09 A2.5,2.5 0 0 1 403.5,109.59 L325.5,109.59 A2.5,2.5 0 0 1 323,107.09 L323,8.5 A2.5,2.5 0 0 1 325.5,6 " fill="none" style="stroke:#000000;stroke-width:1.5;"/><line style="stroke:#000000;stroke-width:1.5;" x1="323" x2="403" y1="28.2969" y2="28.2969"/><text fill="#000000" font-family="sans-serif" font-size="14" font-weight="bold" lengthAdjust="spacing" textLength="67" x="327" y="20.9951">shipping</text></g><!--cluster customer--><g id="cluster_customer"><path d="M183.5,471.38 L259.5,471.38 A3.75,3.75 0 0 1 262,473.88 L269,493.6769 L270.5,493.6769 A2.5,2.5 0 0 1 273,496.1769 L273,572.47 A2.5,2.5 0 0 1 270.5,574.97 L183.5,574.97 A2.5,2.5 0 0 1 181,572.47 L181,473.88 A2.5,2.5 0 0 1 183.5,471.38 " fill="none" style="stroke:#000000;stroke-width:1.5;"/><line style="stroke:#000000;stroke-width:1.5;" x1="181" x2="269" y1="493.6769" y2="493.6769"/><text fill="#000000" font-family="sans-serif" font-size="14" font-weight="bold" lengthAdjust="spacing" textLength="75" x="185" y="486.3751">customer</text></g><!--cluster ordermgmt--><g id="cluster_ordermgmt"><path d="M8.5,6 L97.5,6 A3.75,3.75 0 0 1 100,8.5 L107,28.2969 L296.5,28.2969 A2.5,2.5 0 0 1 299,30.7969 L299,444.88 A2.5,2.5 0 0 1 296.5,447.38 L8.5,447.38 A2.5,2.5 0 0 1 6,444.88 L6,8.5 A2.5,2.5 0 0 1 8.5,6 " fill="none" style="stroke:#000000;stroke-width:1.5;"/><line style="stroke:#000000;stroke-width:1.5;" x1="6" x2="107" y1="28.2969" y2="28.2969"/><text fill="#000000" font-family="sans-serif" font-size="14" font-weight="bold" lengthAdjust="spacing" textLength="88" x="10" y="20.9951">ordermgmt</text></g><path d="M75.5,506.38 L124.5,506.38 A3.75,3.75 0 0 1 127,508.88 L134,528.6769 L138.5,528.6769 A2.5,2.5 0 0 1 141,531.1769 L141,556.4738 A2.5,2.5 0 0 1 138.5,558.9738 L75.5,558.9738 A2.5,2.5 0 0 1 73,556.4738 L73,508.88 A2.5,2.5 0 0 1 75.5,506.38 " fill="#F1F1F1" style="stroke:#181818;stroke-width:0.5;"/><line style="stroke:#181818;stroke-width:0.5;" x1="73" x2="134" y1="528.6769" y2="528.6769"/><text fill="#000000" font-family="sans-serif" font-size="14" lengthAdjust="spacing" textLength="48" x="77" y="521.3751">spiimpl</text><path d="M341,41 L373,41 A3.75,3.75 0 0 1 375.5,43.5 L382.5,63.2969 L387,63.2969 A2.5,2.5 0 0 1 389.5,65.7969 L389.5,91.0938 A2.5,2.5 0 0 1 387,93.5938 L341,93.5938 A2.5,2.5 0 0 1 338.5,91.0938 L338.5,43.5 A2.5,2.5 0 0 1 341,41 " fill="#F1F1F1" style="stroke:#181818;stroke-width:0.5;"/><line style="stroke:#181818;stroke-width:0.5;" x1="338.5" x2="382.5" y1="63.2969" y2="63.2969"/><text fill="#000000" font-family="sans-serif" font-size="14" lengthAdjust="spacing" textLength="31" x="342.5" y="55.9951">dom</text><path d="M199,506.38 L241,506.38 A3.75,3.75 0 0 1 243.5,508.88 L250.5,528.6769 L255,528.6769 A2.5,2.5 0 0 1 257.5,531.1769 L257.5,556.4738 A2.5,2.5 0 0 1 255,558.9738 L199,558.9738 A2.5,2.5 0 0 1 196.5,556.4738 L196.5,508.88 A2.5,2.5 0 0 1 199,506.38 " fill="#F1F1F1" style="stroke:#181818;stroke-width:0.5;"/><line style="stroke:#181818;stroke-width:0.5;" x1="196.5" x2="250.5" y1="528.6769" y2="528.6769"/><text fill="#000000" font-family="sans-serif" font-size="14" lengthAdjust="spacing" textLength="41" x="200.5" y="521.3751">applib</text><path d="M245.5,153.59 L266.5,153.59 A3.75,3.75 0 0 1 269,156.09 L276,175.8869 L280.5,175.8869 A2.5,2.5 0 0 1 283,178.3869 L283,203.6838 A2.5,2.5 0 0 1 280.5,206.1838 L245.5,206.1838 A2.5,2.5 0 0 1 243,203.6838 L243,156.09 A2.5,2.5 0 0 1 245.5,153.59 " fill="#F1F1F1" style="stroke:#181818;stroke-width:0.5;"/><line style="stroke:#181818;stroke-width:0.5;" x1="243" x2="276" y1="175.8869" y2="175.8869"/><text fill="#000000" font-family="sans-serif" font-size="14" lengthAdjust="spacing" textLength="20" x="247" y="168.5851">api</text><path d="M225,266.19 L267,266.19 A3.75,3.75 0 0 1 269.5,268.69 L276.5,288.4869 L281,288.4869 A2.5,2.5 0 0 1 283.5,290.9869 L283.5,316.2838 A2.5,2.5 0 0 1 281,318.7838 L225,318.7838 A2.5,2.5 0 0 1 222.5,316.2838 L222.5,268.69 A2.5,2.5 0 0 1 225,266.19 " fill="#F1F1F1" style="stroke:#181818;stroke-width:0.5;"/><line style="stroke:#181818;stroke-width:0.5;" x1="222.5" x2="276.5" y1="288.4869" y2="288.4869"/><text fill="#000000" font-family="sans-serif" font-size="14" lengthAdjust="spacing" textLength="41" x="226.5" y="281.1851">applib</text><path d="M143,153.59 L191,153.59 A3.75,3.75 0 0 1 193.5,156.09 L200.5,175.8869 L205,175.8869 A2.5,2.5 0 0 1 207.5,178.3869 L207.5,203.6838 A2.5,2.5 0 0 1 205,206.1838 L143,206.1838 A2.5,2.5 0 0 1 140.5,203.6838 L140.5,156.09 A2.5,2.5 0 0 1 143,153.59 " fill="#F1F1F1" style="stroke:#181818;stroke-width:0.5;"/><line style="stroke:#181818;stroke-width:0.5;" x1="140.5" x2="200.5" y1="175.8869" y2="175.8869"/><text fill="#000000" font-family="sans-serif" font-size="14" lengthAdjust="spacing" textLength="47" x="144.5" y="168.5851">restapi</text><path d="M39.5,41 L80.5,41 A3.75,3.75 0 0 1 83,43.5 L90,63.2969 L94.5,63.2969 A2.5,2.5 0 0 1 97,65.7969 L97,91.0938 A2.5,2.5 0 0 1 94.5,93.5938 L39.5,93.5938 A2.5,2.5 0 0 1 37,91.0938 L37,43.5 A2.5,2.5 0 0 1 39.5,41 " fill="#F1F1F1" style="stroke:#181818;stroke-width:0.5;"/><line style="stroke:#181818;stroke-width:0.5;" x1="37" x2="90" y1="63.2969" y2="63.2969"/><text fill="#000000" font-family="sans-serif" font-size="14" lengthAdjust="spacing" textLength="40" x="41" y="55.9951">menu</text><path d="M61.5,153.59 L88.5,153.59 A3.75,3.75 0 0 1 91,156.09 L98,175.8869 L102.5,175.8869 A2.5,2.5 0 0 1 105,178.3869 L105,203.6838 A2.5,2.5 0 0 1 102.5,206.1838 L61.5,206.1838 A2.5,2.5 0 0 1 59,203.6838 L59,156.09 A2.5,2.5 0 0 1 61.5,153.59 " fill="#F1F1F1" style="stroke:#181818;stroke-width:0.5;"/><line style="stroke:#181818;stroke-width:0.5;" x1="59" x2="98" y1="175.8869" y2="175.8869"/><text fill="#000000" font-family="sans-serif" font-size="14" lengthAdjust="spacing" textLength="26" x="63" y="168.5851">app</text><path d="M139,266.19 L171,266.19 A3.75,3.75 0 0 1 173.5,268.69 L180.5,288.4869 L185,288.4869 A2.5,2.5 0 0 1 187.5,290.9869 L187.5,316.2838 A2.5,2.5 0 0 1 185,318.7838 L139,318.7838 A2.5,2.5 0 0 1 136.5,316.2838 L136.5,268.69 A2.5,2.5 0 0 1 139,266.19 " fill="#F1F1F1" style="stroke:#181818;stroke-width:0.5;"/><line style="stroke:#181818;stroke-width:0.5;" x1="136.5" x2="180.5" y1="288.4869" y2="288.4869"/><text fill="#000000" font-family="sans-serif" font-size="14" lengthAdjust="spacing" textLength="31" x="140.5" y="281.1851">dom</text><path d="M173.5,378.78 L222.5,378.78 A3.75,3.75 0 0 1 225,381.28 L232,401.0769 L236.5,401.0769 A2.5,2.5 0 0 1 239,403.5769 L239,428.8738 A2.5,2.5 0 0 1 236.5,431.3738 L173.5,431.3738 A2.5,2.5 0 0 1 171,428.8738 L171,381.28 A2.5,2.5 0 0 1 173.5,378.78 " fill="#F1F1F1" style="stroke:#181818;stroke-width:0.5;"/><line style="stroke:#181818;stroke-width:0.5;" x1="171" x2="232" y1="401.0769" y2="401.0769"/><text fill="#000000" font-family="sans-serif" font-size="14" lengthAdjust="spacing" textLength="48" x="175" y="393.7751">contrib</text><path d="M92.5,378.78 L113.5,378.78 A3.75,3.75 0 0 1 116,381.28 L123,401.0769 L127.5,401.0769 A2.5,2.5 0 0 1 130,403.5769 L130,428.8738 A2.5,2.5 0 0 1 127.5,431.3738 L92.5,431.3738 A2.5,2.5 0 0 1 90,428.8738 L90,381.28 A2.5,2.5 0 0 1 92.5,378.78 " fill="#F1F1F1" style="stroke:#181818;stroke-width:0.5;"/><line style="stroke:#181818;stroke-width:0.5;" x1="90" x2="123" y1="401.0769" y2="401.0769"/><text fill="#000000" font-family="sans-serif" font-size="14" lengthAdjust="spacing" textLength="20" x="94" y="393.7751">spi</text><path d="M36.5,266.19 L85.5,266.19 A3.75,3.75 0 0 1 88,268.69 L95,288.4869 L99.5,288.4869 A2.5,2.5 0 0 1 102,290.9869 L102,316.2838 A2.5,2.5 0 0 1 99.5,318.7838 L36.5,318.7838 A2.5,2.5 0 0 1 34,316.2838 L34,268.69 A2.5,2.5 0 0 1 36.5,266.19 " fill="#F1F1F1" style="stroke:#181818;stroke-width:0.5;"/><line style="stroke:#181818;stroke-width:0.5;" x1="34" x2="95" y1="288.4869" y2="288.4869"/><text fill="#000000" font-family="sans-serif" font-size="14" lengthAdjust="spacing" textLength="48" x="38" y="281.1851">spiimpl</text><!--link api to dom--><g id="link_api_dom"><path codeLine="43" d="M242.56,203.27 C227.13,220.17 205.8,243.52 188.97,261.95 " fill="none" id="api-to-dom" style="stroke:#181818;stroke-width:1.0;"/><polygon fill="#181818" points="186.23,265.04,195.2484,261.0816,189.5976,261.3442,189.3351,255.6934,186.23,265.04" style="stroke:#181818;stroke-width:1.0;"/></g><!--link api to applib--><g id="link_api_applib"><path codeLine="44" d="M260.68,206.54 C259.23,222.59 257.35,243.38 255.81,260.37 " fill="none" id="api-to-applib" style="stroke:#181818;stroke-width:1.0;"/><polygon fill="#181818" points="255.31,264.97,260.0906,256.3592,255.7524,259.9896,252.122,255.6514,255.31,264.97" style="stroke:#181818;stroke-width:1.0;"/></g><!--link restapi to dom--><g id="link_restapi_dom"><path codeLine="45" d="M171.22,206.54 C169.48,222.59 167.22,243.38 165.38,260.37 " fill="none" id="restapi-to-dom" style="stroke:#181818;stroke-width:1.0;"/><polygon fill="#181818" points="164.77,264.97,169.7233,256.4574,165.3128,259.9995,161.7706,255.589,164.77,264.97" style="stroke:#181818;stroke-width:1.0;"/></g><!--link menu to dom--><g id="link_menu_dom"><path codeLine="46" d="M52.84,93.87 C38.94,122.68 22.33,170.18 41,206.19 C45.99,215.81 96.95,249.79 131.13,271.85 " fill="none" id="menu-to-dom" style="stroke:#181818;stroke-width:1.0;"/><polygon fill="#181818" points="135.04,275.01,129.6324,266.7785,130.8341,272.3062,125.3064,273.5079,135.04,275.01" style="stroke:#181818;stroke-width:1.0;"/></g><!--link menu to app--><g id="link_menu_app"><path codeLine="47" d="M70.48,93.95 C72.66,110 75.48,130.78 77.78,147.78 " fill="none" id="menu-to-app" style="stroke:#181818;stroke-width:1.0;"/><polygon fill="#181818" points="78.54,152.38,81.2958,142.9246,77.8689,147.4252,73.3682,143.9983,78.54,152.38" style="stroke:#181818;stroke-width:1.0;"/></g><!--link app to dom--><g id="link_app_dom"><path codeLine="48" d="M100.55,206.54 C112.37,222.87 127.72,244.1 140.13,261.25 " fill="none" id="app-to-dom" style="stroke:#181818;stroke-width:1.0;"/><polygon fill="#181818" points="143.55,264.97,141.5096,255.3348,140.6168,260.9208,135.0309,260.0279,143.55,264.97" style="stroke:#181818;stroke-width:1.0;"/></g><!--reverse link dom to contrib--><g id="link_dom_contrib"><path codeLine="49" d="M173.98,324.31 C180.63,341.4 188.8,362.4 195.08,378.57 " fill="none" id="dom-backto-contrib" style="stroke:#181818;stroke-width:1.0;"/><polygon fill="#181818" points="171.97,320.14,171.4996,329.9776,173.7802,324.8008,178.957,327.0814,171.97,320.14" style="stroke:#181818;stroke-width:1.0;"/></g><!--link spiimpl to dom--><g id="link_spiimpl_dom"><path codeLine="50" d="M102.15,292.49 C111.57,292.49 120.99,292.49 130.42,292.49 " fill="none" id="spiimpl-to-dom" style="stroke:#181818;stroke-width:1.0;"/><polygon fill="#181818" points="135.28,292.49,126.28,288.49,130.28,292.49,126.28,296.49,135.28,292.49" style="stroke:#181818;stroke-width:1.0;"/></g><!--link dom to spi--><g id="link_dom_spi"><path codeLine="52" d="M149.94,319.14 C142.33,335.33 132.45,356.33 124.42,373.41 " fill="none" id="dom-to-spi" style="stroke:#181818;stroke-width:1.0;"/><polygon fill="#181818" points="122,377.57,129.4485,371.1264,124.1269,373.0449,122.2084,367.7233,122,377.57" style="stroke:#181818;stroke-width:1.0;"/></g><!--link dom to applib--><g id="link_dom_applib"><path codeLine="53" d="M187.95,292.49 C192.42,292.49 196.88,292.49 201.35,292.49 " fill="none" id="dom-to-applib" style="stroke:#181818;stroke-width:1.0;"/><polygon fill="none" points="201.25,285.49,221.25,292.49,201.25,299.49,201.25,285.49" style="stroke:#181818;stroke-width:1.0;"/></g><!--reverse link spi to spiimpl--><g id="link_spi_spiimpl"><path codeLine="54" d="M108.89,452.75 C108.45,470.76 107.98,490.67 107.61,505.99 " fill="none" id="spi-backto-spiimpl" style="stroke:#181818;stroke-width:1.0;"/><polygon fill="none" points="101.91,452.63,109.39,432.8,115.91,452.96,101.91,452.63" style="stroke:#181818;stroke-width:1.0;"/></g><!--link contrib to applib--><g id="link_contrib_applib"><path codeLine="56" d="M209.51,431.8 C212.98,451.61 217.79,479.09 221.49,500.21 " fill="none" id="contrib-to-applib" style="stroke:#181818;stroke-width:1.0;"/><polygon fill="#181818" points="222.5,504.99,224.8719,495.431,221.6294,500.0664,216.9941,496.8239,222.5,504.99" style="stroke:#181818;stroke-width:1.0;"/></g><!--link dom to api--><g id="link_dom_api"><path codeLine="57" d="M340.57,93.95 C324.57,111.48 303.4,134.65 287.23,152.37 " fill="none" id="dom-to-api" style="stroke:#181818;stroke-width:1.0;"/><polygon fill="#181818" points="284.23,155.74,293.256,151.799,287.6047,152.0507,287.3531,146.3994,284.23,155.74" style="stroke:#181818;stroke-width:1.0;"/></g><!--SRC=[dPDDJiCm48NtFeKla9oWwe8ksB1WXzWWkSae6TL_ifsMgEhTCOGfzGyfmikPByzltiGZzi11sJ1p1MeFpZFc3wYjS4BnJWhl-PdnU1v4TnYScNI_CzAupQO7tsstV3SBNGUi3R7_XCCO7Xt0BvH2WfvH7-gCCnA8UWKfpQdE-U14W66ExCk80UgKiBWE-7i0wW1E2taptbmdZq9ES1MhCw03XlaFKHqHJihq8Eydfl0TTHRPXJ4REJ40Fma7evayV2-Nwd5oL5RovGZ_0xPfwtovbVCZMejwoDHwe_ZFYMh4jMddp1ErRlB1A72Pch1Mulv6ZRWsxMHgnlNWrA128OSaT4LQAiRnQbTdx5BCM0S-VCeaB1KpLe6U2WzKB3tK_DgQNuetOQcOiPtHmSKv4fQA6UjhcVbwPlI_vEnNSVbzojoRPijJo_UXPG-i37jLZ5B-3nHlPEKELfKeq6PQeoYUnaKgXLYvo2Q1uhSrvgqILVceewq8Pcer-_7AxDcnub6dlk8cFW00]--></g></svg>