<?xml version="1.0" encoding="UTF-8" standalone="no"?><svg xmlns="http://www.w3.org/2000/svg" xmlns:xlink="http://www.w3.org/1999/xlink" contentStyleType="text/css" height="407px" preserveAspectRatio="none" style="width:155px;height:407px;background:#FFFFFF;" version="1.1" viewBox="0 0 155 407" width="155px" zoomAndPan="magnify"><defs/><g><!--cluster pets--><g id="cluster_pets"><path d="M8.5,6 L44.5,6 A3.75,3.75 0 0 1 47,8.5 L54,28.2969 L145.5,28.2969 A2.5,2.5 0 0 1 148,30.7969 L148,397.5 A2.5,2.5 0 0 1 145.5,400 L8.5,400 A2.5,2.5 0 0 1 6,397.5 L6,8.5 A2.5,2.5 0 0 1 8.5,6 " fill="none" style="stroke:#000000;stroke-width:1.5;"/><line style="stroke:#000000;stroke-width:1.5;" x1="6" x2="54" y1="28.2969" y2="28.2969"/><text fill="#000000" font-family="sans-serif" font-size="14" font-weight="bold" lengthAdjust="spacing" textLength="35" x="10" y="20.9951">pets</text></g><!--class PetSpecies--><g id="elem_PetSpecies"><rect codeLine="14" fill="#00FFFF" height="113.4531" id="PetSpecies" rx="2.5" ry="2.5" style="stroke:#181818;stroke-width:0.5;" width="110" x="22" y="41"/><ellipse cx="37" cy="61.1328" fill="#EB937F" rx="11" ry="11" style="stroke:#181818;stroke-width:1.0;"/><path d="M41.1094,67.1328 L33.3906,67.1328 L33.3906,54.7422 L41.1094,54.7422 L41.1094,56.8984 L35.8438,56.8984 L35.8438,59.5703 L40.6094,59.5703 L40.6094,61.7266 L35.8438,61.7266 L35.8438,64.9766 L41.1094,64.9766 L41.1094,67.1328 Z " fill="#000000"/><text fill="#000000" font-family="sans-serif" font-size="12" font-style="italic" lengthAdjust="spacing" textLength="43" x="68.5" y="57.1387">«desc»</text><text fill="#000000" font-family="sans-serif" font-size="14" lengthAdjust="spacing" textLength="78" x="51" y="72.9639">PetSpecies</text><line style="stroke:#181818;stroke-width:0.5;" x1="23" x2="131" y1="81.2656" y2="81.2656"/><text fill="#000000" font-family="sans-serif" font-size="14" lengthAdjust="spacing" textLength="29" x="28" y="98.2607">Dog</text><text fill="#000000" font-family="sans-serif" font-size="14" lengthAdjust="spacing" textLength="23" x="28" y="114.5576">Cat</text><text fill="#000000" font-family="sans-serif" font-size="14" lengthAdjust="spacing" textLength="58" x="28" y="130.8545">Hamster</text><text fill="#000000" font-family="sans-serif" font-size="14" lengthAdjust="spacing" textLength="76" x="28" y="147.1514">Budgerigar</text></g><!--class Pet--><g id="elem_Pet"><rect codeLine="21" fill="#90EE90" height="170.0469" id="Pet" rx="2.5" ry="2.5" style="stroke:#181818;stroke-width:0.5;" width="94" x="30" y="214"/><ellipse cx="58.95" cy="234.1328" fill="#ADD1B2" rx="11" ry="11" style="stroke:#181818;stroke-width:1.0;"/><path d="M61.9188,239.7734 Q61.3406,240.0703 60.7,240.2109 Q60.0594,240.3672 59.3563,240.3672 Q56.8563,240.3672 55.5281,238.7266 Q54.2156,237.0703 54.2156,233.9453 Q54.2156,230.8203 55.5281,229.1641 Q56.8563,227.5078 59.3563,227.5078 Q60.0594,227.5078 60.7,227.6641 Q61.3563,227.8203 61.9188,228.1172 L61.9188,230.8359 Q61.2938,230.2578 60.7,229.9922 Q60.1063,229.7109 59.4813,229.7109 Q58.1375,229.7109 57.45,230.7891 Q56.7625,231.8516 56.7625,233.9453 Q56.7625,236.0391 57.45,237.1172 Q58.1375,238.1797 59.4813,238.1797 Q60.1063,238.1797 60.7,237.9141 Q61.2938,237.6328 61.9188,237.0547 L61.9188,239.7734 Z " fill="#000000"/><text fill="#000000" font-family="sans-serif" font-size="12" font-style="italic" lengthAdjust="spacing" textLength="35" x="74.05" y="230.1387">«ppt»</text><text fill="#000000" font-family="sans-serif" font-size="14" lengthAdjust="spacing" textLength="23" x="80.05" y="245.9639">Pet</text><line style="stroke:#181818;stroke-width:0.5;" x1="31" x2="123" y1="254.2656" y2="254.2656"/><ellipse cx="41" cy="267.9141" fill="none" rx="3" ry="3" style="stroke:#038048;stroke-width:1.0;"/><text fill="#000000" font-family="sans-serif" font-size="14" lengthAdjust="spacing" textLength="12" x="50" y="271.2607">id</text><line style="stroke:#181818;stroke-width:1.0;stroke-dasharray:1.0,2.0;" x1="31" x2="123" y1="278.5625" y2="278.5625"/><polygon fill="none" points="41,287.2109,45,291.2109,41,295.2109,37,291.2109" style="stroke:#B38D22;stroke-width:1.0;"/><text fill="#000000" font-family="sans-serif" font-size="14" lengthAdjust="spacing" textLength="68" x="50" y="295.5576">petOwner</text><polygon fill="none" points="41,303.5078,45,307.5078,41,311.5078,37,307.5078" style="stroke:#B38D22;stroke-width:1.0;"/><text fill="#000000" font-family="sans-serif" font-size="14" lengthAdjust="spacing" textLength="39" x="50" y="311.8545">name</text><line style="stroke:#181818;stroke-width:1.0;stroke-dasharray:1.0,2.0;" x1="31" x2="123" y1="319.1563" y2="319.1563"/><rect fill="none" height="6" style="stroke:#C82930;stroke-width:1.0;" width="6" x="38" y="329.8047"/><text fill="#000000" font-family="sans-serif" font-size="14" lengthAdjust="spacing" textLength="54" x="50" y="336.1514">species</text><rect fill="none" height="6" style="stroke:#C82930;stroke-width:1.0;" width="6" x="38" y="346.1016"/><text fill="#000000" font-family="sans-serif" font-size="14" lengthAdjust="spacing" textLength="40" x="50" y="352.4482">notes</text><line style="stroke:#181818;stroke-width:1.0;stroke-dasharray:1.0,2.0;" x1="31" x2="123" y1="359.75" y2="359.75"/><rect fill="none" height="6" style="stroke:#C82930;stroke-width:1.0;" width="6" x="38" y="370.3984"/><text fill="#000000" font-family="sans-serif" font-size="14" lengthAdjust="spacing" textLength="50" x="50" y="376.7451">version</text></g><!--reverse link PetSpecies to Pet--><g id="link_PetSpecies_Pet"><path codeLine="35" d="M77,160.47 C77,177.35 77,195.92 77,213.81 " fill="none" id="PetSpecies-backto-Pet" style="stroke:#181818;stroke-width:1.0;"/><polygon fill="#181818" points="77,155.85,73,164.85,77,160.85,81,164.85,77,155.85" style="stroke:#181818;stroke-width:1.0;"/><text fill="#000000" font-family="sans-serif" font-size="13" lengthAdjust="spacing" textLength="7" x="69.6992" y="202.915">*</text></g><!--SRC=[RP5DQiCm48NNrIc6PDVYd21u4HVQHQ61hhgSMWzPsFf1aXj2oDqhrrZnmaABDpCVCq-ZJaiGZ4zNCZ0_255qKyeWTKv68MAlhUV0Xjg1OwIRU3fnswlWHYiRDxXmF4h4jgwfkRBTg7gVSl53gowz1M0BCNeXpjhs6q1m0nRa6yFWBk8kXF2POmNoI9CpGVd0ZeREI5yUhKQaOk_sNvxEgrD5DvoAVcSJ4qA9JwDK25hndBhF0-Ozv0cqlEtH-KNBeW-78lVPuEV5hbhlBHjieLMSVJyIrgLLk4P_ytTfPnTp-KwkQFUyesgiwjKM_W00]--></g></svg>