<?xml version="1.0" encoding="UTF-8" standalone="no"?><svg xmlns="http://www.w3.org/2000/svg" xmlns:xlink="http://www.w3.org/1999/xlink" contentStyleType="text/css" height="210px" preserveAspectRatio="none" style="width:300px;height:210px;background:#FFFFFF;" version="1.1" viewBox="0 0 300 210" width="300px" zoomAndPan="magnify"><defs/><g><!--cluster pets--><g id="cluster_pets"><path d="M8.5,6 L44.5,6 A3.75,3.75 0 0 1 47,8.5 L54,28.2969 L290.5,28.2969 A2.5,2.5 0 0 1 293,30.7969 L293,200.5 A2.5,2.5 0 0 1 290.5,203 L8.5,203 A2.5,2.5 0 0 1 6,200.5 L6,8.5 A2.5,2.5 0 0 1 8.5,6 " fill="none" style="stroke:#000000;stroke-width:1.5;"/><line style="stroke:#000000;stroke-width:1.5;" x1="6" x2="54" y1="28.2969" y2="28.2969"/><text fill="#000000" font-family="sans-serif" font-size="14" font-weight="bold" lengthAdjust="spacing" textLength="35" x="10" y="20.9951">pets</text></g><!--class Pet--><g id="elem_Pet"><rect codeLine="14" fill="#90EE90" height="129.4531" id="Pet" rx="2.5" ry="2.5" style="stroke:#181818;stroke-width:0.5;" width="94" x="183" y="49.5"/><ellipse cx="211.95" cy="69.6328" fill="#ADD1B2" rx="11" ry="11" style="stroke:#181818;stroke-width:1.0;"/><path d="M214.9188,75.2734 Q214.3406,75.5703 213.7,75.7109 Q213.0594,75.8672 212.3563,75.8672 Q209.8563,75.8672 208.5281,74.2266 Q207.2156,72.5703 207.2156,69.4453 Q207.2156,66.3203 208.5281,64.6641 Q209.8563,63.0078 212.3563,63.0078 Q213.0594,63.0078 213.7,63.1641 Q214.3563,63.3203 214.9188,63.6172 L214.9188,66.3359 Q214.2938,65.7578 213.7,65.4922 Q213.1063,65.2109 212.4813,65.2109 Q211.1375,65.2109 210.45,66.2891 Q209.7625,67.3516 209.7625,69.4453 Q209.7625,71.5391 210.45,72.6172 Q211.1375,73.6797 212.4813,73.6797 Q213.1063,73.6797 213.7,73.4141 Q214.2938,73.1328 214.9188,72.5547 L214.9188,75.2734 Z " fill="#000000"/><text fill="#000000" font-family="sans-serif" font-size="12" font-style="italic" lengthAdjust="spacing" textLength="35" x="227.05" y="65.6387">«ppt»</text><text fill="#000000" font-family="sans-serif" font-size="14" lengthAdjust="spacing" textLength="23" x="233.05" y="81.4639">Pet</text><line style="stroke:#181818;stroke-width:0.5;" x1="184" x2="276" y1="89.7656" y2="89.7656"/><ellipse cx="194" cy="103.4141" fill="none" rx="3" ry="3" style="stroke:#038048;stroke-width:1.0;"/><text fill="#000000" font-family="sans-serif" font-size="14" lengthAdjust="spacing" textLength="12" x="203" y="106.7607">id</text><line style="stroke:#181818;stroke-width:1.0;stroke-dasharray:1.0,2.0;" x1="184" x2="276" y1="114.0625" y2="114.0625"/><polygon fill="none" points="194,122.7109,198,126.7109,194,130.7109,190,126.7109" style="stroke:#B38D22;stroke-width:1.0;"/><text fill="#000000" font-family="sans-serif" font-size="14" lengthAdjust="spacing" textLength="68" x="203" y="131.0576">petOwner</text><polygon fill="none" points="194,139.0078,198,143.0078,194,147.0078,190,143.0078" style="stroke:#B38D22;stroke-width:1.0;"/><text fill="#000000" font-family="sans-serif" font-size="14" lengthAdjust="spacing" textLength="39" x="203" y="147.3545">name</text><line style="stroke:#181818;stroke-width:1.0;stroke-dasharray:1.0,2.0;" x1="184" x2="276" y1="154.6563" y2="154.6563"/><text fill="#000000" font-family="sans-serif" font-size="14" lengthAdjust="spacing" textLength="50" x="189" y="171.6514">version</text></g><!--class PetOwner--><g id="elem_PetOwner"><rect codeLine="23" fill="#FFFFE0" height="145.75" id="PetOwner" rx="2.5" ry="2.5" style="stroke:#181818;stroke-width:0.5;" width="126" x="22" y="41"/><ellipse cx="48.7" cy="61.1328" fill="#ADD1B2" rx="11" ry="11" style="stroke:#181818;stroke-width:1.0;"/><path d="M51.6688,66.7734 Q51.0906,67.0703 50.45,67.2109 Q49.8094,67.3672 49.1063,67.3672 Q46.6063,67.3672 45.2781,65.7266 Q43.9656,64.0703 43.9656,60.9453 Q43.9656,57.8203 45.2781,56.1641 Q46.6063,54.5078 49.1063,54.5078 Q49.8094,54.5078 50.45,54.6641 Q51.1063,54.8203 51.6688,55.1172 L51.6688,57.8359 Q51.0438,57.2578 50.45,56.9922 Q49.8563,56.7109 49.2313,56.7109 Q47.8875,56.7109 47.2,57.7891 Q46.5125,58.8516 46.5125,60.9453 Q46.5125,63.0391 47.2,64.1172 Q47.8875,65.1797 49.2313,65.1797 Q49.8563,65.1797 50.45,64.9141 Q51.0438,64.6328 51.6688,64.0547 L51.6688,66.7734 Z " fill="#000000"/><text fill="#000000" font-family="sans-serif" font-size="12" font-style="italic" lengthAdjust="spacing" textLength="38" x="80.3" y="57.1387">«role»</text><text fill="#000000" font-family="sans-serif" font-size="14" lengthAdjust="spacing" textLength="68" x="65.3" y="72.9639">PetOwner</text><line style="stroke:#181818;stroke-width:0.5;" x1="23" x2="147" y1="81.2656" y2="81.2656"/><ellipse cx="33" cy="94.9141" fill="none" rx="3" ry="3" style="stroke:#038048;stroke-width:1.0;"/><text fill="#000000" font-family="sans-serif" font-size="14" lengthAdjust="spacing" textLength="12" x="42" y="98.2607">id</text><line style="stroke:#181818;stroke-width:1.0;stroke-dasharray:1.0,2.0;" x1="23" x2="147" y1="105.5625" y2="105.5625"/><polygon fill="none" points="33,114.2109,37,118.2109,33,122.2109,29,118.2109" style="stroke:#B38D22;stroke-width:1.0;"/><text fill="#000000" font-family="sans-serif" font-size="14" lengthAdjust="spacing" textLength="64" x="42" y="122.5576">lastName</text><polygon fill="none" points="33,130.5078,37,134.5078,33,138.5078,29,134.5078" style="stroke:#B38D22;stroke-width:1.0;"/><text fill="#000000" font-family="sans-serif" font-size="14" lengthAdjust="spacing" textLength="65" x="42" y="138.8545">firstName</text><line style="stroke:#181818;stroke-width:1.0;stroke-dasharray:1.0,2.0;" x1="23" x2="147" y1="146.1563" y2="146.1563"/><rect fill="none" height="6" style="stroke:#C82930;stroke-width:1.0;" width="6" x="30" y="156.8047"/><text fill="#000000" font-family="sans-serif" font-size="14" lengthAdjust="spacing" textLength="100" x="42" y="163.1514">phoneNumber</text><rect fill="none" height="6" style="stroke:#C82930;stroke-width:1.0;" width="6" x="30" y="173.1016"/><text fill="#000000" font-family="sans-serif" font-size="14" lengthAdjust="spacing" textLength="93" x="42" y="179.4482">emailAddress</text></g><!--link PetOwner to Pet--><g id="link_PetOwner_Pet"><path codeLine="35" d="M161.95,114 C161.95,114 166.31,114 168.05,114 " fill="none" id="PetOwner-Pet" style="stroke:#181818;stroke-width:1.0;"/><polygon fill="#181818" points="149.95,114,155.95,118,161.95,114,155.95,110,149.95,114" style="stroke:#181818;stroke-width:1.0;"/><polygon fill="#181818" points="181.01,114,172.01,110,176.01,114,172.01,118,181.01,114" style="stroke:#181818;stroke-width:1.0;"/><line style="stroke:#181818;stroke-width:1.0;" x1="176.01" x2="168.01" y1="114" y2="114"/><text fill="#000000" font-family="sans-serif" font-size="13" lengthAdjust="spacing" textLength="23" x="156.0208" y="109.658">0..*</text></g><!--SRC=[XP5DQiCm48NNdLCCoIx59WS8XZQBRagQRPQgDRM4zST8QGWXTw_arau8XivgzEQJtcEaj2Ga6z8PBTbFuWYgI9QIyZ82n5wx85XOR8s84I_mz2hQlcD_T7BhZUVDHb9icmQtP-5cfY6aF7pNdKflJ3I7M3qIU-tw6O2zeH4va37-15S029aJ7M6WL981vlgDkQU4e_Lbq4izQpdrTJsrotp_u-I8RueJbkRGxxmXxTrmlZuO3a_W5FP_stmnxUwDbb-Q7wGxlWhAEzeTopVTHB92cnSfcMByYrLMC-LPLLnL3IxMTRrQb9W_]--></g></svg>