<?xml version="1.0" encoding="UTF-8" standalone="no"?><svg xmlns="http://www.w3.org/2000/svg" xmlns:xlink="http://www.w3.org/1999/xlink" contentStyleType="text/css" height="196px" preserveAspectRatio="none" style="width:278px;height:196px;background:#FFFFFF;" version="1.1" viewBox="0 0 278 196" width="278px" zoomAndPan="magnify"><defs/><g><rect height="26.7999" style="stroke:#00000000;stroke-width:1.0;fill:none;" width="260" x="5" y="5"/><text fill="#000000" font-family="sans-serif" font-size="14" font-weight="bold" lengthAdjust="spacing" textLength="250" x="10" y="23.9999">Core: Model Annotation - Containers</text><!--MD5=[07e39d626266bd9541f388ddf963490e]
cluster Core: Model Annotation\n[Software System]--><g id="cluster_Core: Model Annotation\n[Software System]"><path d="M21,43.7999 L184,43.7999 A3.75,3.75 0 0 1 186.5,46.2999 L193.5,83.3998 L262,83.3998 A2.5,2.5 0 0 1 264.5,85.8998 L264.5,161.2999 A2.5,2.5 0 0 1 262,163.7999 L21,163.7999 A2.5,2.5 0 0 1 18.5,161.2999 L18.5,46.2999 A2.5,2.5 0 0 1 21,43.7999 " style="stroke:#000000;stroke-width:1.5;fill:none;"/><line style="stroke:#000000;stroke-width:1.5;fill:none;" x1="18.5" x2="193.5" y1="83.3998" y2="83.3998"/><text fill="#000000" font-family="sans-serif" font-size="14" font-weight="bold" lengthAdjust="spacing" textLength="162" x="22.5" y="59.7999">Core: Model Annotation</text><text fill="#000000" font-family="sans-serif" font-size="14" font-weight="bold" lengthAdjust="spacing" textLength="127" x="40" y="76.5998">[Software System]</text></g><!--MD5=[773709cb2207c097691e7e7d3d2cc787]
entity 2--><g id="elem_2"><rect fill="#438DD5" height="51.2" rx="2.5" ry="2.5" style="stroke:#2E6295;stroke-width:0.5;" width="214" x="34.5" y="96.2999"/><text fill="#FFFFFE" font-family="sans-serif" font-size="16" font-weight="bold" lengthAdjust="spacing" textLength="194" x="44.5" y="122.3">Apache Isis Ext - @Model</text><text fill="#FFFFFE" font-family="sans-serif" font-size="10" lengthAdjust="spacing" textLength="111" x="86" y="135.5">[Container: packaging: jar]</text></g><rect height="16.7999" style="stroke:#00000000;stroke-width:1.0;fill:none;" width="164" x="53" y="170.7999"/><text fill="#000000" font-family="sans-serif" font-size="14" lengthAdjust="spacing" textLength="164" x="53" y="184.7999">Artifact Hierarchy (Maven)</text><!--MD5=[384b5feb6d4ded0c42a2d18194bc18d3]
@startuml
title Core: Model Annotation - Containers
caption Artifact Hierarchy (Maven)

skinparam {
  shadowing false
  arrowFontSize 10
  defaultTextAlignment center
  wrapWidth 200
  maxMessageSize 100
}
hide stereotype
left to right direction
skinparam rectangle<<2>> {
  BackgroundColor #438dd5
  FontColor #fffffe
  BorderColor #2E6295
}
package "Core: Model Annotation\n[Software System]" {
  rectangle "==Apache Isis Ext - @Model\n<size:10>[Container: packaging: jar]</size>" <<2>> as 2
}
@enduml

PlantUML version 1.2022.5(Sat Apr 30 10:55:52 GMT 2022)
(GPL source distribution)
Java Runtime: OpenJDK Runtime Environment
JVM: OpenJDK 64-Bit Server VM
Default Encoding: UTF-8
Language: en
Country: US
--></g></svg>