<?xml version="1.0" encoding="us-ascii" standalone="no"?><svg xmlns="http://www.w3.org/2000/svg" xmlns:xlink="http://www.w3.org/1999/xlink" contentStyleType="text/css" height="454px" preserveAspectRatio="none" style="width:409px;height:454px;background:#FFFFFF;" version="1.1" viewBox="0 0 409 454" width="409px" zoomAndPan="magnify"><defs/><g><!--cluster ordermgmt--><g id="cluster_ordermgmt"><path d="M8.5,6 L97.5,6 A3.75,3.75 0 0 1 100,8.5 L107,28.2969 L399.5,28.2969 A2.5,2.5 0 0 1 402,30.7969 L402,444.88 A2.5,2.5 0 0 1 399.5,447.38 L8.5,447.38 A2.5,2.5 0 0 1 6,444.88 L6,8.5 A2.5,2.5 0 0 1 8.5,6 " fill="none" style="stroke:#000000;stroke-width:1.5;"/><line style="stroke:#000000;stroke-width:1.5;" x1="6" x2="107" y1="28.2969" y2="28.2969"/><text fill="#000000" font-family="sans-serif" font-size="14" font-weight="bold" lengthAdjust="spacing" textLength="88" x="10" y="20.9951">ordermgmt</text></g><path d="M348.5,153.6 L369.5,153.6 A3.75,3.75 0 0 1 372,156.1 L379,175.8969 L383.5,175.8969 A2.5,2.5 0 0 1 386,178.3969 L386,203.6938 A2.5,2.5 0 0 1 383.5,206.1938 L348.5,206.1938 A2.5,2.5 0 0 1 346,203.6938 L346,156.1 A2.5,2.5 0 0 1 348.5,153.6 " fill="#F1F1F1" style="stroke:#181818;stroke-width:0.5;"/><line style="stroke:#181818;stroke-width:0.5;" x1="346" x2="379" y1="175.8969" y2="175.8969"/><text fill="#000000" font-family="sans-serif" font-size="14" lengthAdjust="spacing" textLength="20" x="350" y="168.5951">api</text><path d="M319,266.19 L361,266.19 A3.75,3.75 0 0 1 363.5,268.69 L370.5,288.4869 L375,288.4869 A2.5,2.5 0 0 1 377.5,290.9869 L377.5,316.2838 A2.5,2.5 0 0 1 375,318.7838 L319,318.7838 A2.5,2.5 0 0 1 316.5,316.2838 L316.5,268.69 A2.5,2.5 0 0 1 319,266.19 " fill="#F1F1F1" style="stroke:#181818;stroke-width:0.5;"/><line style="stroke:#181818;stroke-width:0.5;" x1="316.5" x2="370.5" y1="288.4869" y2="288.4869"/><text fill="#000000" font-family="sans-serif" font-size="14" lengthAdjust="spacing" textLength="41" x="320.5" y="281.1851">applib</text><path d="M230.5,41 L271.5,41 A3.75,3.75 0 0 1 274,43.5 L281,63.2969 L285.5,63.2969 A2.5,2.5 0 0 1 288,65.7969 L288,91.0938 A2.5,2.5 0 0 1 285.5,93.5938 L230.5,93.5938 A2.5,2.5 0 0 1 228,91.0938 L228,43.5 A2.5,2.5 0 0 1 230.5,41 " fill="#F1F1F1" style="stroke:#181818;stroke-width:0.5;"/><line style="stroke:#181818;stroke-width:0.5;" x1="228" x2="281" y1="63.2969" y2="63.2969"/><text fill="#000000" font-family="sans-serif" font-size="14" lengthAdjust="spacing" textLength="40" x="232" y="55.9951">menu</text><path d="M128,153.6 L176,153.6 A3.75,3.75 0 0 1 178.5,156.1 L185.5,175.8969 L190,175.8969 A2.5,2.5 0 0 1 192.5,178.3969 L192.5,203.6938 A2.5,2.5 0 0 1 190,206.1938 L128,206.1938 A2.5,2.5 0 0 1 125.5,203.6938 L125.5,156.1 A2.5,2.5 0 0 1 128,153.6 " fill="#F1F1F1" style="stroke:#181818;stroke-width:0.5;"/><line style="stroke:#181818;stroke-width:0.5;" x1="125.5" x2="185.5" y1="175.8969" y2="175.8969"/><text fill="#000000" font-family="sans-serif" font-size="14" lengthAdjust="spacing" textLength="47" x="129.5" y="168.5951">restapi</text><path d="M267.5,153.6 L294.5,153.6 A3.75,3.75 0 0 1 297,156.1 L304,175.8969 L308.5,175.8969 A2.5,2.5 0 0 1 311,178.3969 L311,203.6938 A2.5,2.5 0 0 1 308.5,206.1938 L267.5,206.1938 A2.5,2.5 0 0 1 265,203.6938 L265,156.1 A2.5,2.5 0 0 1 267.5,153.6 " fill="#F1F1F1" style="stroke:#181818;stroke-width:0.5;"/><line style="stroke:#181818;stroke-width:0.5;" x1="265" x2="304" y1="175.8969" y2="175.8969"/><text fill="#000000" font-family="sans-serif" font-size="14" lengthAdjust="spacing" textLength="26" x="269" y="168.5951">app</text><path d="M215,266.19 L247,266.19 A3.75,3.75 0 0 1 249.5,268.69 L256.5,288.4869 L261,288.4869 A2.5,2.5 0 0 1 263.5,290.9869 L263.5,316.2838 A2.5,2.5 0 0 1 261,318.7838 L215,318.7838 A2.5,2.5 0 0 1 212.5,316.2838 L212.5,268.69 A2.5,2.5 0 0 1 215,266.19 " fill="#F1F1F1" style="stroke:#181818;stroke-width:0.5;"/><line style="stroke:#181818;stroke-width:0.5;" x1="212.5" x2="256.5" y1="288.4869" y2="288.4869"/><text fill="#000000" font-family="sans-serif" font-size="14" lengthAdjust="spacing" textLength="31" x="216.5" y="281.1851">dom</text><path d="M220.5,378.79 L241.5,378.79 A3.75,3.75 0 0 1 244,381.29 L251,401.0869 L255.5,401.0869 A2.5,2.5 0 0 1 258,403.5869 L258,428.8837 A2.5,2.5 0 0 1 255.5,431.3837 L220.5,431.3837 A2.5,2.5 0 0 1 218,428.8837 L218,381.29 A2.5,2.5 0 0 1 220.5,378.79 " fill="#F1F1F1" style="stroke:#181818;stroke-width:0.5;"/><line style="stroke:#181818;stroke-width:0.5;" x1="218" x2="251" y1="401.0869" y2="401.0869"/><text fill="#000000" font-family="sans-serif" font-size="14" lengthAdjust="spacing" textLength="20" x="222" y="393.7851">spi</text><path d="M112.5,266.19 L161.5,266.19 A3.75,3.75 0 0 1 164,268.69 L171,288.4869 L175.5,288.4869 A2.5,2.5 0 0 1 178,290.9869 L178,316.2838 A2.5,2.5 0 0 1 175.5,318.7838 L112.5,318.7838 A2.5,2.5 0 0 1 110,316.2838 L110,268.69 A2.5,2.5 0 0 1 112.5,266.19 " fill="#F1F1F1" style="stroke:#181818;stroke-width:0.5;"/><line style="stroke:#181818;stroke-width:0.5;" x1="110" x2="171" y1="288.4869" y2="288.4869"/><text fill="#000000" font-family="sans-serif" font-size="14" lengthAdjust="spacing" textLength="48" x="114" y="281.1851">spiimpl</text><path d="M24.5,153.6 L73.5,153.6 A3.75,3.75 0 0 1 76,156.1 L83,175.8969 L87.5,175.8969 A2.5,2.5 0 0 1 90,178.3969 L90,203.6938 A2.5,2.5 0 0 1 87.5,206.1938 L24.5,206.1938 A2.5,2.5 0 0 1 22,203.6938 L22,156.1 A2.5,2.5 0 0 1 24.5,153.6 " fill="#F1F1F1" style="stroke:#181818;stroke-width:0.5;"/><line style="stroke:#181818;stroke-width:0.5;" x1="22" x2="83" y1="175.8969" y2="175.8969"/><text fill="#000000" font-family="sans-serif" font-size="14" lengthAdjust="spacing" textLength="48" x="26" y="168.5951">contrib</text><!--link api to dom--><g id="link_api_dom"><path codeLine="32" d="M345.72,198.42 C324.88,216.42 292.2,244.66 268.29,265.31 " fill="none" id="api-to-dom" style="stroke:#181818;stroke-width:1.0;"/><polygon fill="#181818" points="264.94,269.08,274.3597,266.2043,268.717,265.8037,269.1176,260.1611,264.94,269.08" style="stroke:#181818;stroke-width:1.0;"/></g><!--link api to applib--><g id="link_api_applib"><path codeLine="33" d="M361.59,206.55 C358.84,222.6 355.26,243.38 352.35,260.37 " fill="none" id="api-to-applib" style="stroke:#181818;stroke-width:1.0;"/><polygon fill="#181818" points="351.38,264.98,356.8629,256.7985,352.2367,260.0539,348.9812,255.4277,351.38,264.98" style="stroke:#181818;stroke-width:1.0;"/></g><!--link restapi to dom--><g id="link_restapi_dom"><path codeLine="34" d="M177.32,206.55 C188.99,222.88 204.15,244.11 216.4,261.26 " fill="none" id="restapi-to-dom" style="stroke:#181818;stroke-width:1.0;"/><polygon fill="#181818" points="219.78,264.98,217.7781,255.3367,216.863,260.9191,211.2807,260.0039,219.78,264.98" style="stroke:#181818;stroke-width:1.0;"/></g><!--link menu to dom--><g id="link_menu_dom"><path codeLine="35" d="M254.26,94.01 C251.9,110.91 248.95,133.54 247,153.6 C243.46,190.05 240.94,232.05 239.49,260.03 " fill="none" id="menu-to-dom" style="stroke:#181818;stroke-width:1.0;"/><polygon fill="#181818" points="239.19,264.78,243.647,255.9973,239.4468,259.7866,235.6575,255.5864,239.19,264.78" style="stroke:#181818;stroke-width:1.0;"/></g><!--link menu to app--><g id="link_menu_app"><path codeLine="36" d="M264.96,93.95 C269.31,110 274.95,130.79 279.56,147.78 " fill="none" id="menu-to-app" style="stroke:#181818;stroke-width:1.0;"/><polygon fill="#181818" points="281.08,152.38,282.5759,142.6454,279.7668,147.5555,274.8567,144.7465,281.08,152.38" style="stroke:#181818;stroke-width:1.0;"/></g><!--link app to dom--><g id="link_app_dom"><path codeLine="37" d="M276.4,206.55 C269.08,222.74 259.59,243.74 251.87,260.82 " fill="none" id="app-to-dom" style="stroke:#181818;stroke-width:1.0;"/><polygon fill="#181818" points="249.53,264.98,256.8787,258.4228,251.5872,260.4228,249.5871,255.1313,249.53,264.98" style="stroke:#181818;stroke-width:1.0;"/></g><!--link contrib to dom--><g id="link_contrib_dom"><path codeLine="38" d="M90.23,201.7 C123.86,222.13 174.69,253.02 207.11,272.72 " fill="none" id="contrib-to-dom" style="stroke:#181818;stroke-width:1.0;"/><polygon fill="#181818" points="211.15,275.78,205.542,267.6837,206.879,273.1803,201.3824,274.5173,211.15,275.78" style="stroke:#181818;stroke-width:1.0;"/></g><!--link spiimpl to dom--><g id="link_spiimpl_dom"><path codeLine="39" d="M178.15,292.49 C187.57,292.49 196.99,292.49 206.42,292.49 " fill="none" id="spiimpl-to-dom" style="stroke:#181818;stroke-width:1.0;"/><polygon fill="#181818" points="211.28,292.49,202.28,288.49,206.28,292.49,202.28,296.49,211.28,292.49" style="stroke:#181818;stroke-width:1.0;"/></g><!--link dom to spi--><g id="link_dom_spi"><path codeLine="41" d="M238,319.14 C238,335.19 238,355.98 238,372.97 " fill="none" id="dom-to-spi" style="stroke:#181818;stroke-width:1.0;"/><polygon fill="#181818" points="238,377.57,242,368.57,238,372.57,234,368.57,238,377.57" style="stroke:#181818;stroke-width:1.0;"/></g><!--link dom to applib--><g id="link_dom_applib"><path codeLine="42" d="M263.97,292.49 C274.44,292.49 284.91,292.49 295.38,292.49 " fill="none" id="dom-to-applib" style="stroke:#181818;stroke-width:1.0;"/><polygon fill="none" points="295.19,285.49,315.19,292.49,295.19,299.49,295.19,285.49" style="stroke:#181818;stroke-width:1.0;"/></g><!--SRC=[dT5BJiCm40RWlK_X2uGJL5dG1HiMx10R93SU9QFufR7J4bMzEox5G6oJ8BBBdoz-_3EW10xQXPbhq0SWpvWVqJX1GlDE2U_vcV7ut8jkxCbEHkwjihJRIV1Ts_BzB4mTE1VYzqViX_100ByeZGazeHdhXgo2f5v0ANkgEnz81EZdQ9y7351Nmk4wy5i0JG0oGlsutboNHw4c-5giRi043FCVgZeYdBILeBORq_Y69glimXXp4OeUk2K9f7iTFgURyjZDzPKB_qtkKdY-PDOfF1Js5cPMWvcATLEOMG8VhbikR0hBCzJEwshdbLQNDeMPzRKUVBs76ADsgh0VOMOxQmB5VXOsXT766PMzDqtBbqVUHhSviBB0rSNIHFw3uewidC7gIkdYgoWrsL1KIyJAEJPoeUBFLVHQTlKE]--></g></svg>