<?xml version="1.0" encoding="UTF-8" standalone="no"?><svg xmlns="http://www.w3.org/2000/svg" xmlns:xlink="http://www.w3.org/1999/xlink" contentStyleType="text/css" height="135px" preserveAspectRatio="none" style="width:358px;height:135px;background:#FFFFFF;" version="1.1" viewBox="0 0 358 135" width="358px" zoomAndPan="magnify"><defs/><g><!--class Customer--><g id="elem_Customer"><rect fill="#F1F1F1" height="32" id="Customer" rx="2.5" ry="2.5" style="stroke:#181818;stroke-width:0.5;" width="100" x="7" y="51.5"/><ellipse cx="22" cy="67.5" fill="#ADD1B2" rx="11" ry="11" style="stroke:#181818;stroke-width:1.0;"/><path d="M24.9688,73.1406 Q24.3906,73.4375 23.75,73.5781 Q23.1094,73.7344 22.4063,73.7344 Q19.9063,73.7344 18.5781,72.0938 Q17.2656,70.4375 17.2656,67.3125 Q17.2656,64.1875 18.5781,62.5313 Q19.9063,60.875 22.4063,60.875 Q23.1094,60.875 23.75,61.0313 Q24.4063,61.1875 24.9688,61.4844 L24.9688,64.2031 Q24.3438,63.625 23.75,63.3594 Q23.1563,63.0781 22.5313,63.0781 Q21.1875,63.0781 20.5,64.1563 Q19.8125,65.2188 19.8125,67.3125 Q19.8125,69.4063 20.5,70.4844 Q21.1875,71.5469 22.5313,71.5469 Q23.1563,71.5469 23.75,71.2813 Q24.3438,71 24.9688,70.4219 L24.9688,73.1406 Z " fill="#000000"/><text fill="#000000" font-family="sans-serif" font-size="14" lengthAdjust="spacing" textLength="68" x="36" y="72.3467">Customer</text></g><!--class Order--><g id="elem_Order"><rect codeLine="5" fill="#F1F1F1" height="121.4844" id="Order" rx="2.5" ry="2.5" style="stroke:#181818;stroke-width:0.5;" width="151" x="200.5" y="7"/><ellipse cx="252.25" cy="23" fill="#ADD1B2" rx="11" ry="11" style="stroke:#181818;stroke-width:1.0;"/><path d="M255.2188,28.6406 Q254.6406,28.9375 254,29.0781 Q253.3594,29.2344 252.6563,29.2344 Q250.1563,29.2344 248.8281,27.5938 Q247.5156,25.9375 247.5156,22.8125 Q247.5156,19.6875 248.8281,18.0313 Q250.1563,16.375 252.6563,16.375 Q253.3594,16.375 254,16.5313 Q254.6563,16.6875 255.2188,16.9844 L255.2188,19.7031 Q254.5938,19.125 254,18.8594 Q253.4063,18.5781 252.7813,18.5781 Q251.4375,18.5781 250.75,19.6563 Q250.0625,20.7188 250.0625,22.8125 Q250.0625,24.9063 250.75,25.9844 Q251.4375,27.0469 252.7813,27.0469 Q253.4063,27.0469 254,26.7813 Q254.5938,26.5 255.2188,25.9219 L255.2188,28.6406 Z " fill="#000000"/><text fill="#000000" font-family="sans-serif" font-size="14" lengthAdjust="spacing" textLength="39" x="272.75" y="27.8467">Order</text><line style="stroke:#181818;stroke-width:0.5;" x1="201.5" x2="350.5" y1="39" y2="39"/><text fill="#000000" font-family="sans-serif" font-size="14" lengthAdjust="spacing" textLength="57" x="206.5" y="55.9951">num: int</text><text fill="#000000" font-family="sans-serif" font-size="14" lengthAdjust="spacing" textLength="108" x="206.5" y="72.292">placedOn: Date</text><text fill="#000000" font-family="sans-serif" font-size="14" lengthAdjust="spacing" textLength="118" x="206.5" y="88.5889">shippedOn: Date</text><text fill="#000000" font-family="sans-serif" font-size="14" lengthAdjust="spacing" textLength="80" x="206.5" y="104.8857">state: State</text><text fill="#000000" font-family="sans-serif" font-size="14" lengthAdjust="spacing" textLength="139" x="206.5" y="121.1826">amount: BigDecimal</text></g><!--link Customer to Order--><g id="link_Customer_Order"><path codeLine="3" d="M120.76,67.5 C120.76,67.5 164.35,67.5 185.88,67.5 " fill="none" id="Customer-Order" style="stroke:#181818;stroke-width:1.0;"/><polygon fill="#181818" points="108.76,67.5,114.76,71.5,120.76,67.5,114.76,63.5,108.76,67.5" style="stroke:#181818;stroke-width:1.0;"/><polygon fill="#181818" points="198.69,67.5,189.69,63.5,193.69,67.5,189.69,71.5,198.69,67.5" style="stroke:#181818;stroke-width:1.0;"/><line style="stroke:#181818;stroke-width:1.0;" x1="193.69" x2="185.69" y1="67.5" y2="67.5"/><text fill="#000000" font-family="sans-serif" font-size="13" lengthAdjust="spacing" textLength="41" x="141.25" y="60.5669">orders</text><text fill="#000000" font-family="sans-serif" font-size="13" lengthAdjust="spacing" textLength="8" x="114.8675" y="63.5215">1</text><text fill="#000000" font-family="sans-serif" font-size="13" lengthAdjust="spacing" textLength="23" x="169.4248" y="80.2192">0..*</text></g><!--SRC=[NOcn3i8W54NtznKlZ4tQwChWeDqx-0K8BvQ41mGUGsFyTscZYtUwvvpLEqBYB1ioyODA1RYrAecfe3eh7COoNb2TfcbGk1JNjKQ5VMc7gW1iCBL-smls51jhz54EoC5OSalKE1kXGzNLv_plf3-DT_a9mwb5qNZrpvciPnFW_G40]--></g></svg>