<?xml version="1.0" encoding="UTF-8" standalone="no"?><svg xmlns="http://www.w3.org/2000/svg" xmlns:xlink="http://www.w3.org/1999/xlink" contentStyleType="text/css" height="1119px" preserveAspectRatio="none" style="width:912px;height:1119px;background:#FFFFFF;" version="1.1" viewBox="0 0 912 1119" width="912px" zoomAndPan="magnify"><defs/><g><text fill="#000000" font-family="sans-serif" font-size="14" lengthAdjust="spacing" textLength="37" x="469.3333" y="555.5928">know</text><text fill="#000000" font-family="sans-serif" font-size="14" lengthAdjust="spacing" textLength="29" x="469.3333" y="571.8896">how</text><text fill="#000000" font-family="sans-serif" font-size="14" lengthAdjust="spacing" textLength="49" x="559.3333" y="203.7373">trouble</text><text fill="#000000" font-family="sans-serif" font-size="14" lengthAdjust="spacing" textLength="61" x="559.3333" y="220.0342">shooting</text><rect fill="#F1F1F1" height="36.2969" rx="12.5" ry="12.5" style="stroke:#181818;stroke-width:1.5;" width="60" x="670.3333" y="132.5938"/><text fill="#000000" font-family="sans-serif" font-size="14" lengthAdjust="spacing" textLength="40" x="680.3333" y="155.5889">CORS</text><path d="M620.3333,207.0391 L630.3333,207.0391 C645.3333,207.0391 645.3333,150.7422 660.3333,150.7422 L670.3333,150.7422 " fill="none" style="stroke:#181818;stroke-width:1.0;"/><rect fill="#F1F1F1" height="36.2969" rx="12.5" ry="12.5" style="stroke:#181818;stroke-width:1.5;" width="117" x="670.3333" y="188.8906"/><text fill="#000000" font-family="sans-serif" font-size="14" lengthAdjust="spacing" textLength="97" x="680.3333" y="211.8857">Proxy settings</text><rect fill="#F1F1F1" height="36.2969" rx="12.5" ry="12.5" style="stroke:#181818;stroke-width:1.5;" width="51" x="837.3333" y="20"/><text fill="#000000" font-family="sans-serif" font-size="14" lengthAdjust="spacing" textLength="31" x="847.3333" y="42.9951">npm</text><path d="M787.3333,207.0391 L797.3333,207.0391 C812.3333,207.0391 812.3333,38.1484 827.3333,38.1484 L837.3333,38.1484 " fill="none" style="stroke:#181818;stroke-width:1.0;"/><rect fill="#F1F1F1" height="36.2969" rx="12.5" ry="12.5" style="stroke:#181818;stroke-width:1.5;" width="37" x="837.3333" y="76.2969"/><text fill="#000000" font-family="sans-serif" font-size="14" lengthAdjust="spacing" textLength="17" x="847.3333" y="99.292">git</text><path d="M787.3333,207.0391 L797.3333,207.0391 C812.3333,207.0391 812.3333,94.4453 827.3333,94.4453 L837.3333,94.4453 " fill="none" style="stroke:#181818;stroke-width:1.0;"/><rect fill="#F1F1F1" height="36.2969" rx="12.5" ry="12.5" style="stroke:#181818;stroke-width:1.5;" width="63" x="837.3333" y="132.5938"/><text fill="#000000" font-family="sans-serif" font-size="14" lengthAdjust="spacing" textLength="43" x="847.3333" y="155.5889">gradle</text><path d="M787.3333,207.0391 L797.3333,207.0391 C812.3333,207.0391 812.3333,150.7422 827.3333,150.7422 L837.3333,150.7422 " fill="none" style="stroke:#181818;stroke-width:1.0;"/><rect fill="#F1F1F1" height="36.2969" rx="12.5" ry="12.5" style="stroke:#181818;stroke-width:1.5;" width="45" x="837.3333" y="188.8906"/><text fill="#000000" font-family="sans-serif" font-size="14" lengthAdjust="spacing" textLength="25" x="847.3333" y="211.8857">ssh</text><path d="M787.3333,207.0391 L797.3333,207.0391 C812.3333,207.0391 812.3333,207.0391 827.3333,207.0391 L837.3333,207.0391 " fill="none" style="stroke:#181818;stroke-width:1.0;"/><rect fill="#F1F1F1" height="36.2969" rx="12.5" ry="12.5" style="stroke:#181818;stroke-width:1.5;" width="45" x="837.3333" y="245.1875"/><text fill="#000000" font-family="sans-serif" font-size="14" lengthAdjust="spacing" textLength="25" x="847.3333" y="268.1826">curl</text><path d="M787.3333,207.0391 L797.3333,207.0391 C812.3333,207.0391 812.3333,263.3359 827.3333,263.3359 L837.3333,263.3359 " fill="none" style="stroke:#181818;stroke-width:1.0;"/><rect fill="#F1F1F1" height="36.2969" rx="12.5" ry="12.5" style="stroke:#181818;stroke-width:1.5;" width="49" x="837.3333" y="301.4844"/><text fill="#000000" font-family="sans-serif" font-size="14" lengthAdjust="spacing" textLength="29" x="847.3333" y="324.4795">yarn</text><path d="M787.3333,207.0391 L797.3333,207.0391 C812.3333,207.0391 812.3333,319.6328 827.3333,319.6328 L837.3333,319.6328 " fill="none" style="stroke:#181818;stroke-width:1.0;"/><rect fill="#F1F1F1" height="36.2969" rx="12.5" ry="12.5" style="stroke:#181818;stroke-width:1.5;" width="49" x="837.3333" y="357.7813"/><text fill="#000000" font-family="sans-serif" font-size="14" lengthAdjust="spacing" textLength="29" x="847.3333" y="380.7764">mvn</text><path d="M787.3333,207.0391 L797.3333,207.0391 C812.3333,207.0391 812.3333,375.9297 827.3333,375.9297 L837.3333,375.9297 " fill="none" style="stroke:#181818;stroke-width:1.0;"/><path d="M620.3333,207.0391 L630.3333,207.0391 C645.3333,207.0391 645.3333,207.0391 660.3333,207.0391 L670.3333,207.0391 " fill="none" style="stroke:#181818;stroke-width:1.0;"/><path d="M506.3333,558.8945 L516.3333,558.8945 C531.3333,558.8945 531.3333,207.0391 546.3333,207.0391 L556.3333,207.0391 " fill="none" style="stroke:#181818;stroke-width:1.0;"/><text fill="#000000" font-family="sans-serif" font-size="14" lengthAdjust="spacing" textLength="33" x="559.3333" y="577.8154">build</text><rect fill="#F1F1F1" height="36.2969" rx="12.5" ry="12.5" style="stroke:#181818;stroke-width:1.5;" width="72" x="642.3333" y="414.0781"/><text fill="#000000" font-family="sans-serif" font-size="14" lengthAdjust="spacing" textLength="52" x="652.3333" y="437.0732">Node.js</text><path d="M592.3333,572.9688 L602.3333,572.9688 C617.3333,572.9688 617.3333,432.2266 632.3333,432.2266 L642.3333,432.2266 " fill="none" style="stroke:#181818;stroke-width:1.0;"/><rect fill="#F1F1F1" height="36.2969" rx="12.5" ry="12.5" style="stroke:#181818;stroke-width:1.5;" width="63" x="642.3333" y="470.375"/><text fill="#000000" font-family="sans-serif" font-size="14" lengthAdjust="spacing" textLength="43" x="652.3333" y="493.3701">gradle</text><path d="M592.3333,572.9688 L602.3333,572.9688 C617.3333,572.9688 617.3333,488.5234 632.3333,488.5234 L642.3333,488.5234 " fill="none" style="stroke:#181818;stroke-width:1.0;"/><rect fill="#F1F1F1" height="36.2969" rx="12.5" ry="12.5" style="stroke:#181818;stroke-width:1.5;" width="51" x="642.3333" y="526.6719"/><text fill="#000000" font-family="sans-serif" font-size="14" lengthAdjust="spacing" textLength="31" x="652.3333" y="549.667">npm</text><path d="M592.3333,572.9688 L602.3333,572.9688 C617.3333,572.9688 617.3333,544.8203 632.3333,544.8203 L642.3333,544.8203 " fill="none" style="stroke:#181818;stroke-width:1.0;"/><rect fill="#F1F1F1" height="36.2969" rx="12.5" ry="12.5" style="stroke:#181818;stroke-width:1.5;" width="51" x="642.3333" y="582.9688"/><text fill="#000000" font-family="sans-serif" font-size="14" lengthAdjust="spacing" textLength="31" x="652.3333" y="605.9639">Yarn</text><path d="M592.3333,572.9688 L602.3333,572.9688 C617.3333,572.9688 617.3333,601.1172 632.3333,601.1172 L642.3333,601.1172 " fill="none" style="stroke:#181818;stroke-width:1.0;"/><rect fill="#F1F1F1" height="36.2969" rx="12.5" ry="12.5" style="stroke:#181818;stroke-width:1.5;" width="82" x="642.3333" y="639.2656"/><text fill="#000000" font-family="sans-serif" font-size="14" lengthAdjust="spacing" textLength="62" x="652.3333" y="662.2607">webpack</text><path d="M592.3333,572.9688 L602.3333,572.9688 C617.3333,572.9688 617.3333,657.4141 632.3333,657.4141 L642.3333,657.4141 " fill="none" style="stroke:#181818;stroke-width:1.0;"/><rect fill="#F1F1F1" height="36.2969" rx="12.5" ry="12.5" style="stroke:#181818;stroke-width:1.5;" width="50" x="642.3333" y="695.5625"/><text fill="#000000" font-family="sans-serif" font-size="14" lengthAdjust="spacing" textLength="30" x="652.3333" y="718.5576">DCE</text><path d="M592.3333,572.9688 L602.3333,572.9688 C617.3333,572.9688 617.3333,713.7109 632.3333,713.7109 L642.3333,713.7109 " fill="none" style="stroke:#181818;stroke-width:1.0;"/><path d="M506.3333,558.8945 L516.3333,558.8945 C531.3333,558.8945 531.3333,572.9688 546.3333,572.9688 L556.3333,572.9688 " fill="none" style="stroke:#181818;stroke-width:1.0;"/><text fill="#000000" font-family="sans-serif" font-size="14" lengthAdjust="spacing" textLength="27" x="559.3333" y="929.6709">test</text><rect fill="#F1F1F1" height="36.2969" rx="12.5" ry="12.5" style="stroke:#181818;stroke-width:1.5;" width="63" x="636.3333" y="751.8594"/><text fill="#000000" font-family="sans-serif" font-size="14" lengthAdjust="spacing" textLength="43" x="646.3333" y="774.8545">Karma</text><path d="M586.3333,924.8242 L596.3333,924.8242 C611.3333,924.8242 611.3333,770.0078 626.3333,770.0078 L636.3333,770.0078 " fill="none" style="stroke:#181818;stroke-width:1.0;"/><rect fill="#F1F1F1" height="36.2969" rx="12.5" ry="12.5" style="stroke:#181818;stroke-width:1.5;" width="66" x="636.3333" y="808.1563"/><text fill="#000000" font-family="sans-serif" font-size="14" lengthAdjust="spacing" text-decoration="wavy underline" textLength="46" x="646.3333" y="831.1514">Mocha</text><path d="M586.3333,924.8242 L596.3333,924.8242 C611.3333,924.8242 611.3333,826.3047 626.3333,826.3047 L636.3333,826.3047 " fill="none" style="stroke:#181818;stroke-width:1.0;"/><rect fill="#F1F1F1" height="36.2969" rx="12.5" ry="12.5" style="stroke:#181818;stroke-width:1.5;" width="139" x="636.3333" y="864.4531"/><text fill="#000000" font-family="sans-serif" font-size="14" lengthAdjust="spacing" textLength="119" x="646.3333" y="887.4482">ChromeHeadless</text><path d="M586.3333,924.8242 L596.3333,924.8242 C611.3333,924.8242 611.3333,882.6016 626.3333,882.6016 L636.3333,882.6016 " fill="none" style="stroke:#181818;stroke-width:1.0;"/><rect fill="#F1F1F1" height="36.2969" rx="12.5" ry="12.5" style="stroke:#181818;stroke-width:1.5;" width="55" x="636.3333" y="920.75"/><text fill="#000000" font-family="sans-serif" font-size="14" lengthAdjust="spacing" textLength="35" x="646.3333" y="943.7451">qunit</text><path d="M586.3333,924.8242 L596.3333,924.8242 C611.3333,924.8242 611.3333,938.8984 626.3333,938.8984 L636.3333,938.8984 " fill="none" style="stroke:#181818;stroke-width:1.0;"/><rect fill="#F1F1F1" height="36.2969" rx="12.5" ry="12.5" style="stroke:#181818;stroke-width:1.5;" width="94" x="636.3333" y="977.0469"/><text fill="#000000" font-family="sans-serif" font-size="14" lengthAdjust="spacing" textLength="74" x="646.3333" y="1000.042">PhantomJS</text><path d="M586.3333,924.8242 L596.3333,924.8242 C611.3333,924.8242 611.3333,995.1953 626.3333,995.1953 L636.3333,995.1953 " fill="none" style="stroke:#181818;stroke-width:1.0;"/><rect fill="#F1F1F1" height="36.2969" rx="12.5" ry="12.5" style="stroke:#181818;stroke-width:1.5;" width="84" x="636.3333" y="1033.3438"/><text fill="#000000" font-family="sans-serif" font-size="14" lengthAdjust="spacing" textLength="64" x="646.3333" y="1056.3389">coverage</text><rect fill="#F1F1F1" height="36.2969" rx="12.5" ry="12.5" style="stroke:#181818;stroke-width:1.5;" width="74" x="770.3333" y="1005.1953"/><text fill="#000000" font-family="sans-serif" font-size="14" lengthAdjust="spacing" textLength="54" x="780.3333" y="1028.1904">istanbul</text><path d="M720.3333,1051.4922 L730.3333,1051.4922 C745.3333,1051.4922 745.3333,1023.3438 760.3333,1023.3438 L770.3333,1023.3438 " fill="none" style="stroke:#181818;stroke-width:1.0;"/><rect fill="#F1F1F1" height="36.2969" rx="12.5" ry="12.5" style="stroke:#181818;stroke-width:1.5;" width="44" x="770.3333" y="1061.4922"/><text fill="#000000" font-family="sans-serif" font-size="14" lengthAdjust="spacing" textLength="24" x="780.3333" y="1084.4873">nyc</text><path d="M720.3333,1051.4922 L730.3333,1051.4922 C745.3333,1051.4922 745.3333,1079.6406 760.3333,1079.6406 L770.3333,1079.6406 " fill="none" style="stroke:#181818;stroke-width:1.0;"/><path d="M586.3333,924.8242 L596.3333,924.8242 C611.3333,924.8242 611.3333,1051.4922 626.3333,1051.4922 L636.3333,1051.4922 " fill="none" style="stroke:#181818;stroke-width:1.0;"/><path d="M506.3333,558.8945 L516.3333,558.8945 C531.3333,558.8945 531.3333,924.8242 546.3333,924.8242 L556.3333,924.8242 " fill="none" style="stroke:#181818;stroke-width:1.0;"/><text fill="#000000" font-family="sans-serif" font-size="14" lengthAdjust="spacing" textLength="44" x="369.3333" y="282.2568">basics</text><rect fill="#F1F1F1" height="36.2969" rx="12.5" ry="12.5" style="stroke:#181818;stroke-width:1.5;" width="58" x="261.3333" y="202.9648"/><text fill="#000000" font-family="sans-serif" font-size="14" lengthAdjust="spacing" textLength="38" x="271.3333" y="225.96">HTML</text><path d="M369.3333,277.4102 L359.3333,277.4102 C344.3333,277.4102 344.3333,221.1133 329.3333,221.1133 L319.3333,221.1133 " fill="none" style="stroke:#181818;stroke-width:1.0;"/><rect fill="#F1F1F1" height="36.2969" rx="12.5" ry="12.5" style="stroke:#181818;stroke-width:1.5;" width="48" x="271.3333" y="259.2617"/><text fill="#000000" font-family="sans-serif" font-size="14" lengthAdjust="spacing" textLength="28" x="281.3333" y="282.2568">CSS</text><rect fill="#F1F1F1" height="36.2969" rx="12.5" ry="12.5" style="stroke:#181818;stroke-width:1.5;" width="72" x="149.3333" y="259.2617"/><text fill="#000000" font-family="sans-serif" font-size="14" lengthAdjust="spacing" textLength="52" x="159.3333" y="282.2568">Flexbox</text><path d="M271.3333,277.4102 L261.3333,277.4102 C246.3333,277.4102 246.3333,277.4102 231.3333,277.4102 L221.3333,277.4102 " fill="none" style="stroke:#181818;stroke-width:1.0;"/><path d="M369.3333,277.4102 L359.3333,277.4102 C344.3333,277.4102 344.3333,277.4102 329.3333,277.4102 L319.3333,277.4102 " fill="none" style="stroke:#181818;stroke-width:1.0;"/><rect fill="#F1F1F1" height="36.2969" rx="12.5" ry="12.5" style="stroke:#181818;stroke-width:1.5;" width="96.3333" x="223" y="315.5586"/><path d="M237.5,329.0221 C236.8583,329.0221 236.3333,329.5471 236.3333,330.1888 L236.3333,336.6055 C236.3333,336.9321 236.0767,337.1888 235.75,337.1888 C235.4233,337.1888 235.1667,336.9321 235.1667,336.6055 L235.1667,334.8555 L234,334.8555 L234,337.1888 C234,337.8305 234.525,338.3555 235.1667,338.3555 L241,338.3555 C241.6417,338.3555 242.1667,337.8305 242.1667,337.1888 L242.1667,333.6888 L237.5,333.6888 L237.5,330.7721 C237.5,330.4455 237.7567,330.1888 238.0833,330.1888 C238.41,330.1888 238.6667,330.4455 238.6667,330.7721 L238.6667,332.5221 L243.3333,332.5221 L243.3333,330.1888 C243.3333,329.5471 242.8083,329.0221 242.1667,329.0221 L237.5,329.0221 " fill="#000000" style="stroke:;stroke-width:0.0;stroke-dasharray:;"/><text fill="#000000" font-family="sans-serif" font-size="14" lengthAdjust="spacing" textLength="65" x="244.3333" y="338.5537">JavaScript</text><path d="M369.3333,277.4102 L359.3333,277.4102 C344.3333,277.4102 344.3333,333.707 329.3333,333.707 L319.3333,333.707 " fill="none" style="stroke:#181818;stroke-width:1.0;"/><path d="M466.3333,558.8945 L456.3333,558.8945 C441.3333,558.8945 441.3333,277.4102 426.3333,277.4102 L416.3333,277.4102 " fill="none" style="stroke:#181818;stroke-width:1.0;"/><text fill="#000000" font-family="sans-serif" font-size="14" lengthAdjust="spacing" textLength="35" x="378.3333" y="591.8896">code</text><rect fill="#F1F1F1" height="36.2969" rx="12.5" ry="12.5" style="stroke:#181818;stroke-width:1.5;" width="69.3333" x="259" y="512.5977"/><text fill="#000000" font-family="sans-serif" font-size="14" lengthAdjust="spacing" textLength="38" x="269" y="535.5928">Kotlin</text><path d="M312.6667,526.0612 L311.5,529.5612 L308,529.5612 L310.9167,531.8945 L309.75,535.3945 L312.6667,533.0612 L315.5833,535.3945 L314.4167,531.8945 L317.3333,529.5612 L313.8333,529.5612 L312.6667,526.0612 " fill="#000000" style="stroke:;stroke-width:0.0;stroke-dasharray:;"/><rect fill="#F1F1F1" height="36.2969" rx="12.5" ry="12.5" style="stroke:#181818;stroke-width:1.5;" width="100" x="109" y="371.8555"/><text fill="#000000" font-family="sans-serif" font-size="14" lengthAdjust="spacing" textLength="80" x="119" y="394.8506">constructor</text><path d="M259,530.7461 L249,530.7461 C234,530.7461 234,390.0039 219,390.0039 L209,390.0039 " fill="none" style="stroke:#181818;stroke-width:1.0;"/><rect fill="#F1F1F1" height="36.2969" rx="12.5" ry="12.5" style="stroke:#181818;stroke-width:1.5;" width="199" x="10" y="428.1523"/><text fill="#000000" font-family="sans-serif" font-size="14" lengthAdjust="spacing" textLength="179" x="20" y="451.1475">default/named arguments</text><path d="M259,530.7461 L249,530.7461 C234,530.7461 234,446.3008 219,446.3008 L209,446.3008 " fill="none" style="stroke:#181818;stroke-width:1.0;"/><rect fill="#F1F1F1" height="36.2969" rx="12.5" ry="12.5" style="stroke:#181818;stroke-width:1.5;" width="156" x="53" y="484.4492"/><text fill="#000000" font-family="sans-serif" font-size="14" lengthAdjust="spacing" textLength="136" x="63" y="507.4443">extension functions</text><path d="M259,530.7461 L249,530.7461 C234,530.7461 234,502.5977 219,502.5977 L209,502.5977 " fill="none" style="stroke:#181818;stroke-width:1.0;"/><rect fill="#F1F1F1" height="36.2969" rx="12.5" ry="12.5" style="stroke:#181818;stroke-width:1.5;" width="144" x="65" y="540.7461"/><text fill="#000000" font-family="sans-serif" font-size="14" lengthAdjust="spacing" textLength="124" x="75" y="563.7412">companion object</text><path d="M259,530.7461 L249,530.7461 C234,530.7461 234,558.8945 219,558.8945 L209,558.8945 " fill="none" style="stroke:#181818;stroke-width:1.0;"/><rect fill="#F1F1F1" height="36.2969" rx="12.5" ry="12.5" style="stroke:#181818;stroke-width:1.5;" width="107" x="102" y="597.043"/><text fill="#000000" font-family="sans-serif" font-size="14" lengthAdjust="spacing" textLength="87" x="112" y="620.0381">mutable lists</text><path d="M259,530.7461 L249,530.7461 C234,530.7461 234,615.1914 219,615.1914 L209,615.1914 " fill="none" style="stroke:#181818;stroke-width:1.0;"/><rect fill="#F1F1F1" height="36.2969" rx="12.5" ry="12.5" style="stroke:#181818;stroke-width:1.5;" width="40" x="169" y="653.3398"/><text fill="#000000" font-family="sans-serif" font-size="14" lengthAdjust="spacing" textLength="20" x="179" y="676.335">init</text><path d="M259,530.7461 L249,530.7461 C234,530.7461 234,671.4883 219,671.4883 L209,671.4883 " fill="none" style="stroke:#181818;stroke-width:1.0;"/><path d="M378.3333,587.043 L368.3333,587.043 C353.3333,587.043 353.3333,530.7461 338.3333,530.7461 L328.3333,530.7461 " fill="none" style="stroke:#181818;stroke-width:1.0;"/><rect fill="#F1F1F1" height="36.2969" rx="12.5" ry="12.5" style="stroke:#181818;stroke-width:1.5;" width="70" x="258.3333" y="568.8945"/><text fill="#000000" font-family="sans-serif" font-size="14" lengthAdjust="spacing" textLength="50" x="268.3333" y="591.8896">KVision</text><path d="M378.3333,587.043 L368.3333,587.043 C353.3333,587.043 353.3333,587.043 338.3333,587.043 L328.3333,587.043 " fill="none" style="stroke:#181818;stroke-width:1.0;"/><rect fill="#F1F1F1" height="36.2969" rx="12.5" ry="12.5" style="stroke:#181818;stroke-width:1.5;" width="85" x="243.3333" y="709.6367"/><text fill="#000000" font-family="sans-serif" font-size="14" lengthAdjust="spacing" textLength="65" x="253.3333" y="732.6318">Tabulator</text><path d="M378.3333,587.043 L368.3333,587.043 C353.3333,587.043 353.3333,727.7852 338.3333,727.7852 L328.3333,727.7852 " fill="none" style="stroke:#181818;stroke-width:1.0;"/><rect fill="#F1F1F1" height="36.2969" rx="12.5" ry="12.5" style="stroke:#181818;stroke-width:1.5;" width="149" x="179.3333" y="765.9336"/><text fill="#000000" font-family="sans-serif" font-size="14" lengthAdjust="spacing" textLength="129" x="189.3333" y="788.9287">kotlinx.serialization</text><path d="M378.3333,587.043 L368.3333,587.043 C353.3333,587.043 353.3333,784.082 338.3333,784.082 L328.3333,784.082 " fill="none" style="stroke:#181818;stroke-width:1.0;"/><path d="M466.3333,558.8945 L456.3333,558.8945 C441.3333,558.8945 441.3333,587.043 426.3333,587.043 L416.3333,587.043 " fill="none" style="stroke:#181818;stroke-width:1.0;"/><path d="M362.0833,863.8424 C360.695,863.8424 359.7733,865.8141 360.695,866.7591 C360.59,866.8408 360.4617,866.9224 360.3683,867.0158 L358.84,866.2458 A0.5833,0.5833 0 0 0 358.4433,866.1758 A0.5833,0.5833 0 0 0 358.3383,867.2724 L359.6917,867.9258 C359.5867,868.1124 359.47,868.3108 359.4,868.5091 L358.595,868.5091 A0.5833,0.5833 0 0 0 358.49,868.5091 A0.5833,0.5833 0 1 0 358.595,869.6758 L359.1783,869.6758 C359.1783,869.9441 359.2017,870.2008 359.2483,870.4458 L358.3383,870.9241 A0.5833,0.5833 0 1 0 358.8517,871.9508 L359.6217,871.5541 C359.9133,872.0908 360.345,872.5458 360.8233,872.8258 C361.2317,872.6041 361.5117,872.3124 361.5117,871.9858 L361.5117,870.3058 A0.5833,0.5833 0 0 0 361.5117,870.2008 L361.5117,869.2558 A0.5833,0.5833 0 0 0 361.5117,868.9991 C361.57,868.7308 361.815,868.5208 362.095,868.5208 C362.4217,868.5208 362.6783,868.7774 362.6783,869.1041 L362.6783,870.1308 A0.5833,0.5833 0 0 0 362.6783,870.2358 L362.6783,870.3058 A0.5833,0.5833 0 0 0 362.6783,870.4108 L362.6783,871.9741 C362.6783,872.2891 362.9583,872.5924 363.3667,872.8141 C363.845,872.5224 364.2883,872.0791 364.5683,871.5424 L365.3383,871.9391 A0.5833,0.5833 0 1 0 365.8517,870.9124 L364.9417,870.4341 C364.9883,870.1891 365.0117,869.9324 365.0117,869.6641 L365.595,869.6641 A0.5833,0.5833 0 1 0 365.595,868.4974 L364.79,868.4974 C364.72,868.2991 364.6033,868.1008 364.4983,867.9141 L365.8517,867.2608 A0.5833,0.5833 0 0 0 365.49,866.1641 A0.5833,0.5833 0 0 0 365.3383,866.2341 L363.81,867.0041 C363.705,866.9108 363.5883,866.8291 363.4833,866.7474 C364.3933,865.7791 363.4833,863.8308 362.095,863.8308 " fill="#000000" style="stroke:;stroke-width:0.0;stroke-dasharray:;"/><text fill="#000000" font-family="sans-serif" font-size="14" lengthAdjust="spacing" textLength="45" x="368.3333" y="873.374">debug</text><rect fill="#F1F1F1" height="36.2969" rx="12.5" ry="12.5" style="stroke:#181818;stroke-width:1.5;" width="75" x="232" y="822.2305"/><text fill="#000000" font-family="sans-serif" font-size="14" lengthAdjust="spacing" textLength="55" x="242" y="845.2256">Chrome</text><rect fill="#F1F1F1" height="36.2969" rx="12.5" ry="12.5" style="stroke:#181818;stroke-width:1.5;" width="70" x="112" y="822.2305"/><text fill="#000000" font-family="sans-serif" font-size="14" lengthAdjust="spacing" textLength="50" x="122" y="845.2256">Plugins</text><path d="M232,840.3789 L222,840.3789 C207,840.3789 207,840.3789 192,840.3789 L182,840.3789 " fill="none" style="stroke:#181818;stroke-width:1.0;"/><path d="M357,868.5273 L347,868.5273 C332,868.5273 332,840.3789 317,840.3789 L307,840.3789 " fill="none" style="stroke:#181818;stroke-width:1.0;"/><rect fill="#F1F1F1" height="36.2969" rx="12.5" ry="12.5" style="stroke:#181818;stroke-width:1.5;" width="85" x="222" y="878.5273"/><text fill="#000000" font-family="sans-serif" font-size="14" lengthAdjust="spacing" textLength="65" x="232" y="901.5225">JavaScript</text><path d="M357,868.5273 L347,868.5273 C332,868.5273 332,896.6758 317,896.6758 L307,896.6758 " fill="none" style="stroke:#181818;stroke-width:1.0;"/><path d="M466.3333,558.8945 L456.3333,558.8945 C441.3333,558.8945 441.3333,868.5273 426.3333,868.5273 L416.3333,868.5273 " fill="none" style="stroke:#181818;stroke-width:1.0;"/><!--SRC=[RLBRJY9147sVhwWdeo6mmXfZY25cmKiGLY9eiec9gUafXzRkQhOl2Fl0jszFDsHzs1SuKvTJfwhFbVDelPPSQLmLhLVuOFFvmalpMRJRhr2Yay95s8QxnNIIm70-R_xRSADeKvfD2buUEM7boW_6kCPvWeb0c8fImRtnId8iY_C6kLyOTju6uOtDWOhUC2Z_ZL5J1MZhe8czoqdQU68d3SDROE4ZS0SQlK9k4gPy9-5pL0UFfI9GqXqO94kVjJpBXYZX1PP1uLu2V2ILcuuZAr79FzZCALhnBjwQ4FbUs2sDyPBh66t5jMaZ5EfKDnW-FCx_4vvPizc28z-qkQQW1RpI6THHKmOMAqKPExVCG0IhCjgYvOpqEYigWrHL6lSp7hdpdfY_q1ncmAzzAtnIkKBnaV1eU5tanSWb1N2FLcD2kztKY2NkTkbhkBH6qnqrl2uF-HquouRP4jaRFSvx2xCcY_L-YtXvv7ZT_SPRaHnnULI6Ub1H_CrsIlJvXMOgr3A_AtmnqXL5U-ujMinKdFWqdK0SbUpGxVHEUxrEz-nu4GX69E3q7BeN_TvPl_iTRgSBQF8dnV7jR0BE12i8ggZDoZ8qxtDIDAFWCR2Nclhmi28UZ-uF0RZcjRI66oiMu-VfluBpi_OFwM5EDag1vsanolwD7T7syQtxyBIuQLyK4-GwnBFqWRWOciXhjp4t_mi0]--></g></svg>