<?xml version="1.0" encoding="UTF-8" standalone="no"?><svg xmlns="http://www.w3.org/2000/svg" xmlns:xlink="http://www.w3.org/1999/xlink" contentStyleType="text/css" height="503px" preserveAspectRatio="none" style="width:1896px;height:503px;background:#FFFFFF;" version="1.1" viewBox="0 0 1896 503" width="1896px" zoomAndPan="magnify"><defs/><g><!--cluster FE--><g id="cluster_FE"><rect fill="none" height="163" rx="2.5" ry="2.5" style="stroke:#181818;stroke-width:1.0;" width="151" x="100" y="54.12"/><rect fill="none" height="10" style="stroke:#181818;stroke-width:1.0;" width="15" x="231" y="59.12"/><rect fill="none" height="2" style="stroke:#181818;stroke-width:1.0;" width="4" x="229" y="61.12"/><rect fill="none" height="2" style="stroke:#181818;stroke-width:1.0;" width="4" x="229" y="65.12"/><text fill="#000000" font-family="sans-serif" font-size="14" font-style="italic" lengthAdjust="spacing" textLength="106" x="122.5" y="80.1151">«RO FrontEnd»</text><text fill="#000000" font-family="sans-serif" font-size="14" font-weight="bold" lengthAdjust="spacing" textLength="48" x="151.5" y="96.412">kroviz</text></g><!--entity EL--><g id="elem_EL"><path d="M143,158.12 C143,148.12 185,148.12 185,148.12 C185,148.12 227,148.12 227,158.12 L227,183.4169 C227,193.4169 185,193.4169 185,193.4169 C185,193.4169 143,193.4169 143,183.4169 L143,158.12 " fill="#F1F1F1" style="stroke:#181818;stroke-width:0.5;"/><path d="M143,158.12 C143,168.12 185,168.12 185,168.12 C185,168.12 227,168.12 227,158.12 " fill="none" style="stroke:#181818;stroke-width:0.5;"/><text fill="#000000" font-family="sans-serif" font-size="14" lengthAdjust="spacing" textLength="64" x="153" y="185.1151">EventLog</text></g><!--entity RE--><g id="elem_RE"><path d="M421.5,134.62 L421.5,206.5106 A2.5,2.5 0 0 0 424,209.0106 L1606,209.0106 A2.5,2.5 0 0 0 1608.5,206.5106 L1608.5,142.12 L1598.5,132.12 L424,132.12 A2.5,2.5 0 0 0 421.5,134.62 " fill="#F1F1F1" style="stroke:#181818;stroke-width:0.5;"/><path d="M1598.5,132.12 L1598.5,139.62 A2.5,2.5 0 0 0 1601,142.12 L1608.5,142.12 " fill="#F1F1F1" style="stroke:#181818;stroke-width:0.5;"/><text fill="#000000" font-family="sans-serif" font-size="14" font-weight="bold" lengthAdjust="spacing" textLength="21" x="436.5" y="173.412">url</text><text fill="#000000" font-family="sans-serif" font-size="14" font-weight="bold" lengthAdjust="spacing" textLength="113" x="467.5" y="173.412">[request data]</text><text fill="#000000" font-family="sans-serif" font-size="14" font-weight="bold" lengthAdjust="spacing" textLength="40" x="590.5" y="173.412">state</text><text fill="#000000" font-family="sans-serif" font-size="14" font-weight="bold" lengthAdjust="spacing" textLength="75" x="640.5" y="173.412">response</text><text fill="#000000" font-family="sans-serif" font-size="14" lengthAdjust="spacing" textLength="4" x="720.5" y="173.412"> </text><text fill="#000000" font-family="sans-serif" font-size="14" lengthAdjust="spacing" textLength="4" x="720.5" y="189.7089"> </text><text fill="#000000" font-family="sans-serif" font-size="14" lengthAdjust="spacing" textLength="194" x="728.5" y="173.412">http://localhost:8080/restful</text><text fill="#000000" font-family="sans-serif" font-size="14" lengthAdjust="spacing" textLength="46" x="930.5" y="173.412">uid/pw</text><text fill="#000000" font-family="sans-serif" font-size="14" lengthAdjust="spacing" textLength="66" x="984.5" y="173.412">SUCCESS</text><text fill="#000000" font-family="sans-serif" font-size="14" lengthAdjust="spacing" textLength="66" x="1058.5" y="173.412">{jsonStr}</text><text fill="#000000" font-family="sans-serif" font-size="14" lengthAdjust="spacing" textLength="4" x="1128.5" y="173.412"> </text><text fill="#000000" font-family="sans-serif" font-size="14" lengthAdjust="spacing" textLength="4" x="1128.5" y="189.7089"> </text><text fill="#000000" font-family="sans-serif" font-size="14" lengthAdjust="spacing" textLength="269" x="1136.5" y="173.412">http://localhost:8080/restful/menubars</text><text fill="#000000" font-family="sans-serif" font-size="14" lengthAdjust="spacing" textLength="22" x="1413.5" y="173.412">n/a</text><text fill="#000000" font-family="sans-serif" font-size="14" lengthAdjust="spacing" textLength="50" x="1443.5" y="173.412">ERROR</text><text fill="#000000" font-family="sans-serif" font-size="14" lengthAdjust="spacing" textLength="87" x="1501.5" y="173.412">{another js}</text><line style="stroke:#000000;stroke-width:0.5;" x1="431.5" x2="1592.5" y1="160.4169" y2="160.4169"/><line style="stroke:#000000;stroke-width:0.5;" x1="431.5" x2="1592.5" y1="193.0106" y2="193.0106"/><line style="stroke:#000000;stroke-width:0.5;" x1="431.5" x2="431.5" y1="160.4169" y2="193.0106"/><line style="stroke:#000000;stroke-width:0.5;" x1="462.5" x2="462.5" y1="160.4169" y2="193.0106"/><line style="stroke:#000000;stroke-width:0.5;" x1="585.5" x2="585.5" y1="160.4169" y2="193.0106"/><line style="stroke:#000000;stroke-width:0.5;" x1="635.5" x2="635.5" y1="160.4169" y2="193.0106"/><line style="stroke:#000000;stroke-width:0.5;" x1="720.5" x2="720.5" y1="160.4169" y2="193.0106"/><line style="stroke:#000000;stroke-width:0.5;" x1="724.5" x2="724.5" y1="160.4169" y2="193.0106"/><line style="stroke:#000000;stroke-width:0.5;" x1="926.5" x2="926.5" y1="160.4169" y2="193.0106"/><line style="stroke:#000000;stroke-width:0.5;" x1="980.5" x2="980.5" y1="160.4169" y2="193.0106"/><line style="stroke:#000000;stroke-width:0.5;" x1="1054.5" x2="1054.5" y1="160.4169" y2="193.0106"/><line style="stroke:#000000;stroke-width:0.5;" x1="1128.5" x2="1128.5" y1="160.4169" y2="193.0106"/><line style="stroke:#000000;stroke-width:0.5;" x1="1132.5" x2="1132.5" y1="160.4169" y2="193.0106"/><line style="stroke:#000000;stroke-width:0.5;" x1="1409.5" x2="1409.5" y1="160.4169" y2="193.0106"/><line style="stroke:#000000;stroke-width:0.5;" x1="1439.5" x2="1439.5" y1="160.4169" y2="193.0106"/><line style="stroke:#000000;stroke-width:0.5;" x1="1497.5" x2="1497.5" y1="160.4169" y2="193.0106"/><line style="stroke:#000000;stroke-width:0.5;" x1="1592.5" x2="1592.5" y1="160.4169" y2="193.0106"/><line style="stroke:#181818;stroke-width:1.0;stroke-dasharray:1.0,2.0;" x1="422.5" x2="934" y1="150.2684" y2="150.2684"/><text fill="#000000" font-family="sans-serif" font-size="14" lengthAdjust="spacing" textLength="162" x="934" y="154.6151">(Sample) Replay Events</text><line style="stroke:#181818;stroke-width:1.0;stroke-dasharray:1.0,2.0;" x1="1096" x2="1607.5" y1="150.2684" y2="150.2684"/></g><!--entity DRT--><g id="elem_DRT"><rect fill="#F1F1F1" height="78.8906" rx="2.5" ry="2.5" style="stroke:#181818;stroke-width:0.5;" width="123" x="1681.5" y="131.12"/><rect fill="#F1F1F1" height="10" style="stroke:#181818;stroke-width:0.5;" width="15" x="1784.5" y="136.12"/><rect fill="#F1F1F1" height="2" style="stroke:#181818;stroke-width:0.5;" width="4" x="1782.5" y="138.12"/><rect fill="#F1F1F1" height="2" style="stroke:#181818;stroke-width:0.5;" width="4" x="1782.5" y="142.12"/><text fill="#000000" font-family="sans-serif" font-size="14" lengthAdjust="spacing" textLength="42" x="1696.5" y="164.1151">Demo</text><text fill="#000000" font-family="sans-serif" font-size="14" lengthAdjust="spacing" textLength="79" x="1696.5" y="180.412">Regression</text><text fill="#000000" font-family="sans-serif" font-size="14" lengthAdjust="spacing" textLength="31" x="1696.5" y="196.7089">Test</text></g><!--entity  --><g id="elem_ "><ellipse cx="19" cy="149.12" fill="#F1F1F1" rx="8" ry="8" style="stroke:#181818;stroke-width:0.5;"/><path d="M19,157.12 L19,184.12 M6,165.12 L32,165.12 M19,184.12 L6,199.12 M19,184.12 L32,199.12 " fill="none" style="stroke:#181818;stroke-width:0.5;"/></g><g id="elem_GMN7"><path d="M110,296.12 L110,351.5184 A0,0 0 0 0 110,351.5184 L260,351.5184 A0,0 0 0 0 260,351.5184 L260,306.12 L250,296.12 L189,296.12 L185,193.58 L181,296.12 L110,296.12 A0,0 0 0 0 110,296.12 " fill="#FEFFDD" style="stroke:#181818;stroke-width:0.5;"/><path d="M250,296.12 L250,306.12 L260,306.12 L250,296.12 " fill="#FEFFDD" style="stroke:#181818;stroke-width:0.5;"/><text fill="#000000" font-family="sans-serif" font-size="13" lengthAdjust="spacing" textLength="67" x="116" y="313.1869">Req./Resp.</text><text fill="#000000" font-family="sans-serif" font-size="13" lengthAdjust="spacing" textLength="78" x="116" y="328.3197">as well as UI</text><text fill="#000000" font-family="sans-serif" font-size="13" lengthAdjust="spacing" textLength="129" x="116" y="343.4525">events are recorded</text></g><!--entity APP--><g id="elem_APP"><rect fill="#F1F1F1" height="62.5938" rx="2.5" ry="2.5" style="stroke:#181818;stroke-width:0.5;" width="111" x="275.5" y="139.12"/><rect fill="#F1F1F1" height="10" style="stroke:#181818;stroke-width:0.5;" width="15" x="366.5" y="144.12"/><rect fill="#F1F1F1" height="2" style="stroke:#181818;stroke-width:0.5;" width="4" x="364.5" y="146.12"/><rect fill="#F1F1F1" height="2" style="stroke:#181818;stroke-width:0.5;" width="4" x="364.5" y="150.12"/><text fill="#000000" font-family="sans-serif" font-size="14" font-style="italic" lengthAdjust="spacing" textLength="71" x="290.5" y="172.1151">«RO App»</text><text fill="#000000" font-family="sans-serif" font-size="14" lengthAdjust="spacing" textLength="42" x="305" y="188.412">Demo</text></g><!--entity FW--><g id="elem_FW"><rect fill="#F1F1F1" height="62.5938" rx="2.5" ry="2.5" style="stroke:#181818;stroke-width:0.5;" width="185" x="378.5" y="435.12"/><rect fill="#F1F1F1" height="10" style="stroke:#181818;stroke-width:0.5;" width="15" x="543.5" y="440.12"/><rect fill="#F1F1F1" height="2" style="stroke:#181818;stroke-width:0.5;" width="4" x="541.5" y="442.12"/><rect fill="#F1F1F1" height="2" style="stroke:#181818;stroke-width:0.5;" width="4" x="541.5" y="446.12"/><text fill="#000000" font-family="sans-serif" font-size="14" font-style="italic" lengthAdjust="spacing" textLength="145" x="393.5" y="468.1151">«Naked Objects FW»</text><text fill="#000000" font-family="sans-serif" font-size="14" lengthAdjust="spacing" textLength="78" x="427" y="484.412">Apache Isis</text></g><g id="elem_GMN21"><path d="M1596.5,273.12 L1596.5,373.9169 A0,0 0 0 0 1596.5,373.9169 L1889.5,373.9169 A0,0 0 0 0 1889.5,373.9169 L1889.5,283.12 L1879.5,273.12 L1747,273.12 L1743,210.51 L1739,273.12 L1596.5,273.12 A0,0 0 0 0 1596.5,273.12 " fill="#FEFFDD" style="stroke:#181818;stroke-width:0.5;"/><path d="M1879.5,273.12 L1879.5,283.12 L1889.5,283.12 L1879.5,273.12 " fill="#FEFFDD" style="stroke:#181818;stroke-width:0.5;"/><text fill="#000000" font-family="sans-serif" font-size="13" lengthAdjust="spacing" textLength="272" x="1602.5" y="290.1869">Event Log Entries are replayed during test.</text><text fill="#000000" font-family="sans-serif" font-size="13" lengthAdjust="spacing" textLength="270" x="1602.5" y="305.3197">Expected/actual responses are compared.</text><text fill="#000000" font-family="sans-serif" font-size="13" lengthAdjust="spacing" textLength="4" x="1602.5" y="320.4525"> </text><text fill="#000000" font-family="sans-serif" font-size="13" lengthAdjust="spacing" textLength="99" x="1602.5" y="335.5853">Events in state:</text><ellipse cx="1608" cy="346.2841" fill="#000000" rx="2.5" ry="2.5" style="stroke:#000000;stroke-width:0.0;"/><text fill="#000000" font-family="sans-serif" font-size="13" lengthAdjust="spacing" textLength="215" x="1614.5" y="350.7181">SUCCESS -&gt; expected == actual</text><ellipse cx="1608" cy="361.4169" fill="#000000" rx="2.5" ry="2.5" style="stroke:#000000;stroke-width:0.0;"/><text fill="#000000" font-family="sans-serif" font-size="13" lengthAdjust="spacing" textLength="188" x="1614.5" y="365.851">ERROR -&gt; expected != actual</text></g><g id="elem_GMN24"><path d="M578.5,303.62 L578.5,343.8856 A0,0 0 0 0 578.5,343.8856 L595.59,343.8856 L503.72,434.66 L603.59,343.8856 L661.5,343.8856 A0,0 0 0 0 661.5,343.8856 L661.5,313.62 L651.5,303.62 L578.5,303.62 A0,0 0 0 0 578.5,303.62 " fill="#FEFFDD" style="stroke:#181818;stroke-width:0.5;"/><path d="M651.5,303.62 L651.5,313.62 L661.5,313.62 L651.5,303.62 " fill="#FEFFDD" style="stroke:#181818;stroke-width:0.5;"/><text fill="#000000" font-family="sans-serif" font-size="13" lengthAdjust="spacing" textLength="62" x="584.5" y="320.6869">additional</text><text fill="#000000" font-family="sans-serif" font-size="13" lengthAdjust="spacing" textLength="59" x="584.5" y="335.8197">coverage</text></g><g id="elem_NREG"><path d="M398.5,303.62 L398.5,343.8856 L543.5,343.8856 L543.5,313.62 L533.5,303.62 L398.5,303.62 " fill="#FEFFDD" style="stroke:#181818;stroke-width:0.5;"/><path d="M533.5,303.62 L533.5,313.62 L543.5,313.62 L533.5,303.62 " fill="#FEFFDD" style="stroke:#181818;stroke-width:1.0;"/><text fill="#000000" font-family="sans-serif" font-size="13" lengthAdjust="spacing" textLength="124" x="404.5" y="320.6869">Regressions can be</text><text fill="#000000" font-family="sans-serif" font-size="13" lengthAdjust="spacing" textLength="102" x="404.5" y="335.8197">caused in either</text></g><!--link   to FE--><g id="link_ _FE"><path d="M32.91,170.62 C44.64,170.62 61.8725,170.62 76.8713,170.62 C84.3706,170.62 91.3116,170.62 96.727,170.62 C97.404,170.62 98.0571,170.62 98.6844,170.62 C98.9981,170.62 99.3054,170.62 99.606,170.62 C99.6811,170.62 99.7558,170.62 99.8302,170.62 " fill="none" id=" -to-FE" style="stroke:#181818;stroke-width:1.0;"/><polygon fill="#181818" points="99.8302,170.62,90.8302,166.62,94.8302,170.62,90.8302,174.62,99.8302,170.62" style="stroke:#181818;stroke-width:1.0;"/><text fill="#000000" font-family="sans-serif" font-size="13" lengthAdjust="spacing" textLength="39" x="50.57" y="163.6869">action</text></g><!--link FE to EL--><g id="link_FE_EL"><path d="M108.6,170.62 C117.82,170.62 127.03,170.62 136.24,170.62 " fill="none" id="FE-to-EL" style="stroke:#181818;stroke-width:1.0;"/><polygon fill="#181818" points="141.11,170.62,132.11,166.62,136.11,170.62,132.11,174.62,141.11,170.62" style="stroke:#181818;stroke-width:1.0;"/></g><!--link FE to APP--><g id="link_FE_APP"><path d="M122.2261,54.0481 C122.3614,53.9017 122.4975,53.7559 122.6345,53.6107 C122.9084,53.3203 123.1857,53.0324 123.4664,52.7471 C124.5891,51.6059 125.7663,50.5056 127,49.45 C166.18,15.94 197.07,26.04 243,49.45 C277.2,66.88 301.23,104.52 315.43,133.25 " fill="none" id="FE-APP" style="stroke:#181818;stroke-width:1.0;"/><polygon fill="#181818" points="122.2261,54.0481,131.2715,50.1518,125.6191,50.3755,125.3953,44.7231,122.2261,54.0481" style="stroke:#181818;stroke-width:1.0;"/><polygon fill="#181818" points="317.49,137.5,317.1812,127.656,315.3171,132.9969,309.9762,131.1327,317.49,137.5" style="stroke:#181818;stroke-width:1.0;"/><text fill="#000000" font-family="sans-serif" font-size="13" lengthAdjust="spacing" textLength="120" x="132" y="26.1869">request / response</text></g><!--link APP to FW--><g id="link_APP_FW"><path d="M326.36,202.33 C321.62,244.06 318.7,319.69 349,374.12 C362,397.46 383.7,416.62 405.23,431.27 " fill="none" id="APP-to-FW" style="stroke:#181818;stroke-width:1.0;"/><polygon fill="#181818" points="409.14,433.86,403.8703,425.5395,404.9797,431.0865,399.4327,432.1959,409.14,433.86" style="stroke:#181818;stroke-width:1.0;"/><text fill="#000000" font-family="sans-serif" font-size="13" lengthAdjust="spacing" textLength="30" x="350" y="328.1869">uses</text></g><!--link EL to RE--><g id="link_EL_RE"><path d="M189.92,147.62 C199.19,111.22 223.23,42.46 275.5,23.12 C321.77,6 337.49,17.45 386.5,23.12 C560.21,43.23 755.63,93.62 881.78,129.9 " fill="none" id="EL-to-RE" style="stroke:#181818;stroke-width:1.0;"/><polygon fill="#181818" points="886.28,131.2,878.7376,124.8666,881.4751,129.817,876.5247,132.5545,886.28,131.2" style="stroke:#181818;stroke-width:1.0;"/><text fill="#000000" font-family="sans-serif" font-size="13" lengthAdjust="spacing" textLength="41" x="822.2673" y="121.0054">export</text></g><!--reverse link RE to DRT--><g id="link_RE_DRT"><path d="M1615.02,170.62 C1639.94,170.62 1662.26,170.62 1681.02,170.62 " fill="none" id="RE-backto-DRT" style="stroke:#181818;stroke-width:1.0;"/><polygon fill="#181818" points="1610.14,170.62,1619.14,174.62,1615.14,170.62,1619.14,166.62,1610.14,170.62" style="stroke:#181818;stroke-width:1.0;"/><text fill="#000000" font-family="sans-serif" font-size="13" lengthAdjust="spacing" textLength="36" x="1627" y="163.6869">reads</text></g><!--link DRT to APP--><g id="link_DRT_APP"><path d="M1717.67,130.79 C1696.94,102.19 1664.76,65.91 1626,49.45 C1563.56,22.95 464.16,16.26 405,49.45 C373.49,67.13 353.8,104.29 342.73,132.82 " fill="none" id="DRT-to-APP" style="stroke:#181818;stroke-width:1.0;"/><polygon fill="#181818" points="341.03,137.35,347.9354,130.3275,342.7856,132.6684,340.4448,127.5185,341.03,137.35" style="stroke:#181818;stroke-width:1.0;"/><text fill="#000000" font-family="sans-serif" font-size="13" lengthAdjust="spacing" textLength="39" x="1014.5" y="26.1869">replay</text><text fill="#000000" font-family="sans-serif" font-size="13" lengthAdjust="spacing" textLength="48" x="1661.4997" y="120.0379">invokes</text><text fill="#000000" font-family="sans-serif" font-size="13" lengthAdjust="spacing" textLength="42" x="296.2359" y="128.1429">RO API</text></g><!--link APP to NREG--><g id="link_APP_NREG"><path d="M359.67,202.54 C387.67,232.74 429.41,277.76 453.03,303.23 " fill="none" id="APP-NREG" style="stroke:#181818;stroke-width:1.0;stroke-dasharray:7.0,7.0;"/></g><!--link NREG to FW--><g id="link_NREG_FW"><path d="M471,343.93 C471,367.31 471,406.99 471,434.66 " fill="none" id="NREG-FW" style="stroke:#181818;stroke-width:1.0;stroke-dasharray:7.0,7.0;"/></g><!--SRC=[ZLF1Rjf04BtlLqnzQYlLpZ52W8GIKo6XW9P479eU5ky01hExsLsJj27_dXcR06qlvM3Fxinxdddpw407llLXcDDR5R6qHeZ2xfmrQ29ilTsNlw7RbHCOUcjYRdI_3oemu5K0_RIAQg42GhudnDYkE9kFcnmL4JSTteGmDY8iR8ns1tR9bnAVqanYSAaWo3DM5KCVHWAPAO3o21uBwpLgWKO3KrnsTuixs_OsSAvjQp2T2lfgbpvB8StayQd6426ZA10k_C6G39mgrWYZK8Q4gExK5ZLC5Xiig87X_3ZhN30PopGdoZfW4494kyAuHd_KOLbM23Bd-gIvI5FuF5CxL-4NaEWgzQkLAAHfap_qeFOLltvyDCbQ_kIR41MfHS57qt1uD0TOn-WwMLRPGbLh6sBd-khwAgEQkAo92UfIP-wPWjd3pKq-cr7qkWdMpA9_-m-6R8UcNYWV26SoHSzSoeba5aNQywoRG4HD- -sG5r8sstWq4bT45yX8TBWdueGbkPNtP89yJ28c-EAifskPaugIbyNfPbTA1y5nKfgztM98g9pNEnqbftsoal_OYVaRTO4Tc9leI_nm40DegxhsfLb1f9PIaRyuMZ7gZ3nVg-gaSulXgUYjKz6I1YXDkvEE-7eIb_o0HnhezQ1bedmhscNsqobxjd4pGBIEkoU3AQrB_lTHJM7twDKA_ouc6Uza_bsS5GvGA0CB58KYKshk4alUqndAgf4J6o0_-32SlmC0]--></g></svg>